<svg width="146" height="73" viewBox="0 0 146 73" fill="none" xmlns="http://www.w3.org/2000/svg">
<path d="M69.6391 15.0707C71.1027 16.5319 72.5312 17.9582 74.0154 19.4399C73.7631 19.7674 73.5263 20.1073 73.2565 20.4189C71.1082 22.899 68.5175 24.6368 65.1961 25.128C62.0331 25.5958 59.1439 24.8704 56.5698 23.0208C53.6596 20.9296 51.8554 18.1 51.3925 14.5405C50.4089 6.97582 56.3436 0.319195 63.9958 0.715577C67.7466 0.909774 70.734 2.63109 73.3302 5.23453C77.2742 9.19036 81.2517 13.1137 85.2669 16.9972C86.8955 18.5727 88.9064 19.0769 91.0552 18.2218C93.217 17.3611 94.469 15.6957 94.7754 13.3688C94.789 13.2665 94.7975 13.1632 94.8135 13.0124H101.442C101.427 14.5939 101.168 16.125 100.545 17.5848C98.8046 21.6574 95.7786 24.2164 91.3917 25.0142C87.5692 25.7091 84.028 24.9014 81.1213 22.2839C78.2874 19.7324 75.6189 16.9982 72.8984 14.3229C71.1694 12.623 69.5021 10.8613 67.7647 9.17039C65.2919 6.76414 61.4241 6.84053 59.3536 9.2942C57.4932 11.4988 57.6507 14.9094 59.7052 16.9238C61.8625 19.0385 65.1685 19.0974 67.5033 17.0476C68.2151 16.4231 68.8942 15.7616 69.6401 15.0697L69.6391 15.0707Z" fill="black"/>
<path d="M136.026 53.3701C140.411 53.4904 144.087 55.9626 145.358 59.7487C147.325 65.6115 143.454 71.4994 137.273 72.0825C134.449 72.349 131.823 71.8573 129.599 70.0421C126.731 67.7008 125.7 64.6031 126.363 61.0222C127.041 57.3609 130.923 53.4984 136.026 53.3696V53.3701ZM135.971 67.7552C138.815 67.7612 141.084 65.5851 141.092 62.8459C141.1 60.1191 138.82 57.8896 136.011 57.8791C133.215 57.8686 130.911 60.1141 130.923 62.8379C130.936 65.5646 133.179 67.7497 135.971 67.7557V67.7552Z" fill="black"/>
<path d="M110.539 53.993C110.824 53.993 111.052 53.993 111.281 53.993C113.605 53.9964 115.93 53.9565 118.253 54.0139C122.385 54.1163 124.864 58.3152 123.006 62.0025C122.475 63.0548 121.631 63.7368 120.529 64.1266C120.276 64.2165 120.023 64.3099 119.675 64.4357C121.53 66.8489 123.34 69.2042 125.239 71.6754H123.104C122.217 71.6754 121.31 71.6918 120.443 71.6933C120.08 71.6938 119.61 71.6933 119.61 71.6933C119.61 71.6933 119.247 71.2321 119.045 70.9101C117.81 68.9331 116.525 66.9867 115.125 65.0517V71.6289H110.539V53.993H110.539ZM115.929 57.4101C115.488 57.3852 115.07 57.4101 115.07 57.4101C115.07 57.4101 115.07 57.8999 115.07 58.3052C115.07 58.9352 115.07 59.5653 115.07 60.1953C115.07 61.2931 115.07 61.9545 115.07 61.9545C115.07 61.9545 116.263 61.984 117.116 61.7978C118.171 61.5671 118.804 60.8722 118.836 59.9097C118.878 58.6417 118.389 57.9163 117.236 57.6128C116.812 57.501 116.369 57.4351 115.929 57.4101Z" fill="black"/>
<path d="M13.1461 34.3727V32.4807H16.902V48.9171H13.1672V47.2222C12.8276 47.4788 12.5969 47.6406 12.3797 47.8188C9.1174 50.5011 4.24101 49.6205 1.7993 46.3306C-0.450807 43.2983 -0.797401 36.9288 3.06329 33.7272C5.88419 31.3879 9.80958 31.4019 12.5467 33.8416C12.7017 33.9799 12.8572 34.1171 13.1456 34.3727H13.1461ZM13.4165 40.5202C13.3849 40.2531 13.3513 39.8123 13.278 39.3779C12.9475 37.4165 11.4628 35.825 9.63403 35.4541C7.73303 35.0687 5.88821 35.7985 4.85444 37.4295C3.7971 39.0984 3.72889 40.9185 4.28314 42.7612C4.83388 44.5913 6.06025 45.7775 7.98934 46.0211C9.89636 46.2622 11.4814 45.6147 12.5472 43.9413C13.1782 42.9504 13.3954 41.8481 13.416 40.5197L13.4165 40.5202Z" fill="black"/>
<path d="M55.3518 48.9332H51.627V47.2688C51.3948 47.4086 51.2453 47.469 51.1324 47.5703C47.1398 51.1532 40.5034 49.4549 38.9234 43.5107C37.9388 39.8069 38.5251 36.3933 41.5382 33.7309C44.191 31.3866 48.0387 31.403 50.7578 33.6605C50.9955 33.8582 51.2333 34.0559 51.5904 34.3529V32.4699H55.3518V48.9337V48.9332ZM46.6699 46.0697C49.1738 46.0662 50.848 44.8586 51.4856 42.8572C51.931 41.4594 51.9475 40.0501 51.4951 38.6507C50.8962 36.7981 49.6392 35.6574 47.6896 35.4083C45.7384 35.1592 44.1805 35.9055 43.2104 37.6074C41.971 39.7815 42.0437 41.99 43.3765 44.1157C44.2161 45.4546 45.5002 46.0377 46.6699 46.0697Z" fill="black"/>
<path d="M110.285 34.3707V32.4757H113.991V48.9005H110.297V47.2541C110.052 47.4089 109.905 47.4763 109.789 47.5786C106.192 50.7881 100.544 49.6683 98.2545 45.2482C96.5611 41.9783 96.6956 36.3771 100.465 33.4871C103.049 31.5062 106.808 31.4932 109.317 33.5585C109.59 33.7831 109.859 34.0128 110.285 34.3707H110.285ZM110.53 40.7542C110.46 40.1931 110.432 39.623 110.313 39.0729C109.863 36.9991 108.164 35.5154 106.118 35.3706C104.026 35.2229 102.222 36.402 101.449 38.4369C100.988 39.6505 100.987 40.899 101.21 42.1596C101.549 44.0796 102.967 45.5927 104.787 45.9706C106.729 46.374 108.565 45.6192 109.657 43.9448C110.288 42.9798 110.507 41.8985 110.529 40.7542H110.53Z" fill="black"/>
<path d="M96.4844 71.6753C94.9401 71.6753 93.4825 71.6892 92.0259 71.6568C91.9396 71.6548 91.6873 71.6488 91.6873 71.6488C91.6873 71.6488 91.5624 71.3418 91.5263 71.2514C91.2384 70.5321 90.9951 69.7937 90.7619 69.0544C90.7122 68.8961 90.625 68.5866 90.625 68.5866C90.625 68.5866 90.326 68.5781 90.1394 68.5796C88.2163 68.5936 86.2928 68.5716 84.3707 68.6061C84.2629 68.6081 83.9248 68.6106 83.9248 68.6106C83.9248 68.6106 83.7924 68.9485 83.7497 69.0509C83.4463 69.7862 83.2406 70.5615 82.9552 71.3054C82.9272 71.3787 82.8198 71.6543 82.8198 71.6543C82.8198 71.6543 82.5816 71.6573 82.4953 71.6588C81.0181 71.6858 79.54 71.6748 77.9871 71.6748C78.1089 71.3328 78.2057 71.0438 78.3146 70.7592C80.3611 65.4041 82.419 60.0529 84.4424 54.6888C84.5397 54.4302 84.7153 53.9784 84.7153 53.9784L89.7682 53.9739C89.7682 53.9739 89.8515 54.2115 89.9092 54.3633C92.055 59.9945 94.2123 65.6217 96.3651 71.2504C96.4087 71.3648 96.4323 71.4871 96.485 71.6758L96.4844 71.6753ZM85.1271 65.0846H89.3625C88.6703 63.1281 88.0042 61.2136 87.3331 59.3155C87.2568 59.3145 87.2453 59.315 87.1716 59.3155C86.4984 61.2156 85.8253 63.1151 85.1276 65.0846H85.1271Z" fill="black"/>
<path d="M77.1149 48.9063C80.7092 44.5741 84.2359 40.3227 87.8693 35.9435H79.389V32.4705H95.2953C91.714 36.7842 88.1948 41.0226 84.5844 45.3713H94.4371V48.9058H77.1149V48.9063Z" fill="black"/>
<path d="M66.2291 54.0271H76.1966V57.7703C75.9864 57.7798 70.7128 57.7907 70.7128 57.7907L70.7148 60.8739C70.7148 60.8739 73.8968 60.8689 75.1859 60.8694C75.4131 60.8694 75.6403 60.8694 75.9042 60.8694V64.662C75.685 64.6745 70.7073 64.694 70.7073 64.694L70.7228 67.861C70.7228 67.861 74.0598 67.8595 75.4543 67.8595C75.684 67.8595 75.9132 67.8595 76.1916 67.8595V71.6316H66.2301V54.0281L66.2291 54.0271Z" fill="black"/>
<path d="M51.8936 57.8016V54.0305H63.9857V57.7842H60.2474V71.6381H55.6645C55.6645 71.4069 55.6845 57.7882 55.6845 57.7882C55.6845 57.7882 52.9469 57.8016 51.8931 57.8016H51.8936Z" fill="black"/>
<path d="M96.1942 57.8017V54.04H108.29V57.7877H104.588V71.6291H100.018C100.018 71.3915 100.018 71.1499 100.018 70.9082C100.018 66.871 100.02 62.8343 100.017 58.7971C100.017 58.2415 100.033 57.8191 100.033 57.8191C100.033 57.8191 99.5824 57.8052 99.0477 57.8027C98.1198 57.7987 97.1919 57.8017 96.1942 57.8017Z" fill="black"/>
<path d="M25.5872 48.915H21.9302V24.8511H25.5872V48.915Z" fill="black"/>
<path d="M89.5045 0.570312V7.41614C86.5908 7.15404 84.8689 9.14045 82.9614 10.9451C82.5581 10.5073 82.1804 10.095 81.8007 9.6851C80.9139 8.72709 80.0316 7.76559 79.1358 6.81557C78.9231 6.58992 78.8519 6.4122 79.0079 6.14212C79.0229 6.11566 79.0405 6.08871 79.06 6.06025C81.1572 3.04645 84.0102 1.25574 87.6627 0.748035C88.2596 0.665165 88.863 0.630718 89.5045 0.570312Z" fill="black"/>
<path d="M34.3265 48.9301H30.6218V32.4688H34.3265V48.9301Z" fill="black"/>
<path d="M67.5098 13.0406C66.5944 13.8493 65.8641 14.6141 65.0154 15.2127C64.0343 15.9046 63.0257 15.7478 61.9904 14.9381C61.1262 14.2617 60.7836 13.1619 61.1131 12.1215C61.6533 10.4152 63.8738 9.67231 65.2612 10.7981C66.0357 11.4261 66.6842 12.2074 67.5098 13.0406Z" fill="black"/>
<path d="M30.0334 26.8555C30.0385 25.4866 31.1119 24.4418 32.5032 24.4507C33.845 24.4592 34.961 25.58 34.95 26.9069C34.9389 28.2403 33.8099 29.3661 32.4842 29.3651C31.1108 29.3646 30.0284 28.2558 30.0339 26.855L30.0334 26.8555Z" fill="black"/>
<path d="M135.989 64.8365C134.911 64.8275 133.965 63.8929 133.953 62.8261C133.94 61.7493 134.938 60.7973 136.055 60.8212C137.176 60.8452 138.05 61.7488 138.027 62.8621C138.005 63.9728 137.104 64.8455 135.989 64.8365Z" fill="black"/>
<path d="M78.8217 6.45615L79.1371 6.81609V6.38326L79.0243 6.11768L78.8217 6.45615Z" fill="black"/>
<path d="M70.797 48.9066C70.797 48.1937 70.7996 47.5443 70.797 46.8948C70.7855 44.183 70.773 41.4707 70.7594 38.759C70.7589 38.6117 70.7514 38.4644 70.7379 38.3181C70.4956 35.7422 68.3478 34.5565 65.9798 35.6778C65.0489 36.1186 64.5975 36.9158 64.4174 37.8454C64.2343 38.7899 64.1175 39.7599 64.0994 40.7209C64.0543 43.1801 64.0808 45.6407 64.0788 48.1004C64.0788 48.352 64.0788 48.6031 64.0788 48.9016C62.8339 48.9016 60.2964 48.9071 60.2964 48.9071C60.2964 48.9071 60.3159 38.1893 60.2969 33.1642C60.2959 32.8482 60.2969 32.4198 60.2969 32.4198C60.2969 32.4198 63.0029 32.4308 64.0869 32.4308V33.9549C64.5744 33.583 64.9265 33.293 65.2997 33.0324C67.4149 31.5557 70.6982 31.666 72.6399 33.267C74.0032 34.3908 74.4862 35.9518 74.5238 37.5893C74.6101 41.3085 74.5544 45.0312 74.5544 48.7524C74.5544 48.7903 74.5293 48.8283 74.5012 48.9076H70.7955L70.797 48.9066Z" fill="black"/>
</svg>
