<svg width="86" height="86" viewBox="0 0 86 86" fill="none" xmlns="http://www.w3.org/2000/svg">
<path d="M37.9335 85.0624C36.7072 84.8583 35.462 84.7486 34.2493 84.4869C32.9305 84.2022 31.633 83.8107 30.3392 83.4224C29.3631 83.1293 28.3964 82.7971 27.4463 82.4286C26.5878 82.0955 25.7516 81.7027 24.9171 81.3119C24.244 80.9967 23.5765 80.6658 22.9275 80.3046C22.0637 79.8237 21.2047 79.3306 20.3722 78.7985C19.4452 78.2061 18.5225 77.6003 17.6467 76.9363C15.4779 75.2921 13.3992 73.5363 11.6371 71.4555C10.3304 69.9125 9.02712 68.3531 7.88268 66.6914C6.84943 65.1911 5.96501 63.5766 5.1425 61.9485C4.38814 60.4552 3.74439 58.8985 3.16094 57.3295C2.51374 55.5891 2.02192 53.7989 1.66062 51.9685C0.977155 48.5062 0.634272 45.0185 0.772738 41.4954C0.872299 38.963 1.03321 36.4284 1.68111 33.9593C2.08913 32.4042 2.48255 30.8426 2.96953 29.3113C3.37653 28.0314 3.84717 26.7629 4.40483 25.5414C4.97883 24.2841 5.65355 23.0675 6.35554 21.8746C7.07699 20.6488 7.80603 19.413 8.6733 18.29C9.96564 16.6166 11.2974 14.9564 12.7705 13.4434C14.178 11.9979 15.759 10.7133 17.3198 9.42528C18.2181 8.68407 19.2074 8.04489 20.1925 7.4174C21.2586 6.73833 22.3464 6.08631 23.4642 5.49689C24.4861 4.95815 25.5549 4.50516 26.6141 4.03979C27.4462 3.67429 28.291 3.33653 29.1385 3.00771C29.6395 2.81337 30.1497 2.63509 30.6677 2.49315C32.8659 1.89055 35.0685 1.31065 37.3471 1.07045C37.6177 1.04202 40.7462 0.730743 43.6633 0.732922C46.2764 0.734871 48.7073 1.04557 48.9674 1.09717C50.268 1.35479 51.591 1.5192 52.8726 1.84721C54.5145 2.26741 56.144 2.75616 57.7417 3.3199C58.8939 3.72634 59.9892 4.29524 61.1024 4.80761C61.7404 5.10123 62.379 5.39978 62.9904 5.74373C64.1525 6.39736 65.3394 7.02129 66.4349 7.77466C67.8271 8.7321 69.2017 9.73484 70.4681 10.8486C71.8734 12.0844 73.1953 13.4242 74.4648 14.7999C75.4792 15.8992 76.4214 17.0775 77.285 18.2986C78.2669 19.6869 79.1807 21.1306 80.0216 22.6081C80.7538 23.8942 81.4097 25.2334 81.9796 26.5988C82.7306 28.3979 83.408 30.2237 83.8847 32.129C84.3508 33.9915 84.7412 35.8647 84.9439 37.7639C85.2613 40.7388 85.381 43.724 85.0984 46.7178C84.9078 48.7369 84.622 50.7395 84.1575 52.7087C83.7917 54.2596 83.3726 55.8077 82.8328 57.3055C82.2937 58.8016 81.597 60.2437 80.9276 61.6902C80.4896 62.6366 80.039 63.5874 79.4843 64.4677C78.5999 65.8713 77.6835 67.263 76.6713 68.5761C75.5472 70.0345 74.3517 71.4468 73.0905 72.789C72.1307 73.8105 71.0428 74.718 69.9706 75.6281C68.3632 76.9924 66.6429 78.2139 64.8411 79.3071C63.7011 79.9987 62.5032 80.6019 61.3026 81.1861C60.2012 81.7222 59.0761 82.2177 57.934 82.6607C56.9204 83.054 55.8761 83.3744 54.8322 83.6831C53.8006 83.9881 52.7631 84.2918 51.7089 84.498C50.4763 84.7393 49.2207 84.8622 47.9794 85.063C47.7815 85.095 45.271 85.2496 42.8082 85.2483C40.3454 85.247 38.1033 85.0911 37.9335 85.0628V85.0624ZM50.1864 82.331C52.5663 81.8937 54.8905 81.255 57.1637 80.4035C58.9014 79.7525 60.5722 78.9708 62.1763 78.0647C63.6582 77.2277 65.1071 76.3102 66.4737 75.2984C67.9654 74.194 69.3999 72.9981 70.7572 71.7335C71.8313 70.7329 72.7929 69.6021 73.7276 68.4665C74.6172 67.3857 75.4406 66.2463 76.2307 65.0903C76.8803 64.1398 77.4863 63.1526 78.025 62.1361C78.7127 60.8382 79.3548 59.5125 79.9379 58.165C80.3952 57.1081 80.7479 56.0048 81.1183 54.9124C81.3343 54.2751 81.527 53.6258 81.6709 52.969C81.8824 52.0024 82.0851 51.0301 82.2129 50.0501C82.469 48.0861 82.7856 46.1196 82.863 44.1458C82.9333 42.3509 82.7258 40.5447 82.6297 38.7441C82.4682 35.7201 81.6443 32.8342 80.7595 29.9627C80.618 29.5034 80.4523 29.0483 80.2575 28.6091C79.7621 27.4918 79.2549 26.3795 78.7307 25.2754C78.4065 24.5929 78.0695 23.9135 77.689 23.2611C77.2186 22.4544 76.7218 21.6606 76.192 20.8915C75.4583 19.8264 74.7626 18.7198 73.908 17.7564C72.483 16.1499 71.011 14.5721 69.4337 13.1166C68.1754 11.9554 66.7558 10.96 65.3601 9.95692C64.424 9.28415 63.4225 8.69484 62.4171 8.12629C61.4478 7.57826 60.4476 7.08022 59.439 6.60659C58.6677 6.2443 57.8713 5.9297 57.0699 5.63802C55.9958 5.24695 54.9142 4.87158 53.8202 4.54093C53.0429 4.30601 52.2446 4.1314 51.4469 3.97375C50.1607 3.71957 48.8756 3.42217 47.575 3.28493C45.0279 3.01619 42.4679 2.87689 39.9115 3.1798C38.28 3.3731 36.6445 3.56801 35.0317 3.87263C33.7469 4.11535 32.4795 4.48017 31.2305 4.87285C29.8628 5.30279 28.4888 5.74671 27.1837 6.33109C25.666 7.01062 24.1939 7.80424 22.7507 8.63236C21.5341 9.33035 20.3468 10.0944 19.2181 10.9255C17.2608 12.3664 15.3985 13.9331 13.7923 15.7626C12.6768 17.033 11.6136 18.3549 10.6079 19.7131C9.82534 20.7699 9.1459 21.9052 8.46072 23.0299C7.90444 23.9428 7.35196 24.8659 6.89927 25.8317C6.36981 26.9612 5.88846 28.1218 5.4977 29.3054C4.93348 31.0144 4.36938 32.7346 3.98506 34.489C3.33221 37.47 3.02685 40.5056 3.1042 43.5603C3.1446 45.1548 3.29895 46.7496 3.47125 48.3368C3.59418 49.4697 3.7765 50.603 4.03386 51.7128C4.33462 53.0093 4.70397 54.294 5.12063 55.5586C5.54547 56.848 6.00322 58.1339 6.55812 59.3716C7.13557 60.6598 7.80948 61.9095 8.50998 63.1372C9.10758 64.1846 9.76192 65.2056 10.4658 66.1852C11.2027 67.211 12.0197 68.1805 12.8175 69.1619C14.275 70.955 15.9384 72.5444 17.75 73.9754C18.7532 74.7678 19.7857 75.5273 20.8413 76.2489C21.6791 76.8217 22.5644 77.3274 23.4431 77.8381C24.0143 78.17 24.6025 78.4759 25.1991 78.7603C26.3042 79.2871 27.4025 79.8355 28.5383 80.2885C29.5221 80.681 30.5438 80.9914 31.5672 81.2707C33.0577 81.6774 34.55 82.1046 36.068 82.3763C37.2177 82.5821 40.1784 83.0174 43.1405 83.0082C46.0729 82.9992 49.0067 82.5479 50.1861 82.3312L50.1864 82.331Z" fill="black"/>
<path d="M21.3293 62.9974C21.3293 62.8045 21.3187 62.611 21.3314 62.419C21.3615 61.9604 21.7126 61.7306 22.1428 61.8858C23.4141 62.3446 24.6811 62.8156 25.9567 63.262C26.451 63.435 26.9629 63.5596 27.4687 63.6992C31.4242 64.7901 35.4465 65.4517 39.5464 65.7244C43.5449 65.9902 47.5066 65.7424 51.4621 65.1925C53.5183 64.9067 55.5502 64.5126 57.5376 63.9075C59.1087 63.4292 60.683 62.9607 62.2492 62.4671C62.7472 62.3102 63.229 62.0983 63.7087 61.89C64.1846 61.6834 64.6381 61.9378 64.6369 62.4541C64.636 62.8389 64.6278 63.232 64.551 63.6069C64.2865 64.8978 63.9981 66.1744 63.5324 67.4244C63.0241 68.7887 62.3838 70.0715 61.6086 71.2835C60.4661 73.0699 59.1734 74.7466 57.5824 76.1744C57.1223 76.5874 56.6555 76.9999 56.2491 77.4626C55.9775 77.772 55.7047 77.745 55.396 77.6353C53.617 77.0034 51.758 76.7554 49.9085 76.4361C47.3012 75.9859 44.6773 75.964 42.0491 75.9663C39.7066 75.9683 37.3795 76.1972 35.0732 76.5912C33.7552 76.8164 32.4086 77.0094 31.1589 77.4524C30.2471 77.7756 29.7568 77.5571 29.1129 76.9557C27.4234 75.3775 25.8603 73.7075 24.6504 71.7315C24.1416 70.9007 23.5859 70.0885 23.175 69.2107C22.5764 67.9315 21.9714 66.6442 21.7217 65.2315C21.5902 64.4885 21.4217 63.752 21.27 63.0126C21.2898 63.0075 21.3096 63.0023 21.3294 62.9972L21.3293 62.9974ZM52.3569 71.4072C52.3542 71.4274 52.3515 71.4476 52.3488 71.4678C52.197 71.4573 52.0453 71.4444 51.8932 71.4371C51.2261 71.4046 51.1792 71.4367 50.9698 72.058C50.8272 72.4811 50.9041 72.6099 51.3422 72.6773C52.2985 72.8243 53.2609 72.9406 54.2099 73.1252C55.2803 73.3334 56.3416 73.5908 57.4009 73.8515C57.8355 73.9585 58.1995 73.9877 58.5011 73.5677C58.9166 72.9892 59.3933 72.4537 59.7986 71.8687C60.3127 71.1268 60.8184 70.3744 61.2581 69.588C61.6242 68.9331 61.8457 68.1983 62.21 67.5421C62.8318 66.4221 62.9501 65.1584 63.3194 63.9677C63.365 63.8207 63.3358 63.5427 63.2431 63.4869C63.1095 63.4065 62.8756 63.4371 62.7033 63.4859C62.3605 63.583 62.0331 63.7326 61.6946 63.8464C61.1714 64.0221 60.6487 64.2011 60.1181 64.3522C58.8059 64.7257 57.4978 65.1184 56.1722 65.4382C55.0992 65.697 54.0067 65.882 52.9165 66.061C51.4996 66.2936 50.0828 66.5891 48.6547 66.6803C43.3434 67.0197 38.0379 67.0428 32.7826 66.0048C31.1054 65.6735 29.4303 65.3312 27.7547 64.9915C27.6607 64.9725 27.572 64.929 27.4798 64.8999C26.8099 64.6884 26.1372 64.485 25.4702 64.2647C24.7258 64.019 23.9887 63.7512 23.2429 63.5095C23.0712 63.4539 22.8212 63.3881 22.71 63.4683C22.6005 63.5474 22.5627 63.8175 22.5961 63.9833C22.6959 64.4803 22.835 64.9704 22.979 65.4573C23.1543 66.0497 23.2953 66.6607 23.5491 67.2195C24.0077 68.2289 24.5299 69.2101 25.0421 70.1946C25.6988 71.4567 26.5945 72.5493 27.5088 73.6312C27.7657 73.9352 28.0276 74.0057 28.379 73.9057C28.5386 73.8603 28.6972 73.8106 28.8588 73.7743C29.8828 73.5443 30.903 73.2935 31.9334 73.0969C32.8283 72.926 33.7354 72.8188 34.6368 72.6808C34.8532 72.6477 35.0438 72.587 35.0369 72.3044C35.021 71.6568 34.7343 71.3594 34.086 71.432C32.1499 71.6488 30.2163 71.8884 28.2834 72.1322C27.9991 72.1681 27.755 72.167 27.5938 71.8997C27.2119 71.2659 26.7778 70.6551 26.4701 69.987C25.9135 68.7782 25.4327 67.5348 24.9224 66.3049C24.7707 65.9394 25.0429 65.7973 25.2936 65.6854C25.549 65.5714 25.8155 65.5557 25.9511 65.8864C26.1073 66.2672 26.2703 66.6458 26.4119 67.0322C26.6555 67.6972 26.8902 67.8696 27.5974 67.8695C30.3925 67.8688 33.1876 67.8674 35.9827 67.8679C43.5238 67.869 51.0649 67.8737 58.606 67.8594C58.8296 67.8589 59.1511 67.7204 59.2575 67.5447C59.5458 67.0683 59.763 66.5449 59.9687 66.0246C60.1033 65.6842 60.3228 65.6252 60.6236 65.7275C61.0037 65.8568 61.146 66.1273 61.025 66.4456C60.8004 67.037 60.5804 67.6301 60.3502 68.2193C60.2007 68.602 60.062 68.9921 59.8736 69.3559C59.4708 70.1341 59.0622 70.9113 58.6074 71.6596C58.4295 71.9522 58.2351 72.2661 57.7294 72.184C55.9436 71.8941 54.1483 71.6618 52.3566 71.4076L52.3569 71.4072ZM55.6078 76.4293C55.5366 76.4374 55.5921 76.4482 55.6166 76.4257C56.0578 76.0211 56.5013 75.6185 56.9208 75.1924C56.9515 75.1613 56.8279 74.8712 56.7343 74.844C56.1125 74.6634 55.4854 74.4869 54.8483 74.3751C53.6509 74.1649 52.4501 73.9605 51.2428 73.824C49.184 73.5911 47.1229 73.3365 45.0556 73.228C41.3702 73.0347 37.7012 73.3191 34.0603 73.9038C32.4533 74.1618 30.8599 74.5036 29.2612 74.8111C29.0427 74.8531 28.7788 74.9751 28.9893 75.2093C29.3806 75.6446 29.8422 76.019 30.2894 76.4016C30.3534 76.4564 30.5054 76.438 30.6078 76.4146C31.2271 76.2736 31.8429 76.1176 32.4614 75.9732C35.1897 75.3366 37.9577 74.9747 40.7549 74.8695C43.6605 74.7601 46.5655 74.7726 49.4466 75.2469C50.8502 75.4779 52.2514 75.7249 53.65 75.9842C54.2722 76.0996 54.8854 76.2634 55.6079 76.4295L55.6078 76.4293ZM43.0179 68.9322V68.921C40.9435 68.921 38.869 68.9206 36.7947 68.9215C36.4213 68.9216 36.0461 68.9074 35.6756 68.9415C35.5398 68.954 35.3353 69.0608 35.2988 69.1698C35.1195 69.7064 35.4813 70.1632 36.0548 70.1441C36.7457 70.1211 37.4356 70.0531 38.1264 70.0457C41.0286 70.0142 43.931 69.9811 46.8332 69.9852C47.8964 69.9867 48.9589 70.1061 50.0228 70.1389C50.532 70.1546 50.7436 69.8733 50.7238 69.2821C50.7082 68.8158 50.3303 68.9387 50.0709 68.9377C47.7198 68.9284 45.3688 68.9323 43.0179 68.9323V68.9322ZM42.7114 70.9455C40.7219 71.0354 38.6928 71.1179 36.665 71.2247C36.1136 71.2538 35.979 71.5214 36.1818 72.0336C36.3361 72.4235 36.669 72.3804 36.9858 72.366C38.5319 72.2956 40.0784 72.152 41.6236 72.1642C44.1237 72.1839 46.6229 72.3042 49.1224 72.3846C49.42 72.3943 49.6709 72.3543 49.7753 72.0165C49.9426 71.4752 49.7682 71.2073 49.1759 71.1837C47.0359 71.0984 44.8955 71.025 42.7113 70.9454L42.7114 70.9455ZM57.2899 70.8898C57.3004 70.9263 57.3109 70.9628 57.3214 70.9992C57.4927 70.9087 57.7331 70.861 57.8222 70.7192C58.0456 70.3636 58.2386 69.9782 58.3742 69.5812C58.5763 68.9896 58.5157 68.9278 57.8769 68.9253C56.2205 68.9188 54.564 68.9176 52.9076 68.9177C52.233 68.9177 52.0792 69.0507 51.8799 69.6921C51.7685 70.0504 51.8975 70.2132 52.2438 70.2631C52.5852 70.3124 52.925 70.3753 53.2673 70.4164C54.6078 70.5775 55.949 70.7325 57.2899 70.8897V70.8898ZM30.6404 68.9102C30.6404 68.9126 30.6404 68.915 30.6404 68.9174C29.7285 68.9174 28.8163 68.9079 27.9045 68.9217C27.4943 68.9279 27.4043 69.0622 27.5501 69.4421C27.6767 69.7719 27.8433 70.0872 28.0041 70.4029C28.2773 70.9398 28.3759 70.9876 28.9352 70.8989C29.4942 70.8103 30.0519 70.7104 30.613 70.6376C31.6402 70.5043 32.6712 70.3992 33.696 70.2508C33.8577 70.2274 34.1047 70.0547 34.1251 69.9225C34.2124 69.3545 33.7794 68.9091 33.2105 68.91C32.3538 68.9114 31.4971 68.9104 30.6403 68.9104L30.6404 68.9102Z" fill="black"/>
<path d="M43.4817 9.35876C45.2595 9.47822 47.3936 9.48189 49.4906 9.92777C50.5031 10.1431 51.5379 10.2673 52.5361 10.532C53.6936 10.839 54.8301 11.2322 55.9604 11.6311C56.7783 11.9199 57.5883 12.2436 58.3708 12.6162C59.3389 13.0772 60.2924 13.5752 61.2201 14.1121C62.1844 14.6702 63.1329 15.262 64.0466 15.8983C64.9263 16.511 65.7753 17.1728 66.5979 17.8602C68.2938 19.2774 69.8305 20.8558 71.2252 22.5686C71.719 23.1751 72.2021 23.7912 72.6637 24.4221C72.8245 24.6419 72.9397 24.9217 72.6374 25.1534C72.2372 25.4602 72.0351 25.4751 71.7533 25.1283C71.1116 24.3389 70.5288 23.5004 69.8635 22.7321C68.4916 21.1477 67.0451 19.6265 65.3581 18.3698C63.8709 17.262 62.3899 16.1225 60.7916 15.1922C59.2532 14.2967 57.5787 13.627 55.9429 12.9055C55.0371 12.5059 54.0954 12.1815 53.1557 11.8653C52.556 11.6635 51.9339 11.5227 51.3153 11.3831C50.5606 11.213 49.8052 11.0258 49.0395 10.9279C45.6022 10.4885 42.1596 10.1927 38.705 10.767C37.4922 10.9686 36.2643 11.1044 35.0698 11.3834C33.8772 11.6619 32.7035 12.0409 31.5483 12.4509C30.3543 12.8746 29.1657 13.333 28.024 13.8783C26.8331 14.447 25.655 15.0679 24.5545 15.7917C23.0847 16.7583 21.6375 17.7776 20.2884 18.9025C19.13 19.8684 18.0679 20.9661 17.0651 22.0953C16.1367 23.1407 15.3476 24.3083 14.4822 25.4105C14.4155 25.4956 14.2061 25.5523 14.1075 25.5126C13.8942 25.4268 13.6917 25.2891 13.5231 25.1321C13.4619 25.075 13.4599 24.8688 13.5149 24.7866C14.5275 23.278 15.606 21.8172 16.9069 20.54C17.9649 19.5013 19.0137 18.4445 20.1546 17.5013C21.2231 16.6179 22.3821 15.8349 23.5478 15.0789C24.62 14.3836 25.7301 13.7365 26.8678 13.1538C27.9321 12.6088 29.0398 12.1385 30.1559 11.7054C31.1826 11.3071 32.2403 10.9842 33.295 10.6625C33.9808 10.4533 34.6796 10.2757 35.3831 10.1363C37.9407 9.62933 40.5284 9.40221 43.4817 9.35864V9.35876Z" fill="black"/>
<path d="M42.8184 14.7229C40.6646 14.6436 38.539 14.9005 36.4471 15.395C35.173 15.6962 33.8916 16.0007 32.6582 16.4308C30.6387 17.1349 28.6946 18.0143 26.8843 19.178C25.2564 20.2245 23.693 21.3493 22.2817 22.6711C21.1449 23.7358 20.0438 24.8379 19.1493 26.1238C18.8587 26.5416 18.5571 26.9518 18.258 27.3636C18.0027 27.7149 17.7644 27.7846 17.5023 27.5904C16.9907 27.2114 16.9548 27.0484 17.2922 26.6329C18.1995 25.5154 19.0442 24.3391 20.0316 23.2968C21.0705 22.2002 22.2094 21.1882 23.3737 20.2217C24.2598 19.486 25.2276 18.837 26.2079 18.2276C27.082 17.6842 28.0137 17.2293 28.9375 16.7702C29.6646 16.409 30.4028 16.0593 31.1638 15.7788C32.2752 15.3691 33.4044 15.0032 34.5395 14.663C35.225 14.4574 35.9337 14.3251 36.6358 14.1782C39.1511 13.6521 41.6946 13.3822 44.263 13.5137C46.4326 13.6248 48.5968 13.8511 50.7059 14.3975C52.2534 14.7984 53.8095 15.1909 55.2673 15.8724C56.5634 16.4784 57.8948 17.0245 59.1359 17.7279C60.3279 18.4034 61.4509 19.2109 62.554 20.0277C63.5031 20.7305 64.4352 21.4737 65.2778 22.2974C66.3859 23.3805 67.4013 24.5578 68.4511 25.6996C68.6837 25.9525 68.8954 26.2246 69.1137 26.4902C69.3607 26.7909 69.3655 27.1078 69.1302 27.2918C68.7793 27.5664 68.3412 27.5644 68.1281 27.2556C67.1228 25.7996 65.9347 24.499 64.6487 23.2935C63.7755 22.4749 62.8464 21.7098 61.897 20.9791C61.0043 20.292 60.0802 19.6357 59.1182 19.0502C58.2158 18.501 57.2557 18.0413 56.3021 17.5814C55.5714 17.229 54.8163 16.9241 54.0617 16.6237C53.5248 16.41 52.9785 16.211 52.4223 16.0556C51.6124 15.8293 50.7971 15.6082 49.9709 15.4562C48.4908 15.1838 47.0067 14.9146 45.5128 14.7416C44.6259 14.6389 43.7173 14.7228 42.8186 14.7228L42.8184 14.7229Z" fill="black"/>
<path d="M64.8198 29.9298C64.6081 29.7627 64.4285 29.6732 64.3227 29.5298C63.0566 27.8123 61.5293 26.3421 59.8947 24.9892C59.0396 24.2815 58.0928 23.6765 57.1522 23.0804C56.2821 22.5291 55.3827 22.0163 54.4626 21.5527C53.7645 21.2008 53.0266 20.914 52.2831 20.6681C51.3151 20.348 50.3348 20.0495 49.3404 19.8276C47.8981 19.5056 46.439 19.2869 44.9558 19.1939C43.0258 19.0729 41.1089 19.1763 39.1999 19.4043C38.2584 19.5166 37.3262 19.755 36.4085 20.0046C35.2658 20.3154 34.1203 20.6401 33.0171 21.0646C32.0308 21.4442 31.0521 21.8906 30.1564 22.4456C28.767 23.3064 27.4101 24.232 26.1148 25.2274C24.7574 26.2705 23.5613 27.4991 22.5007 28.8499C22.2801 29.1309 22.0279 29.3879 21.815 29.6742C21.5953 29.9696 21.3538 29.9064 21.1427 29.7157C20.9402 29.5329 20.5617 29.3649 20.8755 28.9901C21.4754 28.2736 22.0319 27.5097 22.7044 26.8671C23.997 25.6316 25.2866 24.3729 26.7117 23.3008C28.0228 22.3143 29.4562 21.4511 30.9313 20.7269C33.8894 19.2746 37.04 18.3528 40.3355 18.1313C42.371 17.9945 44.4345 18.022 46.4684 18.1852C48.18 18.3224 49.8889 18.6652 51.5206 19.266C52.7874 19.7323 54.0848 20.1341 55.3066 20.6977C56.3744 21.1903 57.3918 21.8164 58.3658 22.479C59.4324 23.2044 60.4592 23.9984 61.4374 24.8387C62.2891 25.5704 63.0605 26.3969 63.8451 27.2033C64.3417 27.7136 64.8082 28.2545 65.2638 28.802C65.3811 28.9429 65.5133 29.2231 65.4507 29.3296C65.3167 29.5576 65.0599 29.7141 64.8198 29.9302V29.9298Z" fill="black"/>
<path d="M43.0833 23.4979C41.5764 23.6868 40.0495 23.7808 38.5681 24.0907C37.0222 24.4142 35.5159 24.9065 34.0543 25.5566C32.4017 26.2916 30.8509 27.193 29.4565 28.3023C28.1797 29.3181 27.0816 30.5573 25.9099 31.7031C25.6743 31.9335 25.4917 32.2324 25.0799 32.001C24.5395 31.6971 24.4891 31.3929 24.9103 30.9354C26.3523 29.3695 27.903 27.9204 29.6478 26.6962C30.3899 26.1756 31.1931 25.7347 31.9952 25.3072C32.7827 24.8875 33.5858 24.4843 34.4156 24.1587C35.3507 23.7918 36.3151 23.4918 37.2813 23.2123C39.0059 22.7133 40.7897 22.5584 42.5704 22.4899C44.3971 22.4196 46.2167 22.6014 48.0056 23.0047C48.7451 23.1714 49.4948 23.317 50.2104 23.559C51.1854 23.8887 52.1519 24.2588 53.0855 24.6903C54.0564 25.139 55.0134 25.6338 55.9211 26.1971C56.7242 26.6955 57.4958 27.2659 58.2013 27.8937C59.3119 28.882 60.3602 29.9403 61.4251 30.9791C61.806 31.3507 61.8225 31.6281 61.5275 31.8785C61.1984 32.1578 60.7708 32.1007 60.4733 31.7406C60.2452 31.4645 60.0343 31.1705 59.7804 30.9201C58.4268 29.5853 57.025 28.3142 55.418 27.2697C53.9645 26.3247 52.4214 25.5735 50.8132 24.9554C50.0576 24.665 49.2551 24.4787 48.4599 24.3112C47.3139 24.0699 46.1589 23.8641 45.0004 23.6918C44.3739 23.5985 43.7324 23.6065 43.0976 23.5687C43.0929 23.5451 43.088 23.5216 43.0833 23.498V23.4979Z" fill="black"/>
<path d="M9.70952 53.1799C9.75004 53.6409 9.76765 53.9857 9.81357 54.3266C9.87584 54.789 10.2848 55.2359 10.6625 55.2826C11.1119 55.3381 11.4272 55.1253 11.673 54.6005C11.9422 54.026 11.9862 54.0017 12.6252 54.0614C12.9007 54.0872 13.1779 54.0991 13.4516 54.1375C13.7946 54.1856 13.9124 54.396 13.8497 54.7296C13.61 56.0055 12.4133 57.0603 11.1933 57.037C10.5212 57.0241 9.85397 57.0916 9.21252 56.7452C8.30485 56.2552 7.69815 55.5382 7.46496 54.5589C7.16708 53.3083 7.22394 52.0513 7.82246 50.8909C8.54736 49.4853 10.0711 49.0034 11.5235 49.2695C12.8522 49.5129 13.5696 50.3181 13.8277 51.5895C13.9374 52.13 13.8261 52.2659 13.283 52.3029C13.007 52.3219 12.7304 52.3337 12.4538 52.3435C11.9712 52.3608 11.8176 52.2443 11.6884 51.7785C11.6077 51.4875 11.554 51.1885 11.2117 51.0552C10.5492 50.7971 9.99336 51.0805 9.85179 51.8165C9.75867 52.3009 9.74659 52.8006 9.70941 53.1798L9.70952 53.1799Z" fill="black"/>
<path d="M19.1215 37.836C19.9486 37.8302 20.4877 38.2105 20.7387 38.9768C21.3103 40.7277 21.88 42.4791 22.4505 44.2304C22.4548 44.2434 22.4594 44.2565 22.4626 44.2699C22.7421 45.4207 22.5991 45.4224 21.6269 45.4209C21.5993 45.4209 21.5715 45.422 21.5439 45.4225C20.4459 45.4441 20.3563 45.3877 20.1026 44.3324C20.0198 43.9877 19.8437 43.8441 19.4978 43.8513C19.1245 43.8591 18.7505 43.8505 18.3774 43.8367C18.0891 43.8259 17.8965 43.9283 17.8281 44.222C17.8095 44.302 17.7758 44.3788 17.7466 44.4562C17.3897 45.4038 17.112 45.5638 16.1045 45.4032C15.7102 45.3404 15.5827 45.1423 15.7055 44.7634C16.2689 43.026 16.8375 41.2903 17.3984 39.5522C17.5209 39.1724 17.6254 38.7865 17.7278 38.4007C17.8459 37.9555 18.1131 37.7586 18.5827 37.8315C18.7583 37.8588 18.9417 37.8358 19.1216 37.8358L19.1215 37.836ZM18.9075 42.2066C19.3605 42.2047 19.5285 42.0901 19.4647 41.8104C19.3705 41.3976 19.2692 40.9859 19.1527 40.5787C19.1277 40.4915 19.0252 40.4263 18.9584 40.3509C18.892 40.4287 18.7961 40.4962 18.7642 40.5861C18.6455 40.9211 18.5434 41.2624 18.443 41.6036C18.3082 42.0616 18.424 42.2085 18.9077 42.2066H18.9075Z" fill="black"/>
<path d="M27.0916 54.6764C27.0916 55.2686 27.0823 55.861 27.0952 56.4531C27.1028 56.8046 26.9354 56.963 26.6016 56.9719C26.2282 56.982 25.8544 56.9955 25.4812 56.9866C24.999 56.975 24.8713 56.8521 24.8638 56.3584C24.8497 55.4219 24.8568 54.4851 24.8511 53.5485C24.8503 53.4114 24.8682 53.2494 24.8039 53.1431C24.7081 52.9849 24.5374 52.7482 24.4153 52.7576C24.222 52.7726 23.9685 52.9234 23.8764 53.0909C23.7657 53.2923 23.7752 53.571 23.7713 53.8169C23.7574 54.6989 23.7469 55.5814 23.7618 56.4632C23.7682 56.8449 23.6004 56.9875 23.2435 56.9832C22.87 56.9788 22.4962 56.9823 22.1226 56.9832C21.7547 56.9843 21.5692 56.8325 21.5685 56.4358C21.5659 54.9474 21.5395 53.4591 21.5302 51.9708C21.5265 51.3871 21.6923 51.2217 22.2715 51.2453C22.7243 51.2638 23.1946 51.144 23.5979 51.5454C23.7006 51.6476 24.1228 51.5112 24.3512 51.3937C25.0698 51.024 25.7415 51.0181 26.4159 51.4914C26.8842 51.8201 27.0271 52.3065 27.0621 52.8176C27.1043 53.4346 27.0722 54.0566 27.0722 54.6762C27.0786 54.6762 27.085 54.6762 27.0914 54.6762L27.0916 54.6764Z" fill="black"/>
<path d="M20.385 54.7399C20.385 55.3323 20.368 55.9254 20.3917 56.5169C20.4049 56.8455 20.2659 56.9796 19.9632 56.9797C19.5761 56.9797 19.1864 56.9912 18.8032 56.9486C18.65 56.9315 18.4597 56.8165 18.3771 56.6881C18.2074 56.4246 18.0624 56.4386 17.8479 56.6172C17.171 57.1807 16.3508 57.2034 15.6031 56.9532C14.5039 56.5852 14.2281 55.4571 14.7563 54.5143C14.9456 54.1764 15.351 53.8826 15.7238 53.7405C16.3102 53.5171 16.9525 53.4392 17.5712 53.3C17.5844 53.2971 17.6003 53.3024 17.6124 53.2975C17.8092 53.2175 18.0057 53.1364 18.2023 53.0556C18.1552 52.9517 18.1315 52.8253 18.0565 52.7483C17.8611 52.5476 17.6391 52.3552 17.3294 52.5088C17.1077 52.6189 16.8712 52.7293 16.697 52.897C16.4873 53.0988 16.2786 53.1259 16.018 53.0691C15.8296 53.0281 15.6257 53.0441 15.4447 52.9857C15.2231 52.9141 14.8356 52.7811 14.8406 52.6928C14.8555 52.4344 14.9793 52.1427 15.1512 51.9406C15.5466 51.4756 16.1423 51.3386 16.7023 51.2244C17.5508 51.0513 18.4055 51.0774 19.2308 51.4144C19.9342 51.7016 20.2999 52.2291 20.3423 52.963C20.3764 53.5535 20.3492 54.1475 20.3492 54.74C20.3612 54.74 20.373 54.74 20.385 54.74V54.7399ZM17.37 55.8248C17.8121 55.7578 18.048 55.5637 18.1548 55.0452C18.1918 54.8657 18.1308 54.5519 18.0061 54.476C17.694 54.2858 17.3704 54.4262 17.1027 54.6592C17.0615 54.6951 17.0117 54.7358 16.996 54.784C16.9294 54.9893 16.7759 55.2382 16.8404 55.3955C16.9159 55.5797 17.1849 55.6852 17.3698 55.8249L17.37 55.8248Z" fill="black"/>
<path d="M65.5123 54.1462C65.5129 53.3885 65.5073 52.6308 65.5149 51.8731C65.5203 51.3271 65.6341 51.2194 66.1752 51.2161C66.4656 51.2144 66.7594 51.1975 67.0451 51.2363C67.224 51.2606 67.446 51.3307 67.5506 51.4594C67.7639 51.7217 67.9097 51.6922 68.1601 51.506C69.004 50.8783 70.1987 50.9972 70.823 51.9114C70.9546 52.1041 71.0524 52.3617 71.0566 52.5913C71.0803 53.8995 71.071 55.2083 71.0725 56.517C71.0728 56.8156 70.9353 56.9845 70.6227 56.9847C70.2216 56.985 69.8204 56.9775 69.4196 56.9863C69.0374 56.9948 68.9118 56.7937 68.9146 56.4438C68.9221 55.4934 68.9199 54.5427 68.9201 53.5921C68.9202 52.9415 68.7785 52.7168 68.369 52.711C68.0144 52.706 67.7617 53.0388 67.7521 53.5941C67.7361 54.5168 67.7493 55.4399 67.7444 56.3629C67.7416 56.8859 67.6403 56.9845 67.1068 56.9899C66.7335 56.9937 66.36 56.981 65.9867 56.9812C65.6618 56.9813 65.5068 56.8328 65.5097 56.5017C65.5165 55.7166 65.5119 54.9312 65.5124 54.1461L65.5123 54.1462Z" fill="black"/>
<path d="M33.8861 54.8999C33.9129 55.3861 33.9304 55.9372 33.9782 56.4857C34.0081 56.8292 33.8624 56.9768 33.536 56.9773C33.1902 56.9779 32.8446 56.9692 32.4988 56.9686C32.2379 56.9683 32.0156 56.9348 31.8897 56.6457C31.8598 56.5771 31.5856 56.5267 31.5008 56.5829C30.869 57.0022 30.1852 57.1153 29.4466 57.0186C28.8132 56.9357 28.2087 56.4392 28.0999 55.8459C27.9307 54.9231 28.1153 54.5052 28.7934 54.0166C29.4599 53.5362 30.2895 53.4959 31.0521 53.2754C31.25 53.2182 31.4356 53.1192 31.6268 53.0394C31.5526 52.8876 31.5135 52.6508 31.3964 52.6027C31.1923 52.5191 30.9402 52.5504 30.7081 52.5382C30.6869 52.537 30.6593 52.5652 30.6426 52.586C30.0873 53.2762 29.3493 53.0276 28.6565 52.9529C28.3224 52.9169 28.2667 52.7008 28.4008 52.3766C28.7102 51.629 29.3794 51.3803 30.069 51.2382C30.9529 51.056 31.8385 51.0474 32.7144 51.4117C33.4793 51.7299 33.8243 52.2937 33.8778 53.0586C33.9191 53.648 33.8861 54.2427 33.8861 54.8996V54.8999ZM31.6871 54.8452C31.6895 54.5707 31.5706 54.3982 31.2787 54.3894C30.8 54.375 30.291 54.7942 30.2893 55.197C30.2878 55.5538 30.4798 55.7427 30.8566 55.7548C31.3572 55.771 31.6746 55.4233 31.6872 54.8452H31.6871Z" fill="black"/>
<path d="M77.9026 54.7084C77.9026 55.2866 77.8883 55.8653 77.9077 56.4428C77.9203 56.8192 77.7645 56.9748 77.3955 56.9612C77.1195 56.951 76.8347 57.0016 76.5685 56.9503C76.3167 56.9017 76.0557 56.793 75.8507 56.6412C75.6517 56.4939 75.5131 56.4388 75.3108 56.6074C74.6597 57.1496 73.8826 57.1301 73.1392 56.959C72.3789 56.7839 71.8165 55.7346 72.0865 54.9375C72.3431 54.1797 72.8923 53.7839 73.6353 53.6097C74.2252 53.4714 74.8216 53.3607 75.4113 53.2216C75.5164 53.1969 75.6592 53.1079 75.6819 53.0217C75.7049 52.9344 75.6257 52.7882 75.5477 52.7123C75.256 52.429 74.8678 52.3654 74.5797 52.6634C73.9874 53.2757 73.3088 53.0282 72.646 52.9458C72.3477 52.9087 72.2228 52.6035 72.4171 52.3428C72.635 52.0506 72.8867 51.7251 73.2011 51.5729C74.4461 50.9703 75.7356 50.9185 76.9953 51.5333C77.4972 51.7783 77.8361 52.2146 77.853 52.8089C77.871 53.4415 77.857 54.0752 77.857 54.7084H77.9027H77.9026ZM75.7316 54.7068C75.6906 54.6567 75.6076 54.4543 75.4691 54.404C75.029 54.2443 74.4166 54.651 74.3411 55.1122C74.2756 55.5126 74.5284 55.7776 74.9345 55.7344C75.4085 55.684 75.7263 55.3288 75.7317 54.7067L75.7316 54.7068Z" fill="black"/>
<path d="M64.3301 54.1439C64.3301 54.9155 64.3204 55.6873 64.3341 56.4587C64.341 56.8511 64.1738 57.0135 63.7855 56.9915C63.4958 56.9751 63.1999 57.0158 62.9159 56.9723C62.716 56.9417 62.4909 56.8541 62.3493 56.7177C62.1065 56.4838 61.8978 56.4769 61.6644 56.6869C61.0669 57.2245 60.3472 57.1364 59.7091 56.9154C59.0874 56.7001 58.7832 56.1326 58.7834 55.4376C58.7837 54.2252 58.7605 53.0129 58.7565 51.8004C58.7548 51.296 58.8565 51.2085 59.3733 51.2078C59.6915 51.2074 60.0096 51.2107 60.3277 51.2082C60.8069 51.2046 60.9538 51.327 60.9626 51.8075C60.9772 52.5927 60.9678 53.3782 60.975 54.1636C60.9773 54.4111 60.992 54.6595 61.0165 54.9058C61.0464 55.207 61.2272 55.4046 61.5258 55.4023C61.8253 55.4001 62.0725 55.2446 62.0889 54.9092C62.1178 54.318 62.1244 53.7256 62.1323 53.1337C62.1379 52.7066 62.1221 52.2793 62.1304 51.8524C62.141 51.3114 62.2464 51.216 62.8056 51.2133C63.0961 51.2118 63.3866 51.2189 63.677 51.2211C64.168 51.2246 64.2828 51.3255 64.2899 51.8295C64.3007 52.6009 64.2928 53.3725 64.2928 54.144H64.3302L64.3301 54.1439Z" fill="black"/>
<path d="M23.4103 42.4325C23.4103 41.6882 23.4241 40.9436 23.4045 40.1997C23.3945 39.8172 23.5511 39.6747 23.9207 39.6936C24.2521 39.7105 24.5878 39.6752 24.9158 39.7131C25.1071 39.7352 25.3298 39.8126 25.4621 39.9423C25.6788 40.1546 25.8198 40.1068 26.0244 39.9417C26.6209 39.4605 27.3147 39.5299 27.9579 39.7528C28.5609 39.9617 28.9037 40.4722 28.9188 41.1278C28.9478 42.3812 28.9555 43.6352 28.9608 44.8889C28.9624 45.2573 28.7646 45.4416 28.3805 45.4211C28.0906 45.4056 27.7994 45.4133 27.5088 45.4069C26.9066 45.3936 26.8042 45.3003 26.7941 44.711C26.7813 43.9669 26.7822 43.2226 26.7765 42.4784C26.7746 42.2441 26.776 42.0096 26.7652 41.7757C26.7472 41.3837 26.4858 41.0522 26.1877 41.1052C25.8581 41.1638 25.6623 41.4192 25.6504 41.7506C25.6186 42.6454 25.6111 43.5413 25.5952 44.4367C25.5925 44.5882 25.6069 44.7407 25.5949 44.8912C25.5679 45.2278 25.4033 45.4258 25.0381 45.4193C24.72 45.4136 24.4015 45.424 24.0832 45.4207C23.56 45.4152 23.454 45.3254 23.4436 44.7896C23.4284 44.0043 23.4397 43.2185 23.4397 42.4327C23.4298 42.4327 23.4199 42.4327 23.41 42.4327L23.4103 42.4325Z" fill="black"/>
<path d="M54.6793 43.2536C54.6793 43.7354 54.6755 44.2173 54.6803 44.699C54.6853 45.1966 54.5214 45.3703 54.0171 45.3726C53.7545 45.3738 53.4894 45.382 53.2302 45.3492C53.0917 45.3317 52.9048 45.2693 52.8413 45.1655C52.6239 44.81 52.4209 44.8614 52.1002 45.0509C51.2998 45.5238 50.4731 45.6984 49.597 45.1709C48.7827 44.6807 48.5768 43.2775 49.2906 42.6319C49.8287 42.1451 50.4644 41.8226 51.2183 41.8032C51.4809 41.7964 51.7433 41.7845 52.006 41.7805C52.2473 41.7767 52.4025 41.6931 52.4079 41.4215C52.4132 41.1544 52.3333 40.9115 52.0402 40.9333C51.7421 40.9555 51.4497 41.0784 51.1593 41.1711C50.9563 41.236 50.764 41.379 50.5613 41.3906C50.1911 41.4117 49.8162 41.3681 49.4443 41.3384C49.0977 41.3108 49.0482 41.1313 49.1703 40.8265C49.4404 40.152 50.0406 39.8548 50.6546 39.7696C51.4918 39.6535 52.376 39.61 53.2021 39.7529C54.0258 39.8953 54.4561 40.2927 54.5511 41.1512C54.5903 41.5062 54.6142 41.8638 54.6275 42.2209C54.6403 42.5647 54.6303 42.9094 54.6303 43.2537C54.6466 43.2537 54.6629 43.2537 54.6792 43.2537L54.6793 43.2536ZM52.4423 43.0959C52.4209 43.0457 52.3932 42.8184 52.2759 42.7548C52.1711 42.6978 51.964 42.812 51.8083 42.8681C51.6671 42.919 51.4923 42.9597 51.4076 43.0649C51.2641 43.2434 51.0952 43.471 51.0997 43.6744C51.1028 43.8159 51.3559 44.015 51.5362 44.0775C52.0206 44.2456 52.4562 43.8147 52.4422 43.0959H52.4423Z" fill="black"/>
<path d="M45.5532 57.0305C44.7908 57.1119 43.9701 56.8002 43.3506 56.0713C42.6088 55.1985 42.4387 54.2175 42.7975 53.1007C43.2704 51.6292 44.9394 50.961 46.2115 51.1562C48.3053 51.4777 49.4165 53.5852 48.5668 55.3144C47.9925 56.4833 47.0622 57.0601 45.553 57.0304L45.5532 57.0305ZM46.4484 54.1071C46.4227 53.7834 46.4711 53.4092 46.3442 53.1083C46.2456 52.8739 45.9478 52.6161 45.7044 52.5764C45.4131 52.529 45.1047 52.7623 45.0896 53.1171C45.0619 53.773 45.0619 54.4319 45.0902 55.0879C45.1063 55.4629 45.3357 55.7019 45.7379 55.6972C46.1394 55.6925 46.3385 55.4381 46.3887 55.0747C46.4317 54.7625 46.4295 54.444 46.4484 54.1072V54.1071Z" fill="black"/>
<path d="M46.2535 42.9855C45.7697 42.9855 45.2851 42.9699 44.8028 42.995C44.6589 43.0025 44.4669 43.0915 44.3986 43.2042C44.3501 43.2846 44.4428 43.487 44.522 43.6007C44.9045 44.1502 45.4915 44.1763 45.9564 43.7071C46.0784 43.584 46.2782 43.4864 46.4497 43.4729C46.8477 43.4418 47.2512 43.4548 47.6509 43.477C48.0518 43.4994 48.1389 43.7045 47.95 44.0623C47.3445 45.2098 45.4555 45.7459 44.3578 45.3819C43.5771 45.123 42.8912 44.7895 42.4617 44.0351C41.8942 43.0381 42.0309 41.5036 42.7475 40.6189C43.8399 39.2701 46.4842 39.3215 47.4672 40.5078C47.9457 41.0853 48.2051 41.7602 48.1447 42.5287C48.1215 42.8228 47.9701 42.9793 47.6634 42.9771C47.1935 42.9738 46.7234 42.9762 46.2535 42.9762V42.9855ZM45.124 41.8108V41.8164C45.1925 41.8164 45.2615 41.8221 45.3293 41.8154C45.5471 41.7937 45.8896 41.8932 45.887 41.5774C45.8853 41.3755 45.6561 41.1443 45.4756 40.9872C45.375 40.8998 45.1166 40.8646 45.0141 40.9327C44.769 41.0951 44.4198 41.3156 44.3942 41.544C44.3529 41.9111 44.7713 41.7576 45.0011 41.8096C45.0401 41.8185 45.0829 41.8109 45.124 41.8109V41.8108Z" fill="black"/>
<path d="M67.2705 39.6342C68.4577 39.5569 69.4135 40.0413 70.0032 41.0162C70.2943 41.4977 70.3829 42.1798 70.3531 42.7604C70.2348 45.0585 67.663 45.8904 66.1274 45.2577C64.7176 44.6769 64.0182 43.4988 64.2215 42.0253C64.3707 40.9439 65.3352 39.8393 66.5268 39.6936C66.7735 39.6635 67.0226 39.6535 67.2706 39.6341L67.2705 39.6342ZM68.0314 42.5039C68.0143 42.215 68.0308 41.9195 67.9715 41.6399C67.9018 41.3124 67.7494 40.9961 67.3575 40.9536C66.9631 40.9111 66.8133 41.1962 66.6896 41.5103C66.4303 42.1686 66.4498 42.829 66.6469 43.4938C66.7474 43.8329 66.9126 44.1316 67.3292 44.0776C67.7231 44.0266 67.9215 43.7364 67.9782 43.3694C68.0222 43.0852 68.0155 42.7932 68.0315 42.5038L68.0314 42.5039Z" fill="black"/>
<path d="M55.0371 52.1422C55.0371 52.8727 55.035 53.6032 55.0378 54.3337C55.0397 54.8337 55.163 54.9746 55.6707 54.9929C56.2373 55.0132 56.805 55.0055 57.3723 55.0066C57.8447 55.0075 57.9887 55.1317 58.0223 55.6061C58.0428 55.8946 58.0429 56.1845 58.0502 56.4738C58.0583 56.7983 57.8827 56.9725 57.5723 56.9731C56.1055 56.9756 54.6388 56.9655 53.1721 56.9605C52.918 56.9596 52.7902 56.8278 52.7752 56.5817C52.766 56.4305 52.7587 56.2788 52.7587 56.1273C52.7591 54.0461 52.7603 51.9647 52.7629 49.8834C52.7635 49.4105 52.8414 49.3347 53.3183 49.3275C53.7057 49.3217 54.0931 49.317 54.4806 49.3133C54.8545 49.3097 55.0383 49.4816 55.0334 49.8681C55.0236 50.626 55.0305 51.3842 55.0305 52.1423H55.037L55.0371 52.1422Z" fill="black"/>
<path d="M30.4894 43.231C30.4894 42.7489 30.4797 42.2665 30.4928 41.7847C30.5013 41.4682 30.3886 41.2621 30.078 41.1549C29.6749 41.0157 29.5718 40.7124 29.5894 40.3043C29.606 39.92 29.7579 39.719 30.1376 39.6665C30.4 39.6302 30.4969 39.4548 30.508 39.1989C30.5176 38.98 30.5614 38.7623 30.5963 38.545C30.6965 37.9205 31.0931 37.5432 31.6898 37.4646C32.2868 37.3859 32.8998 37.3979 33.5036 37.4229C33.6706 37.4298 33.9489 37.6064 33.969 37.7367C34.0192 38.0619 33.9839 38.4135 33.9047 38.7355C33.8857 38.8125 33.555 38.7967 33.3787 38.856C33.1315 38.9391 32.8433 38.9987 32.666 39.1664C32.4352 39.3848 32.5384 39.5981 32.8588 39.6503C33.0622 39.6833 33.2727 39.6908 33.479 39.6833C33.8917 39.668 34.0618 39.8614 34.0265 40.2607C34.0192 40.3426 34.029 40.426 34.0265 40.5085C34.0122 40.9888 33.883 41.1202 33.4072 41.1381C33.3244 41.1412 33.2413 41.1396 33.1583 41.1407C32.781 41.146 32.6133 41.3337 32.6163 41.7118C32.6238 42.6898 32.6192 43.668 32.615 44.646C32.6124 45.258 32.4327 45.43 31.8189 45.4252C30.9278 45.4183 30.48 44.9762 30.4753 44.099C30.4738 43.8098 30.4751 43.5205 30.4751 43.2313H30.4892L30.4894 43.231Z" fill="black"/>
<path d="M38.29 42.7329C38.29 42.3752 38.2876 42.0174 38.2907 41.6596C38.2933 41.3585 38.1815 41.149 37.856 41.1128C37.5458 41.0783 37.4319 40.891 37.4376 40.6036C37.4408 40.4385 37.4493 40.2735 37.4497 40.1084C37.4501 39.8404 37.5843 39.6894 37.8499 39.6852C38.2316 39.6793 38.3533 39.4711 38.3416 39.1255C38.3332 38.8782 38.3511 38.63 38.3438 38.3825C38.3347 38.0757 38.4744 37.9145 38.7824 37.9101C39.1968 37.9041 39.6112 37.9014 40.0257 37.9041C40.2925 37.9059 40.4329 38.0391 40.4311 38.3141C40.4291 38.6168 40.4395 38.9196 40.436 39.2223C40.4326 39.5281 40.5697 39.6603 40.8838 39.6816C41.5425 39.7261 41.8438 40.2054 41.5527 40.7975C41.4747 40.9563 41.1825 41.0755 40.9779 41.0936C40.5831 41.1286 40.4428 41.3196 40.4462 41.6791C40.4503 42.1195 40.4512 42.5598 40.4542 43.0001C40.4577 43.5225 40.5915 43.6883 41.0978 43.7944C41.3391 43.8451 41.5934 43.8506 41.6284 44.1981C41.698 44.8896 41.6102 45.1709 41.2233 45.3434C40.4243 45.6997 39.0495 45.3398 38.5702 44.616C38.4332 44.4092 38.3572 44.1376 38.3316 43.8878C38.2924 43.5066 38.3213 43.1183 38.3213 42.733C38.311 42.733 38.3005 42.733 38.2901 42.733L38.29 42.7329Z" fill="black"/>
<path d="M56.1037 42.738C56.1037 42.4078 56.0919 42.0771 56.107 41.7477C56.1214 41.4347 56.0171 41.2275 55.7096 41.1056C55.2723 40.9323 55.039 40.3188 55.2672 39.9105C55.3327 39.7933 55.5245 39.7051 55.6708 39.6824C55.9964 39.6316 56.1222 39.4617 56.1129 39.1496C56.105 38.8883 56.1155 38.6265 56.1126 38.365C56.1091 38.0462 56.2468 37.8742 56.5836 37.8803C56.9567 37.8869 57.3298 37.8822 57.7029 37.8842C58.0546 37.8859 58.2421 38.0432 58.2319 38.4139C58.2243 38.6887 58.2465 38.9642 58.2467 39.2394C58.2469 39.5387 58.3737 39.6861 58.6902 39.7084C59.2749 39.7495 59.3504 39.8461 59.3437 40.4158C59.3381 40.9008 59.1844 41.0218 58.6744 41.1115C58.5103 41.1404 58.2673 41.3567 58.2558 41.5027C58.2091 42.0903 58.2207 42.6847 58.2479 43.2749C58.2616 43.574 58.4221 43.7753 58.7769 43.7892C59.1338 43.8031 59.2999 44.0168 59.3249 44.3842C59.3526 44.7912 59.3762 45.2188 58.9115 45.3486C58.187 45.551 57.0229 45.5524 56.4483 44.7506C56.2411 44.4615 56.1769 44.0516 56.1132 43.6854C56.0598 43.3781 56.1023 43.0545 56.1023 42.738C56.1027 42.738 56.1032 42.738 56.1037 42.738Z" fill="black"/>
<path d="M35.0224 54.1438C35.0224 53.4141 35.0196 52.6842 35.0232 51.9544C35.0261 51.3648 35.1617 51.234 35.7633 51.2229C35.9429 51.2195 36.1338 51.1791 36.2998 51.2255C36.5358 51.2915 36.7926 51.3792 36.9687 51.537C37.152 51.7012 37.2324 51.7334 37.4388 51.5683C37.6671 51.3857 37.9483 51.2453 38.2288 51.157C38.4923 51.0742 38.695 51.2117 38.7009 51.5156C38.7085 51.9144 38.7049 52.3139 38.6918 52.7126C38.6834 52.9668 38.5556 53.1204 38.2781 53.1262C37.6257 53.1396 37.3068 53.3394 37.2262 54.2855C37.1668 54.9832 37.209 55.6891 37.1967 56.3911C37.1884 56.8642 37.0783 56.9702 36.6018 56.978C36.2564 56.9836 35.9106 56.9761 35.5651 56.9734C35.1949 56.9704 35.0196 56.8132 35.0315 56.4154C35.0543 55.6587 35.038 54.901 35.038 54.1436H35.0223L35.0224 54.1438Z" fill="black"/>
<path d="M60.0469 42.4623C60.0463 41.7057 60.0553 40.9488 60.0423 40.1924C60.0362 39.8403 60.1924 39.6853 60.5333 39.685C60.8234 39.6848 61.1135 39.6742 61.4032 39.6834C61.5251 39.6873 61.6918 39.6888 61.7591 39.7628C62.0999 40.1372 62.3872 40.1208 62.7568 39.7742C62.8949 39.6447 63.2048 39.6519 63.4278 39.6756C63.542 39.6878 63.6679 39.8589 63.7317 39.9864C63.7814 40.0859 63.745 40.2291 63.744 40.3528C63.737 41.2427 63.7391 41.2485 62.9327 41.5686C62.4229 41.771 62.2415 42.187 62.2191 42.6758C62.1882 43.3487 62.2081 44.0239 62.1985 44.6979C62.1902 45.2709 62.0552 45.4027 61.4868 45.4053C61.2246 45.4066 60.9611 45.409 60.7002 45.3873C60.1699 45.3433 60.0498 45.21 60.0482 44.691C60.046 43.9481 60.0476 43.2052 60.047 42.4623H60.0469Z" fill="black"/>
<path d="M36.9173 42.498C36.9173 43.2406 36.9195 43.9831 36.9165 44.7255C36.9146 45.2145 36.7309 45.4028 36.2431 45.4109C35.9256 45.4162 35.6076 45.4149 35.2905 45.4007C34.8556 45.3812 34.6509 45.1848 34.6479 44.7591C34.6371 43.2463 34.6397 41.7335 34.6309 40.2207C34.6289 39.8845 34.7771 39.6919 35.114 39.6837C35.5829 39.6722 36.0525 39.6748 36.5215 39.6863C36.8388 39.6941 36.9398 39.9014 36.9391 40.1874C36.9371 40.9577 36.9384 41.7278 36.9384 42.498C36.9314 42.498 36.9244 42.498 36.9173 42.498Z" fill="black"/>
<path d="M39.5253 54.1181C39.5248 53.3748 39.5206 52.6316 39.5262 51.8883C39.5306 51.289 39.6893 51.145 40.3007 51.1569C40.5356 51.1615 40.7706 51.161 41.0054 51.1665C41.5724 51.1797 41.6945 51.293 41.6976 51.8484C41.7052 53.2111 41.7171 54.5741 41.7038 55.9367C41.6936 56.9895 41.8589 56.9688 40.632 56.9848C39.3747 57.0012 39.5356 56.9846 39.5267 55.8939C39.5219 55.3021 39.5259 54.7101 39.5253 54.1182V54.1181Z" fill="black"/>
<path d="M35.7929 39.2205C35.0761 39.2185 34.7045 38.8603 34.6781 38.1456C34.6589 37.6261 34.7555 37.5183 35.2822 37.5087C35.654 37.502 36.0265 37.5016 36.3978 37.5188C36.7174 37.5336 36.9203 37.6822 36.8813 38.0404C36.8783 38.0675 36.8809 38.0952 36.881 38.1227C36.886 39.2108 37.0159 39.2513 35.7929 39.2205Z" fill="black"/>
<path d="M40.5762 50.6999C39.3389 50.7389 39.5355 50.6945 39.5224 49.5824C39.5165 49.084 39.6019 49.0068 40.0984 49.0054C40.4852 49.0042 40.8719 49.0051 41.2586 49.0073C41.5424 49.0089 41.6953 49.1448 41.6975 49.436C41.6992 49.6699 41.7084 49.9037 41.7097 50.1376C41.7124 50.6161 41.6346 50.6959 41.1674 50.6998C40.9878 50.7013 40.8083 50.7 40.5762 50.7V50.6999Z" fill="black"/>
</svg>
