<svg width="188" height="85" viewBox="0 0 188 85" fill="none" xmlns="http://www.w3.org/2000/svg">
<path d="M146.826 50.2143C146.826 52.8565 147.104 54.5423 147.658 55.2835C148.212 56.0248 149.01 56.3954 150.063 56.3954C153.266 56.3954 156.635 53.5977 160.159 48.0024L160.059 47.9188C160.902 46.5677 161.5 45.6591 161.855 45.2287C161.678 46.233 161.589 47.3688 161.589 48.6241C161.589 50.9794 162.298 52.9282 163.706 54.4466C165.113 55.965 167.008 56.7302 169.369 56.7302C173.015 56.7302 176.196 55.2118 178.945 52.175C181.682 49.1382 183.057 45.7787 183.057 42.0843C183.057 39.5019 182.336 37.4814 180.895 36.0347C179.455 34.5881 177.46 33.8588 174.933 33.8588C172.406 33.8588 169.746 34.7076 167.33 36.4173C164.914 38.115 161.811 41.893 158.02 47.7275L158.109 47.7992C155.66 51.2425 153.775 52.9641 152.479 52.9641C151.891 52.9641 151.537 52.6532 151.404 52.0196C151.271 51.3859 151.204 50.2262 151.204 48.5285V42.2158C151.204 38.5096 150.872 36.1782 150.196 35.2337C149.52 34.2892 148.578 33.8229 147.358 33.8229C146.017 33.8229 144.687 34.3848 143.38 35.5206C142.072 36.6564 140.354 38.8802 138.226 42.2158V33.4403L133.948 35.6521C133.194 39.2389 131.344 43.256 128.396 47.7275H128.407C125.847 51.2185 123.962 52.9641 122.754 52.9641C122.112 52.9641 121.713 52.6652 121.557 52.0674C121.402 51.4696 121.314 50.2501 121.314 48.385V33.4403L116.947 35.9391C116.182 39.478 114.597 43.1364 112.192 46.9025C109.322 50.9436 107.238 52.9641 105.942 52.9641C105.332 52.9641 104.955 52.6054 104.8 51.9C104.656 51.1946 104.578 49.8675 104.578 47.9188V34.2892C109.156 26.6255 112.403 20.6596 114.32 16.3914C116.249 12.1351 117.202 8.75163 117.202 6.22896C117.202 4.33995 116.77 2.83352 115.916 1.69772C115.052 0.561921 113.866 0 112.359 0C109.499 0 106.762 1.82923 104.146 5.46379C101.52 9.1103 100.212 13.1753 100.212 17.6706V35.9152C100.212 36.4173 99.9236 37.4455 99.3583 38.9997C98.7931 40.554 98.2722 41.8093 97.8067 42.7658C97.3413 43.7223 96.8869 44.5711 96.4325 45.3124C95.9891 46.0417 95.4904 46.8308 94.9363 47.6677C93.7504 49.2937 92.5313 50.5968 91.1016 51.5055C89.428 52.5695 87.8986 53.1076 86.5354 53.1076C83.676 53.1076 81.803 51.9718 80.8942 49.7121C87.5661 45.7548 90.9021 41.7257 90.9021 37.6368C90.9021 36.4412 90.5142 35.4728 89.7384 34.7196C88.9626 33.9664 87.9873 33.5838 86.7903 33.5838C84.6291 33.5838 82.5345 34.4924 80.4952 36.2977C78.456 38.1031 75.1311 41.8333 71.3518 47.5959C69.5453 50.1186 67.9494 51.4816 66.9851 52.1631C65.8769 52.9521 64.6356 53.3945 63.2724 53.4782V33.8109C68.0159 25.7049 71.1856 19.6553 72.7593 15.6621C74.3331 11.6688 75.12 8.1658 75.12 5.15294C75.12 1.72163 73.4132 0.0119558 70.0108 0.0119558C67.1292 0.0119558 64.558 1.42274 62.2971 4.25626C60.0362 7.08978 58.9057 10.3417 58.9057 14.0122V35.1858C58.9057 35.5326 58.3848 36.8836 57.3319 39.2389C56.279 41.5941 55.4811 43.3038 54.9269 44.3559C54.3728 45.408 53.8186 46.4123 53.2645 47.3449L53.2977 47.3807C52.1451 49.0665 51.0701 50.3936 50.0726 51.3501C48.9643 52.4141 48.1331 52.9521 47.579 52.9521C46.9361 52.9521 46.5482 52.7848 46.4042 52.438C46.2601 52.0913 46.1825 51.0751 46.1825 49.3774V33.3327L42.3367 35.4489C40.8516 34.4805 39.3444 33.9903 37.8371 33.9903C35.7092 33.9903 33.2266 35.2098 30.3894 37.6487C27.5521 40.0877 24.8479 43.4353 22.2767 47.7155L22.3099 47.7394C19.9049 51.2066 17.3337 52.9521 14.5851 52.9521C12.4239 52.9521 10.6507 52.0076 9.25424 50.1186C7.85779 48.2296 7.15956 45.9819 7.15956 43.3756C7.15956 41.1159 7.74696 39.2628 8.93283 37.8161C10.1076 36.3695 11.4265 35.6521 12.8894 35.6521C15.3609 35.6521 17.245 37.3618 18.5306 40.7931C20.0157 40.004 20.9578 38.7487 21.3679 37.027C19.9936 34.7674 17.7992 33.6316 14.7735 33.6316C12.9338 33.6316 11.094 34.2653 9.24315 35.5445C7.39231 36.8118 4.31125 40.8768 0 47.7275L1.44078 48.8154L3.40246 45.8982L3.31379 46.2808C3.31379 49.485 4.0896 51.9837 5.63012 53.7532C7.17065 55.5226 9.19882 56.4193 11.7036 56.4193C16.8571 56.4193 21.0686 53.6217 24.3381 48.0264L24.2716 47.9785C25.125 46.6514 25.6902 45.8026 25.9562 45.4319V47.4644C25.9562 50.2621 26.6212 52.4978 27.94 54.1597C29.27 55.8215 31.0543 56.6584 33.2931 56.6584C34.8336 56.6584 36.219 56.2998 37.427 55.5944C38.635 54.889 40.1202 53.3706 41.8602 51.0392C41.8934 53.2391 42.1705 54.6857 42.6914 55.3792C43.2123 56.0726 44.0768 56.4193 45.2737 56.4193C48.4545 56.4193 51.7018 53.6217 55.0156 48.0264L54.9602 47.9666C56.5118 45.5754 57.8417 42.981 58.9057 40.1953V52.6891C58.0634 52.3424 57.2322 51.4577 56.412 50.0469C55.3924 51.3979 54.7385 52.7489 54.4504 54.0999C55.9687 55.2596 57.4538 55.965 58.9057 56.2161V73.6117C58.9057 79.8646 57.476 82.997 54.6277 82.997C53.5194 82.997 52.6217 82.5666 51.9235 81.7297C51.2252 80.8808 50.8706 79.8646 50.8706 78.669C50.8706 78.3582 50.9592 77.9038 51.1366 77.3061L50.4384 76.6485L46.8586 80.4624C48.4878 83.1644 50.7487 84.5154 53.6302 84.5154C56.5118 84.5154 58.6619 83.4274 60.5127 81.2395C62.3636 79.0516 63.2835 76.1583 63.2835 72.5357V56.2041C66.298 56.2041 69.6783 53.8966 72.848 48.7915C73.7236 47.4644 74.3996 46.3525 75.6077 45.3124C75.4857 46.1613 75.4303 46.9623 75.4303 47.7155C75.4303 50.549 76.1396 52.7369 77.5472 54.2912C78.9547 55.8454 80.872 56.6226 83.2992 56.6226C86.6241 56.6226 89.3061 55.9411 91.3454 54.5662C93.3736 53.2032 95.169 51.0273 96.8868 48.0383C98.3166 45.946 99.4248 43.8179 100.223 41.63V50.2143C100.223 52.8565 100.489 54.5423 101.01 55.2835C101.531 56.0248 102.306 56.3954 103.326 56.3954C106.673 56.3954 110.053 53.6814 113.467 48.2774C114.974 46.1134 116.138 43.9016 116.958 41.642V50.2262C116.958 52.5217 117.158 54.1238 117.568 55.0324C117.978 55.9411 118.964 56.3954 120.538 56.3954C121.934 56.3954 123.508 55.6781 125.259 54.2314C126.966 52.8206 128.628 50.812 130.246 48.2057C131.831 45.8982 133.039 43.6147 133.859 41.367V57.2084L138.226 54.1955V45.7069C138.226 45.5156 138.758 44.5711 139.822 42.8495C140.886 41.1398 141.706 39.9084 142.294 39.1671C142.881 38.4259 143.424 37.8759 143.934 37.4933C144.444 37.1107 144.931 36.9314 145.397 36.9314C146.361 36.9314 146.838 37.7683 146.838 39.4301V50.2143H146.826ZM167.696 38.7128C168.959 37.051 170.655 36.214 172.783 36.214C174.789 36.214 176.407 36.9194 177.637 38.3063C178.856 39.7051 179.477 41.642 179.477 44.1288C179.477 46.9862 178.823 49.2817 177.515 51.0153C176.207 52.7489 174.445 53.6097 172.229 53.6097C167.951 53.6097 165.8 50.9675 165.8 45.683C165.8 42.706 166.432 40.3747 167.696 38.7128ZM104.567 14.8132C104.567 10.9754 105.199 7.95059 106.474 5.71486C107.737 3.47913 109.289 2.36724 111.128 2.36724C113.134 2.36724 114.143 4.12474 114.143 7.6517C114.143 9.94721 113.522 12.6612 112.281 15.7816C111.04 18.914 108.468 23.9355 104.567 30.8459V14.8132ZM63.2724 10.8439C63.2724 8.20166 63.8154 6.07353 64.8905 4.4595C65.9655 2.84547 67.2179 2.03248 68.6476 2.03248C70.576 2.03248 71.5291 3.46718 71.5291 6.32461C71.5291 12.0514 68.7806 19.6673 63.2724 29.196V10.8439ZM41.7715 47.4405C41.7715 47.847 41.1952 48.7676 40.0426 50.2023C38.89 51.637 37.6376 52.3424 36.2855 52.3424C34.5565 52.3424 33.1933 51.7207 32.207 50.4773C31.2095 49.2339 30.7108 47.4883 30.7108 45.2167C30.7108 42.6104 31.409 40.4225 32.8165 38.665C34.224 36.9075 35.7978 36.0228 37.56 36.0228C39.2003 36.0228 40.5967 36.6684 41.7715 37.9596V47.4405ZM79.6973 46.6395C79.4645 45.8504 79.3426 44.8939 79.3426 43.7581C79.3426 41.6778 79.8524 39.9084 80.872 38.4259C81.8917 36.9433 83.144 36.214 84.6292 36.214C85.4493 36.214 86.0921 36.5129 86.5687 37.1107C87.0452 37.7085 87.289 38.4737 87.289 39.4182C87.289 42.5267 84.873 45.3602 80.0297 47.9068C80.0519 47.8111 79.93 47.3927 79.6973 46.6395Z" fill="black"/>
<path d="M186.559 46.8672C183.556 51.8647 179.654 54.9493 174.844 56.109L175.199 57.197C177.272 56.9459 179.333 56.2405 181.405 55.1047C183.478 53.957 185.672 51.5897 188 48.003L186.559 46.8672Z" fill="black"/>
<path d="M74.2562 66.4971C74.766 66.4971 75.2426 66.6286 75.6637 66.8916C76.0849 67.1546 76.4063 67.5133 76.6169 67.9557L77.4813 67.4177C77.1599 66.8199 76.7166 66.3416 76.1403 65.983C75.564 65.6243 74.9323 65.4569 74.2451 65.4569C73.1147 65.4569 72.1726 65.8634 71.4301 66.6644C70.6875 67.4774 70.3218 68.4698 70.3218 69.6414C70.3218 70.8131 70.6875 71.8174 71.4301 72.6184C72.1726 73.4314 73.1036 73.826 74.2451 73.826C74.9323 73.826 75.564 73.6466 76.1403 73.2879C76.7166 72.9293 77.1599 72.451 77.4813 71.8532L76.6169 71.3272C76.4063 71.7696 76.0849 72.1163 75.6637 72.3793C75.2426 72.6423 74.766 72.7738 74.2562 72.7738C73.3917 72.7738 72.6824 72.475 72.1394 71.8772C71.5963 71.2794 71.3192 70.5262 71.3192 69.6414C71.3192 68.7567 71.5963 67.9915 72.1394 67.3937C72.6935 66.796 73.3917 66.4971 74.2562 66.4971Z" fill="black"/>
<path d="M82.9226 68.9115C82.4571 68.1464 81.781 67.7638 80.8944 67.7638C80.1408 67.7638 79.5091 68.0627 78.9771 68.6485C78.4451 69.2344 78.1902 69.9517 78.1902 70.8006C78.1902 71.6494 78.4562 72.3668 78.9771 72.9526C79.5091 73.5384 80.1408 73.8373 80.8944 73.8373C81.781 73.8373 82.4571 73.4547 82.9226 72.6896V73.6819H83.8536V67.9192H82.9226V68.9115ZM82.3795 72.2831C82.0138 72.6776 81.5594 72.8809 81.0163 72.8809C80.4733 72.8809 80.0299 72.6776 79.6642 72.2831C79.2985 71.8885 79.1211 71.3984 79.1211 70.8125C79.1211 70.2267 79.2985 69.7365 79.6642 69.342C80.0299 68.9474 80.4733 68.7442 81.0163 68.7442C81.5594 68.7442 82.0138 68.9474 82.3795 69.342C82.7453 69.7365 82.9226 70.2267 82.9226 70.8125C82.9226 71.3984 82.7342 71.8766 82.3795 72.2831Z" fill="black"/>
<path d="M85.6611 67.741V67.9084H84.8077V68.8768H85.6611V73.683H86.5921V68.8768H88.0107V67.9203H86.5921V67.7529C86.5921 66.7845 87.0687 66.3541 88.0107 66.4378V65.4694C87.2571 65.4216 86.6697 65.5889 86.2707 65.9835C85.8606 66.378 85.6611 66.9639 85.6611 67.741Z" fill="black"/>
<path d="M92.1883 65.6017H91.069L90.2156 67.1201H91.1133L92.1883 65.6017Z" fill="black"/>
<path d="M90.9133 67.7638C90.0821 67.7638 89.406 68.0507 88.8852 68.6246C88.3643 69.1985 88.0983 69.9278 88.0983 70.8006C88.0983 71.6733 88.3643 72.4026 88.8962 72.9765C89.4282 73.5504 90.1154 73.8373 90.9687 73.8373C92.0216 73.8373 92.8085 73.4069 93.3294 72.5341L92.5425 72.044C92.2211 72.6059 91.7113 72.8928 91.002 72.8928C90.4922 72.8928 90.071 72.7494 89.7275 72.4624C89.3839 72.1755 89.1622 71.7809 89.0736 71.2668H93.5621C93.5843 71.1114 93.5954 70.9679 93.5954 70.8125C93.5954 69.9756 93.3516 69.2583 92.8528 68.6605C92.343 68.0627 91.7002 67.7638 90.9133 67.7638ZM89.0625 70.3941C89.1401 69.88 89.3396 69.4854 89.672 69.1746C90.0045 68.8757 90.4146 68.7203 90.9133 68.7203C91.3456 68.7203 91.7113 68.8637 92.0327 69.1507C92.3541 69.4376 92.5536 69.8561 92.6312 70.3941H89.0625Z" fill="black"/>
<path d="M103.025 70.4916L102.172 69.9536C102.094 70.5275 101.961 71.0177 101.784 71.4242L99.7445 69.0689C99.5229 68.8178 99.3566 68.5907 99.2458 68.3874C99.135 68.1842 99.0795 67.957 99.0795 67.706C99.0795 67.3473 99.2014 67.0603 99.4342 66.8451C99.678 66.618 99.9662 66.5104 100.31 66.5104C100.631 66.5104 100.919 66.606 101.163 66.8093C101.407 67.0125 101.584 67.2875 101.695 67.6462L102.526 67.1321C102.349 66.618 102.05 66.2115 101.651 65.9245C101.241 65.6376 100.786 65.4822 100.288 65.4822C99.678 65.4822 99.1571 65.6854 98.7249 66.1039C98.2926 66.5223 98.0821 67.0603 98.0821 67.7299C98.0821 68.2679 98.2372 68.7581 98.5586 69.2004C98.1042 69.4395 97.7718 69.7623 97.539 70.1808C97.3063 70.5873 97.1954 71.0416 97.1954 71.5438C97.1954 72.2611 97.4282 72.823 97.8937 73.2534C98.3591 73.6719 98.9687 73.8871 99.7113 73.8871C100.587 73.8871 101.296 73.6002 101.85 73.0382L102.615 73.911L103.446 73.3969L102.46 72.2611C102.737 71.7111 102.925 71.1373 103.025 70.4916ZM99.7334 72.823C99.2458 72.823 98.869 72.7035 98.603 72.4524C98.337 72.2013 98.1929 71.8666 98.1929 71.4362C98.1929 71.1253 98.2705 70.8384 98.4367 70.5634C98.5919 70.2884 98.8468 70.0732 99.1904 69.9178L101.219 72.2611C100.82 72.6437 100.321 72.823 99.7334 72.823Z" fill="black"/>
<path d="M109.221 65.6128L106.428 73.6949H107.492L108.101 71.8776H111.47L112.08 73.6949H113.144L110.351 65.6128H109.221ZM108.445 70.8733L109.786 66.8801L111.127 70.8733H108.445Z" fill="black"/>
<path d="M118.232 68.9134C117.766 68.1483 117.09 67.7657 116.203 67.7657C115.45 67.7657 114.818 68.0646 114.286 68.6504C113.754 69.2362 113.499 69.9536 113.499 70.8025C113.499 71.6513 113.765 72.3687 114.286 72.9545C114.818 73.5403 115.45 73.8392 116.203 73.8392C117.09 73.8392 117.766 73.4566 118.232 72.6915V73.6838H119.163V65.6017H118.232V68.9134ZM117.688 72.285C117.323 72.6795 116.868 72.8828 116.325 72.8828C115.782 72.8828 115.339 72.6795 114.973 72.285C114.607 71.8904 114.43 71.4002 114.43 70.8144C114.43 70.2286 114.607 69.7384 114.973 69.3438C115.339 68.9493 115.782 68.7461 116.325 68.7461C116.868 68.7461 117.323 68.9493 117.688 69.3438C118.054 69.7384 118.232 70.2286 118.232 70.8144C118.232 71.4002 118.054 71.8785 117.688 72.285Z" fill="black"/>
<path d="M123.087 67.7638C122.3 67.7638 121.635 68.0507 121.092 68.6366C120.549 69.2224 120.271 69.9397 120.271 70.8006C120.271 71.6614 120.549 72.3787 121.092 72.9646C121.635 73.5504 122.3 73.8373 123.087 73.8373C123.873 73.8373 124.538 73.5504 125.093 72.9646C125.647 72.3787 125.913 71.6614 125.913 70.8006C125.913 69.9397 125.636 69.2224 125.093 68.6366C124.538 68.0627 123.862 67.7638 123.087 67.7638ZM124.428 72.2711C124.062 72.6657 123.619 72.857 123.075 72.857C122.532 72.857 122.1 72.6657 121.734 72.2711C121.369 71.8766 121.191 71.3864 121.191 70.8006C121.191 70.2147 121.369 69.7245 121.734 69.33C122.1 68.9355 122.543 68.7442 123.075 68.7442C123.607 68.7442 124.062 68.9355 124.428 69.33C124.793 69.7245 124.971 70.2147 124.971 70.8006C124.971 71.3864 124.793 71.8766 124.428 72.2711Z" fill="black"/>
<path d="M129.958 67.7638C129.072 67.7638 128.395 68.1464 127.93 68.9115V67.9192H126.999V76.0013H127.93V72.7015C128.395 73.4667 129.072 73.8493 129.958 73.8493C130.712 73.8493 131.344 73.5504 131.876 72.9646C132.407 72.3787 132.662 71.6614 132.662 70.8125C132.662 69.9637 132.396 69.2463 131.876 68.6605C131.344 68.0627 130.701 67.7638 129.958 67.7638ZM131.188 72.2831C130.823 72.6776 130.379 72.8809 129.836 72.8809C129.293 72.8809 128.839 72.6776 128.473 72.2831C128.107 71.8885 127.93 71.3983 127.93 70.8125C127.93 70.2267 128.107 69.7365 128.473 69.342C128.839 68.9474 129.293 68.7442 129.836 68.7442C130.379 68.7442 130.823 68.9474 131.188 69.342C131.554 69.7365 131.731 70.2267 131.731 70.8125C131.731 71.3983 131.554 71.8766 131.188 72.2831Z" fill="black"/>
<path d="M135.134 66.306L134.203 66.6049V67.9201H133.139V68.8885H134.203V72.0209C134.203 72.7382 134.391 73.2284 134.768 73.4795C135.145 73.7425 135.743 73.8143 136.552 73.6947V72.798C136.242 72.81 135.976 72.8219 135.765 72.81C135.555 72.81 135.389 72.7502 135.289 72.6306C135.189 72.5111 135.134 72.3078 135.134 72.0209V68.8885H136.552V67.9201H135.134V66.306Z" fill="black"/>
<path d="M138.127 65.5175C137.95 65.5175 137.794 65.5892 137.672 65.7208C137.55 65.8524 137.495 66.0199 137.495 66.1994C137.495 66.3788 137.55 66.5463 137.672 66.6779C137.794 66.8095 137.939 66.8693 138.127 66.8693C138.293 66.8693 138.449 66.8095 138.571 66.6779C138.693 66.5463 138.748 66.3908 138.748 66.1994C138.748 66.0199 138.693 65.8524 138.571 65.7208C138.449 65.5892 138.293 65.5175 138.127 65.5175Z" fill="black"/>
<path d="M138.58 67.9214H137.649V73.696H138.58V67.9214Z" fill="black"/>
<path d="M142.515 67.7638C141.728 67.7638 141.063 68.0507 140.52 68.6366C139.977 69.2224 139.7 69.9397 139.7 70.8006C139.7 71.6614 139.977 72.3787 140.52 72.9646C141.063 73.5504 141.728 73.8373 142.515 73.8373C143.302 73.8373 143.967 73.5504 144.521 72.9646C145.075 72.3787 145.341 71.6614 145.341 70.8006C145.341 69.9397 145.064 69.2224 144.521 68.6366C143.967 68.0627 143.302 67.7638 142.515 67.7638ZM143.867 72.2711C143.501 72.6657 143.058 72.857 142.515 72.857C141.972 72.857 141.539 72.6657 141.174 72.2711C140.808 71.8766 140.631 71.3864 140.631 70.8006C140.631 70.2147 140.808 69.7245 141.174 69.33C141.539 68.9355 141.983 68.7442 142.515 68.7442C143.047 68.7442 143.501 68.9355 143.867 69.33C144.233 69.7245 144.41 70.2147 144.41 70.8006C144.41 71.3864 144.233 71.8766 143.867 72.2711Z" fill="black"/>
<path d="M149.099 67.7638C148.323 67.7638 147.747 68.0866 147.37 68.7442V67.9073H146.439V73.6819H147.37V70.6212C147.37 69.9756 147.514 69.4974 147.802 69.1865C148.09 68.8757 148.467 68.7203 148.922 68.7203C149.332 68.7203 149.664 68.8518 149.897 69.1028C150.13 69.3659 150.251 69.7245 150.251 70.1908V73.6819H151.182V70.131C151.182 69.4017 150.994 68.8159 150.617 68.3974C150.229 67.979 149.731 67.7638 149.099 67.7638Z" fill="black"/>
<path d="M158.751 66.4971C159.261 66.4971 159.737 66.6286 160.159 66.8916C160.58 67.1546 160.901 67.5133 161.112 67.9557L161.976 67.4177C161.655 66.8199 161.211 66.3416 160.635 65.983C160.059 65.6243 159.427 65.4569 158.74 65.4569C157.61 65.4569 156.667 65.8634 155.925 66.6644C155.182 67.4774 154.817 68.4698 154.817 69.6414C154.817 70.8131 155.182 71.8174 155.925 72.6184C156.667 73.4314 157.598 73.826 158.74 73.826C159.427 73.826 160.059 73.6466 160.635 73.2879C161.211 72.9293 161.655 72.451 161.976 71.8532L161.112 71.3272C160.901 71.7696 160.58 72.1163 160.159 72.3793C159.737 72.6423 159.261 72.7738 158.751 72.7738C157.887 72.7738 157.177 72.475 156.634 71.8772C156.091 71.2794 155.814 70.5262 155.814 69.6414C155.814 68.7567 156.091 67.9915 156.634 67.3937C157.177 66.796 157.887 66.4971 158.751 66.4971Z" fill="black"/>
<path d="M165.479 67.7638C164.648 67.7638 163.972 68.0507 163.451 68.6246C162.93 69.1985 162.664 69.9278 162.664 70.8006C162.664 71.6733 162.93 72.4026 163.462 72.9765C163.994 73.5504 164.681 73.8373 165.535 73.8373C166.588 73.8373 167.374 73.4069 167.895 72.5341L167.108 72.044C166.787 72.6059 166.277 72.8928 165.568 72.8928C165.058 72.8928 164.637 72.7494 164.293 72.4624C163.95 72.1755 163.728 71.7809 163.639 71.2668H168.128C168.15 71.1114 168.161 70.9679 168.161 70.8125C168.161 69.9756 167.917 69.2583 167.419 68.6605C166.909 68.0627 166.266 67.7638 165.479 67.7638ZM163.628 70.3941C163.706 69.88 163.905 69.4854 164.238 69.1746C164.57 68.8757 164.981 68.7203 165.479 68.7203C165.911 68.7203 166.277 68.8637 166.599 69.1507C166.92 69.4376 167.12 69.8561 167.197 70.3941H163.628Z" fill="black"/>
<path d="M171.876 67.7638C171.1 67.7638 170.524 68.0866 170.136 68.7442V67.9073H169.205V73.6819H170.136V70.6212C170.136 69.9756 170.28 69.4974 170.568 69.1865C170.856 68.8757 171.233 68.7203 171.688 68.7203C172.098 68.7203 172.43 68.8518 172.663 69.1028C172.896 69.3659 173.017 69.7245 173.017 70.1908V73.6819H173.948V70.131C173.948 69.4017 173.76 68.8159 173.383 68.3974C173.006 67.979 172.508 67.7638 171.876 67.7638Z" fill="black"/>
<path d="M176.728 66.306L175.797 66.6049V67.9201H174.733V68.8885H175.797V72.0209C175.797 72.7382 175.985 73.2284 176.362 73.4795C176.739 73.7425 177.337 73.8143 178.146 73.6947V72.798C177.836 72.81 177.57 72.8219 177.359 72.81C177.149 72.81 176.983 72.7502 176.883 72.6306C176.783 72.5111 176.728 72.3078 176.728 72.0209V68.8885H178.146V67.9201H176.728V66.306Z" fill="black"/>
<path d="M181.483 67.7638C180.652 67.7638 179.976 68.0507 179.455 68.6246C178.934 69.1985 178.668 69.9278 178.668 70.8006C178.668 71.6733 178.934 72.4026 179.466 72.9765C179.998 73.5504 180.685 73.8373 181.539 73.8373C182.592 73.8373 183.379 73.4069 183.899 72.5341L183.113 72.044C182.791 72.6059 182.281 72.8928 181.572 72.8928C181.062 72.8928 180.641 72.7494 180.298 72.4624C179.954 72.1755 179.732 71.7809 179.644 71.2668H184.132C184.154 71.1114 184.165 70.9679 184.165 70.8125C184.165 69.9756 183.922 69.2583 183.423 68.6605C182.902 68.0627 182.259 67.7638 181.483 67.7638ZM179.621 70.3941C179.699 69.88 179.899 69.4854 180.231 69.1746C180.564 68.8757 180.974 68.7203 181.472 68.7203C181.905 68.7203 182.27 68.8637 182.592 69.1507C182.913 69.4376 183.113 69.8561 183.19 70.3941H179.621Z" fill="black"/>
<path d="M186.137 68.8897V67.9213H185.206V73.696H186.137V70.6353C186.137 70.0016 186.304 69.5473 186.625 69.2604C186.957 68.9734 187.345 68.8419 187.8 68.8658V67.8137C187.002 67.8137 186.436 68.1724 186.137 68.8897Z" fill="black"/>
</svg>
