<svg width="86" height="86" viewBox="0 0 86 86" fill="none" xmlns="http://www.w3.org/2000/svg">
<path d="M42.0351 85.2785C40.7158 85.1701 38.4992 85.0641 36.3057 84.78C34.8849 84.5961 33.4972 84.1564 32.0973 83.8227C31.5299 83.6873 30.9496 83.5772 30.4065 83.3732C28.4994 82.6563 26.5546 82.0091 24.7211 81.1348C22.81 80.2231 20.9539 79.1662 19.1737 78.0199C14.8918 75.2634 11.3025 71.7676 8.30271 67.6602C6.71849 65.4904 5.32034 63.2134 4.24217 60.7636C3.46948 59.0087 2.77098 57.2089 2.21914 55.3757C1.6389 53.4462 1.15662 51.4712 0.838381 49.4835C0.285961 46.032 0.203069 42.5454 0.559563 39.0628C0.71897 37.5027 0.929388 35.9455 1.18618 34.3981C1.3195 33.5942 1.60586 32.8162 1.81801 32.0249C1.9722 31.4515 2.10958 30.8734 2.27189 30.3023C2.39942 29.8528 2.53216 29.4027 2.70026 28.967C3.68105 26.4238 4.80038 23.9434 6.18404 21.5886C8.61399 17.4536 11.6769 13.8303 15.4001 10.8082C17.3223 9.24755 19.3963 7.84885 21.5115 6.55389C23.1056 5.57821 24.8434 4.81345 26.5726 4.08442C28.1655 3.41245 29.8129 2.84767 31.473 2.35838C32.808 1.96534 34.1975 1.7573 35.5626 1.46684C38.8214 0.772965 42.1255 0.660585 45.4343 0.838664C47.0527 0.925686 48.6618 1.2173 50.2704 1.44782C51.2031 1.58152 52.1357 1.73713 53.051 1.95555C54.1078 2.20682 55.1639 2.48517 56.1864 2.84651C57.7289 3.3917 59.2813 3.93573 60.7571 4.63306C62.4688 5.4422 64.1354 6.36198 65.7607 7.33306C67.8116 8.55886 69.7407 9.96966 71.5093 11.5787C74.5977 14.3888 77.3517 17.491 79.5011 21.0745C80.4216 22.6086 81.2065 24.2292 81.9693 25.8498C82.5159 27.0105 82.9843 28.2167 83.3773 29.4379C83.91 31.093 84.4509 32.7591 84.7876 34.4598C85.5458 38.287 85.8618 42.1627 85.5151 46.0608C85.3505 47.9137 85.1082 49.7653 84.7836 51.5968C84.5529 52.8964 84.1407 54.166 83.7784 55.4402C83.5582 56.2154 83.3118 56.9859 83.0208 57.7368C82.6371 58.7275 82.2452 59.7199 81.7734 60.6708C81.0998 62.0286 80.4106 63.3858 79.6176 64.6767C78.7545 66.0811 77.8137 67.4453 76.8213 68.7633C74.494 71.854 71.6982 74.4831 68.5854 76.7826C65.6483 78.9529 62.5036 80.7764 59.1074 82.1301C57.4687 82.7831 55.7644 83.2816 54.0736 83.798C50.4443 84.9062 46.7014 85.1972 42.0339 85.2791L42.0351 85.2785ZM48.685 44.9238C48.7267 44.9215 48.7691 44.9198 48.8108 44.9175C48.8108 45.2557 48.8096 45.594 48.8108 45.9323C48.8328 51.6706 48.8549 57.4095 48.8775 63.1477C48.8775 63.2613 48.8763 63.3754 48.8862 63.4878C48.9395 64.0992 49.3163 64.4658 49.9301 64.4732C50.7776 64.4836 51.6256 64.4854 52.4731 64.4704C53.0122 64.4606 53.3814 64.101 53.4377 63.5656C53.458 63.3725 53.4562 63.1771 53.4545 62.9829C53.4359 60.7301 53.4191 58.4774 53.3954 56.2246C53.3687 53.7125 53.3316 51.2009 53.3049 48.6888C53.2887 47.1328 53.2754 45.5762 53.287 44.0201C53.2881 43.8334 53.407 43.5349 53.5466 43.4813C54.3112 43.1856 55.1013 42.9574 55.8781 42.6929C57.1296 42.267 58.286 41.6659 59.0048 40.5202C59.2575 40.1174 59.345 39.5595 59.3531 39.0702C59.3682 38.196 58.686 37.7159 58.0825 37.2232C56.6119 36.0222 54.8121 35.5242 53.0423 35.028C51.7236 34.658 50.3469 34.4298 48.9806 34.2984C45.7229 33.9861 42.4606 33.6299 39.182 34.1163C38.2655 34.2523 37.3335 34.2794 36.4112 34.3774C36.0095 34.42 35.613 34.5122 35.2148 34.5872C34.3743 34.7456 33.5181 34.8528 32.6985 35.0839C31.7658 35.3467 30.8702 35.7357 29.9503 36.0452C28.7764 36.4394 27.8142 37.135 27.027 38.0657C26.5772 38.5977 26.3424 39.242 26.6375 39.9151C27.016 40.7784 27.6391 41.4781 28.4889 41.9016C29.4981 42.4048 30.5456 42.8335 31.5803 43.2859C31.9385 43.4421 32.4648 43.4744 32.6306 43.7389C32.8115 44.0271 32.6596 44.5198 32.6573 44.9232C32.6185 51.0666 32.579 57.2106 32.5448 63.3541C32.5408 64.1229 32.8996 64.4686 33.6891 64.4773C34.4392 64.4848 35.1887 64.479 35.9388 64.4773C36.701 64.475 37.0483 64.1471 37.0593 63.3927C37.0755 62.2908 37.0825 61.1883 37.0836 60.0858C37.0877 55.6448 37.0877 51.2044 37.0888 46.7634C37.0888 46.1917 37.0888 45.62 37.0888 45.0483C37.1561 45.0431 37.2233 45.0373 37.2911 45.0321C37.3543 45.2886 37.421 45.5439 37.4789 45.8009C37.8059 47.2503 38.1311 48.7009 38.4568 50.1509C38.6267 50.907 38.8122 51.6597 38.9658 52.4187C39.1484 53.3217 39.2742 54.2369 39.4869 55.1319C39.5785 55.5175 39.7153 55.9779 40.2729 55.9785C42.0496 55.9802 43.8268 55.9848 45.6035 55.967C46.0365 55.9624 46.3078 55.7457 46.3797 55.2616C46.4834 54.5608 46.6515 53.8681 46.8098 53.1759C47.0179 52.2648 47.2405 51.3571 47.4619 50.4488C47.5923 49.9163 47.7506 49.3896 47.8665 48.8542C48.1488 47.5466 48.4137 46.2355 48.6856 44.9255L48.685 44.9238ZM42.9973 32.1851C42.9973 32.1851 42.9973 32.1828 42.9979 32.1817C44.0402 32.1817 45.0975 32.0745 46.1217 32.2105C47.2544 32.3603 48.3679 32.6975 49.4687 33.0231C50.049 33.1948 50.1347 33.2248 50.2455 32.6387C50.377 31.9402 50.4657 31.2331 50.5834 30.5317C50.7927 29.288 51.0158 28.0472 51.2222 26.803C51.4204 25.6077 51.5462 24.3963 51.8146 23.2172C52.0476 22.1931 51.7422 21.4456 51.017 20.7431C49.8391 19.6026 48.2885 19.2787 46.8133 18.8569C45.7647 18.5566 44.6291 18.5353 43.5272 18.4465C42.2206 18.3411 40.9413 18.5658 39.6492 18.7727C38.0273 19.0327 36.5231 19.5168 35.1962 20.4717C34.4769 20.9898 33.896 21.6393 34.0641 22.6282C34.2508 23.7261 34.5035 24.8142 34.6728 25.9143C35.0125 28.121 35.3151 30.3334 35.6321 32.543C35.722 33.1677 35.8686 33.2138 36.4779 33.0386C37.5827 32.7211 38.6922 32.3649 39.8248 32.2139C40.8648 32.075 41.9383 32.1845 42.9968 32.1845L42.9973 32.1851ZM43.0356 76.0697C42.9973 76.0737 42.9591 76.0778 42.9208 76.0818C42.8762 75.9135 42.813 75.7475 42.7892 75.5764C42.6588 74.6462 42.5719 73.708 42.3986 72.7865C42.3186 72.3612 42.1771 71.8655 41.8867 71.5785C41.2856 70.9838 40.0498 71.1273 39.9692 72.3295C39.8979 73.3962 39.8492 74.4647 39.8208 75.5331C39.7848 76.8777 39.7796 78.2233 39.7599 79.5684C39.7541 79.9782 39.9756 80.2514 40.3309 80.3908C40.692 80.5326 40.9784 80.3263 41.1644 80.0468C41.2723 79.8848 41.3117 79.6526 41.3146 79.4514C41.3273 78.4302 41.3146 77.409 41.3192 76.3878C41.3198 76.2184 41.361 76.0495 41.3836 75.8801C41.5111 76.0028 41.5349 76.1112 41.5488 76.2201C41.6769 77.2327 41.7905 78.2475 41.9383 79.2572C41.9818 79.5529 42.1018 79.8428 42.2229 80.1194C42.3655 80.4456 42.6797 80.6087 42.9834 80.4744C43.2338 80.3637 43.5272 80.1027 43.5863 79.8572C43.7787 79.0584 43.8709 78.2366 44.0042 77.424C44.0425 77.1912 44.09 76.9595 44.1329 76.7272C44.1851 76.7347 44.2372 76.7422 44.2894 76.7503C44.2894 77.2638 44.2894 77.7779 44.2894 78.2913C44.29 78.761 44.2593 79.2336 44.3022 79.6993C44.3468 80.1839 44.7195 80.5021 45.1317 80.4876C45.549 80.4732 45.9119 80.1298 45.9212 79.6543C45.9687 77.2724 46.011 74.89 46.022 72.5075C46.0255 71.7964 45.749 71.5336 45.0511 71.3786C44.5195 71.2604 43.9897 71.4967 43.7526 72.0476C43.6037 72.394 43.5596 72.7899 43.4964 73.168C43.3347 74.1333 43.1881 75.1015 43.0356 76.0691V76.0697ZM39.6562 9.68785C39.6312 9.69246 39.6057 9.69764 39.5808 9.70226C39.5286 9.53916 39.4898 9.3703 39.4214 9.21412C39.055 8.3756 38.6626 7.54687 38.3154 6.70085C38.0551 6.06634 37.5752 5.76666 36.952 5.92053C36.3863 6.06058 36.1017 6.60691 36.1979 7.25411C36.3098 8.00446 36.3764 8.76172 36.457 9.51611C36.5097 10.0146 36.5451 10.5154 36.6007 11.0139C36.6807 11.736 36.7549 12.4593 36.8651 13.1774C36.9445 13.6984 37.072 14.213 37.1885 14.7282C37.2934 15.1904 37.6499 15.2348 38.0261 15.1685C38.4377 15.0965 38.6412 14.8285 38.6099 14.4049C38.5896 14.1306 38.5739 13.8557 38.5397 13.5831C38.4319 12.733 38.309 11.8847 38.2099 11.0335C38.1879 10.8439 38.2383 10.6462 38.2551 10.452C38.4273 10.5229 38.5015 10.6024 38.5391 10.6964C39.0203 11.8893 39.4869 13.0886 39.9785 14.2776C40.1825 14.7714 40.5106 14.9121 41.0317 14.8014C41.5853 14.6838 41.7238 14.5173 41.7308 13.9266C41.7331 13.7168 41.7186 13.5053 41.6931 13.2967C41.5905 12.4616 41.4711 11.6288 41.376 10.7932C41.2068 9.30172 41.056 7.80736 40.8851 6.31588C40.8306 5.84043 40.4033 5.49003 39.9877 5.53844C39.5802 5.58628 39.2695 5.97643 39.2968 6.44958C39.3182 6.82072 39.3802 7.18956 39.4214 7.55955C39.5008 8.26898 39.5779 8.97841 39.6562 9.68785ZM73.0425 54.6703C73.0332 54.7233 73.0234 54.7763 73.0141 54.8288C72.5562 54.8057 72.0947 54.8115 71.642 54.7521C71.0792 54.6784 70.5267 54.5101 69.9627 54.4582C69.3193 54.3988 68.7286 54.876 68.6463 55.4379C68.5762 55.9163 69.0011 56.4182 69.5883 56.6476C70.2926 56.9225 70.9766 57.2487 71.6693 57.5524C72.3782 57.863 73.0854 58.1777 73.7966 58.4837C74.5658 58.8145 75.3478 59.1182 76.1066 59.4709C76.6219 59.7101 77.1094 59.5793 77.3761 59.0606C77.5407 58.7407 77.321 58.3022 76.8642 58.0993C76.244 57.8238 75.615 57.5674 74.9878 57.3069C74.2522 57.0009 73.5149 56.6989 72.7782 56.3952C72.7903 56.3462 72.8019 56.2978 72.8141 56.2488C73.2448 56.2949 73.679 56.3179 74.105 56.3917C75.0957 56.5623 76.0817 56.7628 77.0717 56.9375C77.2943 56.9767 77.5343 57.0003 77.7528 56.9599C78.158 56.8856 78.4722 56.6614 78.5609 56.2309C78.6693 55.7024 78.5006 55.2938 78.0931 55.1198C77.2433 54.7579 76.3848 54.4167 75.5339 54.0577C74.7113 53.7107 73.8998 53.3396 73.0732 53.0025C72.2953 52.6855 71.5104 52.3835 70.7175 52.1074C70.3615 51.9835 70.0578 52.1432 69.9291 52.4953C69.7877 52.882 69.8642 53.2439 70.2543 53.4606C70.4949 53.5943 70.7598 53.6831 71.0137 53.7926C71.6901 54.0853 72.3666 54.3787 73.0431 54.6714L73.0425 54.6703ZM32.0788 70.3671C31.9095 69.9862 31.844 69.4589 31.5501 69.2537C30.7908 68.7235 29.9433 68.3103 29.1011 67.9132C28.9411 67.8377 28.5707 67.9841 28.4258 68.1437C28.1962 68.3967 28.0629 68.7414 27.9104 69.0578C27.4548 70.0006 27.0137 70.9504 26.5587 71.8932C26.0758 72.8931 25.6045 73.8993 25.088 74.8825C24.7669 75.4945 24.8828 76.0553 25.5002 76.3774C25.8874 76.5791 26.2804 76.7762 26.6873 76.9318C27.3151 77.1722 27.9093 77.462 28.6425 77.107C29.3521 76.7641 29.6187 76.1348 29.9422 75.5366C30.2726 74.9257 30.5862 74.2676 30.3288 73.5501C30.221 73.2492 30.2789 73.1363 30.5276 72.9738C31.4441 72.3744 31.9159 71.5128 32.0788 70.3671ZM30.8969 12.2668C30.9229 11.8703 31.0395 11.4946 30.9496 11.1759C30.7774 10.5627 30.5386 9.95525 30.236 9.39393C29.8117 8.60727 29.0883 8.34621 28.242 8.61015C27.518 8.83607 26.8102 9.1271 26.1198 9.44349C25.7402 9.61754 25.6793 9.99848 25.8347 10.3673C26.0578 10.8992 26.3146 11.4173 26.5581 11.9412C27.1824 13.2852 27.8061 14.6297 28.4333 15.9725C28.6721 16.4831 28.8941 17.0041 29.17 17.4945C29.3828 17.872 29.8164 17.9653 30.1752 17.7809C30.6111 17.5562 30.7514 17.1712 30.5543 16.7217C30.2047 15.9235 29.8662 15.1207 29.4941 14.3329C29.3144 13.9525 29.457 13.7837 29.8094 13.7035C30.2094 13.6125 30.4401 13.7935 30.6093 14.1565C30.9363 14.8567 31.276 15.5541 31.6568 16.226C32.0075 16.8444 32.6787 16.8784 33.1842 16.3701C33.3923 16.1609 33.4097 15.9771 33.2741 15.7235C33.0086 15.2267 32.7866 14.7063 32.5153 14.213C32.0968 13.4523 31.8834 12.5169 30.8963 12.2668H30.8969ZM17.5113 69.9874C17.5536 70.0069 17.5953 70.0265 17.6376 70.0461C17.6156 70.9423 18.1083 71.5785 18.8109 71.9952C19.2531 72.258 19.7841 72.6268 20.3626 72.3174C20.813 72.0765 21.3011 71.8286 21.6327 71.4592C22.9508 69.9891 24.2162 68.4722 25.4944 66.9669C25.6492 66.7848 25.8028 66.582 25.8839 66.3624C26.0022 66.0431 25.9761 65.7308 25.6457 65.5043C25.3118 65.276 24.997 65.1164 24.655 65.4881C24.524 65.6305 24.353 65.7377 24.2284 65.8846C23.3038 66.9704 22.3862 68.0619 21.4663 69.1517C21.1005 69.5851 20.7411 70.0248 20.3649 70.449C20.1308 70.7129 19.8322 70.7884 19.543 70.551C19.2508 70.3112 19.285 70.0162 19.4972 69.7303C19.594 69.6006 19.6925 69.4716 19.7963 69.3471C20.7945 68.1518 21.795 66.9594 22.792 65.763C23.0928 65.4023 23.407 65.049 23.6655 64.66C23.7629 64.5136 23.7931 64.2468 23.7287 64.0831C23.4934 63.4843 22.8227 63.1086 22.1723 63.8779C20.8362 65.4587 19.4885 67.0309 18.1866 68.6394C17.8776 69.0215 17.7315 69.5338 17.5107 69.9862L17.5113 69.9874ZM67.5652 14.5208C67.2841 14.6539 66.967 14.7415 66.7276 14.9276C65.5399 15.8532 64.3713 16.8035 63.198 17.7475C62.4271 18.367 61.655 18.9854 60.891 19.6136C60.5136 19.923 60.429 20.3495 60.6516 20.6884C60.8469 20.9863 61.3124 21.0791 61.6927 20.8578C61.9425 20.7126 62.1448 20.4849 62.3987 20.3501C62.5361 20.2769 62.7807 20.2481 62.9013 20.3218C63.8218 20.8872 63.8357 20.9875 63.2537 21.8808C63.2357 21.9078 63.2149 21.9332 63.1975 21.9603C62.845 22.5043 62.9059 22.8541 63.4125 23.1988C63.8125 23.4708 64.213 23.3394 64.5487 22.8288C65.8807 20.8025 67.2192 18.7808 68.5402 16.7476C68.8411 16.2848 69.1048 15.7978 68.6799 15.2406C68.4023 14.8763 68.1113 14.5761 67.5652 14.5208ZM49.9493 72.3116C50.035 72.9594 50.1365 73.6648 50.22 74.3719C50.3973 75.868 50.5602 77.3652 50.7399 78.8613C50.7851 79.2371 51.1961 79.6024 51.5225 79.5996C51.8749 79.5967 52.2749 79.1887 52.2812 78.7881C52.2859 78.515 52.2523 78.2395 52.2117 77.968C52.1659 77.6586 52.2488 77.4914 52.589 77.4252C53.4359 77.2598 53.4319 77.2459 53.8591 78.0026C53.9147 78.1006 53.993 78.1859 54.0579 78.2792C54.3089 78.6423 54.7031 78.7414 55.1216 78.5449C55.4549 78.3887 55.6033 77.9905 55.4271 77.5975C54.921 76.4656 54.3982 75.3418 53.8782 74.2163C53.3513 73.0752 52.829 71.9318 52.2882 70.7976C51.9653 70.121 51.4975 69.9268 50.7596 70.1159C50.2234 70.253 49.9533 70.6547 49.9493 71.3267C49.9475 71.6344 49.9493 71.9422 49.9493 72.3127V72.3116ZM50.5376 11.0203C50.5463 11.0203 50.5556 11.0203 50.5643 11.0203C50.5643 10.8906 50.5643 10.7615 50.5643 10.6318C50.5701 9.46712 50.5962 8.30183 50.566 7.13769C50.5591 6.87893 50.4211 6.48416 50.2275 6.39195C49.1737 5.88999 48.6497 5.87328 48.1378 7.07257C47.6393 8.23959 47.2863 9.4677 46.8625 10.667C46.6695 11.2122 46.4475 11.7476 46.2609 12.2951C46.0632 12.8737 45.869 13.4552 45.7165 14.0465C45.6029 14.4891 45.862 14.9219 46.258 15.0008C46.68 15.0844 46.9321 14.8412 47.0915 14.4862C47.2156 14.209 47.3002 13.911 47.4521 13.6511C47.5199 13.5353 47.7222 13.4085 47.8422 13.4263C48.8473 13.5745 48.8456 13.5843 48.8664 14.6302C48.8676 14.6948 48.8682 14.7599 48.8717 14.8245C48.896 15.2688 49.1279 15.497 49.5788 15.5276C50.2211 15.5708 50.5231 15.3259 50.5324 14.6637C50.5492 13.4494 50.537 12.2351 50.537 11.0208L50.5376 11.0203ZM25.8897 19.8268C25.8486 19.7507 25.7865 19.541 25.6503 19.4055C25.3066 19.0632 24.9344 18.7474 24.564 18.4327C23.1189 17.2052 21.6773 15.9725 20.2154 14.764C19.914 14.515 19.5534 14.2804 19.1824 14.1853C18.6642 14.0528 18.2469 14.3202 17.9466 14.7674C17.6863 15.1547 17.7246 15.4884 17.9715 15.8843C18.6984 17.049 19.3824 18.2402 20.0873 19.4188C20.7017 20.4452 21.3144 21.4727 21.9439 22.4905C22.1271 22.7873 22.4065 22.9394 22.7758 22.8098C23.1265 22.6864 23.3259 22.4346 23.2789 22.0727C23.247 21.8277 23.1566 21.5655 23.0163 21.3644C22.6552 20.848 22.6477 20.7212 23.0975 20.3017C23.7079 19.7317 23.7003 19.7398 24.3391 20.3276C24.4997 20.4751 24.7124 20.5956 24.9223 20.6555C25.3738 20.784 25.8781 20.3997 25.8897 19.8268ZM16.7229 54.4617C16.6006 54.1591 16.4609 53.6398 16.1948 53.1961C15.7253 52.4123 14.6048 52.1057 13.7817 52.4365C12.9563 52.7685 12.107 53.0434 11.2932 53.399C10.2718 53.8456 9.24119 54.2911 8.27953 54.8484C7.61175 55.2351 7.38395 55.9606 7.52828 56.7167C7.67436 57.4844 8.03955 58.15 8.80007 58.4958C9.74608 58.9252 10.6028 58.5725 11.4283 58.1316C11.841 57.9109 11.9645 57.504 11.7992 57.1098C11.663 56.7836 11.2144 56.5836 10.8016 56.7093C10.5251 56.7934 10.2782 56.9859 9.99997 57.0458C9.78839 57.0913 9.4719 57.0821 9.34147 56.9553C9.20583 56.8234 9.13743 56.4718 9.2209 56.3053C9.32234 56.1012 9.59189 55.9433 9.82317 55.846C11.2671 55.2391 12.7209 54.6553 14.1712 54.0623C14.4947 53.9303 14.8019 53.8375 14.9828 54.2669C15.1555 54.676 14.9248 54.9135 14.6153 55.1048C14.4645 55.1976 14.2796 55.2351 14.1295 55.3284C13.7 55.5964 13.5707 55.9831 13.7678 56.3514C14.0373 56.8551 14.4512 56.9939 14.9561 56.7507C15.1167 56.6735 15.2848 56.6084 15.439 56.5196C16.1502 56.1116 16.6302 55.5445 16.7235 54.4611L16.7229 54.4617ZM19.5099 26.4889C19.3465 26.0792 19.263 25.6072 19.0004 25.274C18.6567 24.8378 18.19 24.4868 17.7408 24.1462C17.4301 23.9105 16.8104 24.0384 16.6319 24.3128C16.3548 24.7381 16.4366 25.1473 16.8551 25.459C17.0759 25.6233 17.2979 25.7881 17.5037 25.9702C17.7246 26.165 17.9501 26.3489 17.6834 26.6993C17.4243 27.0399 17.1698 27.0329 16.8481 26.8237C15.6529 26.0457 14.4518 25.2769 13.2594 24.4943C12.9765 24.3087 12.6803 24.1151 12.4682 23.8609C12.3621 23.7336 12.3459 23.3745 12.445 23.2754C12.5766 23.144 12.8734 23.1002 13.0768 23.1371C13.2855 23.1751 13.4681 23.3555 13.6611 23.4748C14.0408 23.7094 14.4663 23.6345 14.7492 23.2812C14.9758 22.9982 14.9399 22.4778 14.6535 22.2139C14.4877 22.0611 14.2912 21.9407 14.1046 21.811C13.402 21.3235 12.6143 21.2318 11.8989 21.6445C11.1135 22.098 10.6075 22.8576 10.648 23.7918C10.6857 24.6597 11.2683 25.2377 11.9929 25.6861C13.1788 26.4197 14.3469 27.181 15.5288 27.921C16.3374 28.4276 17.109 29.0062 18.1657 28.4092C18.7999 28.0507 19.4184 27.2594 19.5082 26.4895L19.5099 26.4889ZM66.3253 68.0262C66.2935 68.0556 66.261 68.085 66.2291 68.1138C65.7561 67.7121 65.2872 67.3064 64.8095 66.9104C63.9226 66.1757 63.0456 65.4276 62.1338 64.7239C61.7257 64.4093 61.3472 64.5055 61.0765 64.8813C60.8243 65.2305 60.8632 65.7711 61.1884 66.035C63.1517 67.6291 65.1144 69.2232 67.0911 70.8005C67.6151 71.2189 68.229 71.1077 68.7959 70.5637C69.1216 70.2507 69.1419 69.596 68.8324 69.1356C68.3634 68.4382 67.8835 67.7478 67.418 67.0482C66.5039 65.6731 65.6042 64.2883 64.682 62.9184C64.398 62.4971 63.9047 62.3916 63.5899 62.6314C63.2004 62.9287 63.1453 63.4088 63.4479 63.8451C64.1974 64.9228 64.9469 66.001 65.6935 67.0805C65.9091 67.3922 66.1149 67.7104 66.3253 68.0262ZM57.1597 14.5565C57.122 14.538 57.0838 14.5196 57.0461 14.5012C57.0519 14.4234 57.0409 14.3398 57.0669 14.2695C57.26 13.7571 57.4808 13.2546 57.6547 12.7359C57.9973 11.713 58.3028 10.6774 58.65 9.65557C58.7943 9.23199 58.6094 8.76518 58.1701 8.60727C57.6397 8.41709 57.2768 8.60036 57.1359 9.12307C57.0983 9.26311 57.0385 9.39681 56.9922 9.53455C56.6948 10.418 56.3922 11.3004 56.1035 12.1867C55.8891 12.846 55.6949 13.5122 55.4908 14.175C55.3627 14.5899 55.2149 15.0002 55.1071 15.4204C54.9952 15.8549 54.877 16.2952 54.8416 16.739C54.7935 17.3435 55.3042 17.5521 55.7378 17.7579C56.1325 17.9452 56.4971 17.8414 56.7754 17.4812C56.9528 17.2513 57.1614 17.045 57.3319 16.8104C58.064 15.8036 58.7932 14.7951 59.5114 13.7785C60.1368 12.8933 60.753 12.0011 61.3605 11.1038C61.6156 10.7269 61.5321 10.3702 61.1628 10.0855C60.7629 9.77717 60.4719 9.78467 60.156 10.1656C59.8992 10.4751 59.6801 10.8168 59.454 11.1505C58.6871 12.2841 57.9249 13.4206 57.1603 14.5565H57.1597ZM13.9191 40.3911C13.6437 40.1583 13.5249 40.0033 13.3684 39.9364C12.998 39.778 12.605 39.6719 12.2288 39.5261C11.3813 39.1976 10.8358 38.6144 10.6811 37.6975C10.6057 37.2509 10.5136 36.8054 10.3959 36.3679C10.3652 36.2544 10.211 36.1737 10.113 36.0781C10.0214 36.1743 9.89273 36.255 9.84578 36.3691C9.67362 36.7858 9.5971 37.2578 9.35596 37.6254C9.06381 38.0704 8.70674 38.5498 8.25692 38.7965C7.67726 39.1146 6.9747 39.2068 6.33302 39.4195C6.18694 39.4679 6.07333 39.6131 5.94522 39.714C6.05478 39.8137 6.14868 39.9485 6.27737 40.0073C6.86109 40.273 7.47785 40.4764 8.03491 40.7876C8.30909 40.9404 8.5769 41.2464 8.67486 41.5397C8.87136 42.1293 8.93223 42.7621 9.08816 43.3672C9.13163 43.5349 9.31249 43.668 9.43016 43.8167C9.5745 43.6974 9.77854 43.6064 9.85158 43.4536C10.0568 43.0226 10.153 42.5333 10.3959 42.1281C10.6637 41.6821 10.9547 41.202 11.5413 41.0741C12.092 40.9542 12.6467 40.8505 13.1939 40.715C13.3968 40.6649 13.5823 40.545 13.9191 40.3917V40.3911ZM75.8272 36.0164C75.7727 36.0147 75.7188 36.0124 75.6643 36.0106C75.6017 36.1853 75.5246 36.3564 75.4788 36.5357C75.3229 37.1425 75.258 37.7862 75.0093 38.3522C74.6053 39.2731 73.7161 39.5912 72.8147 39.88C72.5498 39.9647 72.1799 40.254 72.166 40.4689C72.1405 40.8614 72.577 40.6753 72.8193 40.7312C72.8976 40.749 72.9822 40.7352 73.0628 40.745C73.7589 40.8291 74.425 40.979 74.9797 41.4596C75.5901 41.9881 75.7982 42.7142 76.0475 43.4317C76.1043 43.596 76.2863 43.717 76.4109 43.8576C76.5448 43.702 76.7407 43.5666 76.7981 43.3868C76.8746 43.1476 76.8178 42.8698 76.8631 42.6168C77.0109 41.7968 77.3146 41.0602 78.1296 40.6741C78.6386 40.4332 79.1672 40.2344 79.6791 39.9993C79.795 39.9457 79.8779 39.82 79.9758 39.7278C79.8761 39.6414 79.7886 39.5077 79.6738 39.4771C79.2066 39.3521 78.7319 39.2564 78.2589 39.1532C77.5853 39.0063 77.0723 38.6184 76.7593 38.0283C76.4758 37.4929 76.284 36.9097 76.0423 36.3512C75.9907 36.2314 75.8997 36.1282 75.8266 36.017L75.8272 36.0164ZM74.6354 22.8121C74.6371 22.1361 74.1914 21.7943 73.574 21.9776C73.4216 22.0231 73.2755 22.1032 73.1387 22.1874C71.1366 23.4195 69.139 24.6586 67.1346 25.8872C66.5543 26.2428 66.3508 26.5575 66.6355 27.1638C67.0018 27.9458 67.4626 28.6944 67.9664 29.3987C68.2805 29.8384 68.7095 29.7929 69.1587 29.4183C69.419 29.2016 69.4202 28.7382 69.1651 28.3607C68.9564 28.0524 68.7182 27.7568 68.5611 27.4242C68.5008 27.2969 68.5704 26.9891 68.6805 26.92C70.4241 25.8262 72.1904 24.7675 73.9352 23.6754C74.2575 23.4737 74.7021 23.3065 74.6366 22.8115L74.6354 22.8121ZM19.2676 59.0767C19.1546 58.9338 19.0051 58.6197 18.7558 58.4716C18.5831 58.369 18.237 58.4284 18.0312 58.535C17.6759 58.7194 17.3692 58.9972 17.0417 59.2352C15.3416 60.4725 13.6449 61.7139 11.9389 62.9432C11.5158 63.248 11.3344 63.7154 11.6074 64.12C12.1059 64.8588 12.6334 65.5792 13.1777 66.2846C13.4351 66.6177 13.9295 66.6062 14.2686 66.3163C14.584 66.0466 14.6216 65.6748 14.3706 65.321C14.155 65.0179 13.9591 64.6986 13.722 64.4133C13.4553 64.0929 13.4797 63.909 13.8449 63.6532C15.3845 62.5755 16.9072 61.4742 18.4115 60.3486C18.7819 60.0714 19.2682 59.8271 19.2682 59.0761L19.2676 59.0767ZM60.2383 76.1285C60.4273 76.1066 60.4841 76.1152 60.5229 76.0933C61.3953 75.5983 62.2845 75.1286 63.1262 74.5868C63.4508 74.3782 63.4885 73.9477 63.256 73.6238C63.0224 73.2982 62.6729 73.1605 62.2677 73.3824C61.8984 73.5846 61.513 73.7622 61.1628 73.9927C60.9095 74.1598 60.7681 74.1437 60.622 73.8774C60.1508 73.0164 59.6749 72.1577 59.1868 71.3065C58.5863 70.2588 57.9875 69.2093 57.3463 68.1858C57.2397 68.0152 56.9162 67.8838 56.7006 67.8942C56.0015 67.9282 55.7395 68.6019 56.1412 69.324C57.2977 71.4016 58.4616 73.4757 59.6453 75.5383C59.7931 75.7959 60.0789 75.9746 60.2377 76.129L60.2383 76.1285ZM67.0035 58.9885C66.5473 59.0398 66.2355 59.2433 66.1514 59.5839C66.0877 59.8403 66.1949 60.1694 66.312 60.4276C66.3903 60.6005 66.61 60.718 66.781 60.8391C68.6452 62.1611 70.5128 63.4797 72.3793 64.7989C72.5648 64.9297 72.7387 65.0824 72.9387 65.185C73.29 65.3654 73.7624 65.1769 73.9815 64.7966C74.2041 64.411 74.0818 63.9246 73.6882 63.6457C71.8895 62.3686 70.092 61.0892 68.2887 59.819C67.8719 59.5257 67.4325 59.264 67.0035 58.988V58.9885ZM66.1775 58.3517C66.1578 58.346 66.1381 58.3402 66.119 58.3344C66.119 58.2538 66.119 58.1725 66.119 58.0918C66.119 57.4147 65.8987 57.1824 65.3132 57.2412C64.8136 57.2913 64.5835 57.6521 64.6745 58.233C64.7197 58.5206 64.7179 58.8214 64.8078 59.0934C64.8739 59.294 65.0391 59.5885 65.188 59.6058C65.4112 59.6311 65.7607 59.5159 65.8726 59.343C66.0535 59.0629 66.0842 58.6871 66.1781 58.3517H66.1775Z" fill="black"/>
<path d="M42.9124 49.6335C42.7733 49.0243 42.6347 48.4152 42.4956 47.806C42.313 47.0044 42.1316 46.2016 41.9478 45.4005C41.8649 45.0397 41.7728 44.6807 41.691 44.3199C41.5055 43.5039 41.3264 42.6867 41.1398 41.8718C40.945 41.0223 40.7438 40.1746 40.5468 39.3257C40.4523 38.9188 40.5955 38.6958 41.036 38.7038C42.371 38.728 43.7059 38.7534 45.0409 38.7753C45.3725 38.7805 45.471 38.958 45.4101 39.2525C45.2838 39.8697 45.1626 40.4886 45.02 41.1024C44.8195 41.9669 44.5911 42.825 44.3928 43.69C44.2056 44.5067 44.0462 45.3296 43.8659 46.1474C43.692 46.9358 43.5112 47.7224 43.3257 48.5074C43.2376 48.8797 43.1303 49.2473 43.0318 49.6168C42.9918 49.6225 42.9524 49.6277 42.9124 49.6335Z" fill="black"/>
<path d="M26.8036 75.369C27.1508 74.6451 27.4064 74.0752 27.6992 73.5248C27.7821 73.3686 28.0736 73.1427 28.0997 73.1629C28.3275 73.3421 28.6063 73.5375 28.6968 73.7893C28.8411 74.191 28.2701 75.4157 27.8551 75.5396C27.5728 75.6237 27.2117 75.4451 26.8036 75.369Z" fill="black"/>
<path d="M30.3385 70.4509C30.0602 70.954 29.8817 71.392 29.6 71.7499C29.3571 72.0588 29.04 71.8721 28.7803 71.6733C28.5096 71.4658 28.6853 71.2987 28.8087 71.0975C28.9763 70.8249 29.1154 70.5316 29.2388 70.236C29.3356 70.0043 29.4046 69.7104 29.7269 69.8781C29.9507 69.9945 30.1112 70.2313 30.3379 70.4509H30.3385Z" fill="black"/>
<path d="M28.6469 10.1975C28.7623 10.3427 29.0272 10.5491 29.1107 10.8119C29.2504 11.251 29.7002 11.7155 29.208 12.191C28.8834 12.5045 28.6655 12.4624 28.4603 12.0676C28.2759 11.712 28.1333 11.3351 27.971 10.9686C27.7426 10.4505 27.898 10.209 28.6463 10.1981L28.6469 10.1975Z" fill="black"/>
<path d="M63.9276 19.0524C64.7264 18.3954 65.5037 17.7563 66.281 17.1172L66.3546 17.1702C66.3146 17.2613 66.2886 17.3621 66.2323 17.4422C65.8069 18.052 65.3721 18.6553 64.9484 19.2662C64.5994 19.7693 64.567 19.7774 64.138 19.3412C64.0626 19.2645 64.0099 19.1671 63.927 19.0518L63.9276 19.0524Z" fill="black"/>
<path d="M51.7702 73.251C52.0711 73.9627 52.3667 74.6773 52.6757 75.3862C52.8473 75.7804 52.5603 75.8686 52.2995 75.9631C51.9772 76.0795 51.8926 75.8576 51.8636 75.6115C51.7714 74.8324 51.6897 74.0526 51.6039 73.2729C51.6595 73.2654 51.7146 73.2585 51.7702 73.251Z" fill="black"/>
<path d="M49.0591 9.31154C49.0209 10.0826 48.9931 10.8537 48.9415 11.6237C48.9113 12.0749 48.636 12.1424 48.0366 11.8271C48.3207 10.9696 48.6076 10.1045 48.8939 9.2395C48.949 9.26313 49.0041 9.28733 49.0586 9.31096L49.0591 9.31154Z" fill="black"/>
<path d="M20.3323 16.8601C21.0534 17.4744 21.7739 18.0888 22.564 18.7619C22.2985 18.9953 22.0684 19.197 21.7901 19.442C21.2447 18.5723 20.7363 17.762 20.2285 16.9517C20.2633 16.9212 20.2981 16.8907 20.3323 16.8601Z" fill="black"/>
</svg>
