<svg width="66" height="85" viewBox="0 0 66 85" fill="none" xmlns="http://www.w3.org/2000/svg">
<path d="M57.9748 45.0512C57.9454 45.5059 57.9183 45.9259 57.8878 46.3993H8.12198C8.09496 45.9845 8.06756 45.5633 8.03997 45.1367C7.9561 45.1531 7.89492 45.1476 7.88198 45.1702C6.79156 47.0699 4.4227 47.262 2.86203 46.4658C1.02928 45.5309 0.100051 43.4478 0.80598 41.4398C1.14206 40.4838 1.72264 39.5911 2.30997 38.7525C3.61487 36.8893 4.99633 35.0804 6.33951 33.244C6.4947 33.0319 6.60428 32.7863 6.78555 32.4674C6.4932 32.5333 6.3185 32.5798 6.14136 32.6115C3.39289 33.1043 1.23907 30.6965 2.18369 28.0584C2.51845 27.1234 3.25572 26.3211 3.86932 25.5038C4.19395 25.0713 4.64787 24.7366 5.1138 24.2901C3.88602 23.9923 3.3092 23.233 3.39833 22.0438C3.49741 20.7198 4.60584 19.849 5.9995 19.9788C6.61479 20.036 7.22183 20.2074 7.83694 20.237C9.25011 20.305 10.4293 19.7812 11.1452 18.5347C11.9196 17.186 11.8766 15.7755 10.9866 14.4895C10.1957 13.3467 9.05289 12.8134 7.64986 12.9867C6.04134 13.1854 4.94923 14.6901 5.24253 16.2596C5.43093 17.2679 6.25151 17.9201 7.25523 17.8589C8.21655 17.8003 9.14522 16.9349 9.19682 16.0191C9.23135 15.4074 8.95175 14.9369 8.40157 14.6835C7.92063 14.462 7.45301 14.5515 7.07828 14.9471C6.73902 15.3051 6.61329 15.7552 6.9792 16.1076C7.10117 16.2251 7.54233 16.0089 7.84126 15.8573C8.32557 15.9207 8.34997 16.2905 8.02196 16.5702C7.7647 16.7897 7.32241 16.9532 7.00229 16.8999C6.43953 16.8062 6.12109 16.3512 6.07212 15.7608C6.00363 14.9352 6.63975 14.1499 7.54027 13.9304C8.40288 13.7202 9.35895 14.2297 9.72186 15.0927C10.2109 16.2562 9.58056 17.6848 8.30737 18.2987C6.99797 18.9301 5.45588 18.439 4.81282 17.186C3.79351 15.1993 5.14852 12.6053 7.4091 12.3252C8.16213 12.2319 8.94406 12.3734 9.76145 12.4097C9.75995 12.4225 9.7971 12.3135 9.78209 12.2121C9.53928 10.5937 10.9014 8.9931 12.9507 9.23233C13.9807 9.35251 14.9689 9.80196 15.9887 10.0485C17.1386 10.3268 18.2998 10.7272 19.4621 10.7495C21.7486 10.7932 23.5385 8.63483 23.2901 6.36612C23.0476 4.15053 20.3877 2.88187 18.6017 4.12981C17.455 4.93113 17.1388 6.48309 17.8926 7.6118C18.46 8.46134 19.5673 8.71319 20.3671 8.17445C21.1562 7.64288 21.3489 6.57087 20.7936 5.80252C20.3309 5.16225 19.5217 5.06148 19.1125 5.65239C18.9425 5.89783 18.9252 6.28794 18.9412 6.60704C18.9481 6.74756 19.2849 7.01542 19.3452 6.98378C19.5827 6.85814 19.77 6.63661 20.1153 6.32486C20.18 6.59291 20.3521 6.88432 20.2787 7.0855C20.0959 7.58618 19.6904 7.85329 19.1309 7.6928C18.3461 7.4677 17.9352 6.46708 18.2726 5.64806C18.555 4.96221 19.2307 4.53499 19.9633 4.57907C20.7807 4.62823 21.5474 5.30523 21.7549 6.1608C22.0221 7.26237 21.5138 8.41519 20.5405 8.91531C19.554 9.42202 18.2823 9.16471 17.5308 8.30631C16.6817 7.3364 16.525 5.86261 17.1461 4.68851C17.7637 3.52081 19.2022 2.79804 20.569 2.95834C21.8625 3.11017 22.8005 3.79847 23.5757 4.82131C24.2107 5.65936 24.8579 6.52152 25.6454 7.20323C27.4204 8.73956 29.9138 8.63558 31.5173 7.03765C32.5443 6.01425 32.9085 4.76555 32.4561 3.36466C32.0328 2.05361 31.127 1.24231 29.7414 1.02531C28.6283 0.850878 27.4322 1.41127 26.9203 2.34426C26.4396 3.22055 26.5572 4.38787 27.2006 5.12477C27.8533 5.87222 28.9398 5.95058 29.6618 5.3024C30.3396 4.69397 30.4419 3.55679 29.7939 2.95872C29.5483 2.73193 29.0533 2.54619 28.7778 2.64339C28.4581 2.75641 28.1599 3.16743 28.0374 3.51478C27.9683 3.71088 28.2716 4.0392 28.4072 4.308C28.5802 4.17483 28.7508 4.03845 28.9272 3.90998C29.0383 3.82898 29.158 3.76004 29.2738 3.68563C29.3532 3.85573 29.5151 4.03506 29.4975 4.19442C29.4239 4.85936 28.6046 5.20784 28.0064 4.85653C27.3001 4.44175 27.0807 3.57695 27.487 2.80878C27.9359 1.96018 28.8666 1.63148 29.711 2.02347C31.1775 2.70442 31.3844 4.8215 30.0904 5.90669C28.8964 6.90805 27.1096 6.55693 26.3228 5.13212C25.6908 3.98759 25.7158 2.81801 26.4585 1.73602C27.2667 0.558154 28.4603 0.171057 29.8317 0.323824C31.3032 0.487704 32.2962 1.34855 32.9956 2.71083C33.1607 2.46181 33.2924 2.26364 33.4238 2.06548C34.4718 0.483748 36.3511 -0.136549 38.0711 0.5655C39.2517 1.04754 39.9588 1.93645 40.0746 3.2247C40.1836 4.43817 39.7931 5.45404 38.7231 6.12162C37.7849 6.70688 36.5836 6.56956 35.7979 5.81213C35.0723 5.11234 34.8557 3.83313 35.3293 2.93706C35.6911 2.25253 36.2676 1.86731 37.0446 1.85469C37.7115 1.84396 38.3582 2.33993 38.6214 3.00657C38.8804 3.6619 38.6792 4.39409 38.1292 4.79965C37.5582 5.22065 36.6641 4.90457 36.5583 4.20855C36.5295 4.01942 36.7284 3.79545 36.8564 3.51365C37.0197 3.70541 37.0593 3.76211 37.1086 3.80807C37.2863 3.97327 37.4676 4.13471 37.6474 4.29746C37.768 4.00115 38.0467 3.65286 37.971 3.42117C37.8663 3.10019 37.5263 2.69632 37.2297 2.64151C36.9015 2.58085 36.4111 2.77789 36.1629 3.03181C35.5536 3.65455 35.7232 4.78269 36.425 5.37266C37.1111 5.94907 38.1394 5.86204 38.7862 5.17262C39.8569 4.03129 39.4976 2.08789 38.0626 1.35194C36.9913 0.802468 35.9174 0.858037 34.9345 1.54389C33.807 2.33051 33.3054 3.47504 33.4317 4.83223C33.6826 7.52722 36.8757 9.08898 39.4482 7.79941C40.7488 7.14747 41.5857 6.00972 42.4007 4.86614C43.1938 3.75307 44.2062 3.03331 45.5953 2.97586C46.9892 2.91822 48.1269 3.43661 48.8077 4.69623C49.4414 5.86864 49.3644 7.05423 48.5947 8.15072C47.867 9.18731 46.4028 9.47627 45.3362 8.83374C44.3167 8.21947 43.8851 6.83026 44.3775 5.74733C44.7083 5.01966 45.4379 4.53612 46.1759 4.58396C46.9413 4.63369 47.4527 5.0562 47.7347 5.75449C47.995 6.39871 47.7599 7.16197 47.2116 7.53833C46.6375 7.93221 45.828 7.64194 45.6847 6.96211C45.6503 6.79955 45.7864 6.60082 45.844 6.41886C45.9892 6.51116 46.1395 6.59668 46.2782 6.69802C46.415 6.79805 46.5784 7.02748 46.6623 6.99904C46.8291 6.94234 47.0162 6.77186 47.0761 6.60535C47.2556 6.10504 47.0633 5.70099 46.625 5.42503C46.1331 5.11535 45.698 5.26454 45.3253 5.64787C44.7872 6.20148 44.7446 7.08908 45.2069 7.74705C45.6717 8.4086 46.5634 8.65272 47.2875 8.30405C48.0119 7.95519 48.3973 7.3543 48.4742 6.56616C48.5712 5.57459 48.2513 4.74238 47.4176 4.16673C46.4857 3.52326 45.4824 3.47523 44.4805 3.96762C43.4138 4.49204 42.7699 5.36475 42.6992 6.56918C42.5418 9.24947 45.0086 11.2931 47.7625 10.7187C48.8105 10.5002 49.8153 10.0749 50.8422 9.75129C51.3664 9.58609 51.8879 9.39979 52.4242 9.28771C54.4208 8.87029 56.4385 9.90142 56.2631 12.4144C57.0176 12.3722 57.7902 12.2216 58.5357 12.3071C60.8348 12.571 62.2269 15.1868 61.1892 17.1883C60.6047 18.3156 59.2899 18.8542 58.0842 18.4599C56.8001 18.0401 55.9561 16.7113 56.1781 15.4592C56.328 14.6135 57.0902 13.9333 57.948 13.8798C58.7575 13.8293 59.603 14.4128 59.8552 15.1961C60.0594 15.8301 59.8335 16.4954 59.3002 16.8347C58.8656 17.1112 58.4691 17.0285 58.1101 16.6951C58.0116 16.6036 57.8911 16.4841 57.8771 16.3658C57.8577 16.2037 57.93 16.0304 57.963 15.862C58.1131 15.9025 58.2698 15.9275 58.4117 15.9878C58.5828 16.0603 58.7414 16.163 58.9052 16.2524C59.0103 16.0364 59.2504 15.7698 59.1928 15.6148C59.0673 15.2771 58.8496 14.8517 58.559 14.7308C58.2368 14.5969 57.7401 14.6587 57.4106 14.8214C56.8632 15.0919 56.7228 15.8149 56.9656 16.4693C57.3481 17.4996 58.458 18.0953 59.4569 17.8063C60.4092 17.5307 61.0415 16.3768 60.7974 15.3059C60.543 14.1894 59.8945 13.3857 58.7774 13.0732C57.5566 12.7315 56.4485 13.0298 55.5352 13.9061C54.3438 15.0493 54.0453 16.7563 54.7308 18.2249C55.3875 19.632 56.809 20.3892 58.4809 20.2146C59.096 20.1504 59.7087 20.0155 60.3238 20.007C61.8507 19.9859 62.9428 21.432 62.5296 22.8744C62.3083 23.6465 61.9042 24.0004 60.8884 24.2607C61.3677 24.7335 61.8171 25.1773 62.2671 25.6206C63.2408 26.5799 64.0075 27.6499 64.0379 29.0896C64.088 31.4604 62.1438 33.0666 59.8383 32.5702C59.667 32.5333 59.4946 32.5024 59.1 32.4252C60.0586 33.8074 60.8854 35.0445 61.7599 36.2466C62.6118 37.4177 63.5438 38.5302 64.383 39.71C65.225 40.8937 65.6612 42.2141 65.3066 43.6855C64.9026 45.3618 63.8457 46.4585 62.1757 46.8167C60.4994 47.1765 59.0947 46.6594 58.1319 45.1591C58.1116 45.1276 58.0662 45.1126 57.9752 45.051L57.9748 45.0512ZM48.5425 45.7206C48.5587 45.5166 48.5782 45.3834 48.5782 45.2504C48.5791 41.4271 48.611 37.6034 48.5651 33.7807C48.5367 31.4227 48.1592 29.1058 47.3789 26.8691C45.7554 22.2151 42.6427 19.2081 37.7404 18.3221C34.5587 17.747 31.3319 17.7407 28.1518 18.3183C23.6579 19.1343 20.6268 21.8334 18.9021 26.0348C18.0472 28.1172 17.5601 30.3074 17.513 32.5514C17.4246 36.7643 17.4422 40.9794 17.4207 45.1936C17.4197 45.3654 17.4674 45.5373 17.4886 45.6835H27.8062C27.8062 45.3964 27.8058 45.1687 27.8062 44.941C27.8105 42.1081 27.7944 39.2748 27.8266 36.4423C27.8486 34.5146 28.2629 32.6868 29.5327 31.1626C31.5507 28.7405 34.982 28.9061 36.7656 31.5071C37.7905 33.0018 38.157 34.6941 38.1615 36.4804C38.1686 39.3133 38.1664 42.1463 38.1681 44.9792C38.1681 45.2205 38.1681 45.4618 38.1681 45.721H48.5425V45.7206ZM10.2216 45.6939C10.2345 45.4334 10.2553 45.2096 10.2553 44.986C10.2544 42.4072 10.221 39.8281 10.2552 37.2499C10.291 34.5353 10.2219 31.8041 10.4983 29.1114C11.0371 23.8648 13.1847 19.3349 17.154 15.79C21.3367 12.0547 26.3489 10.5971 31.8507 10.5441C32.3486 10.5394 32.403 10.8018 32.4015 11.1949C32.3947 12.9449 32.3998 14.6946 32.4039 16.4446C32.4045 16.6851 32.424 16.9257 32.4356 17.1851H33.6075C33.6075 16.9129 33.6075 16.665 33.6075 16.4171C33.6077 14.6671 33.6165 12.9172 33.6022 11.1674C33.5989 10.7498 33.6856 10.5308 34.1686 10.5407C37.6203 10.6118 40.9796 11.1347 44.103 12.6887C51.3344 16.2864 55.0909 22.2812 55.5788 30.2422C55.8784 35.1292 55.7005 40.046 55.7366 44.9492C55.7384 45.1926 55.7367 45.4362 55.7367 45.7084H57.1362C57.1507 45.5162 57.1726 45.3606 57.1724 45.2051C57.1653 40.2547 57.2362 35.3025 57.1291 30.3545C56.9469 21.9434 53.1176 15.7414 45.6336 11.8957C41.3232 9.68084 36.6896 8.98218 31.8941 9.14455C26.8454 9.3154 22.0882 10.4795 17.8646 13.3755C11.8766 17.4814 9.00598 23.2948 8.85249 30.4775C8.74816 35.3566 8.82697 40.2397 8.82603 45.1208C8.82603 45.2989 8.84986 45.4767 8.86544 45.6941H10.2216V45.6939ZM31.625 11.3763C31.4604 11.353 31.3711 11.3277 31.2824 11.3296C24.9245 11.4653 19.4988 13.665 15.4258 18.7059C12.2406 22.6477 11.029 27.2835 11.0012 32.2768C10.9778 36.5122 10.9979 40.7481 11.0014 44.9835C11.0016 45.2261 11.0264 45.4686 11.0399 45.7144H12.3606C12.3606 45.4138 12.3607 45.1442 12.3606 44.8747C12.3572 41.0073 12.3592 37.1401 12.3487 33.2727C12.3399 30.0162 12.7912 26.8327 14.1102 23.8444C16.9339 17.4469 21.9407 13.9557 28.7728 12.9907C29.7147 12.8577 30.6689 12.8119 31.625 12.7252V11.3762V11.3763ZM34.3431 12.7767C34.8248 12.8013 35.255 12.8174 35.6846 12.8462C41.2357 13.2176 45.9427 15.3262 49.4689 19.7414C52.1923 23.1511 53.4332 27.1469 53.5544 31.4568C53.6792 35.8959 53.6079 40.3404 53.6222 44.7825C53.6231 45.0918 53.6222 45.4011 53.6222 45.6933H54.9302C54.9501 45.5665 54.9704 45.4985 54.9702 45.4307C54.9584 40.4821 55.0383 35.5306 54.9019 30.5854C54.7953 26.7227 53.6801 23.097 51.4573 19.8964C48.0449 14.9828 43.2454 12.3487 37.4122 11.5054C36.41 11.3605 35.387 11.3601 34.3429 11.291V12.7767H34.3431ZM52.8933 45.7199C52.8933 44.4495 52.9048 43.2551 52.8913 42.061C52.8464 38.1047 52.9879 34.1341 52.7021 30.1951C52.0883 21.7374 46.439 15.5099 38.1795 13.9155C36.9403 13.6763 35.6664 13.6181 34.3815 13.4733V15.0245C35.1085 15.0861 35.7932 15.1232 36.4725 15.2047C41.7615 15.8407 45.9932 18.2 48.7852 22.8727C50.7155 26.1034 51.4182 29.669 51.4711 33.3746C51.5265 37.2631 51.4822 41.1531 51.4837 45.0423C51.4837 45.2623 51.5059 45.4823 51.5186 45.7197H52.8935L52.8933 45.7199ZM14.4778 45.7072C14.4778 45.3808 14.4776 45.1318 14.4778 44.8826C14.4812 41.199 14.4309 37.5142 14.5116 33.8321C14.5497 32.0923 14.6769 30.323 15.0417 28.6271C16.5228 21.74 20.4756 17.1357 27.4996 15.5512C28.8315 15.2507 30.206 15.1413 31.6002 14.938V13.4898C30.7252 13.5633 29.903 13.6047 29.088 13.7051C23.8401 14.3514 19.5336 16.6576 16.4723 21.0622C14.0659 24.5245 13.1674 28.4623 13.1177 32.6162C13.0682 36.7597 13.0931 40.9042 13.0886 45.0483C13.0884 45.2674 13.117 45.4867 13.1323 45.7071H14.4782L14.4778 45.7072ZM50.7496 45.708C50.7496 45.4733 50.7496 45.2499 50.7496 45.0265C50.7513 41.8489 50.7956 38.6707 50.7388 35.4943C50.7035 33.5194 50.6376 31.5304 50.3727 29.5769C49.4316 22.6425 44.9147 17.7472 38.1324 16.24C36.9163 15.9697 35.6583 15.8896 34.375 15.7156V17.1928C35.2473 17.2698 36.0698 17.3162 36.8853 17.4184C41.7129 18.0248 45.2623 20.4531 47.3718 24.898C48.7285 27.7567 49.2434 30.8099 49.2875 33.9421C49.3389 37.5795 49.305 41.218 49.3081 44.856C49.3083 45.1261 49.3081 45.3962 49.3081 45.7078H50.7496V45.708ZM16.6697 45.7225C16.6697 45.4166 16.6697 45.1894 16.6697 44.9622C16.6721 41.3721 16.665 37.782 16.6804 34.1921C16.6901 31.9032 16.9881 29.6477 17.6374 27.4517C19.1744 22.2531 22.3747 18.7536 27.8037 17.6243C29.0499 17.3651 30.3349 17.2936 31.6145 17.1342V15.7495C30.683 15.8484 29.8146 15.9072 28.9568 16.0371C25.0091 16.6363 21.6163 18.2648 19.0659 21.4493C16.5179 24.6313 15.4323 28.3506 15.3147 32.3399C15.1871 36.6627 15.2653 40.9916 15.2575 45.3177C15.2573 45.4473 15.2976 45.5769 15.3216 45.7221H16.6695L16.6697 45.7225ZM60.1782 43.0422C60.0935 43.5966 60.1512 44.0458 60.8004 44.0507C61.3074 44.0545 61.7208 43.489 61.6683 42.9201C61.5981 42.1612 60.8895 41.5978 60.1191 41.688C59.3745 41.7752 58.7513 42.3353 58.525 43.1204C58.1416 44.4504 59.2486 45.9525 60.7794 46.1791C63.3794 46.5639 65.4518 43.994 64.4785 41.4759C64.1143 40.5335 63.4406 39.7032 62.8595 38.8553C61.3547 36.6595 59.8226 34.4824 58.3024 32.2971C58.2084 32.162 58.1225 32.0211 57.9728 31.791V42.3466C58.9204 41.2934 59.2979 41.0463 60.0658 40.9536C61.0916 40.8298 62.0721 41.5334 62.3162 42.5683C62.5348 43.4954 62.0661 44.3975 61.2172 44.6829C60.3242 44.9832 59.4563 44.4015 59.4679 43.5144C59.4737 43.0699 59.6526 42.8738 60.1782 43.042V43.0422ZM8.0274 32.12C6.48363 34.2497 4.86517 36.473 3.25816 38.7046C2.73575 39.4301 2.17712 40.1411 1.75304 40.9232C1.16382 42.0099 1.12198 43.1709 1.6746 44.3065C2.6012 46.2109 5.20819 46.828 6.68966 45.5042C7.82925 44.4859 7.81799 42.7924 6.66621 41.9766C5.90567 41.4379 4.88994 41.6038 4.56287 42.4153C4.415 42.7824 4.4743 43.311 4.62686 43.6906C4.70417 43.8833 5.30389 44.0786 5.47652 43.9692C5.7428 43.8004 5.84525 43.3709 6.09501 42.9077C6.19559 43.0077 6.43878 43.1364 6.48438 43.3157C6.62286 43.861 6.42771 44.3144 5.92444 44.5978C5.11755 45.0519 4.00443 44.535 3.7376 43.5892C3.32102 42.113 4.61485 40.6362 6.09595 41.0182C6.7955 41.1986 7.40591 41.7272 8.02721 42.0813V32.1202L8.0274 32.12ZM57.878 29.0138C58.5137 28.1078 59.2272 27.7365 60.1628 27.9093C60.8849 28.0424 61.4014 28.6111 61.4846 29.3908C61.5557 30.0589 61.372 30.6941 60.7254 30.9392C60.3624 31.0767 59.8207 31.0058 59.4721 30.8184C59.248 30.698 59.1878 30.1998 59.142 29.8591C59.1277 29.7539 59.4026 29.6095 59.5451 29.4831C59.6152 29.6063 59.6792 29.7334 59.7571 29.8513C59.8789 30.0356 60.01 30.2134 60.1371 30.3938C60.3381 30.2373 60.7066 30.0809 60.7068 29.924C60.7072 29.5494 60.6464 29.0242 60.4011 28.8396C60.1223 28.6298 59.5548 28.5753 59.2202 28.7141C58.1542 29.1568 58.0503 30.6579 58.9795 31.396C59.8361 32.0765 61.1264 32.1449 62.0779 31.5604C63.0272 30.9772 63.5078 29.7845 63.2753 28.6222C63.036 27.4261 62.2817 26.5573 61.4174 25.7948C59.7665 24.3385 58.0735 22.9301 56.3948 21.5055C56.2877 21.4145 56.1533 21.3555 55.8968 21.1999C57.0448 23.7282 57.6667 26.2294 57.8778 29.0137L57.878 29.0138ZM10.1546 21.2088C10.0973 21.1553 10.0399 21.102 9.98269 21.0485C7.89398 22.9375 5.78032 24.7999 3.73628 26.7365C3.29644 27.1533 3.01459 27.8075 2.82338 28.405C2.44639 29.5837 2.86091 30.7721 3.75373 31.4332C4.67658 32.1166 5.9342 32.1441 6.91465 31.5026C7.99513 30.7954 7.93677 29.2205 6.76998 28.6895C6.46618 28.5512 5.95146 28.5587 5.69157 28.7347C5.43299 28.9097 5.27124 29.378 5.26279 29.7227C5.25735 29.9476 5.60112 30.181 5.78839 30.4106C5.93814 30.2085 6.09257 30.0094 6.23537 29.8025C6.29448 29.7168 6.32338 29.5381 6.37573 29.5343C6.49188 29.5256 6.70242 29.5789 6.71875 29.6456C6.78574 29.9173 6.91747 30.2895 6.79625 30.4647C6.59903 30.7495 6.20216 31.1038 5.92556 31.0755C5.50899 31.0328 5.00553 30.7777 4.74958 30.4481C4.25813 29.8153 4.47618 28.7831 5.0759 28.2579C5.72347 27.6911 6.79644 27.686 7.48116 28.2775C7.67932 28.4487 7.80729 28.7021 7.96736 28.9178C8.02684 28.882 8.08632 28.846 8.14581 28.8102C8.34453 26.1491 8.96827 23.6031 10.1546 21.2092V21.2088ZM32.6158 30.2414C31.7196 30.3507 31.0317 30.7274 30.4503 31.3082C29.3243 32.4333 28.7221 33.8525 28.6722 35.3929C28.5628 38.7708 28.6028 42.1533 28.5862 45.5339C28.5859 45.5923 28.6423 45.6511 28.6741 45.7133H30.1101C30.1101 45.4034 30.1103 45.1337 30.1101 44.8637C30.1073 42.0795 30.0812 39.295 30.1096 36.5113C30.1287 34.6413 30.7596 33.0883 32.6158 32.2572V30.2414ZM12.4928 17.316C14.256 14.9868 16.5085 13.1551 18.9845 11.7356C17.3071 11.1885 15.6517 10.608 13.9691 10.1214C13.3716 9.9487 12.688 9.88032 12.0796 9.98166C10.7526 10.2028 9.99601 11.7793 10.726 12.7629C10.9558 13.0726 11.4852 13.3207 11.865 13.3045C12.1718 13.2913 12.6 12.8865 12.7092 12.5646C12.7886 12.3308 12.5122 11.8256 12.2555 11.6642C11.9357 11.463 11.7595 11.7906 11.7012 12.136C11.6824 12.2466 11.5131 12.3317 11.4127 12.4284C11.3109 12.2911 11.0973 12.1187 11.1271 12.0224C11.2296 11.6919 11.3452 11.2206 11.5901 11.1143C11.9331 10.9655 12.4529 10.9746 12.7951 11.135C13.3239 11.3829 13.5493 11.9339 13.4741 12.5331C13.386 13.2346 12.9753 13.7048 12.3125 13.9393C12.1025 14.0135 11.8787 14.0482 11.8034 14.0664C12.0382 15.1733 12.2622 16.2293 12.4928 17.316ZM54.2129 14.0719C54.1442 14.0563 53.9427 14.0237 53.7492 13.9645C52.5619 13.6013 52.1052 12.0417 53.0136 11.2803C53.3039 11.0371 53.895 10.9197 54.2384 11.0461C54.5469 11.1595 54.7268 11.6751 54.9092 12.0405C54.9458 12.114 54.7383 12.3103 54.6433 12.4499C54.5396 12.3355 54.4412 12.2159 54.3311 12.1082C54.1583 11.939 53.9776 11.7779 53.8002 11.6135C53.6263 11.8049 53.3546 11.9708 53.2979 12.1925C53.1639 12.7156 53.4595 13.0784 53.9361 13.2644C54.5928 13.5204 55.3243 13.0813 55.5131 12.3427C55.785 11.2786 54.9794 10.0828 53.7895 9.97413C53.1279 9.91366 52.421 10.0402 51.7723 10.2199C50.6935 10.5187 49.6525 10.9518 48.5808 11.2807C48.056 11.4417 47.4985 11.4956 46.8122 11.6252C49.5114 13.1549 51.7609 14.9921 53.5231 17.2802C53.7488 16.2298 53.9708 15.1966 54.2125 14.0723L54.2129 14.0719ZM33.3592 30.2258C33.3592 30.7103 33.3853 31.1211 33.3527 31.5271C33.3114 32.043 33.4623 32.3425 33.9792 32.5716C34.3943 32.7556 34.7621 33.1353 35.0479 33.5079C35.7502 34.4236 35.9034 35.5158 35.9011 36.6409C35.8955 39.4014 35.8934 42.162 35.894 44.9225C35.894 45.1855 35.9225 45.4486 35.9371 45.6997H37.3679C37.3946 45.5899 37.4242 45.5251 37.4242 45.4601C37.4289 42.3315 37.4764 39.2021 37.415 36.0748C37.3826 34.4213 36.9664 32.8372 35.8343 31.5438C35.1976 30.8165 34.4178 30.3432 33.3594 30.2262L33.3592 30.2258ZM33.6131 33.0645C33.5413 33.1203 33.4692 33.176 33.3973 33.2318V45.7086H35.08C35.1019 45.5818 35.1299 45.4948 35.1301 45.4079C35.1329 42.35 35.1565 39.2916 35.1141 36.234C35.1055 35.6099 34.9396 34.9459 34.6765 34.3799C34.4457 33.8835 33.977 33.4985 33.6133 33.0643L33.6131 33.0645ZM32.5979 33.2465C32.5428 33.2015 32.4876 33.1566 32.4326 33.1116C32.1194 33.4507 31.6839 33.7393 31.5195 34.1399C31.2114 34.8906 30.8943 35.7019 30.8738 36.4955C30.7984 39.4363 30.8414 42.3801 30.8446 45.323C30.8446 45.4514 30.8915 45.5799 30.9148 45.6991H32.5979V33.2467V33.2465ZM59.0951 22.8186C59.3009 21.7123 59.7462 21.2327 60.4289 21.3035C60.959 21.3586 61.28 21.6816 61.2814 22.206C61.2819 22.4032 61.0489 22.601 60.9256 22.7935C60.6745 22.4307 60.5221 22.2107 60.3698 21.9907C60.2225 22.1177 59.9417 22.258 59.953 22.3688C59.9847 22.6856 60.0513 23.0731 60.2562 23.2827C60.6788 23.715 61.4527 23.4809 61.7559 22.8981C62.2639 21.9218 61.5275 20.7226 60.3525 20.7373C59.2309 20.7514 58.111 20.9042 56.9317 21.0008C57.6342 21.5912 58.3263 22.1723 59.0953 22.8184L59.0951 22.8186ZM5.06745 22.9909C4.91771 22.5598 4.6839 22.2281 4.76947 22.0576C4.92334 21.7509 5.24534 21.3616 5.53807 21.3233C6.50971 21.1966 6.75891 21.9674 6.94486 22.8039C7.61721 22.2356 8.22894 21.7208 8.83729 21.202C8.9176 21.1334 8.98009 21.0442 8.99754 21.0246C8.10715 20.9294 7.21245 20.8264 6.31606 20.7424C5.99912 20.7126 5.67055 20.6844 5.35981 20.7337C4.29603 20.9027 3.72484 22.1448 4.30223 23.0036C4.60734 23.4575 5.07402 23.6651 5.54839 23.4314C5.81523 23.2999 6.02239 22.9073 6.1027 22.5929C6.14211 22.4385 5.83155 22.194 5.67918 21.9903C5.57129 22.1569 5.46189 22.3222 5.35643 22.4903C5.2992 22.5812 5.24853 22.6766 5.06764 22.9911L5.06745 22.9909ZM42.8653 9.86751C42.5108 8.88366 42.1483 7.8774 41.8203 6.96682C40.968 7.57299 40.0479 8.22739 39.1549 8.86256C40.3478 9.18562 41.6478 9.53787 42.8653 9.86751ZM23.1523 9.83812C24.3736 9.51583 25.6456 9.17997 26.827 8.86822C25.9303 8.23417 25.0089 7.5826 24.1733 6.99188C23.8521 7.88776 23.5014 8.86539 23.1525 9.83812H23.1523ZM34.8724 8.40257C34.2095 7.68865 33.5726 7.0028 33.0025 6.3891C32.4017 7.04537 31.7839 7.72011 31.1591 8.40257H34.8722H34.8724Z" fill="black"/>
<path d="M33.0416 66.9706C23.8885 66.9706 14.7355 66.9725 5.5824 66.9693C3.35577 66.9686 2.09178 65.7018 2.07939 63.4547C2.06588 61.0139 2.06889 58.5728 2.0702 56.1317C2.07133 53.9365 3.33532 52.6454 5.52047 52.6441C17.7016 52.6367 29.8827 52.6377 42.0639 52.6364C48.1429 52.6358 54.2221 52.6358 60.3011 52.6369C62.794 52.6375 64.0231 53.8609 64.0297 56.3574C64.0359 58.7062 64.0421 61.0551 64.0293 63.4041C64.0167 65.7208 62.7377 66.9782 60.4317 66.978C51.3016 66.9772 42.1716 66.9776 33.0414 66.9776C33.0414 66.9753 33.0414 66.9731 33.0414 66.9708L33.0416 66.9706ZM33.053 66.2307C33.053 66.2364 33.053 66.2422 33.053 66.2479C42.2069 66.2479 51.3609 66.2518 60.5147 66.2445C62.3189 66.2431 63.2778 65.2943 63.2967 63.477C63.3224 60.9899 63.3213 58.5023 63.3052 56.0153C63.2947 54.3714 62.2615 53.3561 60.6111 53.3557C42.2344 53.3531 23.8579 53.3546 5.48125 53.3595C3.80387 53.3599 2.7964 54.3854 2.79077 56.0854C2.78288 58.4805 2.7827 60.8758 2.79339 63.2709C2.80259 65.3205 3.70761 66.229 5.72914 66.2296C14.8372 66.2318 23.945 66.2305 33.053 66.2305V66.2307Z" fill="black"/>
<path d="M1.27588 71.3533V68.7607H64.6851V71.3533H1.27588ZM2.00583 70.6367H63.9784V69.4733H2.00583V70.6367Z" fill="black"/>
<path d="M64.7616 50.8517H1.30322V48.2202C1.50025 48.2044 1.71774 48.1712 1.93541 48.1714C22.6466 48.1757 43.358 48.1842 64.0692 48.1784C64.6049 48.1784 64.8089 48.3185 64.7718 48.8721C64.729 49.508 64.7618 50.1493 64.7618 50.8517H64.7616ZM1.98025 50.1182H63.9953V48.9601H1.98025V50.1182Z" fill="black"/>
<path d="M53.9806 81.4082C54.5766 82.4831 55.1534 83.5234 55.7169 84.5393C54.8577 84.8256 54.5702 84.706 54.1514 83.7747C53.8688 83.1465 53.6147 82.5032 53.2936 81.8956C53.1887 81.6972 52.9123 81.59 52.6125 81.5137C52.7311 82.5488 52.0803 83.6216 53.0446 84.5474H50.9518C51.8328 84.1313 51.6149 83.4379 51.6192 82.8148C51.6268 81.7339 51.6496 80.6518 51.6059 79.5724C51.5881 79.1314 51.4132 78.6969 51.3145 78.2794C52.1465 78.2794 53.1626 78.2293 54.1703 78.3C54.6984 78.3371 55.0761 78.7364 55.1939 79.288C55.3281 79.9154 55.199 80.4826 54.7002 80.917C54.5126 81.0805 54.2878 81.201 53.9808 81.4082H53.9806ZM52.5072 81.2308C52.8816 81.1943 53.1082 81.1896 53.3278 81.1474C54.0358 81.011 54.3694 80.357 54.2221 79.4179C54.1108 78.7078 53.6284 78.3465 52.9037 78.4801C52.7556 78.5074 52.5305 78.6995 52.5248 78.8242C52.4897 79.5937 52.5072 80.3654 52.5072 81.231V81.2308Z" fill="black"/>
<path d="M34.0796 84.6382C34.231 84.124 34.4241 83.755 34.4348 83.3807C34.4725 82.0723 34.4697 80.7614 34.4326 79.453C34.4213 79.0557 34.2496 78.663 34.1179 78.1333C35.0267 78.1896 36.0608 78.2077 37.0797 78.3424C37.4274 78.3884 37.7864 78.6766 38.0549 78.941C39.2225 80.0918 39.2345 82.6562 38.0639 83.8022C37.7492 84.1102 37.315 84.4184 36.9009 84.4762C35.9262 84.6124 34.9308 84.5979 34.0792 84.638L34.0796 84.6382ZM37.9631 81.5121C37.875 80.8481 37.85 80.2928 37.7198 79.7634C37.5013 78.8753 36.9318 78.4888 36.0293 78.4571C35.5622 78.4407 35.3751 78.5859 35.3836 79.0795C35.408 80.5028 35.389 81.9267 35.3922 83.3504C35.3943 84.2779 35.8114 84.599 36.6718 84.2133C37.0469 84.0451 37.4274 83.6578 37.5818 83.2782C37.8173 82.6992 37.8586 82.0406 37.9631 81.5119V81.5121Z" fill="black"/>
<path d="M31.2024 81.4191C30.8842 82.2664 30.7183 83.1044 30.288 83.7703C29.4154 85.12 27.6895 85.0422 26.7942 83.7036C25.9471 82.4372 25.9321 80.3863 26.7604 79.1095C27.6632 77.7178 29.3897 77.6434 30.2794 79.0462C30.7158 79.7345 30.8907 80.5899 31.2026 81.4193L31.2024 81.4191ZM30.1011 81.3822C29.9166 80.6093 29.8024 79.7848 29.5021 79.0355C29.376 78.7205 28.8521 78.3794 28.5175 78.388C28.1824 78.3967 27.6836 78.7588 27.5585 79.0831C26.9606 80.6349 26.9449 82.2313 27.6624 83.7524C27.8116 84.0687 28.3179 84.3844 28.6626 84.3876C28.9679 84.3906 29.4363 84.0186 29.5528 83.7066C29.8208 82.9901 29.9183 82.2095 30.1011 81.3822Z" fill="black"/>
<path d="M11.7016 81.9C11.9063 82.7384 11.2899 83.7243 12.2578 84.5367H10.4817C10.5881 84.1321 10.7787 83.7185 10.7915 83.2993C10.8298 82.0356 10.8225 80.769 10.7817 79.5052C10.768 79.0808 10.6003 78.6615 10.5044 78.2465C11.23 78.2465 12.1172 78.1859 12.9918 78.2652C13.7306 78.3323 14.1438 78.8702 14.2314 79.6209C14.3377 80.5324 14.0376 81.2723 13.3523 81.5334C12.871 81.7169 12.3383 81.7645 11.7018 81.8996L11.7016 81.9ZM11.7581 81.3887C12.3116 81.5177 12.7605 81.4788 13.063 80.9801C13.3786 80.4601 13.3735 79.2927 13.0444 78.8589C12.6982 78.4025 12.2458 78.42 11.7581 78.5449V81.3887Z" fill="black"/>
<path d="M61.0427 78.2207H64.4967V79.741C64.3455 79.5007 64.2616 79.391 64.2023 79.2693C63.8598 78.566 63.2059 78.2633 62.5009 78.5285C62.3763 78.5754 62.2489 78.7849 62.2365 78.9292C62.2012 79.3406 62.2213 79.757 62.2258 80.1714C62.2281 80.3751 62.2438 80.5783 62.253 80.7703C63.2567 81.0653 63.5219 80.9562 63.9088 80.146V82.0826C63.7045 81.7895 63.5759 81.4173 63.3281 81.3003C63.0511 81.1696 62.6657 81.2704 62.2346 81.2704C62.2346 82.1787 62.2209 83.0459 62.25 83.9119C62.2541 84.0354 62.4448 84.2191 62.5833 84.2607C63.483 84.532 64.058 84.214 64.3834 83.3091C64.431 83.1765 64.5059 83.0535 64.605 82.8506C64.6755 82.9957 64.724 83.0493 64.7247 83.1036C64.7307 83.5822 64.7281 84.0609 64.7281 84.5793H60.9911C61.1012 84.1417 61.2778 83.7408 61.29 83.3353C61.3285 82.047 61.326 80.7563 61.2945 79.4675C61.2846 79.0578 61.1339 78.6515 61.0429 78.2209L61.0427 78.2207Z" fill="black"/>
<path d="M1.578 78.1771C2.54063 78.1771 3.61454 78.1673 4.6877 78.1901C4.81548 78.1928 5.03334 78.3625 5.04779 78.4753C5.09414 78.84 5.06505 79.2145 4.93239 79.611C4.84888 79.4402 4.77007 79.2667 4.68075 79.0988C4.40397 78.5786 3.52353 78.2715 3.02232 78.5454C2.91143 78.6061 2.81235 78.7937 2.80747 78.9267C2.78495 79.5432 2.79752 80.1609 2.79752 80.7638C3.88607 80.9825 3.95493 81.1023 4.51206 80.0083V82.0381C4.3002 81.4386 3.92097 81.092 3.26683 81.2621C3.08781 81.3086 2.83336 81.528 2.82267 81.6827C2.77501 82.3691 2.76356 83.0647 2.82942 83.7481C2.84819 83.9435 3.15218 84.2351 3.3584 84.2671C4.38033 84.4255 4.66612 84.2102 5.00088 83.1934C5.03184 83.0992 5.10277 83.0182 5.25139 82.7711V84.5884H1.58044C1.69585 84.1028 1.87936 83.6596 1.89306 83.2111C1.93228 81.9247 1.92384 80.6357 1.88687 79.349C1.87655 78.9877 1.70279 78.6313 1.578 78.1773V78.1771Z" fill="black"/>
<path d="M42.7837 82.0362C42.5082 81.7399 42.3213 81.359 42.0461 81.2769C41.2482 81.0393 41.0547 81.2384 41.0542 82.0966C41.0538 82.6489 41.0639 83.2014 41.048 83.7533C41.0369 84.1335 41.1956 84.2734 41.5726 84.2998C42.7193 84.38 42.8892 84.2838 43.3031 83.1937C43.3388 83.0995 43.3999 83.0151 43.5354 82.7708V84.6008H39.8202C39.9369 84.1007 40.1277 83.6224 40.1463 83.1376C40.1945 81.8738 40.1887 80.6064 40.1559 79.3419C40.1465 78.9835 39.9701 78.6295 39.8603 78.2383H43.3468V79.5906C43.3132 79.5991 43.2798 79.6075 43.2463 79.616C43.184 79.4845 43.1192 79.3542 43.0599 79.2214C42.7726 78.5787 41.8989 78.2283 41.2786 78.535C41.1682 78.5894 41.0656 78.7787 41.0611 78.9093C41.0388 79.5478 41.051 80.1875 41.051 80.8159C42.0102 80.9546 42.1917 81.2009 42.7837 80.0527V82.036V82.0362Z" fill="black"/>
<path d="M8.99976 79.7686C8.88848 79.5073 8.78997 79.2397 8.6633 78.9861C8.35763 78.3741 7.80557 78.1588 7.31299 78.4453C6.82173 78.7311 6.69413 79.4553 7.14655 79.9483C7.57589 80.4162 8.16641 80.7351 8.59462 81.2038C8.9641 81.6084 9.37055 82.0989 9.46962 82.6084C9.71056 83.8488 8.77345 84.8216 7.51528 84.7425C7.0456 84.7129 6.58342 84.5616 6.14526 84.4714V82.7309C6.18805 82.7211 6.23083 82.7113 6.27361 82.7015C6.42017 83.0238 6.49898 83.4116 6.72997 83.6524C7.03809 83.9735 7.44003 84.3113 7.84891 84.3881C8.1043 84.4362 8.64942 84.0583 8.70346 83.7965C8.78846 83.3853 8.67925 82.8388 8.44901 82.4817C8.18856 82.0774 7.67534 81.8471 7.32481 81.489C6.94746 81.1036 6.54026 80.7023 6.30983 80.2277C5.98276 79.554 6.31621 78.6908 6.92194 78.2811C7.43628 77.9331 8.72673 77.8508 8.99431 78.2867C9.2285 78.6683 9.15663 79.2393 9.21987 79.7266C9.1465 79.7405 9.07331 79.7545 8.99994 79.7684L8.99976 79.7686Z" fill="black"/>
<path d="M57.6899 78.5269C56.5603 78.3367 56.4625 79.1727 56.1129 79.824V78.1182H60.1267V79.7775C60.1 79.7877 60.0734 79.7977 60.0468 79.8078C59.9152 79.4891 59.8467 79.115 59.6322 78.869C59.4559 78.6669 59.1063 78.617 58.8334 78.4996C58.7565 78.7149 58.6163 78.9293 58.6131 79.1455C58.5934 80.5238 58.6022 81.9025 58.6058 83.2812C58.6071 83.7449 58.4538 84.2767 59.092 84.5468H57.1392C57.7415 84.2562 57.6952 83.7306 57.6925 83.2096C57.6848 81.6525 57.6897 80.0957 57.6897 78.5271L57.6899 78.5269Z" fill="black"/>
<path d="M22.3732 79.9915C22.2276 79.6392 22.1118 79.2704 21.9302 78.9379C21.4969 78.1447 20.6857 78.1215 20.1753 78.8682C19.4686 79.9022 19.4519 82.8153 20.1468 83.8655C20.6685 84.654 21.5847 84.6225 22.0083 83.7805C22.1869 83.4254 22.2867 83.0304 22.5721 82.6633C22.5721 83.2312 22.578 83.7993 22.5639 84.3669C22.5624 84.4285 22.456 84.5059 22.3819 84.5442C21.2916 85.1068 19.7766 84.6901 19.1817 83.594C18.4041 82.1609 18.3916 80.6813 19.1939 79.2485C19.7693 78.2216 20.7788 77.8405 21.8835 78.0835C22.3933 78.1956 22.6442 78.4047 22.5701 78.9588C22.5262 79.2862 22.562 79.6244 22.562 79.9578C22.499 79.9689 22.4361 79.9802 22.3731 79.9913L22.3732 79.9915Z" fill="black"/>
<path d="M50.7095 84.5607C50.1579 84.5607 49.5557 84.5607 48.9532 84.5607C49.2784 84.1164 49.2815 82.5361 48.8693 82.3851C48.4542 82.2331 47.8147 82.2157 47.4786 82.4438C46.9907 82.7752 47.0369 84.1028 47.4634 84.5357H46.3116C46.5087 84.0907 46.7723 83.6296 46.9209 83.1336C47.363 81.6585 47.7578 80.1691 48.1765 78.6868C48.2356 78.4774 48.3251 78.2764 48.475 77.8699C48.6223 78.2372 48.707 78.4056 48.7588 78.5838C49.22 80.1732 49.6623 81.7682 50.1413 83.352C50.2614 83.7487 50.4941 84.1109 50.7095 84.5609V84.5607ZM48.2878 80.0237L48.0939 80.0252C47.9252 80.6291 47.7565 81.233 47.5706 81.8985H48.8212C48.6308 81.229 48.4595 80.6263 48.2879 80.0237H48.2878Z" fill="black"/>
<path d="M18.3881 84.5762H16.6069C16.9666 84.1288 16.9177 82.4393 16.5022 82.3246C16.0828 82.2088 15.4669 82.1878 15.1603 82.4209C14.6325 82.8223 14.6848 84.1254 15.189 84.5424H13.9603C14.1671 84.0945 14.4362 83.6537 14.5788 83.1751C15.0187 81.7 15.4071 80.2094 15.8237 78.7269C15.8877 78.499 15.9948 78.2833 16.0821 78.062C16.1425 78.0624 16.2029 78.063 16.2635 78.0633C16.3493 78.3333 16.4416 78.6011 16.5196 78.8731C16.9501 80.3756 17.3631 81.8833 17.815 83.3791C17.9336 83.7713 18.1694 84.1279 18.3881 84.576V84.5762ZM15.2472 81.8689H16.4761C16.2815 81.1658 16.1089 80.5419 15.9364 79.918L15.7567 79.9455C15.5912 80.5701 15.4259 81.1948 15.2474 81.8687L15.2472 81.8689Z" fill="black"/>
<path d="M25.2163 84.5741H23.6513C23.7568 84.0683 23.9343 83.5693 23.9518 83.0647C23.9957 81.8 23.9885 80.5321 23.9527 79.2668C23.9435 78.9392 23.753 78.6168 23.6326 78.2517H25.2015C25.0927 78.6458 24.8947 79.0534 24.8814 79.4669C24.8391 80.7777 24.8418 82.0916 24.881 83.4028C24.8921 83.775 25.0868 84.1418 25.2161 84.5741H25.2163Z" fill="black"/>
<path d="M43.1136 64.4437H40.9369C41.6644 63.9368 41.4411 63.2133 41.4469 62.5615C41.4545 61.7095 41.4623 60.8568 41.4314 60.0058C41.3999 59.1346 41.0079 58.7124 40.3156 58.7294C39.5708 58.7476 39.1119 59.2649 39.1107 60.0969C39.1094 61.0642 39.1216 62.0315 39.1128 62.9985C39.1081 63.5245 39.0385 64.0634 39.6521 64.4237H37.2504C38.2665 63.9366 37.9873 63.1803 38.0036 62.5176C38.0243 61.6892 38.0109 60.8596 37.9982 60.0308C37.9847 59.144 37.6702 58.7429 37.0102 58.7392C36.2514 58.7348 35.6826 59.302 35.6805 60.0753C35.6777 61.1115 35.6505 62.1492 35.698 63.1833C35.7164 63.5816 35.911 63.9717 36.0429 64.4264H34.0262C34.7232 64.0555 34.5646 63.4162 34.5697 62.8424C34.5777 61.9213 34.6068 60.9983 34.5567 60.08C34.5359 59.6981 34.3342 59.3263 34.1811 58.8435C34.513 58.6627 35.0223 58.3852 35.6023 58.0693C35.6475 58.3566 35.6871 58.6086 35.7271 58.8635C37.6846 57.7949 38.0552 57.8079 39.0254 58.9629C39.3656 58.729 39.6806 58.4463 40.0471 58.2726C41.3372 57.6611 42.44 58.2956 42.5282 59.7202C42.5922 60.753 42.5608 61.7919 42.576 62.8279C42.5845 63.4024 42.4274 64.0378 43.1129 64.4437H43.1136Z" fill="black"/>
<path d="M50.3723 64.4527H48.2029C48.9291 63.9688 48.7208 63.2664 48.7272 62.6333C48.7356 61.8054 48.7684 60.9753 48.718 60.1506C48.693 59.7413 48.5054 59.3421 48.3618 58.8335C48.6705 58.6602 49.1621 58.3839 49.7547 58.051C49.8045 58.3505 49.8461 58.6024 49.9002 58.9281C50.169 58.7412 50.4092 58.5543 50.6678 58.3982C51.9774 57.6067 53.2112 58.2371 53.2853 59.7622C53.3345 60.7718 53.3024 61.7852 53.3136 62.797C53.3202 63.3911 53.1438 64.0573 53.8899 64.4439H51.6725C52.2882 64.054 52.1947 63.486 52.1891 62.9428C52.1786 61.954 52.1913 60.9649 52.1726 59.9763C52.1562 59.1228 51.7976 58.7079 51.1356 58.7248C50.4171 58.7431 49.8504 59.3189 49.8497 60.0455C49.8484 61.0574 49.8544 62.0691 49.8609 63.081C49.8641 63.5768 49.7256 64.1355 50.5547 64.2866C50.4939 64.342 50.4333 64.3972 50.3725 64.4525L50.3723 64.4527Z" fill="black"/>
<path d="M25.609 58.2798C25.5311 58.1581 25.4318 58.0449 25.3804 57.9129C25.2888 57.678 25.2449 57.4241 25.1483 57.1918C24.9038 56.6037 24.6069 56.0319 23.8702 56.0051C23.092 55.9768 22.6246 56.4762 22.4064 57.1451C22.1949 57.7929 21.9971 58.4863 22.0063 59.1569C22.0223 60.3178 22.1508 61.4851 22.34 62.6319C22.4131 63.0759 22.7166 63.5272 23.0258 63.8763C23.6223 64.5495 24.5503 64.4353 24.9715 63.6419C25.226 63.1627 25.3386 62.6089 25.5354 62.0966C25.5838 61.9705 25.7118 61.8754 25.8034 61.766C25.8666 61.8912 25.9856 62.0173 25.9839 62.1418C25.9751 62.7621 25.9595 63.385 25.8889 64.0002C25.869 64.1735 25.687 64.4127 25.5251 64.4719C23.7267 65.1297 22.005 64.5035 21.1557 62.792C20.2396 60.9462 20.2428 59.0529 21.2921 57.2487C22.1662 55.7457 23.7672 55.206 25.3889 55.7798C25.533 55.8309 25.7733 55.9267 25.7767 56.0098C25.8071 56.7563 25.7945 57.5045 25.7945 58.2521C25.7328 58.2614 25.6711 58.2706 25.6093 58.2798H25.609Z" fill="black"/>
<path d="M10.1888 55.853C9.31339 56.1544 9.51399 56.8668 9.51323 57.4802C9.51098 59.3203 9.50573 61.1605 9.53237 63.0003C9.53782 63.3712 9.31452 63.8664 9.88478 64.0653C10.4821 64.2737 11.2159 64.0742 11.5438 63.5594C11.7376 63.255 11.8382 62.8912 11.9883 62.5578C12.0455 62.4309 12.1242 62.3139 12.3246 62.2308V64.5001H7.50391C8.36596 64.0228 8.16968 63.2408 8.17212 62.5363C8.17812 60.7883 8.16292 59.04 8.18413 57.2922C8.19107 56.7195 8.19989 56.1874 7.5495 55.8534H10.1886L10.1888 55.853Z" fill="black"/>
<path d="M15.7866 63.6346C15.4573 63.9394 15.2398 64.1705 14.9927 64.3634C14.4316 64.8015 13.7227 64.8272 13.2798 64.4476C12.836 64.0673 12.7377 63.2573 13.1451 62.6766C13.4031 62.3087 13.7654 62.0088 14.1068 61.7078C14.3635 61.4816 14.6652 61.3075 14.9397 61.1007C15.6941 60.5324 15.9444 59.9028 15.6646 59.029C15.5963 58.8156 15.2154 58.5172 15.0531 58.5579C14.7027 58.646 14.3425 58.8768 14.1006 59.1509C13.9495 59.3221 14.094 59.7467 13.9486 59.9349C13.7611 60.1771 13.416 60.2965 13.1389 60.4689C13.0672 60.1965 12.8726 59.8848 12.9445 59.6587C13.2941 58.5611 15.0058 57.775 16.0773 58.1599C16.6518 58.3663 16.7899 58.8246 16.7935 59.3654C16.8014 60.584 16.7946 61.8027 16.8166 63.0211C16.8324 63.893 17.0673 64.0422 17.9277 63.6772C17.822 64.3103 17.442 64.593 16.9333 64.6714C16.275 64.7729 15.8906 64.4288 15.7866 63.635V63.6346ZM15.701 61.1046L15.4501 60.9539C15.0103 61.5382 14.5125 62.0892 14.1522 62.7195C13.9358 63.0981 13.9782 63.6425 14.4641 63.8554C14.9859 64.0839 15.312 63.6826 15.5652 63.2812C15.646 63.1529 15.6909 62.9813 15.6948 62.828C15.7097 62.2539 15.7008 61.6791 15.7008 61.1048L15.701 61.1046Z" fill="black"/>
<path d="M31.5289 61.3567C31.1956 62.2155 31.014 63.0986 30.5499 63.7912C29.6569 65.1239 27.8621 65.0273 26.9608 63.7006C26.1248 62.4704 26.1203 60.3303 26.9512 59.1038C27.8707 57.7466 29.6847 57.6615 30.589 59.023C31.0266 59.6819 31.2018 60.5166 31.5289 61.3565V61.3567ZM27.4181 61.3935C27.5804 62.13 27.6782 62.9098 27.9445 63.6268C28.0604 63.9389 28.5125 64.2926 28.8298 64.3107C29.1 64.3262 29.5363 63.9436 29.6567 63.6403C30.2345 62.1869 30.275 60.681 29.7177 59.214C29.5976 58.898 29.1424 58.4996 28.8577 58.512C28.5235 58.5265 28.0443 58.8835 27.9167 59.2067C27.6534 59.8741 27.5819 60.6176 27.4179 61.3936L27.4181 61.3935Z" fill="black"/>
<path d="M59.2735 63.7465C59.1695 64.3651 58.7308 64.5806 58.2285 64.6561C57.5773 64.7543 57.2923 64.3122 57.1334 63.686C56.8266 63.9505 56.5888 64.1893 56.318 64.3815C55.7891 64.7571 55.2214 64.8601 54.6619 64.4534C54.2254 64.1362 54.1051 63.4144 54.4264 62.8133C54.6054 62.4782 54.8747 62.1747 55.1573 61.9171C55.4939 61.61 55.8589 61.3049 56.2646 61.1095C57.0863 60.7139 57.1795 60.058 57.0671 59.2737C57.011 58.8824 56.9238 58.5215 56.4458 58.5144C55.9805 58.5074 55.5783 58.6521 55.4586 59.1789C55.4027 59.4248 55.3958 59.684 55.322 59.9232C55.191 60.3481 54.8426 60.5331 54.4722 60.3553C54.3309 60.2875 54.2571 59.826 54.3303 59.6024C54.6602 58.5927 56.3631 57.7937 57.3621 58.1305C57.8887 58.3081 58.1211 58.6977 58.1305 59.2307C58.148 60.2185 58.1529 61.2067 58.1626 62.1947C58.1651 62.4475 58.1581 62.7007 58.1701 62.9529C58.2129 63.8465 58.394 63.9823 59.2731 63.7465H59.2735ZM57.0881 60.9705C55.923 61.6594 55.3822 62.4402 55.4522 63.2307C55.5061 63.8377 55.9715 64.1097 56.4498 63.7531C56.7219 63.5502 57.0093 63.2134 57.0602 62.8994C57.1566 62.3028 57.0881 61.6793 57.0881 60.9705Z" fill="black"/>
<path d="M47.7042 60.9023H44.6193C44.5896 61.9244 44.6088 62.9178 45.3931 63.5967C46.2597 64.3468 47.0238 63.8013 47.7027 63.0271C47.695 63.887 46.9624 64.6033 46.1047 64.6939C45.1959 64.79 44.4556 64.4464 44.0132 63.6598C43.1873 62.1915 43.1532 60.674 44.0079 59.2019C44.5322 58.299 45.4599 57.9093 46.3372 58.1176C47.4481 58.3815 48.0221 59.5225 47.7042 60.9025V60.9023ZM46.6915 60.496C46.6915 60.0209 46.7583 59.5975 46.6686 59.2107C46.6061 58.941 46.3505 58.5467 46.1426 58.5209C45.8377 58.4831 45.3609 58.6319 45.2029 58.8671C44.9006 59.3174 44.7715 59.8845 44.5345 60.496H46.6915Z" fill="black"/>
<path d="M33.7291 64.4533H31.4982C32.2617 63.9992 32.0668 63.2911 32.0683 62.6569C32.0728 60.7704 32.0624 58.8839 32.0692 56.9973C32.0711 56.4731 32.1623 55.9242 31.2655 55.7931C31.9589 55.4341 32.4905 55.1587 33.1225 54.8313C33.1401 55.154 33.1641 55.3932 33.1647 55.6324C33.1701 58.1172 33.1774 60.6018 33.1701 63.0864C33.1686 63.6015 33.1367 64.1039 33.8153 64.2978C33.7865 64.3496 33.7576 64.4015 33.7289 64.4533H33.7291Z" fill="black"/>
<path d="M61.8901 59.6071C61.816 60.344 61.5417 60.6586 61.0286 60.6467C60.546 60.6354 60.2698 60.3244 60.2764 59.8382C60.2833 59.3217 60.5905 58.9559 61.0904 59.0448C61.4141 59.1025 61.6856 59.4543 61.8901 59.6071Z" fill="black"/>
<path d="M5.85767 60.0155C5.66496 60.1741 5.41013 60.544 5.0947 60.6066C4.607 60.7034 4.28838 60.3459 4.26623 59.8345C4.24559 59.3575 4.4871 59.0328 4.97986 59.0079C5.49758 58.9817 5.7676 59.2846 5.85786 60.0155H5.85767Z" fill="black"/>
</svg>
