<svg width="188" height="48" viewBox="0 0 188 48" fill="none" xmlns="http://www.w3.org/2000/svg">
<path d="M66.4221 10.9758C66.4221 8.74997 66.4221 6.35559 66.4221 3.96169C66.4221 2.95728 66.4426 1.95288 66.4178 0.949434C66.4026 0.326801 66.6304 0.0145317 67.2831 0.0169118C70.0485 0.0259562 72.8143 0.0345245 75.5797 0.0121516C76.496 0.00501134 76.496 0.572426 76.4955 1.22838C76.4931 9.83577 76.5012 18.4436 76.5031 27.051C76.5046 33.3273 76.4769 39.6041 76.5227 45.88C76.5308 46.9839 76.1704 47.3199 75.1006 47.279C73.3073 47.2104 71.5096 47.2647 69.7138 47.2661C68.679 47.2671 67.9711 46.7769 67.5901 45.7957C65.3981 47.0976 62.9812 47.3899 60.4871 47.4889C54.48 47.7274 51.0096 43.9145 50.2797 38.5759C49.3916 32.0806 49.4894 25.5625 50.3002 19.0686C50.6788 16.0378 51.7728 13.3131 54.5325 11.5475C56.4865 10.2975 58.6708 10.1409 60.8589 10.2409C62.6628 10.3232 64.4533 10.7035 66.4221 10.9754V10.9758ZM59.8049 29.2093C59.967 31.517 60.0418 33.8091 60.3155 36.0768C60.5219 37.7881 61.1983 38.1961 63.0794 38.1684C65.0263 38.1404 65.902 37.6006 65.9978 35.9245C66.2076 32.252 66.2701 28.57 66.333 24.8913C66.3482 24.0069 66.1709 23.1105 66.0093 22.2332C65.6932 20.5176 64.8194 19.9107 62.8263 19.9455C61.225 19.9731 60.4942 20.5614 60.315 22.2694C60.0723 24.5786 59.9679 26.9025 59.8049 29.2098V29.2093Z" fill="black"/>
<path d="M17.8186 20.1578C17.084 17.6744 16.3794 15.281 15.6663 12.8904C15.4642 12.2121 15.939 12.0755 16.4042 11.9717C18.8517 11.4262 21.2848 10.7802 23.758 10.3918C27.0039 9.88199 30.2608 9.87723 33.4366 10.9635C36.1234 11.8827 37.9272 13.6335 38.5007 16.4496C38.7782 17.8111 38.9708 19.2144 38.9817 20.6005C39.0446 28.8485 39.048 37.097 39.0599 45.3454C39.0623 47.1657 39.0408 47.1743 37.2117 47.2081C35.5599 47.2386 33.9052 47.1976 32.2568 47.2833C31.2447 47.3362 30.5563 47.1296 30.5392 45.7743C28.0369 47.4866 25.3278 47.5399 22.5934 47.4818C17.9921 47.3842 14.9217 44.6224 14.2624 40.0826C13.8052 36.9356 13.6917 33.7986 14.2738 30.6669C14.9169 27.2082 16.6631 24.4963 20.2136 23.6033C22.6563 22.9887 25.2267 22.8435 27.7509 22.6017C29.2101 22.4618 29.2554 22.5198 28.9341 21.1389C28.5279 19.3929 27.8829 18.7383 26.091 18.883C23.7103 19.0754 21.3496 19.5162 18.9823 19.8622C18.639 19.9122 18.3063 20.0317 17.8191 20.1578H17.8186ZM29.2592 33.6535C29.2139 33.6482 29.1691 33.6425 29.1238 33.6373C29.1238 33.3507 29.1238 33.0641 29.1238 32.7776C29.1224 30.2794 28.8659 30.0719 26.3608 30.5379C24.3295 30.9159 23.6598 31.6927 23.6397 33.7291C23.6307 34.6245 23.6231 35.5218 23.6722 36.4148C23.7513 37.86 24.3062 38.5631 25.4365 38.7483C27.0516 39.0125 28.4026 38.4541 28.7801 37.1274C29.0971 36.014 29.1114 34.8149 29.2597 33.6535H29.2592Z" fill="black"/>
<path d="M179.2 46.0838C175.894 47.8493 172.241 47.9241 168.525 46.9068C166.152 46.2575 164.719 44.5643 163.924 42.3013C162.919 39.4424 162.742 36.4772 162.967 33.4921C163.068 32.144 163.307 30.7902 163.64 29.4793C164.527 25.9967 166.866 23.9179 170.335 23.2734C172.58 22.8564 174.888 22.7488 177.174 22.5998C178.025 22.5446 178.216 22.2871 178.063 21.4869C177.669 19.4333 177.027 18.7212 174.967 18.8864C172.584 19.0773 170.214 19.5009 167.862 19.9494C167.031 20.1079 166.706 19.9646 166.49 19.1663C165.937 17.127 165.338 15.0992 164.708 13.0818C164.509 12.442 164.675 12.1945 165.296 11.9979C169.332 10.7203 173.463 9.99103 177.691 10.141C179.387 10.201 181.124 10.5494 182.742 11.0735C185.796 12.0627 187.272 14.4485 187.734 17.5055C187.899 18.5989 187.969 19.7166 187.971 20.8233C187.99 29.148 187.969 37.4731 188 45.7977C188.003 46.7231 187.814 47.1643 186.784 47.1558C184.774 47.1391 182.759 47.3029 180.753 47.2262C180.266 47.2077 179.803 46.5474 179.2 46.0833V46.0838ZM178.234 33.6287C178.205 33.6263 178.177 33.6244 178.149 33.6221C178.149 32.8328 178.139 32.0436 178.153 31.2543C178.162 30.7388 178.007 30.4146 177.417 30.4713C176.492 30.5603 175.552 30.5755 174.642 30.7483C173.604 30.9454 172.813 31.609 172.748 32.6848C172.66 34.1071 172.662 35.559 172.855 36.9671C173.055 38.4232 173.684 38.7997 175.164 38.7812C176.817 38.7602 177.74 38.1557 177.943 36.8323C178.106 35.7746 178.142 34.6969 178.233 33.6283L178.234 33.6287Z" fill="black"/>
<path d="M113.376 45.7139C111.002 47.3876 108.5 47.4909 105.97 47.4871C100.953 47.4795 97.824 45.0946 97.2052 40.1597C96.8091 36.998 96.8391 33.7092 97.2214 30.5427C97.7415 26.2309 100.579 23.7123 105.056 23.0492C107.035 22.756 109.053 22.6793 111.057 22.6017C111.888 22.5698 112.038 22.2419 111.906 21.544C111.516 19.4876 110.722 18.7046 108.593 18.8812C106.285 19.0725 103.994 19.5186 101.713 19.9517C100.98 20.0912 100.627 20.1003 100.404 19.271C99.8734 17.3008 99.2551 15.3529 98.6258 13.4112C98.345 12.5444 98.5638 12.1264 99.4663 11.8675C103.386 10.7436 107.364 10.0067 111.451 10.1162C113.681 10.1762 115.867 10.5642 117.864 11.6909C119.737 12.7477 120.9 14.339 121.295 16.4025C121.596 17.9763 121.783 19.5957 121.792 21.1965C121.836 29.4102 121.788 37.624 121.823 45.8377C121.827 46.8873 121.47 47.2305 120.468 47.2148C118.672 47.1872 116.874 47.1996 115.081 47.2748C114.091 47.3162 113.343 47.1924 113.377 45.7139H113.376ZM112.144 33.6463C112.079 33.6354 112.014 33.6244 111.949 33.614C111.949 32.8257 112.003 32.0312 111.92 31.2515C111.89 30.9735 111.518 30.5032 111.318 30.5108C110.253 30.5527 109.172 30.6288 108.137 30.8683C107.143 31.0982 106.538 31.8584 106.492 32.8933C106.436 34.1447 106.425 35.4052 106.516 36.6534C106.613 37.9757 107.191 38.576 108.287 38.7478C109.79 38.9839 111.108 38.5298 111.462 37.3945C111.838 36.1916 111.928 34.8997 112.143 33.6463H112.144Z" fill="black"/>
<path d="M0.00719164 23.5223C0.00719164 16.1702 0.00623821 8.81807 0.00814506 1.46642C0.00862177 0.0240819 0.0148191 0.0193217 1.43589 0.0174177C3.87808 0.0140855 6.32075 0.0440747 8.76246 0.000756971C9.70206 -0.0159037 10.1044 0.237339 10.1025 1.26982C10.0782 16.1173 10.0825 30.9653 10.1111 45.8129C10.113 46.802 9.80646 47.1215 8.81585 47.0977C6.30311 47.0372 3.78703 47.0324 1.27429 47.0967C0.257465 47.1224 -0.00377271 46.7578 4.0974e-05 45.7938C0.0310272 38.3703 0.0172026 30.9463 0.0172026 23.5223H0.00719164Z" fill="black"/>
<path d="M135.597 12.2731C137.65 10.9716 139.864 10.6275 142.156 10.5494C142.904 10.5237 143.173 10.7917 143.165 11.54C143.135 14.1952 143.139 16.8514 143.161 19.5067C143.166 20.1431 142.956 20.3706 142.301 20.4144C141.519 20.4668 140.735 20.6391 139.978 20.8533C138.199 21.3574 137.238 22.6322 136.923 24.3906C136.766 25.2679 136.7 26.1724 136.697 27.0649C136.681 33.345 136.671 39.6256 136.714 45.9057C136.722 46.8944 136.422 47.2429 135.441 47.2272C132.89 47.1867 130.337 47.1948 127.786 47.2286C126.914 47.24 126.598 46.9406 126.6 46.04C126.625 34.7355 126.625 23.431 126.604 12.126C126.602 11.2587 126.842 10.934 127.751 10.9302C129.51 10.9236 131.269 10.8136 133.025 10.6998C134.937 10.5761 134.935 10.5527 135.597 12.2726V12.2731Z" fill="black"/>
<path d="M92.0157 29.017C92.0157 34.6488 91.9923 40.2806 92.0367 45.9119C92.0448 46.9615 91.6944 47.2809 90.6752 47.2595C88.1257 47.2057 85.5744 47.2224 83.024 47.2538C82.1573 47.2647 81.7979 46.9548 81.7993 46.0647C81.8208 34.6221 81.827 23.1796 81.8165 11.737C81.8155 10.8507 82.1545 10.5408 83.0321 10.5541C85.6178 10.5927 88.2049 10.6012 90.7901 10.5541C91.7344 10.537 92.0281 10.8597 92.0219 11.7999C91.9861 17.5387 92.0038 23.2781 92.0038 29.0175H92.0152L92.0157 29.017Z" fill="black"/>
<path d="M157.773 28.9047C157.773 34.5731 157.752 40.2411 157.793 45.909C157.801 46.9472 157.462 47.2862 156.433 47.2624C153.919 47.2048 151.403 47.2138 148.889 47.2557C147.938 47.2714 147.546 46.9863 147.549 45.9714C147.577 34.635 147.582 23.2986 147.552 11.9622C147.549 10.8873 147.856 10.5156 148.959 10.5513C151.364 10.6289 153.773 10.5798 156.18 10.5822C157.752 10.5836 157.767 10.5955 157.768 12.1145C157.769 17.7111 157.768 23.3076 157.768 28.9037H157.773V28.9047Z" fill="black"/>
<path d="M152.552 8.23204C151.261 8.23204 149.968 8.20776 148.678 8.24061C147.842 8.26155 147.541 7.91406 147.557 7.08579C147.596 5.08032 147.582 3.07389 147.562 1.06795C147.554 0.371531 147.763 0.000235518 148.537 0.00642377C151.299 0.0278446 154.061 0.0211804 156.824 0.00832785C157.504 0.00499571 157.786 0.282515 157.778 0.974171C157.754 3.05152 157.749 5.12982 157.781 7.20717C157.792 7.96547 157.453 8.22728 156.75 8.22062C155.35 8.20681 153.951 8.21681 152.552 8.21681C152.552 8.22204 152.552 8.22728 152.552 8.23252V8.23204Z" fill="black"/>
<path d="M87.0079 0.0145885C88.3365 0.0145885 89.6651 0.0331533 90.9932 0.00697219C91.724 -0.00730839 92.0244 0.281635 92.0148 1.0247C91.9877 3.10395 91.9905 5.18368 92.0143 7.26294C92.0215 7.90271 91.7607 8.19594 91.1382 8.19689C88.3022 8.20022 85.4653 8.22688 82.6308 8.16642C82.3519 8.16023 81.858 7.6209 81.849 7.31673C81.7837 5.20368 81.8247 3.08729 81.8199 0.97234C81.8185 0.294488 82.1298 0.00554413 82.8076 0.0145885C84.2077 0.0341053 85.6083 0.0203007 87.0084 0.0203007V0.0145885H87.0079Z" fill="black"/>
</svg>
