<svg width="85" height="85" viewBox="0 0 85 85" fill="none" xmlns="http://www.w3.org/2000/svg">
<path d="M42.2052 84.5116C39.6281 84.5414 37.0715 84.2678 34.5427 83.8258C32.8105 83.523 31.0955 83.0731 29.4077 82.5715C27.02 81.8611 24.7537 80.8354 22.5377 79.6963C17.5478 77.1313 13.3113 73.6266 9.70039 69.3606C7.55664 66.8274 5.76477 64.0517 4.29761 61.0712C3.02527 58.4856 1.97361 55.8112 1.29172 53.0097C0.1327 48.2434 -0.309303 43.4122 0.224812 38.5206C0.428916 36.6494 0.609826 34.7629 1.01803 32.9314C1.4448 31.0137 2.03723 29.1186 2.73105 27.2792C3.41758 25.4576 4.25188 23.6818 5.14517 21.9503C6.37642 19.5649 7.91051 17.3636 9.63147 15.3022C11.9714 12.4999 14.5869 9.9793 17.6121 7.92913C19.3237 6.76953 21.0971 5.68017 22.9313 4.7293C24.698 3.81355 26.5515 3.04755 28.417 2.34782C29.7423 1.85018 31.1379 1.51755 32.5242 1.21009C34.0994 0.860882 35.6905 0.549447 37.2908 0.351984C39.7672 0.0458505 42.2602 -0.126433 44.7565 0.111451C46.4848 0.276445 48.2283 0.394392 49.926 0.728357C51.9724 1.13057 54.0108 1.64013 55.9935 2.28421C58.4712 3.0893 60.8323 4.19986 63.1126 5.47542C67.911 8.16039 72.0229 11.6511 75.4403 15.9529C77.4853 18.5279 79.2076 21.3043 80.5886 24.2967C81.629 26.5516 82.4945 28.8682 83.1061 31.2689C84.3208 36.0371 84.788 40.8796 84.3586 45.793C84.2433 47.1083 84.1704 48.4362 83.9258 49.7303C83.5965 51.4737 83.1525 53.1985 82.6992 54.9154C82.1366 57.0451 81.2341 59.0502 80.2579 61.0135C78.6476 64.2531 76.6629 67.2548 74.2919 69.9921C72.0361 72.5963 69.4928 74.8856 66.6705 76.8609C64.2968 78.5228 61.7965 79.97 59.114 81.0719C57.5011 81.7346 55.8729 82.3852 54.2023 82.8736C52.5853 83.3461 50.9128 83.6396 49.2521 83.9477C46.9254 84.3791 44.571 84.5375 42.2052 84.5129V84.5116ZM54.743 32.7684H54.7463C54.7463 32.8572 54.7417 32.9466 54.7463 33.0354C54.8881 35.4686 54.3812 37.9369 55.0929 40.3369C55.2917 41.0075 55.5276 41.7092 55.9232 42.2718C57.0067 43.8131 58.56 44.6327 60.4215 44.8733C62.1338 45.0946 63.8024 44.9448 65.3213 44.0728C66.9541 43.1352 67.9726 41.6635 68.2655 39.8386C68.5339 38.1655 68.5969 36.448 67.7699 34.8431C67.0959 33.5364 66.2033 32.4801 64.7626 31.9964C64.3604 31.8612 63.9303 31.793 63.548 31.6181C62.4062 31.0959 61.3161 31.4749 60.285 31.8732C59.6243 32.1283 59.0829 32.6922 58.4831 33.1096C58.3712 33.1878 58.234 33.2302 58.1087 33.2885C58.059 33.1573 57.9954 33.0295 57.9636 32.8936C57.9404 32.7949 57.9576 32.6869 57.959 32.5828C57.9848 30.6109 58.0001 28.6382 58.0451 26.6669C58.0551 26.2289 57.9026 26.0931 57.4818 26.1083C56.7701 26.1342 56.0564 26.1189 55.3434 26.1209C54.7457 26.1222 54.7423 26.1249 54.7423 26.71C54.7423 28.7297 54.743 30.7487 54.743 32.7684ZM25.1208 44.8905C26.4912 44.9627 27.8159 44.7474 29.0538 44.1649C29.8112 43.8084 30.5243 43.3519 31.236 42.9072C31.5315 42.7224 31.5521 42.448 31.3208 42.1446C30.8622 41.5436 30.4302 40.922 29.9875 40.3091C29.7953 40.0427 29.5978 39.9857 29.3334 40.2388C28.4196 41.1115 27.2685 41.4872 26.0631 41.6734C24.8272 41.8649 23.6358 41.6529 22.4814 41.1393C20.7677 40.3773 19.8314 38.9726 19.508 37.2458C19.2489 35.8635 19.3635 34.4475 20.0142 33.0917C20.6729 31.7188 21.7021 30.8275 23.0871 30.3895C25.3249 29.6812 27.4481 29.9356 29.3122 31.4829C29.5713 31.6982 29.7701 31.7055 29.9723 31.4266C30.4242 30.8024 30.8728 30.1749 31.3393 29.5613C31.5613 29.2697 31.4527 29.0669 31.2134 28.8834C30.0717 28.0087 28.8338 27.2633 27.4064 27.0565C25.3223 26.7544 23.2282 26.7729 21.2395 27.6317C18.4517 28.835 16.7585 31.0078 16.2668 33.9353C15.9262 35.9656 15.9269 38.0714 16.8937 40.0308C17.4053 41.0665 18.0156 42.0134 18.893 42.7787C19.6849 43.4691 20.5417 43.9953 21.5788 44.2829C22.4423 44.5221 23.2706 44.8805 24.1858 44.8911C24.4966 44.8945 24.808 44.8911 25.1188 44.8911L25.1208 44.8905ZM52.2335 36.0881H52.2461C52.2461 34.7814 52.2441 33.4741 52.2474 32.1674C52.2474 31.893 52.2447 31.681 51.8518 31.6956C51.0069 31.7281 50.16 31.7201 49.3144 31.7095C49.0639 31.7062 48.9645 31.7804 48.9671 32.0348C48.9877 34.1725 49.0003 36.3108 49.0162 38.4484C49.0215 39.1614 48.9923 39.8684 48.6524 40.5211C48.2992 41.1983 47.8088 41.8192 47.0957 42.0332C46.17 42.3109 45.1892 42.3248 44.3079 41.7516C43.5683 41.2705 43.0534 40.6092 42.9023 39.7452C42.7983 39.1515 42.8189 38.5319 42.8215 37.9236C42.8295 36.0106 42.85 34.0976 42.8792 32.1846C42.8845 31.8341 42.7579 31.7135 42.4093 31.7241C41.6671 31.7473 40.9243 31.7413 40.1814 31.7406C39.5896 31.7406 39.5804 31.742 39.5797 32.3291C39.5777 34.5422 39.5936 36.7554 39.5698 38.9679C39.5592 39.9526 39.7924 40.8597 40.1841 41.7523C40.9793 43.5672 42.4756 44.5161 44.3119 44.8077C45.9719 45.0714 47.6637 45.027 49.2488 44.2073C51.0519 43.2757 52.0632 41.8225 52.2156 39.8287C52.3103 38.5882 52.2335 37.3352 52.2335 36.0881ZM33.228 34.0804C33.2339 34.0804 33.2406 34.0804 33.2465 34.0804C33.2465 36.2624 33.2445 38.4438 33.2478 40.6258C33.2492 41.3189 33.2498 41.9961 33.5268 42.6733C33.9476 43.7031 34.7031 44.3054 35.7296 44.5373C36.3565 44.6791 37.0264 44.6221 37.6765 44.6705C38.092 44.7016 38.2338 44.4975 38.2325 44.1165C38.2312 43.5825 38.2225 43.0464 38.259 42.5143C38.2901 42.0624 38.153 41.8841 37.6692 41.8795C36.8415 41.8716 36.6069 41.5959 36.5745 40.759C36.5692 40.6258 36.5705 40.492 36.5705 40.3581C36.5718 36.2021 36.5712 32.0468 36.5771 27.8908C36.5778 27.4018 36.6096 26.9121 36.6328 26.4237C36.646 26.1507 36.5234 26.0686 36.2564 26.0725C35.3671 26.0858 34.4771 26.0818 33.5878 26.0705C33.3274 26.0672 33.2213 26.1361 33.222 26.4231C33.2326 28.9755 33.228 31.5279 33.228 34.0804ZM20.4457 54.6364C21.722 54.6364 22.9989 54.6391 24.2752 54.6351C24.8809 54.6331 24.9989 54.4946 24.9724 53.889C24.9472 53.3125 24.9326 52.7353 24.922 52.1582C24.9121 51.6115 24.8451 51.5433 24.2633 51.5327C23.4721 51.5187 23.4317 51.5406 23.4131 52.133C23.3952 52.7135 23.1414 53.2025 22.5907 53.3145C21.9334 53.4483 21.2395 53.4139 20.5616 53.4152C20.4808 53.4152 20.3403 53.1866 20.3297 53.0554C20.2999 52.7022 20.3284 52.3437 20.327 51.9879C20.3264 51.7593 20.3615 51.5618 20.6484 51.5565C20.9248 51.5519 21.1984 51.5678 21.276 51.9117C21.3018 52.0263 21.3151 52.1476 21.3124 52.2649C21.3058 52.5889 21.4728 52.7214 21.7803 52.7161C21.9585 52.7128 22.15 52.7532 22.3098 52.6982C22.433 52.6558 22.598 52.4994 22.6027 52.3881C22.6351 51.5287 22.6404 50.6673 22.6325 49.8072C22.6311 49.6819 22.547 49.5037 22.4456 49.4421C21.9811 49.1618 21.4118 49.4374 21.3224 49.9735C21.2627 50.332 20.9977 50.3618 20.7246 50.3671C20.4496 50.3724 20.325 50.2081 20.3224 49.9424C20.3191 49.6601 20.3204 49.3785 20.3138 49.0962C20.3065 48.8172 20.4423 48.6853 20.7167 48.6847C21.0434 48.6834 21.3721 48.7059 21.6961 48.6747C22.6298 48.5853 23.2329 49.0027 23.4151 50.047C23.4409 50.1948 23.6126 50.3929 23.7517 50.4281C23.9876 50.487 24.2646 50.4811 24.4979 50.4115C24.641 50.3691 24.8273 50.1617 24.8326 50.0212C24.8604 49.3559 24.8319 48.6887 24.8253 48.0221C24.8213 47.5788 24.5847 47.4542 24.1652 47.4562C21.7611 47.4668 19.3562 47.4562 16.952 47.4542C16.7738 47.4542 16.5856 47.4257 16.4212 47.4747C16.2894 47.5138 16.119 47.6298 16.0819 47.7484C15.8772 48.4057 16.0614 48.6721 16.7367 48.6628C17.1754 48.6569 17.2986 48.8384 17.292 49.2473C17.2741 50.4049 17.2814 51.5625 17.2847 52.7201C17.2873 53.4496 17.2926 53.4755 16.5677 53.4788C16.0687 53.4814 16.0428 53.7598 16.0263 54.1408C16.0077 54.5642 16.2271 54.6384 16.5736 54.6371C17.8652 54.6311 19.1561 54.6344 20.4476 54.6357L20.4457 54.6364ZM40.6857 47.4562V47.4529C39.691 47.4529 38.697 47.4462 37.703 47.4602C37.5426 47.4621 37.312 47.5079 37.2365 47.6179C36.931 48.0618 37.2405 48.635 37.7752 48.6535C38.1198 48.6655 38.4114 48.7317 38.4121 49.1571C38.4141 50.4479 38.4088 51.7394 38.4061 53.0302C38.4054 53.3469 38.2338 53.4848 37.9277 53.4795C37.809 53.4775 37.6904 53.4834 37.5718 53.4854C37.0688 53.4927 37.1967 53.8823 37.1636 54.1673C37.1285 54.4674 37.2299 54.6503 37.5738 54.6483C39.2358 54.6404 40.8984 54.6457 42.5604 54.6278C42.6876 54.6265 42.8864 54.5105 42.9269 54.4012C43.1548 53.7876 42.9216 53.4715 42.2814 53.4761C42.1926 53.4761 42.1032 53.4761 42.0144 53.4775C41.6492 53.4801 41.471 53.2807 41.4418 52.9335C41.4292 52.7863 41.4378 52.6366 41.4365 52.4888C41.4319 51.9176 41.461 51.917 42.0316 51.8772C43.0031 51.8103 43.9805 51.756 44.9401 51.6022C45.7943 51.4651 46.3443 50.8349 46.4556 50.0656C46.5762 49.2327 46.1952 48.3852 45.4457 48.0035C44.7287 47.6384 43.9467 47.4615 43.1349 47.4582C42.3185 47.4548 41.5028 47.4575 40.6864 47.4575L40.6857 47.4562ZM60.7919 53.2489H60.7965C60.7965 53.5755 60.7733 53.9049 60.8078 54.2276C60.8217 54.3594 60.9543 54.5801 61.043 54.5854C61.3591 54.6026 61.6799 54.547 61.998 54.5145C62.3233 54.4814 62.6944 54.325 62.9648 54.4297C63.9071 54.7934 64.872 54.7709 65.8183 54.6251C66.4432 54.5291 67.0827 54.2806 67.6241 53.9493C68.5028 53.4112 68.5909 52.5034 68.404 51.5804C68.2437 50.7905 67.6068 50.3936 66.9177 50.1968C65.9263 49.9132 64.8998 49.7542 63.8886 49.5395C63.656 49.4898 63.3763 49.456 63.4214 49.1247C63.4638 48.8172 63.6865 48.6781 63.9939 48.6761C64.4247 48.6734 64.8554 48.6562 65.2855 48.6721C65.8156 48.692 66.2841 48.9365 66.4525 49.4209C66.6639 50.0305 67.1277 50.0007 67.587 50.051C67.8818 50.0835 68.0276 49.9251 68.0283 49.6296C68.0296 49.1989 68.0336 48.7682 68.0349 48.3375C68.0376 47.4403 67.9024 47.3237 67.0296 47.482C66.9309 47.4999 66.8229 47.5357 66.748 47.5986C66.4743 47.8266 66.1953 47.7577 65.9104 47.6417C65.7732 47.586 65.642 47.49 65.5015 47.4754C64.3127 47.3475 63.1205 47.2826 62.0132 47.8504C61.3578 48.1864 60.8396 48.6747 60.7747 49.4699C60.6845 50.5772 61.3267 51.418 62.4267 51.6619C63.3936 51.8759 64.367 52.0634 65.3259 52.3079C65.528 52.3596 65.6791 52.6081 65.8541 52.7658C65.7156 52.9176 65.6049 53.1283 65.4333 53.2111C64.6513 53.5868 63.8747 53.5318 63.0788 53.1773C62.6653 52.9931 62.3638 52.791 62.2723 52.3258C62.2438 52.1814 62.1358 51.9514 62.0417 51.9395C61.6812 51.8931 61.2982 51.8666 60.9529 51.9514C60.8502 51.9766 60.8257 52.3881 60.7972 52.626C60.772 52.8307 60.7919 53.0408 60.7919 53.2489ZM52.1162 54.6463V54.6483C52.8438 54.6483 53.5714 54.6457 54.299 54.6497C54.6092 54.6516 54.8245 54.5516 54.8351 54.203C54.8451 53.8625 54.8451 53.5086 54.3838 53.4821C54.0055 53.4602 53.8491 53.2091 53.7086 52.9235C53.6503 52.8042 53.6138 52.6744 53.5588 52.5531C52.9034 51.1119 52.2315 49.678 51.596 48.2275C51.311 47.5774 51.1858 47.4542 50.478 47.4562C49.9287 47.4575 49.3787 47.4701 48.83 47.4549C48.4927 47.4456 48.2866 47.5569 48.1414 47.8809C47.4881 49.3387 46.8247 50.7918 46.1355 52.2331C45.8645 52.8003 45.6915 53.4662 44.8546 53.5497C44.4981 53.5855 44.5776 54.0135 44.6253 54.268C44.6518 54.4111 44.8738 54.6198 45.0123 54.6238C46.0805 54.6523 47.1508 54.6444 48.2196 54.6271C48.3389 54.6251 48.5172 54.5251 48.5636 54.423C48.8068 53.8876 48.5503 53.5046 47.9698 53.4795C47.7631 53.4702 47.4715 53.5484 47.4675 53.2038C47.4642 52.8983 47.6213 52.7015 47.9612 52.7029C48.7332 52.7048 49.5059 52.7088 50.2779 52.6982C50.6517 52.6929 50.7299 52.9553 50.7477 53.2237C50.769 53.5497 50.4893 53.4755 50.2951 53.4894C50.1772 53.4973 50.0572 53.4927 49.9386 53.4861C49.492 53.4616 49.4456 53.7445 49.4383 54.095C49.431 54.4515 49.5245 54.6603 49.9327 54.6516C50.6603 54.6364 51.3886 54.6463 52.1162 54.6463ZM29.466 54.6397C29.466 54.6357 29.466 54.6324 29.466 54.6285C30.6833 54.6285 31.9006 54.6304 33.118 54.6278C33.8409 54.6265 33.884 54.5807 33.8774 53.881C33.8721 53.3913 33.8608 52.9016 33.8615 52.4113C33.8635 51.2775 33.7965 51.2186 32.6601 51.3153C32.4056 51.3372 32.285 51.4425 32.2711 51.697C32.2572 51.9481 32.2492 52.2039 32.1909 52.4464C32.0597 52.9977 31.6197 53.4165 31.1299 53.4483C30.7012 53.4761 30.2678 53.4841 29.8404 53.4503C29.7178 53.4404 29.5104 53.2562 29.509 53.1495C29.4858 51.7699 29.4839 50.3896 29.5084 49.01C29.5104 48.8981 29.7257 48.7589 29.8695 48.6913C29.9789 48.6403 30.132 48.6774 30.2652 48.6854C30.6203 48.7052 30.8761 48.6429 30.8576 48.1877C30.8324 47.5589 30.7728 47.4588 30.242 47.4568C28.743 47.4515 27.2434 47.4489 25.7444 47.4502C25.2348 47.4502 25.1473 47.5754 25.1142 48.1367C25.087 48.5985 25.3335 48.6867 25.7166 48.6867C26.2878 48.6867 26.3434 48.7337 26.3521 49.3261C26.37 50.4983 26.3739 51.6711 26.366 52.844C26.362 53.4112 26.2937 53.4589 25.7159 53.4781C25.2017 53.4954 25.0479 53.6385 25.0519 54.097C25.0559 54.5271 25.1818 54.6357 25.7245 54.6377C26.9717 54.6424 28.2195 54.6397 29.466 54.6397ZM57.6667 54.6417C58.4235 54.6417 59.1803 54.6364 59.937 54.6444C60.2869 54.6477 60.4626 54.5165 60.4413 54.1434C60.4215 53.8028 60.4354 53.4848 59.945 53.4761C59.399 53.4662 59.2724 53.3158 59.2724 52.7757C59.2724 51.6334 59.2764 50.4903 59.2843 49.348C59.2883 48.749 59.3413 48.6827 59.945 48.6767C60.3585 48.6728 60.4864 48.4819 60.4791 48.0969C60.4718 47.7239 60.4062 47.4595 59.9463 47.4615C58.4772 47.4688 57.008 47.4549 55.5395 47.4602C55.0545 47.4621 54.9882 47.5821 54.9663 48.1433C54.9498 48.5674 55.1446 48.7032 55.5296 48.6741C55.633 48.6661 55.737 48.6741 55.8411 48.6767C56.1114 48.682 56.2585 48.8212 56.2585 49.0902C56.2559 50.4254 56.2493 51.7613 56.2426 53.0965C56.2413 53.3516 56.1048 53.4742 55.8517 53.4748C55.7185 53.4748 55.5846 53.4781 55.4514 53.4854C54.9862 53.5099 54.8974 53.6339 54.8842 54.1381C54.8736 54.5483 55.0936 54.6457 55.4408 54.643C56.183 54.6377 56.9245 54.6417 57.6667 54.643V54.6417Z" fill="black"/>
<path d="M65.1775 38.3523C65.1211 39.8412 64.5459 41.0121 63.2133 41.8245C62.6354 42.177 62.0682 42.169 61.4691 42.167C59.6759 42.1604 58.7402 41.0432 58.3128 39.8227C58.0656 39.1163 58.1829 38.2734 58.1823 37.4922C58.1809 36.2624 58.9059 35.4202 59.8197 34.7483C61.2504 33.6954 63.6467 34.1645 64.5327 35.8946C64.9223 36.6553 65.2729 37.4452 65.1775 38.353V38.3523Z" fill="black"/>
<path d="M41.4372 49.6587C41.4381 48.9753 41.7672 48.646 42.4246 48.6707C42.9428 48.6906 43.235 48.9815 43.2576 49.501C43.2847 50.1358 43.0104 50.5413 42.5048 50.6129C41.5108 50.754 41.4352 50.6864 41.4365 49.658L41.4372 49.6587Z" fill="black"/>
<path d="M49.2281 49.5752C49.4833 50.1742 49.7384 50.7726 50.026 51.4491H48.2388C48.5277 50.8037 48.7981 50.2007 49.0678 49.5977L49.2281 49.5752Z" fill="black"/>
</svg>
