<svg width="64" height="85" viewBox="0 0 64 85" fill="none" xmlns="http://www.w3.org/2000/svg">
<path d="M0.584159 44.1627C0.538276 39.4379 0.72668 35.8451 1.39787 32.3061C3.07483 23.4642 6.38732 15.39 12.8414 8.84021C16.255 5.37621 20.1981 2.73109 24.8891 1.30117C29.371 -0.0649753 33.8906 -0.159819 38.4147 1.13126C45.2996 3.09593 50.484 7.36711 54.6423 13.0081C57.7249 17.1896 59.8148 21.8487 61.2636 26.808C63.5918 34.778 63.9349 42.8849 62.7802 51.056C61.8308 57.7733 59.7267 64.1234 56.0334 69.8818C52.8467 74.8499 48.8679 79.0202 43.5638 81.8086C39.1887 84.1087 34.5427 85.1136 29.6024 84.6023C23.4517 83.9654 18.2726 81.2593 13.8305 77.0927C9.14435 72.6972 5.86678 67.3767 3.77444 61.3475C2.99808 59.1104 2.4215 56.8003 1.84086 54.5018C0.89194 50.7432 0.66618 46.8958 0.584159 44.1627ZM62.552 42.2743C62.5544 38.2202 62.176 34.1977 61.2985 30.2417C60.6135 27.1555 59.6451 24.1459 58.3766 21.2356C56.0472 15.8909 52.8232 11.1927 48.3421 7.39657C44.8903 4.47257 40.9785 2.41669 36.5222 1.51265C31.2647 0.446371 26.2262 1.22328 21.4235 3.5649C16.9521 5.74509 13.411 9.01133 10.408 12.908C7.7297 16.3829 5.8083 20.248 4.33884 24.3558C2.75771 28.7759 1.90096 33.3469 1.53024 38.0051C1.22083 41.8953 1.35239 45.7843 1.83477 49.6628C2.61397 55.9265 4.323 61.9052 7.42151 67.4364C10.5237 72.9741 14.5788 77.648 20.2334 80.7682C25.84 83.8617 31.7593 84.7568 38.0006 83.0912C43.0883 81.7336 47.3209 78.9665 50.8953 75.1821C56.3635 69.3918 59.531 62.4291 61.2571 54.7589C62.1812 50.6508 62.5544 46.4805 62.5532 42.2743H62.552Z" fill="black"/>
<path d="M2.90269 42.8668C2.88157 38.7353 3.20884 34.6353 4.11878 30.5986C5.81036 23.0954 8.88045 16.2728 14.2967 10.65C17.5405 7.28204 21.3179 4.72288 25.8754 3.42817C31.8718 1.72462 37.5836 2.50355 43.0023 5.49172C47.6206 8.03836 51.1491 11.7191 53.9654 16.1142C57.0923 20.9944 59.0531 26.3274 60.0979 31.9946C61.5596 39.9235 61.4143 47.8314 59.5115 55.6772C57.9304 62.1967 55.1125 68.1254 50.6602 73.2163C46.9888 77.4148 42.5434 80.4454 37.0529 81.7909C32.5414 82.8964 28.1155 82.5134 23.8119 80.8078C18.2544 78.6054 14.0701 74.7491 10.7271 69.9166C7.35129 65.0364 5.21713 59.6355 4.05219 53.8473C3.23564 49.7896 2.90187 46.4221 2.90228 42.8668H2.90269ZM3.28071 43.314C3.24498 46.6872 3.7501 51.4128 4.94792 56.069C5.85746 59.6045 7.11538 62.997 8.87679 66.1975C11.4401 70.8553 14.6653 74.9642 19.1732 77.9201C26.6793 82.8423 34.4912 83.4449 42.5243 79.2718C47.396 76.7408 50.9842 72.8486 53.8602 68.2627C57.3027 62.7735 59.2598 56.7592 60.1263 50.3837C61.1089 43.1506 60.8328 35.9683 59.0125 28.8748C57.6843 23.6984 55.5961 18.8594 52.4245 14.5176C49.8043 10.9305 46.6603 7.9072 42.718 5.771C36.5957 2.4535 30.2679 2.00956 23.779 4.56952C19.2739 6.34692 15.676 9.35245 12.6611 13.0638C8.1585 18.6071 5.59597 25.0266 4.23085 31.9534C3.58524 35.2293 3.32416 38.5525 3.28071 43.3136V43.314Z" fill="black"/>
<path d="M31.8998 42.7968C32.3018 41.5155 32.7046 40.2345 33.1054 38.9527C33.273 38.4171 33.4282 37.8771 33.6072 37.3456C33.6494 37.2201 33.7619 37.0243 33.8476 37.0211C34.5699 36.9949 35.2935 37.0062 35.9152 37.0062C35.8372 37.5135 35.7182 37.9397 35.7142 38.3675C35.6906 40.745 35.6862 43.1229 35.6975 45.5005C35.6996 45.8803 35.8137 46.2592 35.8867 46.7024H33.5309C33.582 46.2524 33.6702 45.8096 33.6762 45.3657C33.7006 43.5875 33.7002 41.8085 33.7063 40.0298C33.7071 39.8365 33.6892 39.6428 33.5463 39.4285C33.4927 39.5722 33.4314 39.7134 33.3863 39.8595C32.733 41.9893 32.089 44.1222 31.4186 46.2467C31.3614 46.4283 31.1166 46.6911 30.9826 46.7092C30.8486 46.7274 30.6451 46.4001 30.5871 46.2116C29.9354 44.1016 29.3068 41.9844 28.6677 39.8708C28.634 39.759 28.5609 39.6589 28.394 39.5685C28.381 39.7417 28.3567 39.9148 28.3571 40.0884C28.3607 41.7172 28.3534 43.3461 28.3831 44.9742C28.3932 45.5433 28.4968 46.1103 28.5625 46.7278H27.6538C27.7281 46.2552 27.8532 45.8234 27.8552 45.3903C27.8674 42.9006 27.8564 40.4104 27.8345 37.9207C27.8321 37.6551 27.7066 37.3904 27.6014 36.9823C28.0367 36.9823 28.5418 36.9848 29.047 36.9819C29.8984 36.9767 29.8919 36.9771 30.1445 37.8024C30.6261 39.3776 31.1145 40.9508 31.6046 42.5236C31.6355 42.6221 31.7013 42.7097 31.7508 42.8025C31.8007 42.8009 31.8507 42.7993 31.9002 42.7977L31.8998 42.7968ZM35.1526 41.8726C35.1473 41.8726 35.1421 41.8726 35.1364 41.8726C35.1364 40.5815 35.1364 39.2909 35.1364 37.9998C35.1364 37.6987 35.1875 37.3851 34.7157 37.3758C34.2435 37.3666 34.2768 37.6753 34.2768 37.9808C34.2756 40.5626 34.2748 43.1443 34.2723 45.7261C34.2723 46.0514 34.2272 46.3847 34.7299 46.3718C35.2472 46.3585 35.149 45.9917 35.1502 45.6886C35.1555 44.4164 35.1522 43.1443 35.1522 41.8718L35.1526 41.8726ZM30.9765 45.3257C31.2826 44.8031 31.5344 44.3204 31.3492 43.7295C30.7361 41.7705 30.1343 39.8079 29.5452 37.8412C29.4319 37.4626 29.2167 37.2963 28.8468 37.3884C28.4111 37.4969 28.6507 37.8093 28.7148 38.0232C29.3064 39.9895 29.9114 41.9517 30.516 43.9136C30.6618 44.3866 30.8222 44.8551 30.9761 45.3257H30.9765Z" fill="black"/>
<path d="M20.3856 37.0344C20.4985 37.021 20.6398 36.9904 20.7815 36.9896C21.9862 36.9823 23.1913 36.9694 24.3961 36.9803C25.721 36.992 26.5952 37.6377 26.944 38.7867C27.203 39.6403 26.9139 41.1037 25.734 41.6583C25.7035 41.6728 25.6852 41.7132 25.6369 41.7701C25.6828 41.8322 25.7185 41.9259 25.7864 41.965C26.7235 42.5062 27.0207 43.3747 27.0528 44.3817C27.0768 45.1328 27.0995 45.8838 27.1243 46.6753C26.3227 46.9828 25.2552 46.4113 25.0737 45.3818C24.9519 44.6904 24.9998 43.9672 24.9942 43.2581C24.9901 42.7665 25.0681 42.262 24.3993 42.1071C23.8223 41.9735 23.2522 42.2382 22.9822 42.8521C22.8454 43.1633 22.7979 43.5136 22.6671 44.0088C23.3627 43.5915 23.9437 43.4429 24.3278 44.0693C24.4696 44.3002 24.4545 44.7413 24.3266 44.9951C24.0854 45.4746 23.5458 45.5222 22.6269 45.2006C22.6976 45.7341 22.7593 46.2003 22.8291 46.7286H20.4152C20.483 46.2487 20.5979 45.7991 20.6016 45.3491C20.6215 42.8791 20.6207 40.4088 20.6065 37.9388C20.6048 37.6656 20.4761 37.3931 20.3848 37.0352L20.3856 37.0344ZM22.6728 41.9053C23.2104 41.8072 23.679 41.7019 24.1532 41.6413C24.578 41.5868 24.9572 41.488 24.9657 40.9794C24.9816 40.0274 24.9743 39.0749 24.9613 38.1228C24.9556 37.7055 24.6864 37.4545 24.3019 37.4036C23.8767 37.3475 23.4378 37.3512 23.0094 37.3863C22.8884 37.3964 22.6895 37.6075 22.6874 37.7289C22.6647 39.1609 22.6728 40.5936 22.6728 41.9053ZM22.0857 41.9146C22.0857 40.6045 22.082 39.2945 22.0885 37.984C22.0901 37.6656 22.108 37.3802 21.6541 37.3669C21.218 37.354 21.1713 37.599 21.1725 37.9408C21.1822 40.5609 21.1847 43.1814 21.1855 45.8015C21.1855 46.1042 21.1952 46.3637 21.6126 46.3714C22.0491 46.3794 22.0897 46.1268 22.0877 45.7886C22.08 44.4971 22.0845 43.206 22.0857 41.9146ZM26.3617 46.0679C26.5489 44.4798 26.5497 43.0026 25.6304 42.637C25.2272 44.19 25.5387 45.7289 26.3617 46.0679ZM25.6004 37.9105V41.115C26.7093 40.3119 26.6967 38.5954 25.6004 37.9105ZM24.1695 44.6029C24.1695 44.129 23.7009 44.1452 23.5162 44.1294C23.3883 44.1185 23.1345 44.3881 23.1231 44.5459C23.1126 44.6933 23.3408 44.979 23.4756 44.9859C23.6558 44.9951 24.1699 45.0767 24.1699 44.6029H24.1695Z" fill="black"/>
<path d="M31.9602 50.5905C24.5386 50.5905 17.1169 50.5929 9.69568 50.5808C9.44231 50.5804 8.98186 50.7851 8.97374 50.3193C8.96562 49.8516 9.42566 50.0352 9.68431 50.0348C24.5463 50.0235 39.4083 50.0207 54.2702 50.0275C54.5451 50.0275 55.034 49.8257 55.0393 50.3076C55.0446 50.7919 54.5528 50.595 54.2816 50.5954C46.8413 50.6071 39.401 50.6046 31.9602 50.6046V50.5901V50.5905Z" fill="black"/>
<path d="M32.0047 33.2011C39.501 33.2011 46.9978 33.2011 54.4941 33.2011C54.5697 33.2011 54.6602 33.1756 54.7171 33.2083C54.845 33.2814 54.9566 33.3835 55.0748 33.4739C54.9627 33.5679 54.864 33.693 54.7349 33.7463C54.622 33.7931 54.4751 33.76 54.3435 33.76C39.4259 33.76 24.5079 33.76 9.59028 33.76C9.4774 33.76 9.34666 33.7931 9.25611 33.7479C9.14364 33.6914 9.06487 33.5691 8.97107 33.4755C9.05837 33.3952 9.13389 33.2753 9.23622 33.2447C9.37508 33.2031 9.53425 33.2281 9.68489 33.2281C17.1248 33.2281 24.5647 33.2281 32.0051 33.2281V33.2015L32.0047 33.2011Z" fill="black"/>
<path d="M20.0669 46.7395H17.348C17.8032 46.1095 17.3578 45.6199 17.2498 45.0989C17.2295 45.0016 16.9919 44.8914 16.851 44.8862C16.2123 44.862 15.57 44.8442 14.9337 44.889C14.7506 44.9019 14.4858 45.0993 14.427 45.2696C14.2796 45.6974 14.228 46.1579 14.1172 46.71H13.219C14.1176 44.9552 14.4643 43.014 15.0742 41.1643C15.4721 39.958 15.8026 38.7303 16.1945 37.5219C16.2615 37.3153 16.4324 36.9807 16.6354 36.9783C16.8385 36.9759 17.0171 37.3173 17.0821 37.5251C17.9506 40.3083 18.7927 43.0995 19.6531 45.8851C19.7368 46.1555 19.9004 46.4017 20.0661 46.7391L20.0669 46.7395ZM16.7154 38.3021C16.6383 38.3008 16.5611 38.2992 16.4844 38.298C16.4141 38.7799 16.1855 39.3038 16.3013 39.7364C16.8608 41.8286 17.5166 43.895 18.1289 45.9731C18.2454 46.3686 18.5544 46.3968 18.8366 46.3052C18.9345 46.2733 19.0108 45.9105 18.9613 45.7378C18.4976 44.1226 18.0058 42.5151 17.5186 40.9068C17.2551 40.0375 16.9838 39.1702 16.7158 38.3021H16.7154ZM15.9395 40.7159C15.8347 40.8144 15.7746 40.8439 15.7608 40.8874C15.4266 41.9537 15.088 43.0184 14.7843 44.0936C14.7595 44.1815 14.9719 44.4366 15.0872 44.4451C15.5899 44.483 16.0978 44.456 16.6038 44.458C16.94 44.4592 17.0285 44.3175 16.927 43.9991C16.6829 43.2363 16.4568 42.4679 16.2257 41.7011C16.1319 41.3899 16.0446 41.0771 15.9399 40.7159H15.9395Z" fill="black"/>
<path d="M37.1991 46.7334H36.3354C37.1313 45.0052 37.5284 43.1681 38.118 41.3976C38.5431 40.1202 38.9025 38.8211 39.3199 37.5409C39.3881 37.3318 39.5489 36.9875 39.7547 36.9875C39.9606 36.9875 40.1275 37.3346 40.192 37.5453C40.9924 40.1565 41.7634 42.7762 42.5581 45.3891C42.6933 45.8342 42.9048 46.2564 43.0997 46.7358H40.6131C40.5701 46.371 40.5534 46.0227 40.4844 45.6853C40.2797 44.686 40.1892 44.8813 39.3946 44.8688C39.1688 44.8652 38.7185 44.8785 38.7185 44.8785C38.7185 44.8785 37.5893 44.7506 37.4959 45.3059C37.3867 45.7511 37.3079 46.2035 37.1991 46.7334ZM39.814 38.3097C39.7604 38.3121 39.7072 38.3149 39.6536 38.3174C39.4644 38.8634 39.2013 39.3764 39.4197 40.0128C39.7296 40.9137 39.9667 41.8391 40.2379 42.7532C40.5575 43.8288 40.8908 44.9003 41.197 45.9795C41.32 46.4138 41.6505 46.4109 41.9567 46.3443C42.3668 46.2552 42.1191 45.9585 42.0586 45.7587C41.5669 44.1303 41.0589 42.507 40.5644 40.8794C40.3049 40.0254 40.0633 39.1665 39.8136 38.3097H39.814ZM37.7546 44.4713C38.3117 44.4713 38.7209 44.4693 39.1302 44.4717C39.8132 44.4757 40.0593 44.1615 39.8684 43.5289C39.5923 42.6075 39.3199 41.6849 39.0454 40.7627C38.9983 40.7595 38.9516 40.7559 38.9045 40.7526C38.5358 41.944 38.1675 43.135 37.7542 44.4713H37.7546Z" fill="black"/>
<path d="M59.6038 46.7365H56.8212C57.3364 46.0811 56.8378 45.5851 56.7192 45.0532C56.6998 44.9664 56.4415 44.8873 56.2917 44.8829C55.6899 44.8651 55.0874 44.8889 54.4852 44.876C54.1656 44.8691 53.991 44.9963 53.9366 45.3066C53.857 45.7611 53.7702 46.2143 53.6731 46.7414H52.8728C53.9391 43.7052 54.7995 40.5955 55.7565 37.5162C55.8174 37.3196 56.0249 36.9963 56.1674 36.9963C56.31 36.9963 56.5426 37.337 56.6076 37.5452C57.4355 40.2053 58.2334 42.8746 59.058 45.5359C59.1795 45.9274 59.3975 46.289 59.6042 46.7361L59.6038 46.7365ZM56.1967 38.2495C55.7159 39.1172 55.6692 39.4037 55.8828 40.1302C56.2044 41.2235 56.5386 42.3132 56.8658 43.4049C57.1233 44.2642 57.3868 45.1214 57.6324 45.9839C57.7583 46.425 58.0986 46.3822 58.3974 46.297C58.4762 46.2748 58.5338 45.9241 58.4859 45.757C58.1034 44.4288 57.6954 43.1079 57.2905 41.7861C56.9422 40.6488 56.5877 39.5131 56.1967 38.2491V38.2495ZM55.48 40.8514C55.4244 40.8563 55.3687 40.8615 55.3131 40.8663C55.0744 41.6473 54.8311 42.4266 54.5981 43.2088C54.3526 44.0321 54.6636 44.4474 55.5312 44.4547C56.5446 44.4623 56.5487 44.4615 56.2677 43.4986C56.0099 42.6147 55.7427 41.7337 55.4796 40.8514H55.48Z" fill="black"/>
<path d="M23.3477 18.1108C23.6831 17.9998 24.0363 17.8828 24.4728 17.7383C24.0648 18.9224 24.4152 19.96 24.4996 20.9908C24.6738 23.1137 24.943 25.2289 25.1781 27.3465C25.2102 27.6343 25.2691 27.9705 24.9012 28.0241C24.7185 28.0508 24.442 27.8805 24.3068 27.7178C22.4394 25.4714 20.5927 23.2081 18.7281 20.9597C18.5722 20.7717 18.3241 20.6595 18.0302 20.4484C18.7882 19.9382 19.632 19.7025 20.3129 19.3551C20.5391 19.7514 20.6836 20.1029 20.9122 20.3878C21.8384 21.5409 22.7898 22.6742 23.7338 23.8127C23.8475 23.9499 23.9742 24.0762 24.2138 24.1695C24.2016 23.9588 24.1967 23.7473 24.176 23.5374C24.0225 21.9748 23.8755 20.4112 23.6985 18.8514C23.6733 18.6274 23.4987 18.4203 23.3473 18.1112L23.3477 18.1108ZM24.4879 26.9817C24.5114 26.2661 24.539 25.76 24.1504 25.2939C22.8097 23.6844 21.4844 22.0615 20.1741 20.427C19.8094 19.9721 19.5077 20.0714 19.0928 20.4633C20.8611 22.5995 22.6217 24.7268 24.4879 26.9813V26.9817Z" fill="black"/>
<path d="M39.5879 65.0614C38.8948 65.1465 38.0803 65.2466 37.1963 65.3548C37.5589 64.4205 37.2406 63.6448 37.1391 62.8731C36.8544 60.705 36.5138 58.5446 36.1764 56.3838C36.1394 56.1469 35.9778 55.929 35.8121 55.5681C36.6198 55.462 37.4087 55.3579 38.1172 55.2646C38.3527 56.9609 38.5639 58.5789 38.8055 60.1929C39.0422 61.7741 39.1713 63.3772 39.5879 65.061V65.0614ZM38.8335 64.5262C38.8039 64.278 38.7949 64.1848 38.7811 64.0923C38.3974 61.4642 38.008 58.8364 37.6353 56.2066C37.5869 55.8656 37.4481 55.7627 37.1151 55.8059C36.746 55.8535 36.7152 56.0609 36.7635 56.3616C36.8849 57.1187 36.9909 57.8783 37.1033 58.637C37.386 60.5428 37.6734 62.4477 37.9471 64.3551C37.9914 64.6638 38.0961 64.8793 38.4376 64.7885C38.6049 64.7441 38.7425 64.5892 38.8331 64.5262H38.8335Z" fill="black"/>
<path d="M49.9946 37.0423C50.823 37.0415 51.6517 37.0415 52.372 37.0415C52.307 37.4673 52.2027 37.8418 52.2007 38.2163C52.1873 40.5547 52.1873 42.8935 52.2063 45.2315C52.2104 45.7065 52.316 46.1808 52.3822 46.7143H50.0275C50.0689 46.2353 50.1396 45.7873 50.1416 45.3393C50.1526 42.9073 50.1522 40.4752 50.1396 38.0436C50.138 37.7098 50.0454 37.3761 49.9946 37.0419V37.0423ZM51.6204 41.8999C51.6204 40.5556 51.6151 39.2108 51.6241 37.8664C51.6261 37.5456 51.525 37.3801 51.1762 37.3793C50.8189 37.3785 50.7348 37.5621 50.7353 37.8745C50.7365 40.5261 50.7324 43.1781 50.7239 45.8296C50.7227 46.1517 50.7807 46.3725 51.1791 46.3713C51.5839 46.37 51.6249 46.1396 51.6233 45.8216C51.6156 44.5143 51.62 43.2071 51.6204 41.8999Z" fill="black"/>
<path d="M27.8637 55.9007C26.2318 55.2933 24.6502 55.6404 23.8118 57.0804C23.7927 57.1135 23.7318 57.1228 23.614 57.1805C23.7582 56.5352 23.8873 55.9564 24.0395 55.2756C22.7175 54.9628 21.4165 54.6016 20.0932 54.3631C19.3579 54.2303 18.6948 54.5689 18.1698 55.117C17.1669 56.1635 17.1689 57.9312 18.221 58.9728C18.9401 59.6852 19.729 60.3273 20.4635 61.0251C21.09 61.6204 21.1912 62.3101 20.8099 63.012C20.4846 63.6101 19.7952 63.9039 19.014 63.7691C18.2599 63.6391 17.6464 63.265 17.365 62.5539C17.1778 62.0813 17.1701 61.5409 17.0536 61.0372C17.0231 60.9048 16.8875 60.7963 16.8002 60.6764C16.7011 60.7624 16.5444 60.831 16.5127 60.9367C16.3081 61.618 16.1185 62.3045 15.9585 62.997C15.9341 63.1028 16.0677 63.3397 16.1656 63.3631C17.4783 63.6807 18.7854 64.0589 20.1192 64.2377C20.9808 64.3531 21.7093 63.8716 22.162 63.0826C22.8429 61.8956 22.6606 60.5529 21.6581 59.6008C20.9236 58.9034 20.1358 58.2593 19.4224 57.5417C18.8641 56.9799 18.7979 56.2688 19.1354 55.6844C19.4919 55.0673 20.2317 54.7408 20.9764 54.872C22.1401 55.077 22.8511 55.9387 22.8368 57.187C22.832 57.6277 22.845 57.9841 23.4313 57.9247C23.4313 58.0922 23.4443 58.221 23.4293 58.3465C23.2908 59.4987 23.1369 60.6489 23.0082 61.8024C22.7593 64.0351 24.4476 65.6539 26.6979 65.352C28.0033 65.1768 29.0091 64.4052 29.1971 63.1782C29.4403 61.5913 29.5897 59.981 29.6401 58.3767C29.6774 57.1854 29.0128 56.3281 27.8641 55.9003L27.8637 55.9007ZM16.3146 63.0144L16.6731 61.7471L17.0317 63.2L16.3146 63.0144ZM19.4748 58.2617C20.0441 58.7791 20.6369 59.2707 21.1976 59.7966C22.0272 60.5743 22.2306 61.6838 21.7466 62.6665C21.6942 62.7726 21.6069 62.8614 21.4648 62.9643C21.9253 61.7399 21.2334 61.0267 20.4124 60.3475C19.8057 59.8458 19.2048 59.3308 18.6534 58.7715C17.8778 57.9849 17.767 56.7801 18.4089 55.9302C18.154 56.9969 18.7935 57.6422 19.4748 58.2617ZM23.2839 56.7636C23.2839 56.7636 23.13 56.1469 23.074 55.9302C23.0179 55.7135 22.806 55.3115 22.806 55.3115L23.6112 55.4568L23.2839 56.7636ZM23.5718 62.3771C23.7054 60.9278 23.8869 59.4826 24.0728 58.0385C24.152 57.4239 24.4691 56.9376 25.0591 56.565C24.7737 59.0564 24.4955 61.4803 24.2076 63.9935C23.6583 63.5169 23.519 62.953 23.5718 62.3771ZM25.8144 64.9068C25.1911 64.839 24.8654 64.406 24.8845 63.6698C25.1225 61.4775 25.3446 59.2832 25.6073 57.0937C25.6881 56.4189 26.3105 55.9895 26.9334 56.0759C27.5774 56.1651 27.9246 56.6357 27.8397 57.3855C27.594 59.5581 27.3403 61.7298 27.0654 63.8986C26.9777 64.5912 26.4559 64.9762 25.814 64.9064L25.8144 64.9068ZM29.1224 58.6439C29.0331 59.7227 28.9157 60.7999 28.7772 61.8738C28.7038 62.4429 28.6156 63.0216 28.4297 63.5604C28.3144 63.8946 28.0033 64.1618 27.78 64.4588C27.7435 64.4193 27.7073 64.3801 27.6708 64.3406C27.9457 61.9231 28.2206 59.5052 28.5093 56.967C29.0006 57.4937 29.1715 58.043 29.122 58.6439H29.1224Z" fill="black"/>
<path d="M12.3066 36.9644C10.4616 36.9866 8.61569 36.9761 6.77063 36.9821C6.59441 36.9825 6.41818 37.0116 6.34225 37.0184C6.39951 37.5483 6.48883 38.008 6.49208 38.4685C6.50873 40.752 6.51279 43.0355 6.49574 45.319C6.49249 45.7699 6.37839 46.2203 6.30774 46.7231H8.91088C8.77404 46.4124 8.59498 46.1888 8.58767 45.9599C8.55113 44.8194 8.56534 43.6768 8.54828 42.5355C8.543 42.1904 8.69568 42.0593 9.0266 42.0879C9.49274 42.1287 9.95888 42.1727 10.4262 42.1961C10.5371 42.2017 10.73 42.1541 10.7494 42.0903C10.7949 41.9414 10.79 41.7562 10.7377 41.6093C10.717 41.5507 10.5147 41.5273 10.399 41.5362C9.93614 41.5729 9.47447 41.6282 9.01239 41.6779C8.67213 41.7142 8.5357 41.5596 8.53813 41.225C8.54707 40.0833 8.53407 38.9415 8.55722 37.8002C8.56006 37.6638 8.71232 37.4386 8.83251 37.4099C10.5111 37.01 11.7962 37.8079 12.2802 39.5049C12.316 39.6301 12.348 39.7967 12.5839 39.8246C12.8199 39.8524 12.8633 39.5736 12.8698 39.4416C12.8998 38.8067 12.8596 38.1683 12.8917 37.5334C12.9145 37.0834 12.7431 36.9595 12.3062 36.9648L12.3066 36.9644ZM7.53074 46.3797C7.10237 46.3672 7.06988 46.1064 7.07069 45.7739C7.07719 43.1602 7.07922 40.5466 7.07191 37.9326C7.0711 37.5754 7.15271 37.3635 7.56891 37.372C8.0054 37.3813 7.96602 37.6622 7.96521 37.9511C7.96155 39.2579 7.96358 40.5648 7.96358 41.8716C7.9717 41.8716 7.97942 41.8716 7.98754 41.8716C7.98754 43.1784 7.98267 44.4852 7.99119 45.792C7.99322 46.1238 7.97617 46.3922 7.53115 46.3793L7.53074 46.3797ZM12.0037 37.9701C11.7016 37.581 11.4576 37.2666 11.4576 37.2666H12.4881L12.5502 39.0558C12.5502 39.0558 12.3062 38.3588 12.0041 37.9701H12.0037Z" fill="black"/>
<path d="M49.1473 36.9682C48.2634 36.992 47.3782 36.9662 46.4935 36.9791C44.6508 37.0054 43.4217 38.2141 43.3832 40.05C43.3592 41.191 43.3604 42.3323 43.3641 43.4737C43.3718 45.8972 45.3768 47.3199 47.6799 46.5208C48.8599 46.1111 49.4637 45.2002 49.6963 44.0234C49.7211 43.897 49.7174 43.6339 49.5518 43.602C49.3861 43.5701 49.2992 43.8187 49.2074 43.9507C49.1482 44.0363 49.1603 44.1678 49.1279 44.2748C48.8014 45.3455 48.1347 46.0696 46.9957 46.275C46.0432 46.4465 45.4544 45.9622 45.4434 45.0053C45.4308 43.939 45.4406 42.8723 45.4406 41.806C45.4406 40.7208 45.4325 39.6355 45.4434 38.5507C45.4499 37.9159 45.722 37.4687 46.2486 37.4412C46.7724 37.4138 47.3417 37.4767 47.8273 37.664C48.5984 37.9615 48.8254 38.723 49.0799 39.437C49.1331 39.5859 49.2464 39.8337 49.4868 39.7962C49.7272 39.7586 49.6992 39.504 49.7048 39.3538C49.728 38.7376 49.6914 38.1185 49.7166 37.5022C49.7345 37.0711 49.553 36.9573 49.1478 36.9682H49.1473ZM44.8315 45.5639C44.2164 45.1578 44.0048 44.6223 43.9894 44.0443C43.9516 42.6056 43.9524 41.1647 43.978 39.7255C43.9886 39.1165 44.2659 38.6007 44.8315 38.1249V45.5639ZM48.2342 37.3795C48.2342 37.3795 49.1713 37.2733 49.2708 37.3347C49.3703 37.3964 49.395 39.2533 49.395 39.2533C49.395 39.2533 48.7307 37.4162 48.2342 37.3791V37.3795Z" fill="black"/>
<path d="M36.4065 63.1848C36.3943 63.0427 36.292 62.7715 36.1357 62.7783C35.9794 62.7852 35.8766 63.0007 35.8076 63.1412C35.5969 63.5702 35.4998 64.0819 35.2062 64.4375C34.574 65.2039 33.6373 65.2124 32.7225 65.2394C32.301 65.2519 32.1727 65.1006 32.1605 64.6922C32.0874 62.2444 31.9839 59.7974 31.9088 57.3497C31.8946 56.8916 31.9648 56.4307 31.9985 55.9343C31.5096 55.7406 29.8428 55.8411 29.6382 56.0525C29.7206 56.3803 29.838 56.6486 29.8485 56.9211C29.9476 59.4241 30.0337 61.9276 30.1092 64.4318C30.121 64.8253 30.0605 65.2209 30.0272 65.7032C30.0467 65.71 30.1141 65.7552 30.1807 65.7536C32.1735 65.7044 34.1668 65.6584 36.1584 65.5788C36.279 65.574 36.4837 65.2975 36.4865 65.145C36.4975 64.492 36.4621 63.8366 36.4069 63.1852L36.4065 63.1848ZM31.1673 65.2955C30.7394 65.2967 30.7479 65.036 30.7373 64.7386C30.6431 62.1044 30.5465 59.4701 30.4401 56.8363C30.4271 56.5126 30.4564 56.2975 30.8632 56.2818C31.2603 56.2664 31.2831 56.442 31.333 56.7915C31.3829 57.141 31.519 60.7136 31.519 60.7136C31.519 60.7136 31.5864 63.4063 31.5973 64.6954C31.6002 65.0175 31.6331 65.2951 31.1673 65.2963V65.2955ZM36.0817 65.0171C35.9404 65.3193 35.482 65.3403 35.125 65.3549C35.125 65.3549 35.4807 64.8197 35.6464 64.4371C35.8121 64.0545 36.0748 63.234 36.0748 63.234C36.0748 63.234 36.3757 64.3883 36.0817 65.0171Z" fill="black"/>
<path d="M43.7489 58.8402C42.7448 58.6021 41.7183 58.4229 40.7474 58.0867C39.6552 57.7089 39.4883 56.097 40.4104 55.4008C41.1141 54.8693 42.4528 54.797 43.1216 55.3524C43.4967 55.6639 43.7213 56.1495 44.0429 56.5325C44.1383 56.6459 44.3052 56.8614 44.483 56.7439C44.6609 56.6265 44.6414 56.4534 44.6109 56.3363C44.4359 55.6676 44.2451 55.0017 44.0153 54.3503C43.9673 54.2143 43.7103 54.0326 43.5901 54.0581C42.4707 54.2974 41.3431 54.5234 40.2529 54.864C39.4911 55.1017 38.9466 55.6494 38.7566 56.48C38.355 58.238 39.2138 59.5977 40.9842 60.0009C41.918 60.2136 42.856 60.415 43.7765 60.6765C44.4989 60.8819 44.8684 61.3973 44.8878 62.0604C44.9081 62.7522 44.4911 63.3721 43.8403 63.6429C42.7415 64.0998 41.3476 64.0537 40.6622 62.46C40.5948 62.303 40.4064 61.9571 40.2062 62.0971C40.0056 62.2372 40.0681 62.4959 40.1083 62.6706C40.25 63.2893 40.4551 63.8935 40.6053 64.5102C40.6796 64.8157 40.8343 64.9202 41.1263 64.8452C42.2173 64.5635 43.3307 64.3451 44.3921 63.9783C45.5192 63.5884 46.1108 62.6581 46.1027 61.5826C46.0922 60.1805 45.2407 59.1937 43.7485 58.8402H43.7489ZM43.6068 54.4395C43.7465 54.5012 44.0754 55.4069 44.0412 55.9481C44.0412 55.9481 43.5231 54.7696 42.6262 54.6925C42.6262 54.6925 43.4671 54.3777 43.6068 54.4395ZM40.9781 64.4497L40.5001 62.9568C40.5001 62.9568 41.1892 64.1599 42.1511 64.2277C42.1511 64.2277 41.0475 64.6676 40.9781 64.4497ZM43.3924 60.2043C42.571 60.0025 41.7451 59.8169 40.9241 59.6139C39.9524 59.3741 39.466 58.6836 39.2382 57.7711C39.2053 57.6403 39.2337 57.4946 39.2337 57.3554C39.6146 58.0532 40.194 58.3696 40.881 58.5363C41.8312 58.7671 42.7854 58.9818 43.7355 59.2127C44.7709 59.4641 45.3065 60.1769 45.5111 61.1709C45.5493 61.357 45.5168 61.558 45.4587 61.7884C45.1993 60.6693 44.3011 60.4271 43.3928 60.2039L43.3924 60.2043Z" fill="black"/>
<path d="M44.0036 18.9571C43.8412 19.0653 43.6426 19.1431 43.522 19.286C41.6969 21.4497 39.8823 23.6226 38.0636 25.7919C37.9296 25.9517 37.783 26.1006 37.6421 26.2544C37.5548 26.0098 37.5727 25.8282 37.6093 25.6502C38.0015 23.7441 38.3909 21.8375 38.7933 19.9338C38.9516 19.1839 39.1404 18.4401 39.3443 17.5712C38.6946 17.4364 37.9008 17.2717 37.2568 17.1385C36.8 19.4592 36.3708 21.6393 35.9311 23.8728C35.3354 23.5887 35.212 23.8982 35.1101 24.3866C34.8685 25.5437 34.1782 26.0707 33.0011 26.0849C32.6811 26.0885 32.3595 26.0711 32.0412 26.0954C31.6388 26.126 31.4614 25.9953 31.4711 25.5634C31.4951 24.4972 31.4902 23.4301 31.4776 22.3634C31.4735 22.0159 31.6201 21.8843 31.9498 21.9093C32.3977 21.9432 32.8456 21.986 33.2942 22.0034C33.4063 22.0078 33.6 21.9513 33.6195 21.8839C33.6625 21.7354 33.6503 21.5493 33.5939 21.4045C33.5724 21.3484 33.3685 21.3395 33.25 21.3471C32.8054 21.3758 32.362 21.4234 31.9173 21.4573C31.6063 21.4811 31.4817 21.3314 31.4849 21.0218C31.4967 19.8991 31.4865 18.7759 31.5089 17.6531C31.5113 17.5276 31.6445 17.3282 31.7574 17.2935C33.2938 16.8209 34.7552 17.662 35.1868 19.2303C35.2217 19.357 35.2623 19.5483 35.4767 19.5605C35.6911 19.5726 35.7508 19.309 35.7573 19.177C35.789 18.5422 35.7605 17.9045 35.7825 17.2689C35.7959 16.8762 35.6412 16.7543 35.2522 16.7571C33.4258 16.7704 31.599 16.7551 29.7726 16.76C29.4011 16.7608 28.8793 16.6869 29.3796 17.327C29.4661 17.4376 29.4295 17.6523 29.4307 17.819C29.4445 19.9713 29.4563 22.1236 29.4644 24.2756C29.4653 24.4717 29.4389 24.6683 29.4251 24.8648C29.2996 24.726 29.2594 24.5847 29.231 24.4415C28.8501 22.5143 28.4635 20.5884 28.0961 18.6588C28.0084 18.1992 27.9848 17.7274 27.9182 17.1446C27.1926 17.2701 26.3846 17.4097 25.6558 17.5361C25.8027 18.0212 25.9505 18.405 26.0334 18.8025C26.3087 20.1214 26.5856 21.4408 26.8142 22.7678C27.0635 24.2167 27.4955 25.6425 27.5028 27.1737C27.5662 27.1665 27.7128 27.1645 27.8512 27.1306C28.6292 26.9417 29.3987 26.6212 30.184 26.5776C31.7606 26.4897 33.3458 26.551 34.9273 26.5522C35.2148 26.5522 35.3508 26.6794 35.266 26.9768C35.1304 27.451 34.9947 27.9252 34.8571 28.4071C35.547 28.659 36.7131 28.2513 37.0915 27.4772C37.3068 27.0373 37.5313 26.8319 38.0612 27.0172C38.0543 26.8783 38.0368 26.7928 38.0482 26.7108C38.1132 26.237 38.6979 25.6462 39.0227 25.7559C39.717 25.9904 40.4032 26.2495 41.0834 26.522C41.195 26.5668 41.3432 26.7407 41.3306 26.8359C41.258 27.3812 41.1418 27.9208 41.0143 28.6008C41.6628 28.8151 42.4562 29.0779 43.2731 29.3483C43.2731 28.8216 43.2378 28.4051 43.2788 27.9959C43.5598 25.1841 43.8611 22.3743 44.14 19.5625C44.1595 19.3671 44.0523 19.1597 44.004 18.9575L44.0036 18.9571ZM35.3106 17.1361C35.4792 17.2083 35.4187 18.4675 35.4187 18.4675C35.1775 17.4465 34.1737 17.0558 34.1737 17.0558C34.1737 17.0558 35.1421 17.0639 35.3106 17.1357V17.1361ZM28.6292 26.5623C28.2946 26.6156 28.1639 26.4953 28.1005 26.1684C27.5897 23.5297 27.0712 20.8927 26.5344 18.2593C26.4419 17.8048 26.6997 17.754 27.1679 17.6898C27.23 17.8081 27.362 17.9643 27.3973 18.1402C27.8041 20.1521 28.1956 22.1672 28.5923 24.1811C28.7112 24.7853 28.829 25.3899 28.9561 25.992C29.0186 26.2867 28.9991 26.5034 28.6288 26.5623H28.6292ZM30.4483 26.0998C30.0723 26.0889 30.0398 25.8811 30.0398 25.5832C30.0422 22.97 30.0394 20.3563 30.0268 17.7431C30.0252 17.4279 30.0962 17.2447 30.4536 17.239C30.808 17.2334 30.8961 17.4025 30.8933 17.7245C30.8815 19.0499 30.8884 20.3753 30.8884 21.7007H30.8925C30.8925 22.9889 30.8876 24.2768 30.8961 25.565C30.8982 25.8851 30.858 26.1119 30.4483 26.0998ZM35.4292 26.1002L34.5729 26.0667C34.5729 26.0667 35.2242 25.582 35.4292 25.2115C35.6343 24.8414 35.4292 26.1002 35.4292 26.1002ZM36.7663 26.8158C36.6498 27.3832 36.3615 27.7981 35.6452 28.0241C35.8422 27.0729 36.0147 26.2366 36.1889 25.4008C36.6851 23.0204 37.1858 20.6413 37.6754 18.2593C37.7376 17.9566 37.7826 17.7241 38.1992 17.798C38.6272 17.8739 38.5655 18.1047 38.5017 18.409C37.917 21.2099 37.3425 24.0124 36.7663 26.8154V26.8158ZM41.398 26.0663C40.6383 25.7681 39.9497 25.4972 39.1376 25.1784C40.0252 24.1283 40.8223 23.1851 41.6197 22.2419C41.6721 22.2625 41.7249 22.2835 41.7773 22.3041C41.6559 23.5084 41.5345 24.7127 41.398 26.0663ZM43.4473 20.684C43.1822 23.135 42.9146 25.5856 42.6413 28.0354C42.617 28.2534 42.6913 28.5903 42.2869 28.5189C41.9653 28.462 41.757 28.3058 41.8037 27.9038C41.9628 26.5308 42.0912 25.1546 42.2337 23.7796C42.3011 23.1294 42.3742 22.4796 42.4448 21.8294C42.5374 20.9766 42.6426 20.7874 43.4498 20.115C43.4498 20.3672 43.4644 20.5275 43.4477 20.684H43.4473Z" fill="black"/>
</svg>
