<svg width="166" height="96" viewBox="0 0 166 96" fill="none" xmlns="http://www.w3.org/2000/svg">
<path d="M165.36 95.4509C164.393 95.43 163.427 95.3914 162.46 95.3961C162.029 95.3983 161.729 95.2594 161.49 94.8948C161.03 94.1956 154.209 84.3725 152.35 81.6112C152.316 81.9433 152.281 82.1133 152.283 82.2829C152.327 86.4118 152.37 90.5405 152.428 94.6693C152.436 95.199 152.242 95.4142 151.711 95.3957C150.979 95.3701 150.245 95.3646 149.515 95.3997C148.962 95.4261 148.809 95.183 148.811 94.6697C148.823 91.901 148.814 89.1322 148.813 86.3635C148.812 83.2055 148.811 80.0474 148.811 76.8894C148.811 76.0772 148.833 76.0589 149.647 76.0571C150.422 76.0556 151.2 76.0107 151.971 76.0686C152.267 76.0908 152.652 76.2697 152.817 76.5043C155.579 80.4443 158.316 84.4025 161.049 88.3626C161.377 88.8363 161.654 89.3449 162.08 89.8031C162.089 89.6695 162.109 89.5358 162.107 89.4024C162.053 85.1864 162.003 80.9702 161.933 76.7544C161.924 76.211 162.122 76.0264 162.65 76.0514C163.552 76.0942 164.456 76.0908 165.359 76.1068V95.4511L165.36 95.4509Z" fill="black"/>
<path d="M114.16 56.2849C114.167 56.4359 114.176 56.587 114.182 56.7381C114.235 58.2014 114.233 58.1778 112.799 58.2987C108.66 58.6475 104.523 59.0182 100.386 59.3789C95.6477 59.792 90.9092 60.2001 86.1713 60.6173C81.969 60.9874 77.7676 61.3652 73.5659 61.7428C68.2084 62.2242 62.8508 62.7056 57.4941 63.1968C56.9689 63.2451 56.7923 62.964 56.7525 62.5242C56.6063 60.91 56.4695 59.295 56.3299 57.6804C56.0973 54.9906 55.8765 52.2997 55.6239 49.6118C55.5692 49.0302 55.7368 48.7873 56.3356 48.7509C59.4066 48.5637 62.4764 48.3559 65.5455 48.1396C67.0476 48.0339 68.5479 47.9023 70.0476 47.7654C70.5918 47.7158 71.0606 47.7055 71.0677 48.4558C71.0687 48.5685 71.2288 48.7735 71.3198 48.7761C71.94 48.7936 72.5631 48.7859 73.1808 48.7347C73.259 48.7282 73.3789 48.4144 73.365 48.2527C73.3154 47.6754 73.5959 47.4973 74.1195 47.4627C76.7816 47.2871 79.4428 47.0965 82.1037 46.9032C87.446 46.5154 92.7876 46.1191 98.1299 45.7326C101.564 45.4843 104.998 45.2479 108.432 45.005C109.763 44.9109 111.097 44.8421 112.424 44.7066C113.068 44.6408 113.244 44.8967 113.288 45.4906C113.553 49.0904 113.845 52.6883 114.129 56.287C114.139 56.2862 114.149 56.2854 114.159 56.2849H114.16Z" fill="black"/>
<path d="M73.0874 10.0184C73.0874 8.1151 73.0988 6.21175 73.08 4.3088C73.0747 3.77894 73.2254 3.54001 73.8009 3.49964C78.866 3.1441 83.9293 2.76256 88.9929 2.38457C94.3785 1.98275 99.7636 1.57699 105.149 1.17162C106.372 1.07963 107.597 1.00222 108.817 0.879505C109.385 0.822383 109.635 0.980946 109.681 1.58999C109.95 5.12584 110.251 8.65933 110.539 12.1938C110.556 12.4091 110.615 12.65 110.543 12.8355C110.47 13.0262 110.271 13.2894 110.107 13.3055C107.388 13.5738 104.666 13.806 101.945 14.0515C101.448 14.0964 101.379 13.792 101.371 13.4026C101.343 12.1704 101.289 10.9385 101.282 9.70644C101.28 9.23568 101.126 9.01211 100.647 9.06017C100.604 9.06451 100.56 9.06096 100.518 9.06392C98.4795 9.20534 98.9353 8.74265 98.9239 10.8544C98.9192 11.7378 98.9978 12.6232 99.0699 13.5053C99.1217 14.1375 98.8745 14.3905 98.2378 14.4352C95.5555 14.6233 92.8754 14.8405 90.1958 15.0667C88.4164 15.2168 86.6395 15.3984 84.8618 15.5693C84.2953 15.6239 83.7972 15.5981 83.8274 14.8216C83.8298 14.7619 83.7906 14.6481 83.7686 14.6477C83.1445 14.6341 82.5161 14.5916 81.899 14.6566C81.7506 14.6721 81.5332 15.0511 81.5342 15.2623C81.5364 15.7112 81.3811 15.8563 80.9471 15.8922C78.6104 16.0846 76.2762 16.3099 73.9401 16.5109C73.2017 16.5743 73.1323 16.5006 73.1296 15.7299C73.1231 13.8263 73.1274 11.9226 73.1274 10.0188H73.0878L73.0874 10.0184Z" fill="black"/>
<path d="M70.9333 30.4861C70.9333 33.9683 70.9243 37.4504 70.938 40.9325C70.9431 42.2059 71.0019 43.4794 71.0382 44.7526C71.0488 45.1272 70.9425 45.3577 70.5034 45.3866C67.7345 45.5698 64.9671 45.7753 62.1988 45.9663C61.4029 46.0213 61.3923 45.987 61.3524 45.17C61.2179 42.4102 61.066 39.6512 60.9376 36.891C60.9186 36.4841 60.7349 36.3637 60.3719 36.3811C59.0833 36.4427 57.7946 36.5053 56.5054 36.554C56.0558 36.5709 56.0354 36.8459 56.0903 37.1774C56.3196 38.5627 56.558 39.9465 56.7838 41.3324C57.02 42.7821 57.237 44.2349 57.481 45.6835C57.5612 46.1592 57.4004 46.3477 56.9218 46.39C55.3052 46.533 55.3515 46.5415 55.2196 44.9076C54.8926 40.8579 54.5166 36.812 54.1679 32.7639C53.9566 30.3094 53.7596 27.8535 53.5565 25.3983C53.4444 24.0419 53.3464 22.6844 53.2143 21.33C53.1682 20.8586 53.3158 20.6676 53.7947 20.6276C59.1764 20.1793 64.5567 19.713 69.9379 19.2604C70.8296 19.1853 70.8349 19.205 70.8353 20.1036C70.8369 23.5644 70.8359 27.0253 70.8359 30.4859C70.8682 30.4859 70.9006 30.4859 70.9329 30.4859L70.9333 30.4861ZM66.6097 28.8585C65.5024 28.9091 64.3222 28.9729 63.141 29.0119C62.6896 29.0269 62.4581 29.123 62.5904 29.6635C62.7231 30.2058 62.7464 30.7744 62.8295 31.3297C63.4641 35.5782 64.105 39.8259 64.7325 44.0756C64.798 44.5194 64.9814 44.7357 65.4462 44.7006C66.5815 44.6149 67.7176 44.5407 68.8538 44.4697C69.2679 44.4439 69.4097 44.2448 69.364 43.8325C69.2928 43.1896 69.2597 42.5426 69.2133 41.8969C68.9355 38.0429 68.6468 34.1897 68.3866 30.3346C68.2777 28.7202 68.3055 28.7182 66.6097 28.8585Z" fill="black"/>
<path d="M73.3262 36.8484C73.3262 34.4051 73.3407 31.9617 73.3227 29.5184C73.2986 26.256 73.2625 22.9933 73.1988 19.7312C73.1874 19.1521 73.348 18.9394 73.9376 18.8939C76.3602 18.7068 78.7798 18.4781 81.1989 18.248C81.7095 18.1994 81.9041 18.4385 81.9557 18.8986C82.0831 20.0367 82.2213 21.1737 82.3487 22.3116C82.8848 27.0986 83.4176 31.8858 83.9537 36.6728C84.2205 39.0546 84.501 41.4351 84.7409 43.8196C84.757 43.9797 84.5125 44.2738 84.3373 44.3246C83.9294 44.443 83.4911 44.4722 83.0626 44.4998C81.1105 44.6248 79.1571 44.7306 77.205 44.8559C76.1328 44.9248 75.0608 45.0034 73.9915 45.1084C73.5044 45.1563 73.3544 44.9849 73.3578 44.5015C73.3754 41.9505 73.366 39.3993 73.366 36.8482C73.3527 36.8482 73.3393 36.8482 73.3262 36.8482V36.8484Z" fill="black"/>
<path d="M102.567 41.6985C102.461 39.4759 102.329 36.9527 102.223 34.4285C102.165 33.0245 102.17 31.6175 102.109 30.2135C101.972 27.0414 101.807 23.8705 101.662 20.6989C101.606 19.4905 101.574 18.2809 101.529 17.0718C101.515 16.6641 101.656 16.4311 102.11 16.395C104.726 16.1866 107.341 15.9582 109.957 15.7395C110.788 15.67 110.815 15.6721 110.886 16.5321C111.165 19.936 111.413 23.3423 111.695 26.7458C112.108 31.7219 112.533 36.6968 112.974 41.6706C113.021 42.2002 112.772 42.3021 112.354 42.332C109.693 42.5217 107.033 42.7155 104.373 42.9099C104.116 42.9286 103.86 42.9625 103.603 42.986C102.595 43.0779 102.55 43.0342 102.567 41.6987V41.6985Z" fill="black"/>
<path d="M99.377 22.2058C99.4589 24.1267 99.5228 26.0486 99.6345 27.9675C99.6659 28.5046 99.5007 28.6968 98.9744 28.7378C95.929 28.9746 92.8858 29.2371 89.8417 29.4897C89.1986 29.543 88.5558 29.6082 87.9115 29.6374C87.3777 29.6614 87.2021 29.9273 87.2407 30.4355C87.3787 32.2463 87.5105 34.0577 87.6238 35.87C87.649 36.2738 87.8502 36.406 88.2012 36.3867C88.6954 36.3597 89.1895 36.325 89.6817 36.2738C90.0904 36.231 90.2812 36.3981 90.3078 36.8082C90.4484 38.9648 90.5924 41.1213 90.7457 43.2772C90.7765 43.7097 90.6156 43.9179 90.1763 43.9449C89.3391 43.9963 88.5031 44.0696 87.6669 44.1373C87.2648 44.1698 87.0961 43.9945 87.052 43.5852C86.48 38.2784 85.9013 32.9721 85.3109 27.6673C84.993 24.811 84.6441 21.9582 84.3203 19.1025C84.1925 17.975 84.2215 17.9713 85.3637 17.873C89.6082 17.5074 93.8518 17.1314 98.096 16.7599C98.2675 16.7449 98.4412 16.7485 98.6111 16.7245C98.9959 16.6699 99.1467 16.8166 99.1631 17.2187C99.2313 18.8811 99.3276 20.5422 99.4134 22.2038L99.3772 22.2058H99.377Z" fill="black"/>
<path d="M133.51 95.7041C130.913 95.6372 128.314 94.7364 126.469 92.2356C125.419 90.8125 124.925 89.1721 124.695 87.4327C124.353 84.8541 124.674 82.363 125.905 80.0797C127.432 77.2498 129.986 75.9704 133.1 75.7492C134.854 75.6247 136.571 75.7979 138.2 76.5816C140.383 77.6317 141.822 79.3288 142.608 81.5875C143.424 83.9342 143.509 86.3611 142.912 88.7473C141.772 93.3078 138.593 95.6622 133.51 95.7039V95.7041ZM134.097 78.8161C131.828 78.6754 129.736 79.9445 128.904 82.1867C128.216 84.0382 128.151 85.9229 128.5 87.8047C128.918 90.0664 130.058 91.8157 132.445 92.4509C135.258 93.1998 137.844 91.9406 138.913 89.2478C139.695 87.2782 139.755 85.2407 139.268 83.1962C138.618 80.4655 136.654 78.7682 134.097 78.8159V78.8161Z" fill="black"/>
<path d="M52.0034 6.86739C52.2727 6.98321 52.5083 7.06318 52.7239 7.18038C54.8425 8.33228 56.9663 9.47511 59.0671 10.6591C59.501 10.9038 59.791 10.8779 60.1571 10.5719C62.5393 8.58046 64.9729 6.64875 67.3041 4.59964C68.2428 3.77453 69.2878 3.9197 70.3345 3.84701C70.4576 3.83854 70.6621 4.08771 70.7181 4.25494C70.7905 4.47122 70.7575 4.72512 70.7593 4.96286C70.7883 8.63857 70.802 12.3145 70.8563 15.9898C70.8654 16.6067 70.6433 16.8492 70.0654 16.8923C68.2846 17.0249 66.5042 17.1616 64.7255 17.3186C61.0414 17.6438 57.3578 17.9747 53.676 18.3261C53.1305 18.3781 52.9258 18.2524 52.878 17.6642C52.5944 14.1755 52.2674 10.6902 51.9579 7.20342C51.9508 7.12306 51.9789 7.03935 52.0032 6.86759L52.0034 6.86739ZM68.6382 13.2267C68.5747 12.4269 68.4553 11.1393 68.3799 9.84916C68.3546 9.41582 68.1393 9.35082 67.7961 9.38371C66.8141 9.47787 65.8322 9.57616 64.8496 9.66361C64.4054 9.7032 64.4699 9.95297 64.5665 10.2557C65.0109 11.6483 65.4537 13.0417 65.8808 14.4396C66.1937 15.4633 66.1825 15.4666 67.2073 15.3725C68.2182 15.2796 68.6952 14.5643 68.6382 13.2265V13.2267Z" fill="black"/>
<path d="M61.0679 89.8943C61.0679 91.3007 61.0891 92.7075 61.0489 94.1127C61.0415 94.3719 60.8341 94.7994 60.6383 94.8533C57.224 95.7947 53.7804 96.1979 50.3624 94.9256C46.7745 93.5901 45.0502 90.8528 44.8191 87.1009C44.6995 85.1613 44.8712 83.2465 45.7194 81.4631C47.1236 78.5107 49.4913 76.7679 52.63 76.0357C55.0353 75.4746 57.421 75.6981 59.7997 76.2351C60.1878 76.3227 60.3507 76.5272 60.346 76.9054C60.338 77.5544 60.3233 78.2034 60.327 78.8522C60.3297 79.353 60.0712 79.4396 59.6558 79.3191C58.0446 78.8513 56.3892 78.6685 54.7348 78.8609C52.1872 79.1572 50.1696 80.2955 49.0973 82.7935C48.3754 84.4756 48.3785 86.1887 48.7163 87.941C49.1128 89.9979 50.2554 91.4303 52.2222 92.1562C53.8014 92.739 55.4267 92.729 57.0645 92.4607C57.4943 92.3904 57.4526 92.0693 57.4528 91.7666C57.454 89.7762 57.4802 87.7852 57.4396 85.7955C57.4265 85.1546 57.6321 84.9556 58.2451 84.9986C58.8882 85.0437 59.5368 85.0069 60.1831 85.013C61.0536 85.0214 61.0605 85.0244 61.0642 85.8702C61.0701 87.2116 61.0658 88.553 61.0658 89.8943H61.0679Z" fill="black"/>
<path d="M65.3663 95.3999C65.5786 94.7684 65.7137 94.2978 65.8926 93.8448C67.872 88.8332 69.8593 83.8248 71.8412 78.814C72.1342 78.073 72.4232 77.3296 72.6892 76.5785C72.8252 76.1944 73.0557 76.0347 73.4609 76.0483C74.1922 76.0727 74.9287 76.0231 75.6541 76.095C75.9074 76.1202 76.2622 76.3611 76.3545 76.5911C77.9046 80.4555 79.4194 84.3341 80.9439 88.209C81.7965 90.3765 82.6412 92.5475 83.5146 94.7065C83.7312 95.2419 83.6015 95.4087 83.0485 95.3945C82.2095 95.3729 81.3692 95.3827 80.5299 95.3957C80.1072 95.4022 79.8822 95.2462 79.7366 94.816C79.3287 93.6121 78.8471 92.4336 78.4201 91.2361C78.2368 90.7218 77.9618 90.5 77.3771 90.5124C75.4836 90.5526 73.5881 90.547 71.6942 90.5102C71.1528 90.4998 70.8815 90.6682 70.7059 91.1795C70.3066 92.3421 69.84 93.481 69.4319 94.6405C69.2449 95.172 68.9815 95.4513 68.3611 95.4144C67.4226 95.3585 66.4781 95.3999 65.3663 95.3999ZM74.6548 81.2186C74.5872 81.2127 74.5194 81.2068 74.4517 81.2009C73.7057 83.2508 72.9597 85.3005 72.1872 87.4229H76.9131C76.1308 85.2737 75.3928 83.2463 74.6548 81.2188V81.2186Z" fill="black"/>
<path d="M0.654056 86.066C0.654056 83.1246 0.652684 80.1832 0.655036 77.242C0.655624 76.4301 0.694828 76.3897 1.48439 76.3887C5.10189 76.3846 8.71959 76.3936 12.3369 76.3717C12.931 76.3682 13.1594 76.5798 13.1267 77.1661C13.0978 77.6836 13.1016 78.205 13.13 78.7226C13.1604 79.2765 12.9502 79.4908 12.3824 79.4859C9.97097 79.4644 7.55917 79.476 5.14737 79.477C4.31292 79.4774 4.27901 79.5117 4.27744 80.3563C4.27568 81.416 4.2747 82.4757 4.27881 83.5356C4.28195 84.3517 4.31429 84.3826 5.11091 84.382C7.0703 84.3809 9.02989 84.3777 10.9893 84.3755C11.8633 84.3746 11.8819 84.3954 11.8747 85.293C11.8712 85.7254 11.8414 86.1611 11.8825 86.5895C11.9417 87.205 11.674 87.378 11.0969 87.3697C9.11614 87.3413 7.13499 87.3514 5.15403 87.3445C4.31037 87.3416 4.2747 87.3723 4.27372 88.209C4.27235 89.3985 4.27117 90.5881 4.2745 91.7776C4.27685 92.5844 4.31821 92.6261 5.1111 92.6261C7.65189 92.6259 10.1929 92.6218 12.7336 92.6216C13.6081 92.6216 13.6079 92.6248 13.611 93.5271C13.6128 94.003 13.5789 94.4824 13.6259 94.9536C13.6851 95.546 13.4844 95.7381 12.8785 95.7326C9.43349 95.7011 5.98809 95.709 2.54288 95.703C2.15536 95.7025 1.76567 95.6737 1.38069 95.7048C0.814399 95.7507 0.636022 95.5197 0.640335 94.9547C0.662485 91.9919 0.650724 89.0288 0.650724 86.066H0.65386H0.654056Z" fill="black"/>
<path d="M105.896 85.6727C105.896 82.7089 105.906 79.7452 105.887 76.7816C105.884 76.2497 106.064 76.0327 106.595 76.0496C109.197 76.1325 111.802 76.1548 114.401 76.2952C115.659 76.3632 116.803 76.8907 117.87 77.5935C120.58 79.3792 120.819 84.9811 116.787 86.8276C115.269 87.5223 113.7 87.8871 112.041 87.8926C111.416 87.8946 110.791 87.9117 110.167 87.8816C109.668 87.8573 109.484 88.0364 109.49 88.5521C109.514 90.5204 109.503 92.4892 109.505 94.4579C109.506 95.3868 109.495 95.3976 108.57 95.3959C107.945 95.3947 107.319 95.3642 106.697 95.4016C106.067 95.4394 105.877 95.1717 105.881 94.5641C105.901 91.6004 105.89 88.6366 105.89 85.6729H105.896L105.896 85.6727ZM109.504 81.9625H109.508C109.508 82.7183 109.477 83.4763 109.528 84.2285C109.543 84.4371 109.796 84.7938 109.954 84.8019C111.453 84.8777 112.967 84.9997 114.407 84.4042C115.639 83.8948 116.23 82.8676 116.121 81.4579C116.04 80.4122 115.255 79.5152 114.006 79.3479C112.693 79.172 111.353 79.1909 110.025 79.1307C109.642 79.1133 109.495 79.3211 109.5 79.6952C109.512 80.4508 109.504 81.2068 109.504 81.9625Z" fill="black"/>
<path d="M18.2621 86.054C18.2621 83.1124 18.2617 80.1706 18.2623 77.229C18.2623 76.4149 18.2705 76.4092 19.1034 76.4057C19.7495 76.4029 20.3969 76.423 21.041 76.3848C21.6569 76.3483 21.8767 76.5898 21.8728 77.2113C21.8532 80.3041 21.8661 83.3974 21.8669 86.4905C21.8675 88.2425 21.8651 89.9944 21.8673 91.7465C21.8684 92.6305 21.8767 92.6352 22.7831 92.6342C25.1519 92.6317 27.5208 92.6275 29.8897 92.6267C30.7437 92.6264 30.7908 92.675 30.8035 93.5521C30.811 94.0711 30.7927 94.591 30.8153 95.1092C30.8349 95.5603 30.6398 95.7218 30.2027 95.7202C26.4125 95.7074 22.6223 95.6997 18.8323 95.7084C18.3007 95.7096 18.2535 95.4295 18.2547 95.0085C18.2639 92.0236 18.2596 89.0387 18.2596 86.0538H18.2621V86.054Z" fill="black"/>
<path d="M88.3099 85.6572C88.3099 82.7593 88.3089 79.8617 88.3104 76.9638C88.3108 76.095 88.3453 76.0644 89.2304 76.0631C89.8547 76.0621 90.4815 76.0948 91.1029 76.0499C91.7347 76.0042 91.9223 76.2589 91.9195 76.8726C91.8997 81.2842 91.9068 85.6958 91.9052 90.1074C91.9052 90.5831 91.937 91.0619 91.894 91.5339C91.8399 92.1274 92.0522 92.3324 92.654 92.3253C95.0437 92.2974 97.4337 92.3119 99.8237 92.3111C99.996 92.3111 100.196 92.258 100.333 92.3283C100.508 92.4179 100.744 92.6001 100.756 92.7567C100.806 93.467 100.787 94.1824 100.793 94.8958C100.797 95.4066 100.449 95.4032 100.082 95.4022C97.0677 95.3936 94.0536 95.3902 91.0392 95.3849C90.3933 95.3837 89.7459 95.352 89.102 95.3859C88.4757 95.4188 88.2799 95.1558 88.2844 94.5452C88.3055 91.5827 88.294 88.6199 88.294 85.6572H88.3104H88.3099Z" fill="black"/>
<path d="M100.211 41.7281C100.211 41.9446 100.195 42.2688 100.214 42.591C100.239 42.9917 100.148 43.2519 99.6791 43.2901C99.2142 43.3277 99.026 43.1666 98.9954 42.6901C98.8341 40.1752 98.6501 37.6618 98.4719 35.148C98.416 34.3593 98.5132 34.2778 99.2998 34.3166C99.747 34.3387 99.8914 34.5632 99.9079 34.9704C99.9649 36.3911 100.034 37.8113 100.098 39.2319C100.134 40.028 100.17 40.8242 100.211 41.7283V41.7281Z" fill="black"/>
<path d="M137.846 71.7281C137.004 72.815 136.164 73.9039 135.314 74.9847C135.243 75.0759 135.104 75.1643 134.994 75.1665C134.205 75.1818 133.415 75.1747 132.453 75.1747C132.705 74.6738 132.882 74.2994 133.079 73.9362C133.418 73.311 133.785 72.7006 134.11 72.0687C134.309 71.6826 134.562 71.487 135.019 71.5008C135.934 71.5288 136.851 71.5091 137.768 71.5091C137.794 71.5822 137.82 71.655 137.846 71.7281H137.846Z" fill="black"/>
</svg>
