<svg width="86" height="86" viewBox="0 0 86 86" fill="none" xmlns="http://www.w3.org/2000/svg">
<path d="M8.64707 44.5988C8.86637 44.5988 9.04414 44.4223 9.04414 44.2045C9.04414 43.9868 8.86637 43.8103 8.64707 43.8103C8.42777 43.8103 8.25 43.9868 8.25 44.2045C8.25 44.4223 8.42777 44.5988 8.64707 44.5988Z" fill="black"/>
<path d="M2.14503 43.1204H0.916591V44.1984H2.2443V44.6049H0.445068V41.3833H2.21948V41.7899H0.916591V42.72H2.14503V43.1266V43.1204Z" fill="black"/>
<path d="M3.33631 43.6563C3.42316 44.0321 3.68374 44.2292 4.13045 44.2292C4.61438 44.2292 4.80671 44.0074 4.80671 43.7179C4.80671 43.4038 4.6454 43.2374 4.01257 43.0896C3.22463 42.8986 2.97025 42.6276 2.97025 42.1841C2.97025 41.6913 3.33631 41.3032 4.06841 41.3032C4.85635 41.3032 5.17897 41.7467 5.2224 42.1841H4.73226C4.67642 41.9131 4.50891 41.6851 4.04979 41.6851C3.67754 41.6851 3.46659 41.8515 3.46659 42.141C3.46659 42.4305 3.64031 42.5414 4.1987 42.6769C5.12933 42.8986 5.29685 43.2559 5.29685 43.6748C5.29685 44.2045 4.89978 44.6111 4.09322 44.6111C3.28667 44.6111 2.90821 44.1737 2.83997 43.6625H3.3301L3.33631 43.6563Z" fill="black"/>
<path d="M6.60581 41.7835H5.5697V41.377H8.12585V41.7835H7.08974V44.5986H6.60581V41.7835Z" fill="black"/>
<path d="M42.6463 70.2363C57.7847 70.2363 70.0567 58.0519 70.0567 43.0217C70.0567 27.9915 57.7847 15.8071 42.6463 15.8071C27.508 15.8071 15.236 27.9915 15.236 43.0217C15.236 58.0519 27.508 70.2363 42.6463 70.2363Z" fill="black"/>
<path d="M12.6303 67.5877C14.0386 66.596 15.4036 65.6535 16.1543 65.1669L16.1357 65.1361C14.932 65.5365 10.4464 66.5282 7.51797 67.1996L7.11469 66.596C8.42999 64.6248 11.3088 60.3375 12.1898 59.2102L12.1774 59.1856C11.3832 59.8262 9.72668 61.0274 8.48583 61.9021L5.42093 64.0581L5.00525 63.4359L12.258 58.3293L12.8908 59.2718C11.1102 62.0068 8.74021 65.5488 8.10737 66.3865L8.11978 66.405C8.80845 66.1894 13.3313 65.1484 16.3838 64.4954L17.0043 65.4256L9.7515 70.5322L9.32961 69.9039L12.6303 67.5754V67.5877Z" fill="black"/>
<path d="M22.3212 75.4108C20.8136 77.2773 18.425 78.1397 16.2969 76.4457C14.3426 74.8872 14.448 72.4294 16.0301 70.4706C17.5874 68.5425 19.976 67.8587 22.0234 69.4911C23.9219 71.0065 23.9219 73.4273 22.3212 75.4108ZM16.6754 70.9387C15.4221 72.491 15.1119 74.6347 16.7498 75.9406C18.5056 77.3389 20.3979 76.5196 21.6884 74.9242C22.9541 73.3596 23.2271 71.3145 21.5705 69.9962C19.8333 68.6164 17.91 69.4049 16.6754 70.9326V70.9387Z" fill="black"/>
<path d="M23.4875 80.8745L26.7261 72.7988L27.694 73.1992C28.1593 75.6632 29.2637 81.2934 29.4002 82.3714H29.4126C29.8035 81.201 30.2936 80.006 30.8209 78.6939L32.2603 75.1088L32.9366 75.3922L29.698 83.4678L28.7984 83.0921C28.3641 80.7513 27.2907 74.8932 27.086 73.7659H27.0736C26.7137 74.8255 26.2236 76.0205 25.6342 77.4804L24.1576 81.1579L23.4813 80.8745H23.4875Z" fill="black"/>
<path d="M36.5353 76.8337L33.582 76.5196L33.6565 75.8481L40.3323 76.5627L40.2578 77.2341L37.2922 76.92L36.4236 84.9217L35.6667 84.8416L36.5353 76.8399V76.8337Z" fill="black"/>
<path d="M46.1517 81.1394L42.0755 81.0778L42.0321 84.6629L46.4992 84.7307L46.3937 85.4021L41.3558 85.3282L41.4613 76.6057L46.4123 76.6796V77.3572L42.1252 77.2956L42.0879 80.4125L46.1641 80.4741V81.1517L46.1517 81.1394Z" fill="black"/>
<path d="M70.733 68.9613L67.8418 71.8134L70.3917 74.3513L73.5621 71.2282L73.9716 71.7764L70.398 75.2999L64.1875 69.1277L67.6991 65.6658L68.183 66.1462L65.1492 69.14L67.3641 71.3452L70.2553 68.4932L70.7392 68.9737L70.733 68.9613Z" fill="black"/>
<path d="M52.1699 84.4351L46.766 76.8091L47.5415 76.6058L50.3645 80.5913C51.1958 81.7679 52.0582 82.9875 52.4181 83.6405H52.4429C52.4615 82.9691 52.6476 81.3859 52.7965 80.0369L53.3611 75.109L54.1242 74.9119L53.0199 84.2134L52.1699 84.4351Z" fill="black"/>
<path d="M55.4892 74.1909L58.672 82.322L57.9771 82.5931L54.7943 74.462L55.4892 74.1909Z" fill="black"/>
<path d="M57.1271 73.6181L59.677 72.0966C61.7679 70.8461 64.0758 71.4313 65.4284 73.6612C66.7871 75.9034 66.3218 78.3119 64.1999 79.5809L61.6624 81.0962L57.1271 73.6181ZM61.954 80.1353L63.7594 79.0573C65.7386 77.8746 65.8689 75.9219 64.7645 74.0986C63.7718 72.46 61.9726 71.5114 59.9314 72.7372L58.1198 73.8214L61.954 80.1414V80.1353Z" fill="black"/>
<path d="M76.9 60.3067C78.9101 61.6249 79.9897 63.9102 78.4821 66.1709C77.0985 68.2468 74.6168 68.3638 72.5136 66.9779C70.4413 65.6165 69.5355 63.3127 70.9873 61.1382C72.3336 59.1239 74.7657 58.9022 76.9 60.3067ZM72.923 66.2941C74.592 67.3967 76.7759 67.5015 77.9361 65.7644C79.1769 63.9041 78.1905 62.1054 76.4719 60.9781C74.7843 59.8693 72.7121 59.7831 71.5395 61.5386C70.3111 63.3805 71.2789 65.2161 72.923 66.3003V66.2941Z" fill="black"/>
<path d="M11.7057 29.5624L3.82629 25.9096L4.48394 24.5051L12.3633 28.158L11.7057 29.5624Z" fill="black"/>
<path d="M12.9157 26.6859L5.82422 22.0043L7.41871 19.9161L15.2795 21.5978L15.4346 21.3945L9.35444 17.3782L10.1734 16.3064L17.2649 20.9879L15.6642 23.0885L7.80958 21.4007L7.65447 21.6039L13.7346 25.6202L12.9157 26.692V26.6859Z" fill="black"/>
<path d="M54.0995 10.947L57.5676 3.22241L59.9066 4.43592L59.5468 12.413L59.7764 12.5301L62.7482 5.90814L63.9518 6.5303L60.4836 14.2549L58.1322 13.0413L58.4983 5.07039L58.2687 4.95335L55.2969 11.5753L54.0933 10.9531L54.0995 10.947Z" fill="black"/>
<path d="M17.7362 19.528L12.7418 13.134L14.8078 11.5448L20.5468 15.906L20.7949 15.715L17.9782 9.09927L20.0442 7.51001L25.0386 13.904L23.9343 14.7541L19.6844 9.32103L19.4796 9.48119L22.2964 16.0169L20.4041 17.4706L14.7272 13.1402L14.5224 13.3003L18.7724 18.7334L17.7424 19.528H17.7362Z" fill="black"/>
<path d="M27.0303 13.2756L23.2705 5.49565L24.6789 4.82422L28.4386 12.6042L27.0303 13.2756Z" fill="black"/>
<path d="M33.3151 10.9595C32.5334 11.1751 31.8261 11.1813 31.187 10.9657C30.548 10.7562 29.9958 10.362 29.5305 9.78298C29.0652 9.2101 28.7115 8.49555 28.4696 7.63932C28.2214 6.77077 28.1532 5.97614 28.2524 5.25543C28.3517 4.53471 28.6371 3.91872 29.1086 3.40745C29.5801 2.89617 30.2316 2.52658 31.0754 2.28634C31.7764 2.08922 32.4031 2.0461 32.9614 2.15082C33.5136 2.25554 33.9976 2.48962 34.3946 2.84689C34.7979 3.20417 35.1205 3.66616 35.3687 4.23904L33.9107 4.64559C33.6625 4.10352 33.3275 3.72776 32.8932 3.51217C32.4651 3.30273 31.9564 3.27809 31.367 3.44441C30.5976 3.66 30.1013 4.09736 29.8841 4.75647C29.667 5.41558 29.698 6.23486 29.9772 7.21428C30.2626 8.23067 30.6845 8.96371 31.2367 9.40722C31.7888 9.85689 32.4403 9.97393 33.2034 9.75834C33.8424 9.5797 34.2829 9.25322 34.5311 8.78507C34.7793 8.31691 34.8289 7.74404 34.68 7.08493L32.1363 7.79332L31.8137 6.66605L35.7534 5.56342L36.9446 9.77066L35.8092 10.091L35.4369 8.73579L35.3129 9.16698C35.195 9.5181 35.0337 9.8569 34.7421 10.1834C34.4505 10.5098 33.9727 10.7624 33.3089 10.9534L33.3151 10.9595Z" fill="black"/>
<path d="M38.7253 9.35155L38.595 0.949404L41.511 0.887805C42.2183 0.875485 42.7952 0.967884 43.2295 1.17116C43.6638 1.37444 43.9865 1.65164 44.1974 1.99659C44.4084 2.34771 44.5138 2.7481 44.52 3.2101C44.5262 3.76449 44.3897 4.23881 44.1043 4.63304C43.8189 5.02728 43.1613 5.56935 42.1066 5.66791L44.6503 9.30227L43.0744 9.33307L40.8719 5.74799H39.9599L40.0157 9.32075L38.7315 9.35155H38.7253ZM39.9227 4.59608L41.4055 4.56528C41.9515 4.55296 42.3547 4.44825 42.6153 4.24497C42.8759 4.04169 43 3.72753 42.9938 3.29634C42.9876 2.85898 42.8511 2.55099 42.5781 2.36003C42.3113 2.16907 41.9018 2.07667 41.5792 2.08899L39.8979 2.11979L39.9227 4.59608Z" fill="black"/>
<path d="M45.246 9.34545L45.2522 9.27769L49.4959 1.34985L51.9279 1.79337L53.0447 10.7068L53.0385 10.7746L51.444 10.4789L50.5754 2.7728L50.3148 2.72352L46.7102 9.61648L45.246 9.34545Z" fill="black"/>
<path d="M47.6407 6.89997L48.2239 5.77271L51.2392 6.3271L51.3819 7.58989L47.6407 6.89997Z" fill="black"/>
<path d="M62.9714 16.2446L67.5874 10.4604L65.4469 8.77874L66.2287 7.79932L71.7318 12.1236L70.9501 13.103L68.8096 11.4214L64.1937 17.2055L62.9714 16.2446Z" fill="black"/>
<path d="M66.9174 19.5709L73.6117 14.064L77.2785 18.4622L76.3106 19.2568L73.6304 16.0413L71.949 17.4273L74.0398 19.9344L73.1216 20.6921L71.0308 18.185L68.8779 19.959L71.6016 23.2238L70.6337 24.0184L66.9236 19.5709H66.9174Z" fill="black"/>
<path d="M72.4205 27.043C72.1289 26.5379 71.9552 26.0759 71.8931 25.6447C71.8373 25.2135 71.8621 24.8192 71.98 24.462C72.0979 24.1047 72.284 23.7905 72.5322 23.5195C72.7865 23.2423 73.0719 23.0144 73.3946 22.8357L74.0832 24.0184C73.8289 24.1663 73.6179 24.3634 73.4442 24.616C73.2705 24.8685 73.1836 25.158 73.1712 25.4907C73.165 25.8233 73.2705 26.1867 73.5 26.5748C73.742 26.9937 74.0274 27.2647 74.3562 27.3941C74.685 27.5234 75.0139 27.505 75.3489 27.3448C75.6715 27.1908 75.7584 26.9629 75.8266 26.6672C75.8949 26.3715 75.7087 25.4783 75.6405 25.1026C75.6405 25.1026 75.293 23.5564 75.2868 23.1745C75.2868 22.7926 75.3613 22.4353 75.5288 22.1027C75.6963 21.7762 76.0003 21.499 76.447 21.2834C76.8937 21.0678 77.4832 21.0186 77.9112 21.0678C78.3393 21.1171 78.9536 21.5298 79.2948 21.8563C79.636 22.1828 80.1448 22.8234 80.3061 23.3347C80.6473 24.388 80.4364 25.2135 80.0889 25.7617C79.8594 26.1128 79.5243 26.3839 79.1397 26.6056L78.451 25.4229C78.6495 25.3059 78.8171 25.1519 78.9598 24.9671C79.0963 24.7823 79.2079 24.3696 79.2141 24.1232C79.2265 23.8706 79.0218 23.4456 78.8357 23.1252C78.6247 22.768 78.3828 22.5339 78.0974 22.4169C77.812 22.306 77.5328 22.3183 77.2598 22.4477C76.9496 22.5955 76.7697 22.8234 76.7262 23.1191C76.6766 23.4209 76.8441 24.0985 76.9124 24.4743L77.1047 25.4722C77.1791 25.8664 77.2164 26.2483 77.2164 26.6302C77.2164 27.0122 77.1605 27.3325 76.9806 27.659C76.8069 27.9854 76.4036 28.2195 75.9321 28.4474C75.3303 28.6938 74.4989 28.7801 73.8723 28.5706C73.196 28.3427 72.8734 27.8438 72.4081 27.0491L72.4205 27.043Z" fill="black"/>
<path d="M77.1978 44.605V42.3012C77.0427 42.4121 76.7573 42.5537 76.1927 42.6092V42.2704C76.9435 42.0609 77.0303 41.8454 77.2351 41.4573H77.6259V44.5988H77.1978V44.605Z" fill="black"/>
<path d="M78.7303 43.9211C78.8171 44.1737 78.9847 44.3092 79.2949 44.3092C79.9091 44.3092 79.9587 43.4837 79.9711 43.0895C79.8222 43.3544 79.5492 43.4653 79.2142 43.4653C78.6248 43.4653 78.2526 43.0402 78.2526 42.4674C78.2526 41.8945 78.6372 41.4202 79.3135 41.4202C80.1014 41.4202 80.393 42.0362 80.393 42.8616C80.393 43.687 80.2193 44.6541 79.2763 44.6541C78.6434 44.6541 78.3766 44.2845 78.3022 43.9149H78.7365L78.7303 43.9211ZM78.6869 42.455C78.6869 42.8554 78.9164 43.1141 79.2887 43.1141C79.723 43.1141 79.9215 42.8862 79.9215 42.4674C79.9215 42.2764 79.847 41.7651 79.3011 41.7651C78.873 41.7651 78.6869 42.067 78.6869 42.4489V42.455Z" fill="black"/>
<path d="M83.0175 43.0156C83.0175 43.7917 82.7941 44.6603 81.9131 44.6603C81.0321 44.6603 80.8149 43.8472 80.8149 43.0402C80.8149 42.2333 81.0755 41.4202 81.9317 41.4202C82.7879 41.4202 83.0175 42.221 83.0175 43.0218V43.0156ZM81.2616 43.0402C81.2616 43.6377 81.3671 44.3092 81.9193 44.3092C82.4715 44.3092 82.5769 43.6685 82.5769 43.0218C82.5769 42.4181 82.4715 41.7774 81.9379 41.7774C81.4043 41.7774 81.2678 42.3565 81.2678 43.0464L81.2616 43.0402Z" fill="black"/>
<path d="M83.8923 43.9211C83.9791 44.1737 84.1467 44.3092 84.4569 44.3092C85.0711 44.3092 85.1207 43.4837 85.1331 43.0895C84.9842 43.3544 84.7112 43.4653 84.3762 43.4653C83.7868 43.4653 83.4146 43.0402 83.4146 42.4674C83.4146 41.8945 83.7992 41.4202 84.4755 41.4202C85.2634 41.4202 85.555 42.0362 85.555 42.8616C85.555 43.687 85.3813 44.6541 84.4382 44.6541C83.8054 44.6541 83.5386 44.2845 83.4642 43.9149H83.8985L83.8923 43.9211ZM83.8488 42.455C83.8488 42.8554 84.0784 43.1141 84.4507 43.1141C84.885 43.1141 85.0835 42.8862 85.0835 42.4674C85.0835 42.2764 85.009 41.7651 84.4631 41.7651C84.035 41.7651 83.8488 42.067 83.8488 42.4489V42.455Z" fill="black"/>
</svg>
