<svg width="85" height="85" viewBox="0 0 85 85" fill="none" xmlns="http://www.w3.org/2000/svg">
<path d="M42.2411 84.5154C39.4237 84.469 36.6048 84.4617 33.7897 84.3638C31.5639 84.2858 29.3388 84.1342 27.1196 83.9466C24.6584 83.7391 22.1979 83.5015 19.7477 83.1902C16.4616 82.773 13.1932 82.2168 9.99832 81.3279C6.22587 80.2787 3.87573 77.7887 3.05678 73.9699C2.4446 71.1172 1.93101 68.2388 1.49762 65.353C1.11354 62.7909 0.870722 60.206 0.623493 57.6256C0.461618 55.9325 0.40864 54.2291 0.296063 52.5317C0.0105724 48.2265 -0.04682 43.914 0.0326464 39.6029C0.0944536 36.2617 0.250443 32.9204 0.450581 29.5843C0.604363 27.0208 0.846441 24.4609 1.12972 21.9077C1.569 17.9461 2.15322 14.0023 3.14949 10.1364C4.10971 6.41028 6.53049 4.0513 10.233 3.1345C12.8378 2.4892 15.4874 2.00063 18.1377 1.57387C20.5497 1.1861 22.9874 0.938873 25.4199 0.699002C27.3315 0.510638 29.2527 0.426757 31.1702 0.297992C36.2355 -0.0412118 41.3073 -0.0301748 46.3784 0.0389904C48.9736 0.0743087 51.571 0.170698 54.161 0.334046C56.9195 0.50843 59.6758 0.751244 62.4255 1.04262C66.4025 1.46497 70.3471 2.09261 74.2255 3.09918C76.7442 3.75257 78.8118 5.04537 80.2054 7.28514C80.9493 8.48082 81.3495 9.81629 81.6564 11.1841C82.351 14.2877 82.8785 17.4215 83.2567 20.5766C83.5672 23.163 83.7983 25.7589 84.0175 28.3548C84.4804 33.8401 84.562 39.3388 84.5024 44.8396C84.4767 47.2398 84.4193 49.6422 84.2839 52.0379C84.1205 54.9333 83.9219 57.8287 83.6261 60.713C83.1618 65.25 82.5364 69.7663 81.4371 74.2017C80.9684 76.0934 80.1178 77.774 78.6572 79.1109C77.282 80.3699 75.6309 81.066 73.8525 81.5111C70.7776 82.2808 67.6637 82.8422 64.5166 83.2086C62.1724 83.4816 59.8244 83.7288 57.4736 83.9422C52.4069 84.4013 47.3262 84.5058 42.2411 84.5139V84.5154ZM53.2162 66.3647C53.228 66.2477 53.2435 66.1638 53.2427 66.0807C53.2302 61.9403 53.2162 57.8007 53.2015 53.6604C53.1971 52.4595 53.1382 51.272 52.7299 50.1182C52.0529 48.2066 50.9161 46.7004 49.0943 45.7446C47.4446 44.8793 45.6655 44.6211 43.8399 44.613C41.1293 44.6005 38.4811 44.9956 35.9242 45.9301C35.7241 46.0029 35.6292 46.1022 35.6284 46.3252C35.6255 47.6724 35.61 49.019 35.6041 50.3662C35.6034 50.5825 35.6277 50.7996 35.6424 51.0439C35.9904 50.9306 36.3039 50.8356 36.6122 50.7267C38.5841 50.0307 40.5951 49.5679 42.7068 49.5988C43.8554 49.6157 44.9885 49.6473 45.9598 50.364C46.8582 51.0269 47.2533 51.9415 47.271 52.9746C45.8501 53.0298 44.4705 53.0475 43.0968 53.1453C41.2352 53.2778 39.4575 53.7472 37.8336 54.6986C36.7152 55.3534 35.7888 56.2202 35.2127 57.3946C34.6424 58.5564 34.4673 59.783 34.5843 61.0919C34.7867 63.3656 35.9095 64.9762 37.8755 66.0453C39.1853 66.7576 40.6105 66.8599 42.0725 66.8584C43.9032 66.8562 45.43 66.2153 46.7103 64.9284C46.9038 64.7342 47.1319 64.5752 47.3975 64.3552C47.3975 64.8901 47.4167 65.4258 47.3909 65.96C47.3747 66.2948 47.477 66.4007 47.8191 66.3978C49.485 66.3816 51.1508 66.3912 52.8167 66.3897C52.9477 66.3897 53.0779 66.375 53.2184 66.3662L53.2162 66.3647ZM69.1529 64.3574C69.1765 64.8372 69.2199 65.3986 69.2235 65.9607C69.225 66.2499 69.3229 66.3426 69.6084 66.3434C71.3478 66.3507 73.0872 66.3632 74.8259 66.3963C75.1806 66.4029 75.2468 66.2727 75.2468 65.9512C75.2387 59.1634 75.2387 52.3764 75.2483 45.5887C75.2483 45.2524 75.157 45.1486 74.82 45.1516C73.0681 45.1656 71.3162 45.1582 69.5642 45.1582C69.163 45.1582 68.9621 45.3549 68.9616 45.7483C68.9535 49.9019 68.9476 54.0548 68.9359 58.2084C68.9329 59.1686 68.6562 60.0515 68.0338 60.7851C67.3333 61.6107 66.4054 61.9028 65.3349 61.8189C64.6881 61.7681 64.1223 61.5658 63.6506 61.1103C62.8677 60.3554 62.5844 59.4092 62.583 58.3533C62.5756 54.1144 62.5646 49.8747 62.569 45.6357C62.569 45.2774 62.4895 45.145 62.1047 45.1494C60.3042 45.1685 58.503 45.1575 56.7017 45.1589C56.5707 45.1589 56.439 45.1737 56.2956 45.1818C56.2875 45.3105 56.2764 45.4069 56.2772 45.5026C56.286 50.0358 56.3007 54.5691 56.3022 59.1023C56.3022 60.3289 56.5053 61.5165 56.9695 62.6467C57.7657 64.5848 59.1284 65.9284 61.1585 66.5714C62.3593 66.9519 63.5807 66.9011 64.7962 66.7841C66.0846 66.6597 67.2038 66.1027 68.1574 65.2168C68.4878 64.91 68.8409 64.6275 69.1551 64.3582L69.1529 64.3574ZM27.2572 38.7376C26.3963 38.8796 25.6385 38.9981 24.8835 39.1313C23.718 39.3358 22.5555 39.5632 21.387 39.7516C21.0861 39.8001 20.9801 39.8877 20.9838 40.2055C21.0007 41.7367 20.986 43.2679 20.9963 44.7991C20.9985 45.0699 20.9154 45.1685 20.6402 45.1626C20.0037 45.1479 19.3665 45.1582 18.7293 45.1582C18.4659 45.1582 18.2025 45.1582 17.9339 45.1582V49.9483C18.8139 49.9483 19.6689 49.9689 20.5225 49.9387C20.9014 49.9255 20.9956 50.0432 20.9948 50.4111C20.9904 53.3388 21.0125 56.2658 21.0132 59.1936C21.0132 60.3392 21.1258 61.4628 21.5158 62.5481C21.8704 63.5341 22.4164 64.4023 23.1934 65.0984C24.3913 66.1712 25.8702 66.6163 27.4243 66.748C28.926 66.8753 30.4315 66.7429 31.92 66.4743C32.1878 66.4258 32.3092 66.3161 32.3055 66.0137C32.2886 64.6665 32.2989 63.3192 32.2967 61.972C32.2967 61.8682 32.2798 61.7645 32.2754 61.7137C31.3571 61.7475 30.4793 61.8255 29.6044 61.7991C28.6413 61.7704 27.8702 61.3223 27.5199 60.3915C27.3529 59.947 27.3065 59.4357 27.3014 58.9544C27.2742 56.076 27.2778 53.1976 27.2609 50.3191C27.2594 50.0351 27.3382 49.9394 27.634 49.9416C29.1284 49.9556 30.6228 49.949 32.1172 49.9468C32.2592 49.9468 32.4005 49.9336 32.5601 49.9255C32.5675 49.7687 32.5778 49.6481 32.5785 49.5281C32.58 48.2177 32.5653 46.9065 32.5881 45.596C32.5947 45.2252 32.4645 45.1472 32.126 45.1509C30.6441 45.1656 29.1615 45.1486 27.6796 45.1634C27.3573 45.1663 27.2616 45.0677 27.2639 44.7447C27.2749 43.1767 27.2609 41.6087 27.2565 40.0415C27.255 39.6397 27.2565 39.238 27.2565 38.7376H27.2572ZM9.29857 45.184C9.29857 45.3289 9.29857 45.4481 9.29857 45.5673C9.29857 52.3654 9.30078 59.1634 9.29121 65.9615C9.29121 66.3007 9.38687 66.3985 9.72386 66.3956C11.5244 66.3809 13.3249 66.3801 15.1254 66.3956C15.4778 66.3985 15.5845 66.294 15.5845 65.9394C15.5757 59.1539 15.5757 52.3676 15.5845 45.582C15.5845 45.2347 15.466 45.1494 15.1408 45.1516C13.3403 45.1634 11.5398 45.1567 9.73931 45.1582C9.60687 45.1582 9.47443 45.1729 9.29783 45.184H9.29857ZM71.2396 36.9437C71.0778 36.9526 70.9542 36.9482 70.835 36.968C69.7872 37.1454 68.7401 37.3242 67.6938 37.5081C65.5291 37.8885 63.3659 38.2755 61.2004 38.6493C60.9752 38.6883 60.884 38.7715 60.8855 39.001C60.8928 40.0297 60.8884 41.0583 60.8921 42.087C60.8921 42.1679 60.923 42.2489 60.9399 42.3305H71.2389V36.9437H71.2396ZM12.4309 35.8489C10.4751 35.74 8.77542 37.2785 8.74157 39.2475C8.70184 41.5344 10.2529 42.9471 12.3337 42.9861C14.4536 43.0259 16.0363 41.5771 16.1128 39.5168C16.1908 37.4213 14.5787 35.7716 12.4309 35.8496V35.8489Z" fill="black"/>
<path d="M47.3321 57.0222C47.2718 57.9728 47.3226 58.9198 47.1298 59.8131C46.8105 61.2891 45.564 62.3472 43.8062 62.3847C43.105 62.4001 42.4222 62.3472 41.7798 62.0043C40.9138 61.5415 40.4252 60.4282 40.6018 59.4533C40.8299 58.1936 41.7298 57.6542 42.7945 57.2885C44.1638 56.8184 45.5883 56.8993 47.0047 56.9552C47.0879 56.9582 47.1695 56.9876 47.3321 57.0215V57.0222Z" fill="black"/>
</svg>
