<svg width="80" height="86" viewBox="0 0 80 86" fill="none" xmlns="http://www.w3.org/2000/svg">
<path d="M46.3625 20.8468C46.7422 20.131 47.1257 19.417 47.5007 18.6987C48.7998 16.2093 50.0665 13.702 51.4099 11.2366C51.8755 10.3824 52.4888 9.59848 53.1066 8.84144C53.83 7.95433 54.7749 7.37688 55.8984 7.09055C58.1546 6.51566 60.4044 5.91616 62.6571 5.32753C62.7268 5.30931 62.7984 5.29877 62.9683 5.26489C62.6854 6.10758 62.4305 6.88028 62.1663 7.64979C61.7838 8.76379 61.4149 9.88353 60.9916 10.9819C60.8955 11.2308 60.6313 11.5264 60.3901 11.5887C58.906 11.9722 57.8506 12.8945 57.1129 14.1829C55.0053 17.864 52.9303 21.5642 50.8415 25.2564C49.1782 28.1961 47.5156 31.1364 45.8431 34.0709C45.7429 34.2467 45.5822 34.4611 45.4084 34.5097C43.7155 34.9849 42.0141 35.4287 40.2296 35.9042C40.107 34.7605 39.9851 33.6743 39.8753 32.5869C39.4085 27.9698 38.9451 23.3525 38.4798 18.7354C38.2805 16.7596 38.0701 14.7843 37.8945 12.8063C37.8776 12.6177 38.031 12.2787 38.1768 12.2314C40.7047 11.4117 43.2439 10.6272 45.8724 9.8062C46.0023 13.5326 46.1293 17.1728 46.2566 20.8132C46.2922 20.8244 46.3275 20.8356 46.3632 20.8468H46.3625Z" fill="black"/>
<path d="M79.4407 0.702148C78.6854 2.88956 77.9709 4.98748 77.2217 7.07295C77.1625 7.23753 76.8796 7.36982 76.6759 7.42575C75.0903 7.85971 73.5009 8.27866 71.9076 8.68323C71.5563 8.77239 71.3329 8.91555 71.2138 9.28912C70.9353 10.1634 70.6072 11.0218 70.2565 12.006C72.0623 11.5542 73.7514 11.1314 75.5451 10.6824C75.4302 11.0707 75.3525 11.366 75.2561 11.6548C74.7265 13.238 74.1778 14.8147 73.6699 16.4048C73.5445 16.7979 73.323 16.9628 72.9506 17.0599C71.4548 17.4495 69.9665 17.8691 68.4707 18.2589C68.1158 18.3513 67.9134 18.52 67.7893 18.8824C67.4211 19.9596 67.0076 21.0212 66.6152 22.0902C66.5439 22.2845 66.4895 22.4855 66.3934 22.7916C68.2368 22.333 69.9748 21.901 71.7679 21.4549C71.744 21.6044 71.7437 21.7345 71.7017 21.8492C70.9987 23.7669 70.3007 25.6865 69.5694 27.5934C69.4876 27.8065 69.2371 28.0423 69.0194 28.1024C64.6251 29.3158 60.2241 30.5052 55.8241 31.6969C55.792 31.7055 55.7512 31.6822 55.6573 31.6607C55.9699 30.7762 56.2719 29.8952 56.5918 29.0212C59.5526 20.9247 62.5188 12.8305 65.4717 4.7312C65.599 4.38255 65.7709 4.18315 66.1353 4.08983C70.4201 2.99245 74.702 1.88293 78.9852 0.778204C79.0957 0.749763 79.2109 0.739857 79.4403 0.702148L79.4407 0.702148Z" fill="black"/>
<path d="M33.3645 41.4566C33.2785 41.5908 33.2725 41.6132 33.2588 41.6199C31.5071 42.5073 30.7983 44.0805 30.226 45.8733C26.5058 57.5293 22.7182 69.1637 18.9531 80.8053C18.8987 80.9734 18.8474 81.1428 18.8042 81.3141C18.6371 81.9785 18.7688 82.2341 19.4095 82.5C19.5619 82.5632 19.7153 82.6243 19.9929 82.7371C16.7927 83.5862 13.7183 84.402 10.6442 85.2175C10.6273 85.1929 10.6107 85.168 10.5939 85.1434C10.9965 84.8293 11.3934 84.5078 11.8026 84.2029C12.4226 83.7415 12.8071 83.1429 13.048 82.399C16.6081 71.3929 20.1845 60.392 23.756 49.3898C23.8219 49.1872 23.8814 48.9826 23.955 48.7442C20.8719 49.1517 18.7039 50.8032 17.1778 53.4294C17.7742 51.6072 18.3707 49.7851 18.9668 47.9626C19.0705 47.6453 19.1781 47.3292 19.272 47.0093C19.4967 46.2437 19.3392 45.9343 18.5906 45.6614C18.4267 45.6017 18.2577 45.556 17.9442 45.4579C23.145 44.1083 28.2054 42.7953 33.3645 41.4563V41.4566Z" fill="black"/>
<path d="M18.9804 17.3697C16.4496 24.2787 13.9557 31.0876 11.413 38.0288C13.3293 37.5367 15.0992 37.0823 16.9658 36.6029C16.8659 36.933 16.7917 37.2056 16.7007 37.4724C16.13 39.1444 15.5658 40.8189 14.97 42.4816C14.8901 42.7043 14.6768 42.9769 14.4687 43.0408C9.98021 44.4207 5.48345 45.7744 0.987955 47.1309C0.882291 47.1629 0.769307 47.1705 0.55957 47.207C1.13754 45.5813 1.66968 44.0292 2.23937 42.4912C4.95385 35.1646 7.68298 27.8437 10.3908 20.5145C10.5706 20.0275 10.8204 19.7635 11.3354 19.6156C13.7421 18.9244 16.1348 18.1836 18.5329 17.4624C18.6415 17.4298 18.7554 17.4154 18.9804 17.3694V17.3697Z" fill="black"/>
<path d="M36.534 12.6186C35.5789 15.2345 34.6626 17.7396 33.7495 20.2456C31.4376 26.5895 29.1216 32.9319 26.8266 39.2819C26.6608 39.7411 26.4246 39.9651 25.9565 40.0898C23.502 40.7446 21.0571 41.4351 18.4979 42.1436C18.6192 41.7822 18.7096 41.4968 18.8105 41.2153C21.9215 32.5503 25.0313 23.8851 28.1576 15.2256C28.2365 15.0067 28.4679 14.7449 28.6783 14.6871C31.1865 13.9962 33.7043 13.3398 36.2199 12.6754C36.2899 12.6569 36.3628 12.6489 36.534 12.6179V12.6186Z" fill="black"/>
<path d="M63.7336 48.6733C63.781 48.0719 63.8291 47.4612 63.8771 46.8508L63.7695 46.8189C63.4229 47.4468 63.0881 48.0815 62.7218 48.6979C62.6228 48.8644 62.4503 49.0504 62.2762 49.098C60.2387 49.6575 58.1948 50.1931 56.1515 50.7313C56.1041 50.7437 56.0456 50.7124 55.9364 50.6897C56.3361 50.0071 56.7152 49.3469 57.1063 48.6941C58.9233 45.6624 60.7352 42.6275 62.5773 39.6114C62.7358 39.3516 63.077 39.1228 63.3762 39.0449C64.8332 38.6652 66.3052 38.3444 67.7708 37.9977C68.2491 37.8845 68.8185 36.7124 68.5286 36.3407C68.4191 36.2004 68.0327 36.1947 67.8007 36.2487C66.6769 36.5104 65.563 36.8137 64.4452 37.1013C64.2008 37.1642 63.9554 37.2243 63.5837 37.3173C63.6827 37.0105 63.7498 36.7817 63.8297 36.558C64.1801 35.5782 64.5168 34.5934 64.8994 33.6264C64.9879 33.403 65.2043 33.1358 65.4166 33.0716C67.7373 32.3695 70.0556 31.6502 72.4028 31.0475C73.8449 30.6771 74.6007 31.492 74.2774 32.9505C73.2917 37.3982 72.2882 41.842 71.271 46.2823C71.2211 46.5009 71.0088 46.7955 70.815 46.8499C68.5161 47.4931 66.2068 48.0978 63.8994 48.71C63.8672 48.7187 63.8268 48.695 63.7339 48.6736L63.7336 48.6733ZM67.5588 40.1489C67.5098 40.1256 67.4608 40.1023 67.4121 40.0786C66.5098 41.5132 65.6075 42.948 64.6346 44.495C65.2803 44.394 65.7963 44.3221 66.3077 44.2246C66.3984 44.2074 66.5178 44.0981 66.5416 44.0089C66.8889 42.7246 67.2221 41.4361 67.5588 40.1489Z" fill="black"/>
<path d="M56.028 44.8101C56.0006 45.1949 56.0499 45.6272 55.9293 46.0049C55.4223 47.5935 54.8723 49.1686 54.3144 50.7402C54.247 50.9304 54.0627 51.164 53.8854 51.2164C52.3654 51.665 50.8348 52.0773 49.3065 52.4969C49.2381 52.5157 49.1601 52.4994 48.9946 52.4994C49.6544 50.676 50.3011 48.9133 50.923 47.1419C51.0242 46.8531 51.0143 46.5249 51.0557 46.2149C50.6938 46.2638 50.3161 46.2657 49.9774 46.3827C49.8275 46.4344 49.7279 46.7077 49.656 46.8994C48.9618 48.7557 48.268 50.6121 47.5997 52.4777C47.4396 52.9244 47.1974 53.175 46.7273 53.3015C45.164 53.7224 43.6124 54.188 41.975 54.66C42.0237 54.4612 42.0418 54.3366 42.0845 54.2206C44.0443 48.8979 46.009 43.5772 47.9612 38.2517C48.0943 37.8884 48.2734 37.6839 48.6674 37.5797C51.4472 36.8444 54.2132 36.0554 56.9968 35.3351C58.8258 34.8618 59.5916 35.6716 59.0171 37.4582C58.4226 39.3072 57.7934 41.1473 57.1059 42.963C56.8586 43.6162 56.3984 44.1879 56.0276 44.8098L56.028 44.8101ZM51.4577 41.9618C52.6254 41.9935 52.8899 41.8196 53.282 40.806C53.3864 40.5363 53.5684 40.1819 53.1629 40.0697C52.8078 39.9713 52.3307 39.8003 52.1028 40.3362C51.8822 40.8552 51.6859 41.3841 51.4577 41.9618Z" fill="black"/>
<path d="M45.5135 38.6208C45.0367 39.9435 44.6103 41.1633 44.1465 42.369C44.0854 42.5281 43.8506 42.6668 43.6682 42.7247C42.7545 43.0129 41.835 43.2839 40.9101 43.5322C40.5737 43.6223 40.3738 43.7725 40.279 44.1256C40.1472 44.6165 39.9544 45.0904 39.7465 45.6909C40.8964 45.4048 41.9613 45.1402 43.1494 44.8447C42.9429 45.4413 42.7678 45.9657 42.58 46.4853C42.3267 47.1858 42.2363 48.0601 41.7557 48.5308C41.2787 48.998 40.4213 49.1511 39.702 49.2738C38.6313 49.4566 38.0896 50.0631 37.8449 51.0659C37.7405 51.4935 37.5562 51.9016 37.3678 52.4324C38.5499 52.1492 39.6208 51.8926 40.8404 51.6005C40.3535 52.8066 39.8863 53.8579 39.5078 54.9403C39.2812 55.5887 38.8875 55.8878 38.2418 56.0517C35.9477 56.6336 33.6664 57.2657 31.38 57.8774C31.1776 57.9314 30.9726 57.9752 30.683 58.0439C30.9201 57.3674 31.1254 56.764 31.3427 56.1652C33.1247 51.2583 34.9121 46.3533 36.6855 41.4435C36.8252 41.0569 37.0238 40.8361 37.435 40.7284C39.9706 40.0653 42.4992 39.3763 45.031 38.6982C45.1411 38.6688 45.2573 38.6611 45.5132 38.6212L45.5135 38.6208Z" fill="black"/>
<path d="M72.0094 51.7462C71.8519 52.1422 71.6638 52.563 71.5155 52.9973C70.8557 54.9281 70.2087 56.8634 69.5537 58.7958C69.4353 59.1454 69.4006 59.6576 69.1549 59.8046C68.4162 60.2466 67.688 60.8253 66.7205 60.6588C66.492 60.6195 66.2549 60.6291 66.0636 60.6186C67.0203 58.0202 67.9016 55.3921 68.7988 52.564C69.6444 52.0131 70.7399 51.4414 72.0094 51.7465V51.7462ZM70.4897 52.9203C69.9051 52.9161 69.6371 53.1411 69.4757 53.6518C68.9321 55.3729 68.3335 57.0765 67.7596 58.7881C67.7008 58.9635 67.6673 59.1479 67.618 59.3438C68.1616 59.4205 68.4127 59.2102 68.5645 58.7379C69.0505 57.2248 69.576 55.7245 70.0817 54.2177C70.2224 53.7991 70.3474 53.375 70.49 52.9206L70.4897 52.9203Z" fill="black"/>
<path d="M49.7177 61.8592C49.0303 61.873 48.7846 62.1625 48.6509 62.662C48.4736 63.3238 48.2066 63.961 48.0023 64.6161C47.9322 64.8411 47.9354 65.089 47.8988 65.3763C47.4724 65.4853 46.9851 65.6099 46.4542 65.7457C47.0993 64.6039 49.184 58.2012 49.0586 57.7691C49.5369 57.5154 50.0061 57.2351 50.5006 57.0114C51.3943 56.6078 51.7702 56.7197 52.3778 57.4547C52.1798 57.9251 52.0044 58.3629 51.8119 58.793C51.5032 59.4823 51.1827 60.1668 50.8666 60.8529C50.8425 60.9053 50.7852 60.9584 50.7906 61.0057C50.923 62.1631 50.2288 63.1042 49.9803 64.161C49.93 64.3751 49.9122 64.5972 49.8743 64.849C49.4373 64.966 48.972 65.0906 48.5382 65.2066C48.9278 64.1006 49.3113 63.0128 49.7177 61.8586V61.8592ZM49.3574 60.6618C49.3972 60.7088 49.4373 60.7554 49.4771 60.8024C49.7247 60.6458 50.0974 60.5452 50.197 60.3221C50.5258 59.5852 50.7562 58.8039 51.0242 58.0398C50.9793 57.9938 50.9341 57.9481 50.8892 57.9021C50.6308 58.0622 50.2393 58.1638 50.1391 58.3936C49.8202 59.1241 49.6101 59.9022 49.3578 60.6621L49.3574 60.6618Z" fill="black"/>
<path d="M62.7201 61.4839C62.3385 61.5881 61.8738 61.7146 61.4668 61.8258C61.8439 60.7422 62.2179 59.6675 62.6058 58.5535C62.0174 58.5337 61.7099 58.7203 61.5708 59.2575C61.3942 59.9401 61.1218 60.5968 60.9101 61.271C60.8452 61.4775 60.8446 61.7041 60.8048 61.9926C60.3847 62.1019 59.898 62.2285 59.4967 62.3326C60.3821 59.7135 61.2742 57.0758 62.2223 54.272C63.0578 54.0262 64.0358 52.6834 65.2191 54.0854C64.1857 56.4715 63.4833 58.928 62.7201 61.4842V61.4839ZM63.8697 54.7245C63.8251 54.6781 63.7809 54.6318 63.7363 54.5855C63.4983 54.7222 63.1291 54.8044 63.045 55.006C62.7204 55.7838 62.4871 56.6 62.2198 57.4018C62.2675 57.443 62.3156 57.4842 62.3633 57.5255C62.609 57.3439 62.9715 57.2139 63.0778 56.971C63.3955 56.2459 63.6128 55.4767 63.8697 54.7248V54.7245Z" fill="black"/>
<path d="M34.6633 68.783C34.2257 68.8945 33.7209 69.0236 33.317 69.1265C33.5793 68.3963 33.8501 67.6463 34.1178 66.895C34.2957 66.3955 34.4427 65.8829 34.6518 65.3972C34.8762 64.876 34.7954 64.4548 34.297 64.018C33.7075 65.7855 33.1318 67.5114 32.5179 69.3521C32.2152 69.4272 31.7467 69.5429 31.3667 69.6372C32.2483 66.987 33.1315 64.3331 34.0538 61.5605C34.2916 61.4957 34.725 61.3761 35.1595 61.2614C35.2136 61.247 35.2747 61.2595 35.4182 61.2595C34.6639 61.8277 35.1671 62.2831 35.4981 62.8822C35.6903 62.2438 35.8504 61.7126 36.0551 61.0333C36.3628 60.955 36.8797 60.8236 37.3507 60.7041C37.1887 61.069 37.0054 61.4091 36.8832 61.7698C36.183 63.8336 35.4943 65.9008 34.8113 67.9703C34.7365 68.1969 34.7231 68.4439 34.663 68.7833L34.6633 68.783Z" fill="black"/>
<path d="M51.9831 61.2275C52.2976 61.472 52.6168 61.72 52.9089 61.9472C52.7138 62.4176 52.5382 62.841 52.3326 63.3363C52.9424 63.336 53.2616 63.1398 53.4026 62.626C53.5318 62.1552 53.7189 61.7008 53.8981 61.1886C53.3774 60.8719 52.8666 60.5609 52.3307 60.2353C52.6582 59.2811 52.9767 58.3569 53.2918 57.4315C53.3921 57.1368 53.393 56.6942 53.5942 56.5683C54.28 56.1391 54.9589 55.6266 55.8443 55.6703C56.1753 55.6866 56.5079 55.6729 56.7765 55.6729C56.3806 56.8332 55.984 57.9949 55.5773 59.1875C55.2772 58.9318 54.9961 58.6925 54.717 58.4547C54.9092 57.9543 55.0964 57.466 55.3039 56.9256C54.781 56.9058 54.4458 57.0135 54.3042 57.5388C54.1569 58.0856 53.9353 58.6119 53.7221 59.2156C54.0741 59.4207 54.4147 59.6454 54.7778 59.8227C55.1444 60.002 55.2399 60.218 55.0916 60.6181C54.8052 61.3896 54.5668 62.1795 54.3182 62.9647C54.2492 63.1826 54.2145 63.4114 54.1562 63.6687C53.1461 64.2458 52.1085 64.9108 50.8889 64.4995C51.2377 63.4555 51.6006 62.3693 51.9825 61.2269L51.9831 61.2275Z" fill="black"/>
<path d="M28.3779 70.3989C27.9425 70.5118 27.4925 70.6284 27.0908 70.7322C27.7369 68.789 28.3925 66.8515 29.0195 64.905C29.1586 64.4736 29.1933 64.0086 29.2878 63.5616C29.3024 63.4929 29.3706 63.4267 29.4288 63.3775C29.9059 62.9736 30.3518 62.5185 30.8744 62.1859C31.6605 61.6854 32.1894 61.8286 32.7165 62.4831C31.8855 64.9552 31.0758 67.365 30.2162 69.9228C29.953 69.9947 29.4705 70.1267 29.023 70.2491C29.4132 69.1351 29.7932 68.0508 30.1882 66.9234C29.6261 66.8604 29.3056 67.0154 29.1548 67.5539C28.9543 68.2713 28.6786 68.9673 28.4575 69.6796C28.3941 69.8835 28.4072 70.111 28.3779 70.3989ZM29.7439 65.935C30.1312 65.7592 30.5513 65.7042 30.6363 65.5055C30.9577 64.7513 31.1707 63.9508 31.424 63.1676C31.3734 63.1251 31.3231 63.0829 31.2725 63.0404C31.0109 63.2002 30.6092 63.3015 30.5134 63.5309C30.2108 64.2557 30.023 65.0287 29.7439 65.935Z" fill="black"/>
<path d="M58.3322 62.6348C58.0219 62.7163 57.5528 62.8393 57.1288 62.9505C57.5225 61.8583 57.921 60.7526 58.3341 59.6057C57.8036 59.5727 57.4691 59.6884 57.3166 60.2151C57.1043 60.9494 56.8182 61.6624 56.5865 62.3916C56.5213 62.5971 56.5362 62.8281 56.5079 63.1122C56.0888 63.2257 55.6053 63.3564 55.1967 63.4669C55.9452 61.2287 56.7587 58.9934 57.4264 56.7152C57.7612 55.5728 58.5824 55.0714 59.5126 54.6659C60.1205 54.4009 60.5979 54.7719 60.8525 55.1791C60.0072 57.6793 59.1934 60.0869 58.3322 62.6348ZM57.8714 58.6383C58.2727 58.4754 58.6858 58.4361 58.7615 58.2545C59.0868 57.4758 59.3131 56.6551 59.5855 55.8182C58.9652 55.8108 58.6766 56.0473 58.5429 56.572C58.3793 57.215 58.1362 57.8372 57.8714 58.6383Z" fill="black"/>
<path d="M45.4633 65.9783C44.5285 66.3573 43.5321 67.2706 42.2628 66.7961C43.0588 64.4588 43.8751 62.0662 44.6867 59.6724C44.7911 59.3643 44.7781 58.8719 44.9776 58.7661C45.7252 58.3702 46.448 57.8339 47.3729 57.9177C47.6635 57.9439 47.9553 57.9538 48.2093 57.9688C48.0018 58.5041 47.7064 59.0419 47.5922 59.6161C47.4359 60.4013 46.9264 60.5643 46.2297 60.6467C46.3748 60.137 46.5056 59.6772 46.6463 59.1825C46.0772 59.1745 45.7733 59.3829 45.6367 59.9034C45.469 60.5441 45.2348 61.1673 44.9808 61.9467C45.5521 61.7467 46.0126 61.5856 46.4957 61.4166C46.3118 61.9189 46.1208 62.4398 45.9305 62.9591C45.0639 62.7661 44.5858 63.0367 44.3045 63.8705C44.1177 64.4243 43.9343 64.979 43.7313 65.5872C44.2765 65.5792 44.617 65.444 44.779 64.9087C45.1002 63.8491 45.1234 63.8561 46.2806 63.5122C46.0133 64.3179 45.757 65.0906 45.4627 65.978L45.4633 65.9783Z" fill="black"/>
<path d="M40.1485 65.4778C40.9216 64.6773 42.637 60.0986 42.5059 59.3546C42.9871 59.231 43.4709 59.1067 43.9374 58.9868C43.7608 59.4058 43.573 59.7838 43.4387 60.1804C42.9597 61.5929 42.5775 63.0449 42.0008 64.4149C41.6749 65.1892 41.0314 65.8264 40.5511 66.5394C40.4082 66.7512 40.335 67.0107 40.1794 67.3629C39.8754 67.4402 39.4286 67.554 39.104 67.6367C39.0728 67.1673 39.1164 66.7279 39.0002 66.3364C38.829 65.7599 38.8579 65.2423 39.0591 64.6814C39.5432 63.3329 39.9852 61.9687 40.4337 60.6073C40.5018 60.4002 40.5123 60.1743 40.5626 59.8787C40.9642 59.7691 41.4473 59.6368 41.8764 59.5198C41.5498 60.4651 41.1822 61.4174 40.8942 62.3937C40.6097 63.3588 40.039 64.266 40.1485 65.4781V65.4778Z" fill="black"/>
<path d="M66.5356 53.1149C66.8173 53.0466 67.2654 52.9376 67.6594 52.842C66.7845 55.4465 65.914 58.0385 65.0051 60.7448C64.718 60.8186 64.2721 60.9334 63.8517 61.0417C64.7416 58.413 65.6206 55.8172 66.5353 53.1153L66.5356 53.1149Z" fill="black"/>
<path d="M35.729 68.4026C36.6068 65.7911 37.4836 63.1816 38.4034 60.4452C38.6787 60.3749 39.1236 60.2611 39.5094 60.1624C38.6414 62.7793 37.7783 65.3808 36.8776 68.0968C36.5804 68.176 36.1179 68.2991 35.729 68.4026Z" fill="black"/>
</svg>
