<svg width="188" height="58" viewBox="0 0 188 58" fill="none" xmlns="http://www.w3.org/2000/svg">
<g clip-path="url(#clip0_407_1655)">
<path d="M99.3999 38.7012C100.883 35.5542 103.323 33.2879 106.129 31.3726C109.545 29.0406 113.403 27.8746 117.483 27.496C118.985 27.3566 120 26.9018 120.941 25.6583C125.06 20.2174 129.308 14.8724 133.508 9.49065C133.688 9.25929 133.851 9.01479 134.186 8.54681C133.622 8.42982 133.206 8.22343 132.838 8.28653C128.631 9.01216 124.431 9.77722 120.23 10.5397C119.972 10.587 119.722 10.6869 119.473 10.775C118.026 11.2863 117.947 11.6715 119.218 12.7547C118.08 12.7547 117.052 12.8848 116.083 12.7021C115.56 12.6035 115.043 12.0382 114.704 11.5571C114.446 11.189 114.45 10.6277 114.375 10.1466C113.936 7.34269 113.412 7.51883 116.819 6.27922C120.966 4.7688 125.316 4.14702 129.7 3.77632C135.032 3.32412 140.386 3.01257 145.695 3.7829C149.115 4.27979 152.515 5.0843 155.837 6.04654C158.035 6.68278 159.541 8.3286 160.108 10.6435C160.516 12.3077 159.879 13.6643 158.796 14.8698C155.901 18.0957 152.088 19.5022 147.94 20.2252C146.796 20.425 145.643 20.5789 144.455 20.7603C145.729 21.1073 147.017 21.2979 148.165 21.8014C151.994 23.4801 153.649 26.7546 154.129 30.6312C154.389 32.7213 154.175 34.8693 154.175 36.87C155.059 36.1115 156.042 35.1493 157.145 34.3474C159.527 32.6161 162.216 31.7893 165.164 32.2678C168.063 32.7384 170.184 35.0691 170.732 38.3699C171.858 45.1556 167.687 53.4964 160.046 55.6969C158.632 56.1045 157.042 56.1873 155.567 56.0532C152.784 55.7995 150.862 53.7567 150.098 50.6307C149.611 48.6405 149.756 46.8054 150.676 43.239C149.905 43.9699 149.115 44.7297 148.313 45.4763C143.159 50.2823 137.076 53.4543 130.344 55.4406C124.635 57.1245 118.807 58.1026 112.859 57.2284C107.947 56.5067 103.519 54.6427 100.419 50.5308C98.9696 48.6076 98.3289 46.3834 98.2441 43.9344C97.4273 47.7308 96.6091 51.5272 95.779 55.3841H91.9913C92.3607 53.574 92.7168 51.7914 93.0901 50.0115C95.738 37.3695 98.3911 24.7276 101.038 12.0843C101.106 11.7556 101.162 11.4125 101.147 11.0799C101.092 9.73384 100.315 9.20277 99.0213 9.62342C97.3399 10.1703 96.2847 11.4769 95.2865 12.8007C91.9807 17.1873 89.5685 22.0853 87.2279 27.0122C83.3819 35.1072 80.1065 43.4125 78.0968 52.1661C77.8545 53.2203 77.6679 54.2864 77.4468 55.3828H73.8166C74.1979 53.6555 74.5659 51.9939 74.93 50.331C77.7831 37.2736 80.648 24.2175 83.464 11.1522C83.7049 10.0375 83.7261 8.84258 83.6387 7.70024C83.5633 6.71828 82.5942 6.14513 81.719 6.60523C80.7102 7.1363 79.618 7.79752 78.9905 8.69667C77.0999 11.4086 75.265 14.181 73.6789 17.0756C67.152 28.9933 62.0497 41.488 58.6525 54.6453C58.5056 55.2119 58.2911 55.48 57.6688 55.4432C56.8374 55.3946 56.002 55.4288 55.168 55.4209C55.0594 55.4209 54.9495 55.3736 54.6861 55.3118C55.1203 53.4543 55.5718 51.61 55.9795 49.7565C58.3599 38.9417 60.8807 28.1533 63.0214 17.2912C63.784 13.4198 63.637 9.3684 63.8568 5.39584C63.8886 4.81481 63.7125 4.19961 63.5285 3.63435C63.0227 2.08056 61.5651 1.53634 60.3299 2.60638C59.4508 3.36881 58.7147 4.4073 58.209 5.46288C56.2906 9.46042 55.4407 13.784 54.5523 18.0865C54.3471 19.079 54.1843 20.078 53.9672 21.2585C53.3953 20.8286 52.8776 20.4408 52.2382 19.9623C49.7082 31.834 47.1993 43.6058 44.6839 55.4077H40.8829C41.3887 52.9864 41.8799 50.6136 42.379 48.2422C44.8997 36.264 47.439 24.2898 49.9054 12.3012C50.0696 11.5059 49.9716 10.2978 49.4712 9.81009C48.6887 9.04765 47.4747 9.5853 46.8088 10.2597C45.285 11.8069 43.6817 13.3725 42.563 15.2024C35.4178 26.8966 30.0811 39.3571 26.868 52.6853C26.6522 53.5818 26.6787 55.0213 26.1584 55.2553C25.2237 55.6772 23.958 55.3736 22.7202 55.3736C23.4497 52.0819 24.1672 48.8653 24.8729 45.6459C27.3989 34.1305 29.9276 22.6164 32.4337 11.097C32.6164 10.2583 32.7568 9.36972 32.6694 8.52841C32.6032 7.89085 32.2908 7.12447 31.8221 6.71959C31.131 6.12279 30.2043 6.48429 29.6522 7.0364C28.4077 8.28259 27.0706 9.52352 26.1624 11.0024C17.8389 24.5527 11.6867 39.0324 7.64479 54.389C7.43693 55.1777 7.147 55.53 6.28778 55.4498C5.42723 55.3696 4.55345 55.4327 3.5539 55.4327C4.13112 52.9956 4.71232 50.6754 5.22732 48.3394C7.47533 38.1478 9.79879 27.9719 11.8919 17.7486C12.7498 13.5592 13.2436 9.27244 12.7114 4.96336C12.5737 3.84862 12.4903 2.58271 11.1598 2.20938C9.73392 1.80976 8.77011 2.68788 8.05255 3.77764C6.32749 6.39621 5.49872 9.37366 4.75998 12.3629C4.0411 15.2733 3.45328 18.2166 2.78338 21.2558C1.93078 20.5499 1.07421 19.8835 0.279859 19.1499C0.0786239 18.9646 -0.0325848 18.5452 0.0084565 18.26C0.673061 13.5079 1.81692 8.89385 4.47004 4.78984C5.05786 3.88149 5.76086 3.0152 6.54726 2.27117C9.61345 -0.635294 14.0181 0.486014 15.0892 4.57557C15.6439 6.69199 15.8861 8.97272 15.7816 11.1562C15.583 15.2799 15.1183 19.3971 14.5967 23.4971C14.1743 26.8098 13.5031 30.0909 12.9484 33.3878C12.9179 33.5666 12.9444 33.7559 12.9444 34.1805C14.2988 31.0466 15.436 28.0678 16.846 25.2218C19.2317 20.4093 21.6836 15.6217 24.3261 10.9445C25.4395 8.97272 27.0057 7.21518 28.5679 5.5457C29.3503 4.70965 30.5286 4.14965 31.6275 3.71717C33.0745 3.14797 34.5083 3.69482 35.443 4.92786C36.4055 6.19509 36.7775 7.63452 36.4545 9.18437C34.8022 17.1242 33.1208 25.0575 31.4514 32.9947C31.4156 33.1669 31.4011 33.3418 31.3283 33.8505C33.0374 30.2565 34.5546 26.9478 36.1738 23.6877C38.5012 19.0001 40.9081 14.3466 44.3317 10.3228C45.1301 9.38418 46.0727 8.53104 47.0683 7.79883C49.2607 6.18589 51.7364 6.4764 53.5051 8.40615C54.3008 7.02062 55.0184 5.56542 55.9345 4.24562C56.5899 3.30177 57.412 2.40919 58.3321 1.723C61.0885 -0.332948 64.6604 0.631928 65.897 3.82759C66.4424 5.23678 66.7151 6.80898 66.7999 8.32334C67.1534 14.712 66.1088 20.9942 65.1211 27.2725C64.7888 29.3824 64.4009 31.483 64.2659 33.673C64.442 33.2655 64.622 32.8593 64.7928 32.4492C67.8484 25.1246 71.0073 17.8407 75.2888 11.1246C76.671 8.95695 78.5112 7.07715 80.1449 5.06852C80.2151 4.98176 80.3104 4.9134 80.4031 4.84768C81.9031 3.77895 83.4984 2.94027 85.3307 3.93144C87.2212 4.95547 87.8474 6.76691 87.5509 8.74005C87.0994 11.7438 86.4375 14.7173 85.8113 17.6934C84.7521 22.7268 83.6493 27.751 82.5703 32.7805C82.5346 32.9461 82.5663 33.1262 82.5663 33.5955C83.6361 31.295 84.5549 29.2457 85.5332 27.2252C88.287 21.5358 90.9811 15.8057 94.9939 10.842C95.8849 9.7391 96.9745 8.77291 98.0694 7.85667C99.3734 6.76429 100.954 6.59208 102.581 6.93518C104.006 7.23621 105.111 8.64014 104.997 10.4647C104.872 12.4747 104.482 14.4794 104.068 16.4564C102.544 23.7311 100.961 30.9953 99.4052 38.2634C99.3747 38.4028 99.4012 38.554 99.4012 38.6999L99.3999 38.7012ZM116.766 31.0163C116.723 30.9414 116.68 30.8665 116.637 30.7916C115.806 30.9585 114.968 31.0965 114.146 31.2977C108.73 32.6227 104.134 35.1821 101.24 40.1104C98.8187 44.2341 99.0438 45.7406 102.843 49.6842C102.895 49.7381 102.961 49.7789 103.019 49.8275C106.008 52.2936 109.557 53.2243 113.329 53.4215C121.201 53.8342 128.646 52.007 135.843 49.0072C140.948 46.879 145.622 44.0435 149.595 40.1998C150.735 39.0969 151.687 37.7008 152.388 36.2745C154.5 31.9852 153.229 28.0442 148.921 25.9501C143.854 23.4866 138.408 22.69 132.801 23.2277C131.713 23.3315 130.489 23.6601 129.65 24.3003C128.635 25.0759 127.961 26.2945 127.101 27.3685C128.615 27.868 130.048 28.3136 131.464 28.8132C135.295 30.1645 137.997 32.6556 139.254 36.5585C139.391 36.987 139.385 37.4629 139.444 37.9164C137.996 35.9814 136.36 34.5459 134.322 33.4995C131.542 32.0719 128.546 31.6013 125.489 31.2293C124.266 31.0808 123.571 31.4199 122.86 32.3585C121.221 34.5209 119.368 36.5269 117.774 38.7196C115.452 41.9166 112.112 44.4365 111.115 48.5353C110.974 49.1176 110.482 49.0703 110.063 48.6418C108.322 46.8619 107.962 43.9804 109.303 41.8784C110.902 39.3716 112.533 36.8845 114.201 34.4223C114.997 33.2471 115.909 32.1495 116.768 31.0163H116.766ZM153.733 48.7575C153.733 49.3214 153.688 49.888 153.741 50.4467C154.001 53.2033 155.484 54.8412 157.913 54.9279C159.864 54.9976 161.249 53.8566 162.43 52.4803C164.828 49.6868 166.025 46.3518 166.7 42.8052C167.109 40.6572 167.415 38.4974 166.726 36.3429C166.009 34.1003 164.209 33.0868 161.897 33.514C160.001 33.8637 158.703 35.0349 157.671 36.5072C155.094 40.18 153.954 44.334 153.736 48.7575H153.733ZM133.165 19.848C133.223 19.9794 133.281 20.1109 133.34 20.241C142.475 19.8769 150.147 15.6769 157.751 10.9301C156.84 9.53272 155.558 9.03714 154.189 8.71376C149.501 7.60822 144.724 7.73442 139.958 7.73836C139.861 7.73836 139.763 7.82249 139.63 7.88428C139.672 8.0762 139.68 8.26944 139.757 8.42982C140.503 9.98361 140.101 11.2298 138.993 12.5233C136.965 14.8921 135.098 17.3976 133.164 19.8466L133.165 19.848Z" fill="black"/>
<path d="M183.786 55.3804C183.591 55.4475 183.555 55.4685 183.52 55.4711C181.153 55.6166 179.486 54.6083 178.521 52.4463C177.591 50.3667 176.66 48.2898 175.664 46.059C173.51 48.6749 171.454 51.1699 169.399 53.6649C169.375 53.6938 169.354 53.7254 169.33 53.7543C168.189 55.1828 166.61 55.7831 164.593 55.5552C164.909 55.1911 165.154 54.8901 165.419 54.6075C168.386 51.4407 171.342 48.2648 174.34 45.127C174.847 44.5959 174.86 44.1949 174.561 43.5666C172.916 40.1133 171.318 36.6376 169.657 33.0647C170.625 32.6256 171.54 32.2102 172.562 31.7449C174.162 34.9813 175.754 38.1993 177.409 41.5474C179.425 39.1221 181.344 36.8138 183.263 34.5041C183.336 34.4173 183.401 34.324 183.472 34.2373C184.567 32.8885 186.077 32.318 188 32.5257C187.119 33.4945 186.305 34.4042 185.475 35.2994C183.296 37.6524 181.126 40.0147 178.914 42.3375C178.376 42.9027 178.24 43.3405 178.601 44.0963C180.223 47.4839 181.768 50.907 183.337 54.3196C183.489 54.6508 183.622 54.9913 183.784 55.3804H183.786Z" fill="black"/>
</g>
<defs>
<clipPath id="clip0_407_1655">
<rect width="188" height="56.9147" fill="white" transform="translate(0 0.640137)"/>
</clipPath>
</defs>
</svg>
