<svg width="98" height="91" viewBox="0 0 98 91" fill="none" xmlns="http://www.w3.org/2000/svg">
<path d="M17.0014 56.3325C9.59025 55.489 4.74561 51.0687 4.74561 51.0687C4.74561 51.0687 13.0397 52.8662 18.2846 52.3634C26.7846 51.5491 31.9482 48.4569 34.3083 47.0996C36.6683 45.7424 45.2062 39.81 50.6057 36.2823C56.1823 32.6387 62.1784 29.9054 68.7167 28.5178C74.1958 27.3549 79.6634 27.285 85.0786 28.904C87.6006 29.6582 89.9371 30.8048 91.9956 32.4814C96.2173 35.9198 97.955 40.4701 97.7022 45.8292C97.3609 53.0521 93.6815 57.9412 87.0234 60.3751C80.5404 62.7453 74.0772 62.6876 67.8867 59.228C66.0588 58.2066 64.5498 56.8086 63.2455 54.8806C63.6434 55.0111 63.8534 55.0737 64.0599 55.1484C67.209 56.2846 70.4087 57.0795 73.7907 56.559C75.9557 56.2257 77.8716 55.3342 79.6231 53.997C83.1911 51.274 83.5029 45.3197 79.5045 42.3295C77.3858 40.7452 74.9813 39.9806 72.4033 39.7152C66.6071 39.1189 61.1588 40.5569 55.9638 42.938C51.5441 44.9639 40.3994 51.1871 35.8425 53.0071C31.2855 54.8271 24.4125 57.1748 17.0014 56.3313V56.3325Z" fill="black"/>
<path d="M52.5668 13.8337C52.0744 15.2371 52.0239 16.5992 53.3023 17.5745C54.6114 18.5728 55.9572 18.2443 57.1725 17.3729C57.7033 17.7354 58.1626 18.1338 58.6898 18.3913C59.7757 18.922 60.8476 18.715 61.8997 18.2C62.1387 18.0834 62.4517 18.121 62.7304 18.0876C62.693 18.367 62.7508 18.7228 62.6009 18.9117C62.0177 19.6471 61.3695 20.3297 60.6875 21.0961C62.3686 21.7191 63.9083 21.1392 65.3703 20.1742C66.1497 22.616 63.2077 25.3512 59.072 26.1674C58.9902 26.8165 58.8782 27.4882 58.8295 28.1641C58.7958 28.6317 58.6158 28.8776 58.1668 29.0567C53.9589 30.7346 50.0238 32.9293 46.3323 35.5612C45.7714 35.9614 45.4181 35.9438 44.8457 35.5746C43.247 34.5428 41.5762 33.6258 39.9595 32.622C39.6784 32.4477 39.3618 32.087 39.3311 31.7852C38.9405 27.9133 39.0139 24.0711 40.255 20.3297C40.8738 18.4648 41.7279 16.7401 43.1537 15.3549C43.2272 15.2833 43.3235 15.2359 43.6184 15.0337C42.7451 17.8976 42.2365 20.6096 42.5157 23.4687C42.6241 23.2494 42.736 23.0326 42.8395 22.811C44.4279 19.4139 46.6405 16.5567 49.9106 14.6578C50.6846 14.2084 51.5628 13.9406 52.3928 13.5896C52.4506 13.671 52.5078 13.7517 52.5656 13.8331L52.5668 13.8337Z" fill="black"/>
<path d="M22.8387 41.8021C21.9178 40.794 21.7998 40.2159 19.7757 38.699C17.7515 37.182 10.979 36.3792 8.30657 39.6074C4.38704 44.3417 9.41045 49.9675 9.41045 49.9675C9.41045 49.9675 1.73689 48.909 0.466898 40.5542C-0.52683 35.8539 2.34361 31.8095 8.41672 28.7458C14.1443 26.086 22.3012 28.189 24.2056 28.7458C26.11 29.3027 35.7987 33.0344 43.0858 37.5464C43.0431 37.6429 32.8946 44.7182 27.1645 46.701C24.967 47.4613 22.7159 47.924 20.3727 47.7606C19.1003 47.672 17.9188 47.321 16.8854 46.5418C15.8664 45.7736 15.5094 44.7316 15.7303 43.4976C15.9494 42.2734 16.8547 41.7645 17.9381 41.4693C19.0799 41.1584 20.197 41.2811 21.3021 41.6436C21.7324 41.7845 22.1586 41.94 22.5865 42.0894L22.8381 41.8021H22.8387Z" fill="black"/>
<path d="M77.1762 46.5439C79.5224 49.9695 75.7684 51.9188 75.7684 51.9188C75.7684 51.9188 76.1368 49.9306 73.9465 49.3568C71.9957 48.8454 68.7846 49.0507 60.6422 52.2808C59.0406 52.9755 45.6815 59.104 41.1547 60.2178C38.0639 61.0746 30.7545 62.4306 25.5199 62.0973C21.1176 61.8167 16.8767 60.8517 12.921 58.8107C12.3317 58.5065 11.7768 58.1342 11.2778 57.6278C11.4211 57.6472 23.9579 62.172 39.0601 56.1138C43.8066 54.0892 60.449 45.6245 66.8249 44.5107C72.7595 43.3132 76.1181 44.9996 77.1756 46.5439H77.1762Z" fill="black"/>
<path d="M92.4627 88.6912C91.9433 89.0239 91.4931 89.3197 91.0362 89.6033C89.9498 90.2779 88.7911 90.6654 87.4911 90.6047C85.5674 90.5148 84.2866 89.0294 84.5051 87.0922C84.7994 84.481 86.6237 82.8656 89.4623 82.7077C89.7048 82.6944 89.9492 82.7059 90.2929 82.7059C90.2929 82.0209 90.2862 81.1574 90.264 80.7378C90.2417 80.3181 89.874 80.2404 89.6609 80.238C89.4514 80.2355 89.1547 80.5088 89.0457 80.7341C88.864 81.1106 88.9121 81.7835 88.6629 81.9019C88.241 82.1029 87.659 82.0112 87.151 81.9669C85.8894 81.8557 85.6125 81.4501 86.088 80.2519C86.8139 78.4247 88.3084 77.6036 90.1592 77.4634C91.9156 77.3304 93.4823 77.9048 94.7613 79.1546C95.5962 79.9702 96.0422 80.9624 96.0006 82.1673C95.9212 84.467 95.8441 86.7679 95.8207 89.0689C95.8128 89.8365 95.4926 90.1061 94.7914 90.0618C94.656 90.0533 94.52 90.0612 94.3839 90.0593C93.455 90.0492 92.8146 89.5927 92.4627 88.6899V88.6912ZM91.1662 86.0228C91.1662 85.4319 90.5866 85.2188 90.3488 85.1915C89.8968 85.1386 89.3967 85.3226 89.3738 85.9092C89.3515 86.4831 89.8011 86.6398 90.2568 86.5791C90.5053 86.5457 91.1662 86.6143 91.1662 86.0234V86.0228Z" fill="black"/>
<path d="M40.34 88.898C39.9861 89.1123 39.5521 89.3789 39.1145 89.6389C37.8843 90.3688 36.5902 90.7574 35.1505 90.4155C33.73 90.0785 32.8079 88.7595 32.9818 87.293C33.2725 84.8414 34.9825 83.3226 37.5905 83.2054C37.8536 83.1933 38.1178 83.2036 38.4506 83.2036C38.4506 82.5569 38.5108 81.9788 38.423 81.4249C38.3838 81.1784 38.4031 80.8213 37.8463 80.7582C37.2896 80.695 37.3413 81.1413 37.2017 81.3958C37.0193 81.7286 36.97 82.4348 36.8321 82.4433C36.0894 82.4877 34.8784 82.3006 34.5931 82.266C34.3078 82.2314 34.3313 81.7589 34.3445 81.4948C34.4179 80.0367 35.765 78.7274 37.493 78.4111C39.2385 78.0916 40.8323 78.459 42.251 79.546C43.4307 80.4497 44.0609 81.6053 43.97 83.1471C43.8478 85.224 43.7678 87.3033 43.6992 89.3832C43.6823 89.8957 43.4969 90.1617 42.9901 90.155C42.4219 90.1471 41.7996 90.2552 41.303 90.0542C40.9178 89.8982 40.6909 89.3449 40.3388 88.8986L40.34 88.898ZM38.9472 86.7804C39.0188 86.6736 39.2825 85.6424 38.5048 85.5289C38.0853 85.4675 37.5743 85.6108 37.6357 86.2284C37.7181 87.0513 38.875 86.8873 38.9466 86.7804H38.9472Z" fill="black"/>
<path d="M71.436 83.1128C72.2516 83.2944 73.0834 83.4232 73.8797 83.6679C76.1206 84.3559 76.8236 87.0674 75.2316 88.8109C74.2288 89.9088 72.9094 90.3254 71.4974 90.3642C70.5867 90.3897 69.6682 90.2039 68.757 90.0831C68.0275 89.9859 68.0853 89.4187 68.1178 88.8874C68.1509 88.3499 68.2881 87.9473 68.955 87.9103C69.7176 87.8678 70.4754 87.7281 71.2356 87.6303C71.2476 87.5338 71.2597 87.4372 71.2717 87.3407C71.0057 87.2156 70.7498 87.0546 70.4718 86.9726C69.8482 86.7893 69.2006 86.6854 68.586 86.4789C66.5781 85.8049 65.7192 84.1264 66.2886 82.0781C66.7719 80.3382 67.951 79.2227 69.5099 78.4861C71.1694 77.7027 72.9203 77.4592 74.7458 77.7082C75.4458 77.8035 75.6836 78.163 75.5915 78.8237C75.4404 79.9071 75.2761 80.9886 75.1425 82.0744C75.0739 82.6307 74.8427 82.8876 74.2469 82.8608C73.3163 82.8183 72.3828 82.8493 71.4505 82.8493C71.4456 82.9373 71.4402 83.0248 71.4354 83.1128H71.436Z" fill="black"/>
<path d="M53.4008 72.6234C53.4008 73.3898 53.4008 74.1562 53.4008 74.9226C53.4008 75.4199 53.1715 75.6889 52.6617 75.6811C52.5804 75.6798 52.4992 75.6896 52.4179 75.692C50.9583 75.7339 50.809 75.6015 50.7055 74.1325C50.6417 73.2313 50.5881 72.3289 50.5328 71.4271C50.5033 70.9516 50.3835 70.5041 49.8099 70.5399C49.217 70.577 49.072 71.0555 49.1141 71.5559C49.1899 72.4552 49.2868 73.3546 49.4301 74.2455C49.5119 74.7568 49.3049 74.9857 48.8559 75.0185C48.1541 75.0701 47.4408 75.1479 46.7505 75.0635C46.5157 75.0349 46.2226 74.5758 46.1528 74.2685C45.9836 73.5252 45.962 72.7492 45.8127 72.0004C45.7658 71.7648 45.7628 71.2996 45.3366 71.3621C44.9105 71.4247 45.017 71.8498 45.014 72.0957C45.0038 72.9162 45.0658 73.7372 45.1019 74.5582C45.1338 75.2857 44.7708 75.5748 44.0708 75.6203C43.369 75.6659 43.2035 75.3209 43.1445 74.7009C43.0145 73.34 42.8068 71.987 42.6522 70.628C42.3608 68.0635 43.3257 66.4906 45.835 65.9265C47.179 65.6247 48.6242 65.6581 50.0151 65.7267C51.3507 65.7929 52.2108 66.6941 52.761 67.8867C53.3701 69.2076 53.544 70.3687 53.4026 72.6234H53.4008Z" fill="black"/>
<path d="M13.6784 72.6802C13.6314 73.4727 13.6188 74.27 13.5141 75.0546C13.4858 75.2641 13.4238 75.4773 13.0602 75.5793C12.6479 75.6607 12.7792 75.6461 12.6708 75.6546C10.9801 75.784 10.9241 75.7244 10.8766 74.0435C10.8513 73.1678 10.7863 72.2934 10.7351 71.4183C10.708 70.9616 10.6509 70.4874 10.055 70.4916C9.3935 70.4965 9.36822 71.0266 9.3947 71.4972C9.44406 72.3711 9.50485 73.2474 9.63666 74.1115C9.72213 74.6702 9.47897 74.8603 9.0143 74.9374C8.96074 74.9465 8.90656 74.9496 8.853 74.9587C7.33863 75.2008 6.48835 74.5599 6.30217 73.0361C6.25522 72.6559 6.23476 72.2636 6.11618 71.9053C6.04335 71.6861 6.0572 71.2926 5.6437 71.3345C5.23019 71.3764 5.30302 71.7499 5.29881 71.9606C5.28196 72.8636 5.29941 73.7696 5.36201 74.6708C5.41859 75.487 4.87508 75.5137 4.32073 75.5927C3.67731 75.6838 3.45581 75.3595 3.39682 74.7656C3.2608 73.4047 3.08625 72.0474 2.93457 70.6877C2.61617 67.8409 4.19012 65.9778 7.28506 65.5818C7.95377 65.4962 8.64233 65.4731 9.31405 65.5241C11.5597 65.693 12.7942 66.7004 13.3046 68.934C13.5821 70.1485 13.7109 72.6741 13.679 72.6796L13.6784 72.6802Z" fill="black"/>
<path d="M4.38565 83.0732C3.25289 82.9708 2.71479 82.3431 2.77137 81.1901C2.84601 79.6707 2.84179 79.5936 4.32005 79.5043C5.80371 79.4144 7.31628 79.3543 8.78369 79.5389C12.0243 79.9476 13.6271 82.4435 12.7887 85.6256C11.8317 89.257 8.40932 90.8104 4.9081 89.9354C4.27551 89.7775 4.23036 89.3123 4.24481 88.7931C4.29176 87.1498 4.33931 85.5072 4.38445 83.8639C4.39167 83.5979 4.38565 83.3313 4.38565 83.0732ZM8.96547 86.3756C8.97931 85.6371 8.5959 85.1513 7.9904 85.1306C7.30183 85.107 7.17603 85.5934 7.20854 86.1047C7.24345 86.6543 7.07552 87.3921 7.95549 87.4765C8.54775 87.533 8.95283 87.0666 8.96547 86.3756Z" fill="black"/>
<path d="M51.21 90.0292C47.4505 89.5434 46.7764 86.4846 47.5197 83.6092C48.4057 80.1818 50.9337 78.5512 54.1941 77.9197C56.1455 77.542 56.4157 77.8523 56.1768 79.8253C56.0781 80.6402 55.9752 81.4558 55.9246 82.2744C55.8885 82.8622 55.6808 83.1981 55.0549 83.2139C54.7046 83.223 54.3543 83.2898 54.007 83.3475C53.3467 83.458 52.6918 83.5849 52.634 84.4581C52.5763 85.332 53.0361 86.1257 53.7951 86.3085C54.2339 86.4142 54.7124 86.4336 55.1626 86.388C55.7862 86.3249 56.1022 86.5848 56.1539 87.1739C56.2039 87.7447 56.2809 88.3362 56.181 88.8882C56.1292 89.176 55.7603 89.5477 55.4684 89.6236C54.4782 89.8817 53.564 90.158 52.7496 90.158C51.9352 90.158 51.6132 90.0821 51.2106 90.0298L51.21 90.0292Z" fill="black"/>
<path d="M17.8595 79.0415C20.1371 79.0415 21.6376 81.0078 21.1097 82.9074C21.0435 83.1448 20.6222 83.412 20.3459 83.4369C19.348 83.5268 18.3392 83.4879 17.3395 83.5663C17.0361 83.59 16.5414 83.7903 16.4986 83.9895C16.4101 84.4043 16.4547 84.929 16.6467 85.3031C16.8844 85.7658 17.5622 85.6346 17.7644 85.0201C18.0413 84.179 18.5661 84.063 19.3053 84.1553C20.3808 84.2889 21.4606 84.3855 22.538 84.4984C23.2609 84.5743 23.4848 85.011 23.4294 85.6947C23.2278 88.2003 20.8714 90.2584 18.2038 90.2444C15.5205 90.2304 13.5325 88.3795 13.3507 85.7124C13.2351 84.015 13.6854 82.4507 14.5882 81.0394C15.4236 79.7338 16.6653 79.0828 17.8589 79.0421L17.8595 79.0415ZM18.9832 81.7979C18.9832 81.402 18.4608 81.1997 18.2983 81.2125C18.1051 81.2277 17.7506 81.2368 17.7506 81.6728C17.7506 82.1088 18.0124 82.0876 18.1665 82.1064C18.3639 82.1307 18.9832 82.1932 18.9832 81.7973V81.7979Z" fill="black"/>
<path d="M87.3003 74.0822C87.3003 74.0822 85.6265 75.0362 84.7989 75.3386C83.057 75.9757 81.551 75.4898 80.9883 74.2164C80.3099 72.6794 80.9293 70.5679 82.4461 69.8034C83.3357 69.3552 84.3757 69.2119 85.4682 68.8967C85.4682 68.55 85.5163 68.0344 85.4435 67.5364C85.4158 67.347 85.358 67.0191 84.9247 67.0652C84.4913 67.1114 84.4215 67.2723 84.3535 67.5012C84.2855 67.7302 84.2126 68.4079 84.0242 68.4395C83.4542 68.536 82.6188 68.4832 82.2649 68.3471C81.911 68.2111 81.9212 67.8261 81.9399 67.5613C82.0404 66.1488 83.246 65.0102 84.9295 64.8025C86.4523 64.6143 87.8378 65.0187 88.97 66.113C89.7115 66.8296 90.0853 67.7022 90.0378 68.7589C89.9559 70.591 89.8921 72.4237 89.8355 74.2565C89.8187 74.8012 89.7573 75.256 89.0525 75.2275C88.3476 75.199 87.5453 75.3726 87.3714 74.466C87.3461 74.3348 87.3003 74.0834 87.3003 74.0834V74.0822ZM86.1772 71.8462L86.0749 71.1351C86.0749 71.1351 85.9389 71.1096 85.5284 71.228C85.1179 71.3464 84.7923 71.426 84.7923 71.8007C84.7923 72.1754 85.083 72.2762 85.4158 72.278C85.7487 72.2798 86.1772 71.8462 86.1772 71.8462Z" fill="black"/>
<path d="M83.1327 83.5525C83.0761 84.8284 83.0123 86.0259 82.981 87.2241C82.9762 87.4129 83.0659 87.6656 83.2019 87.7864C83.8152 88.3299 83.9579 88.9736 83.6389 89.9161C83.4083 90.5987 82.8257 90.5592 82.2972 90.5805C79.9932 90.6709 78.781 89.5621 78.7551 87.2107C78.74 85.8504 78.9122 84.4883 79.0127 82.9362C78.2651 82.9362 77.517 82.9252 76.7688 82.9398C76.256 82.9501 76.0369 82.7485 76.0742 82.2074C76.1489 81.1162 76.1868 80.0225 76.2319 78.93C76.2542 78.3968 76.5407 78.197 77.0331 78.2687C79.6062 78.6434 82.1793 79.0205 84.7512 79.4061C85.2236 79.4772 85.4632 79.7711 85.4132 80.2684C85.3422 80.9753 85.2616 81.6815 85.1984 82.3896C85.1225 83.2368 84.6741 83.6011 83.8393 83.5131C83.6563 83.4936 83.4679 83.5319 83.1339 83.5525H83.1327Z" fill="black"/>
<path d="M38.8367 74.3726C38.6014 74.5329 38.4383 74.6264 38.2956 74.7443C36.0211 76.6316 32.565 75.3649 32.3218 71.963C32.2394 70.814 32.5024 69.628 32.7034 68.4754C32.8262 67.7722 34.7613 67.2469 35.2609 67.7637C35.4354 67.9441 35.4751 68.3175 35.4709 68.6011C35.4577 69.4762 35.3867 70.3507 35.3511 71.2257C35.3301 71.7431 35.4529 72.1907 36.0921 72.1506C36.8053 72.1063 36.6988 71.5573 36.623 71.1073C36.4033 69.8144 36.1535 68.527 35.9031 67.2396C35.7779 66.5965 35.9813 66.2783 36.6633 66.3955C38.2126 66.6609 39.766 66.9056 41.3033 67.2275C41.538 67.2767 41.8721 67.6999 41.8636 67.9398C41.7824 70.2098 41.6397 72.4779 41.5067 74.7461C41.4802 75.1942 41.3177 75.5701 40.7905 75.5574C40.194 75.5428 39.5139 75.759 39.1154 75.0667C39.0083 74.8809 38.9523 74.6647 38.8373 74.3726H38.8367Z" fill="black"/>
<path d="M67.3613 67.605C68.1727 67.3135 68.9106 66.9389 69.6906 66.7901C71.2718 66.4889 72.4599 67.4083 72.5298 69.0273C72.6062 70.8023 72.5358 72.584 72.5201 74.3621C72.5153 74.8935 72.2523 75.1868 71.7004 75.1255C70.9209 75.0386 70.1427 74.9445 69.3656 74.8382C68.6536 74.7411 68.3737 74.2492 68.2906 73.5909C68.2286 73.102 68.1961 72.6065 68.0908 72.1274C67.9752 71.5997 67.6592 71.2244 67.067 71.2742C66.4416 71.327 66.4825 71.8316 66.4994 72.2664C66.5247 72.9217 66.5764 73.5775 66.6414 74.2303C66.6896 74.7089 66.5397 74.9755 66.0269 74.9439C65.9727 74.9402 65.9186 74.9439 65.8638 74.9439C64.0407 74.9791 63.8974 74.8498 63.9233 73.0201C63.9504 71.1302 63.9943 69.2404 64.0515 67.3512C64.0822 66.3352 64.2128 66.2278 65.2053 66.2229C65.3137 66.2229 65.4226 66.2229 65.5309 66.2229C66.9291 66.229 67.017 66.297 67.3607 67.6038L67.3613 67.605Z" fill="black"/>
<path d="M26.3735 67.4166C27.369 67.1713 28.2899 66.8366 29.2343 66.7419C30.2208 66.6435 30.9948 67.2302 31.2525 68.1951C31.82 70.3181 31.5329 74.3589 31.4396 74.6364C31.3464 74.9139 31.0665 75.0566 30.8329 75.1095C30.4989 75.1854 30.1305 75.1295 29.779 75.1034C27.7049 74.9492 27.4539 74.7044 27.2131 72.6452C27.1879 72.4284 27.1788 72.477 27.1036 72.0118C27.0284 71.5466 26.462 71.294 26.1051 71.2612C25.5471 71.2096 25.4905 71.7713 25.5092 72.2255C25.5381 72.9367 25.5838 73.6484 25.65 74.3571C25.6885 74.7718 25.5603 74.9413 25.1264 74.9747C23.2665 75.1174 22.9854 74.8908 22.9945 73.035C23.0041 71.09 23.0715 69.1449 23.0793 67.1992C23.0823 66.4601 23.3971 66.1699 24.1122 66.1759C25.1715 66.185 26.3494 65.9391 26.3729 67.4166H26.3735Z" fill="black"/>
<path d="M62.2818 80.8594C63.9376 80.854 65.4044 81.8991 65.7836 83.7555C66.1977 85.7826 64.9795 88.0914 63.0095 88.9173C61.5391 89.5343 60.0325 89.53 58.5741 88.8845C56.0101 87.7501 55.4419 84.5219 57.442 82.5446C58.6259 81.3744 60.0704 80.8443 62.2818 80.8594ZM60.2029 85.2372C59.5925 85.3666 59.6136 85.6338 59.4998 85.9733C59.3229 86.501 59.9284 87.0469 60.6302 87.0651C61.1563 87.0791 61.6522 86.9236 61.6468 86.2781C61.6408 85.547 60.8126 85.1085 60.2029 85.2372Z" fill="black"/>
<path d="M26.7288 86.3143C26.5825 84.6444 27.1501 82.1114 27.3385 80.7305C27.3884 80.2216 27.6057 79.9939 28.1017 79.986C29.025 79.9702 29.9489 79.9095 30.871 79.9259C31.7107 79.9411 31.9183 80.2253 31.834 81.0615C31.6444 82.941 31.4591 84.8211 31.2695 86.7006C31.2147 87.2465 31.2659 87.6181 31.9833 87.6862C32.2602 87.7123 32.6562 88.2576 32.7152 88.5716C32.7742 88.8855 33.0408 90.4456 31.9972 90.5239C31.0293 90.6272 30.0518 90.7201 29.081 90.6988C28.1829 90.6788 27.5118 90.1365 27.2825 89.2724C27.005 88.2272 26.875 87.9849 26.7288 86.3143Z" fill="black"/>
<path d="M75.4878 70.1678C75.4685 70.1114 74.423 70.1484 73.9162 70.1739C73.4708 70.1958 73.2397 70.0063 73.2481 69.566C73.265 68.6916 73.2578 67.8116 73.3637 66.9469C73.3902 66.7295 73.6261 66.3426 74.0408 66.3991C74.4556 66.4556 79.5921 67.1102 80.1543 67.2797C80.7165 67.4491 80.4889 68.9418 80.4883 69.6468C80.5263 70.1053 80.3054 70.5583 79.7384 70.5134C78.9938 70.4539 78.8855 70.8717 78.8795 71.4674C78.8741 72.0139 78.7579 72.5647 78.7976 73.1052C78.8223 73.4447 79.0968 73.758 79.1666 74.1023C79.2749 74.6398 79.4013 75.2082 79.3213 75.7328C79.2882 75.9515 78.7585 76.2041 78.4293 76.2478C76.3593 76.5235 75.288 75.5792 75.2838 73.4507C75.2819 72.3935 75.5071 70.2243 75.4878 70.1678Z" fill="black"/>
<path d="M49.275 9.28069C49.7216 9.43008 50.6154 9.72946 50.6154 9.72946C50.6154 9.72946 50.0677 10.6021 49.6764 10.8493C48.1536 11.8094 46.4689 12.2964 44.6651 12.3189C44.4231 12.3219 44.148 12.3328 43.9476 12.2259C43.7309 12.1106 43.4902 11.8834 43.4396 11.6624C43.4029 11.5033 43.6214 11.1547 43.7923 11.0995C44.5068 10.8681 44.4237 10.361 44.251 9.86002C43.8332 8.64852 43.4143 7.43459 42.9159 6.25588C42.6018 5.51319 42.7727 4.99398 43.3686 4.54885C44.3846 3.78916 45.5462 3.45212 46.7928 3.42844C47.571 3.41326 48.0399 3.77276 48.1621 4.61929C48.3577 5.96986 48.6279 7.3095 48.8783 8.65156C48.9277 8.91511 49.0288 9.16834 49.1058 9.42704C49.1624 9.37846 49.219 9.32988 49.2756 9.2819L49.275 9.28069Z" fill="black"/>
<path d="M18.5287 75.2888C15.8304 75.2906 14.218 73.7482 14.469 71.6664C14.6254 70.3687 15.3971 69.4712 16.5003 68.8706C17.4766 68.3392 18.5299 68.1419 19.6422 68.3174C22.1293 68.7096 23.2193 71.0604 21.8879 73.2368C21.0543 74.5989 19.7741 75.2165 18.5281 75.2888H18.5287ZM18.1044 73.6364C18.9531 73.5563 18.808 72.8512 18.8158 72.6745C18.8237 72.4978 18.6768 71.9257 17.9636 71.9239C17.2503 71.9221 17.1715 72.5075 17.1709 72.6047C17.1703 72.7018 17.2557 73.7166 18.1044 73.6364Z" fill="black"/>
<path d="M94.8094 72.7372C96.018 73.1526 96.3912 73.8874 96.0216 75.0041C95.9596 75.1912 95.7044 75.4262 95.5232 75.4401C94.5602 75.5154 93.5701 75.6703 92.6311 75.5246C91.5622 75.3588 91.1848 74.3641 91.1432 73.4137C91.074 71.8336 91.1697 70.2468 91.2004 68.6624C91.2028 68.5264 91.2432 68.3916 91.2546 68.2549C91.4243 66.1313 91.31 66.2886 93.487 66.2443C95.2355 66.209 95.5798 65.9953 95.2415 68.1371C95.0002 69.6668 94.9448 71.2263 94.81 72.7372H94.8094Z" fill="black"/>
<path d="M52.9353 12.3558C53.3386 12.2417 53.6937 12.1415 54.0849 12.0303C54.0247 11.932 53.9567 11.85 53.9194 11.7553C53.7719 11.3775 53.6347 10.9956 53.4933 10.6154C53.9134 10.5097 54.3606 10.2541 54.75 10.3239C56.7579 10.6859 58.3217 13.4082 57.6674 15.3521C57.3075 16.4215 56.5563 17.0968 55.4247 17.2359C53.9435 17.418 52.9106 16.3219 53.1195 14.8323C53.2375 13.9918 53.1869 13.169 52.9353 12.3552V12.3558Z" fill="black"/>
<path d="M37.6427 17.4371C37.8401 17.2974 37.9798 17.1984 38.1327 17.0897C37.7468 16.7612 37.3562 16.4982 37.0619 16.1509C36.8783 15.9347 36.8422 15.5916 36.7399 15.305C37.0125 15.2631 37.284 15.2193 37.5572 15.1817C37.6325 15.1714 37.7107 15.1799 37.8534 15.1799C37.6927 14.8592 37.4958 14.5926 37.4296 14.2969C37.364 14.0048 37.3147 13.5651 37.4724 13.4048C37.6391 13.2348 38.1327 13.1874 38.3541 13.3149C38.9976 13.6854 39.5766 14.17 40.2513 14.6619C40.2303 14.6764 40.3061 14.5914 40.3982 14.5641C40.737 14.4651 41.0813 14.3856 41.4238 14.2987C41.3769 14.6461 41.3582 14.9995 41.2776 15.3384C41.1391 15.9183 40.917 16.4806 40.8135 17.0654C40.6943 17.7365 40.5739 18.396 39.8499 18.6431C39.0909 18.9024 38.5618 18.4178 38.0586 17.9454C37.922 17.8172 37.8185 17.6539 37.6433 17.4365L37.6427 17.4371Z" fill="black"/>
<path d="M53.9608 9.7105C53.6737 9.82285 53.3824 9.93701 53.1001 10.0481C51.6622 7.52737 48.8507 0.705309 49.0132 0.149658C49.529 0.399853 53.5142 8.08241 53.9608 9.7105Z" fill="black"/>
<path d="M44.1885 12.7342C44.5641 12.9346 44.7753 13.0014 44.9264 13.1369C45.3309 13.5006 45.689 13.483 46.1561 13.2025C46.8928 12.7598 47.2214 12.9923 47.2287 13.8814C47.2299 14.0435 47.2142 14.2081 47.1895 14.369C47.0252 15.4469 46.8447 15.5386 45.9232 14.9641C45.5608 14.7388 45.2587 14.5864 44.8247 14.8652C44.3185 15.1907 43.958 14.918 43.9489 14.3696C43.9405 13.8638 44.0904 13.3549 44.1891 12.7336L44.1885 12.7342Z" fill="black"/>
<path d="M62.2995 69.895C61.3828 69.7985 60.4601 69.7542 59.5416 69.671C58.9048 69.6133 58.386 69.6679 58.1669 70.441C58.1055 70.6572 57.6541 70.9395 57.4549 70.8904C57.2237 70.8333 56.977 70.4695 56.9066 70.1944C56.7597 69.6187 56.9956 69.2544 57.6511 69.224C58.5726 69.1815 59.4971 69.1323 60.4108 69.0139C60.6612 68.9811 61.0368 68.7254 61.0855 68.5099C61.4773 66.7755 60.0647 65.1219 58.306 65.2075C56.9168 65.2749 55.8153 65.932 55.2188 67.1648C54.6946 68.2475 54.1415 69.4487 54.2438 70.6699C54.3461 71.8911 54.4599 72.9344 55.3356 73.7433C56.7158 75.0174 58.3655 75.3216 60.114 74.7356C61.8264 74.1617 62.8292 72.912 63.1368 71.0956C63.2589 70.3754 63.0019 69.9697 62.2989 69.8957L62.2995 69.895ZM58.6996 66.8308C59.3177 66.8447 59.7318 67.6664 59.6211 67.8334C59.5109 68.0004 58.2825 68.3902 58.0754 68.0562C57.8684 67.7222 58.0814 66.8168 58.6996 66.8308Z" fill="black"/>
</svg>
