<svg width="188" height="67" viewBox="0 0 188 67" fill="none" xmlns="http://www.w3.org/2000/svg">
<path d="M139.2 65.9517C139.094 65.9606 139.003 65.9736 138.91 65.9744C137.795 65.976 136.68 65.9849 135.565 65.9655C135.405 65.963 135.195 65.8644 135.097 65.7406C130.105 59.401 125.122 53.0534 120.138 46.7065C119.296 45.6349 118.454 44.5642 117.542 43.4028V65.9428H111.2V0.42067C111.312 0.4142 111.441 0.401261 111.57 0.401261C113.025 0.399643 114.48 0.40773 115.935 0.393982C116.212 0.391556 116.378 0.486177 116.545 0.695637C121.895 7.40968 127.251 14.1181 132.607 20.8272C132.671 20.9073 132.741 20.9825 132.871 21.1305V0.377808H139.2V65.9517ZM132.869 53.2733C132.879 53.042 132.887 52.9482 132.887 52.8552C132.887 45.6187 132.89 38.3831 132.879 31.1466C132.879 30.9509 132.797 30.7204 132.675 30.5651C127.725 24.2449 122.767 17.932 117.808 11.6183C117.741 11.5318 117.656 11.4582 117.52 11.3158C117.52 11.5326 117.52 11.6523 117.52 11.7719C117.52 19.0755 117.517 26.3792 117.53 33.6828C117.53 33.9116 117.64 34.1809 117.786 34.3637C122.328 40.0765 126.881 45.7805 131.434 51.486C131.885 52.0513 132.339 52.615 132.868 53.2741L132.869 53.2733Z" fill="black"/>
<path d="M163.356 33.6527C162.428 33.1225 161.457 32.65 160.573 32.0518C157.369 29.8816 155.348 26.8553 154.37 23.1692C152.92 17.7012 153.508 12.4663 156.583 7.63814C159.004 3.83666 162.558 1.59517 166.986 0.760721C170.497 0.0992467 173.985 0.261012 177.359 1.51109C181.902 3.1944 185.02 6.36243 186.685 10.8398C188.823 16.5865 188.359 22.1906 185.257 27.5088C183.691 30.1939 181.397 32.1359 178.541 33.4148C178.455 33.4533 178.368 33.4901 178.285 33.5317C178.262 33.543 178.247 33.5694 178.207 33.6118C178.255 33.6487 178.296 33.6943 178.347 33.7175C182.918 35.8013 185.795 39.3361 187.171 44.0649C188.612 49.0155 188.166 53.8517 185.768 58.4307C183.56 62.6462 180.022 65.2433 175.35 66.2547C171.372 67.1156 167.425 66.9554 163.611 65.4635C159.095 63.6969 156.118 60.4176 154.65 55.8761C152.834 50.2544 153.342 44.8104 156.418 39.6988C158.01 37.0529 160.27 35.0965 163.098 33.7968C163.171 33.7632 163.245 33.7303 163.316 33.6935C163.338 33.6815 163.353 33.6567 163.356 33.6527ZM181.822 17.6724C181.745 16.8908 181.705 16.1028 181.58 15.3292C181.472 14.6613 181.31 13.995 181.098 13.3512C180.114 10.3633 178.289 8.0898 175.301 6.87015C173.277 6.04451 171.16 5.88595 169.003 6.17905C165.831 6.60989 163.314 8.10581 161.665 10.8446C159.49 14.4579 159.288 18.3138 160.581 22.253C161.675 25.5828 163.894 27.8499 167.351 28.8013C169.49 29.3891 171.658 29.4099 173.817 28.9198C176.866 28.2279 179.08 26.4605 180.454 23.6785C181.388 21.7886 181.763 19.7705 181.822 17.6724ZM181.774 50.0486C181.779 47.9248 181.547 46.4153 181.035 44.9546C180.009 42.0252 178.17 39.8125 175.214 38.6418C173.263 37.8682 171.228 37.7088 169.15 37.9683C165.63 38.4079 162.96 40.1289 161.318 43.2513C159.406 46.8854 159.34 50.674 160.731 54.4851C161.764 57.3184 163.696 59.3453 166.592 60.3743C168.687 61.1191 170.853 61.2192 173.037 60.8756C176.077 60.3967 178.457 58.9008 180.039 56.2477C181.283 54.16 181.753 51.8696 181.775 50.0478L181.774 50.0486Z" fill="black"/>
<path d="M60.8 65.9715C61.0165 65.4873 61.2039 65.0646 61.3953 64.6436C66.035 54.4149 70.6748 44.1861 75.321 33.9598C75.4413 33.6954 75.451 33.4788 75.3283 33.208C70.5335 22.6549 65.7467 12.0978 60.9592 1.54068C60.9163 1.4456 60.88 1.34812 60.8251 1.21229C60.9696 1.2019 61.0827 1.18752 61.1958 1.18672C63.2148 1.18512 65.2339 1.19152 67.2529 1.17873C67.5372 1.17713 67.6793 1.26343 67.794 1.5223C68.6162 3.37357 69.4617 5.21445 70.2823 7.06651C70.4026 7.33897 70.5464 7.42686 70.8476 7.42606C76.4202 7.41567 81.9927 7.41647 87.5653 7.42526C87.8609 7.42526 88.0095 7.34776 88.1347 7.06811C88.9714 5.20885 89.8282 3.35759 90.6932 1.51111C90.757 1.37449 90.9411 1.20031 91.0704 1.19951C93.2227 1.18033 95.3758 1.18592 97.5999 1.18592C97.5281 1.3641 97.4772 1.50472 97.4158 1.64135C93.6248 10.0012 89.8339 18.3611 86.0421 26.721C85.0568 28.8934 84.0748 31.0675 83.0814 33.2367C82.9724 33.4748 82.97 33.6666 83.079 33.9063C86.118 40.5899 89.149 47.2774 92.1808 53.9642C93.9414 57.8473 95.7028 61.7304 97.4626 65.6143C97.5055 65.7086 97.5361 65.8085 97.587 65.9435C97.4408 65.9539 97.3278 65.9699 97.2139 65.9699C95.1949 65.9715 93.1758 65.9643 91.1568 65.9787C90.866 65.9811 90.7352 65.8804 90.6229 65.6287C89.7935 63.7671 88.9447 61.9142 88.1169 60.0518C88.0071 59.8041 87.873 59.7218 87.6041 59.7218C82.0048 59.729 76.4048 59.729 70.8056 59.721C70.531 59.721 70.4091 59.8153 70.3009 60.0542C69.4537 61.923 68.5952 63.7878 67.7246 65.6463C67.6608 65.7829 67.4758 65.9555 67.3466 65.9571C65.1943 65.9763 63.0412 65.9707 60.8009 65.9707L60.8 65.9715ZM72.9741 13.2124C75.0553 17.9304 77.1091 22.5846 79.2097 27.3466C81.316 22.5702 83.3689 17.9152 85.4421 13.2124H72.9741ZM85.4324 53.9163C83.3608 49.219 81.3071 44.5633 79.2097 39.8077C77.1115 44.5657 75.0569 49.2222 72.987 53.9163H85.4324Z" fill="black"/>
<path d="M6.28239 32.5284C8.0941 32.5284 9.87026 32.5284 11.6464 32.5284C13.2481 32.5284 14.8514 32.4871 16.4515 32.5405C22.217 32.7338 26.7474 36.2632 27.749 42.0564C28.5632 46.7617 27.2345 50.816 23.3696 53.8246C21.5692 55.2254 19.4578 55.9751 17.1978 56.0511C13.7295 56.1676 10.2555 56.1255 6.78398 56.1498C6.62487 56.1506 6.46494 56.1498 6.2622 56.1498V65.9778H0V0.453831C0.135696 0.445743 0.252814 0.432803 0.37074 0.431994C5.49891 0.410967 10.6271 0.380234 15.7561 0.377808C17.4749 0.377808 19.1614 0.635801 20.7687 1.28038C24.254 2.67953 26.5237 5.21742 27.4978 8.82124C28.5906 12.865 27.9243 16.6355 25.2564 19.9287C23.3502 22.2814 20.7784 23.4897 17.8133 23.8795C16.962 23.9911 16.0969 24.0275 15.2375 24.0332C12.4105 24.0518 9.58352 24.0405 6.75733 24.0405C6.61033 24.0405 6.46332 24.0405 6.2832 24.0405V32.5284H6.28239ZM6.27916 6.41357C6.26866 6.53488 6.25089 6.63921 6.25089 6.74354C6.24928 10.4638 6.25332 14.1841 6.24362 17.9044C6.24362 18.2069 6.33086 18.2926 6.63213 18.2918C9.68771 18.2813 12.7441 18.2934 15.7997 18.2789C16.9176 18.274 18.0007 18.054 18.9667 17.4628C20.9424 16.2553 21.7816 14.4324 21.763 12.1614C21.7372 8.9466 19.3027 6.4443 16.1058 6.41033C12.9428 6.37637 9.77899 6.39335 6.61598 6.38931C6.51098 6.38931 6.40598 6.40467 6.27997 6.41357H6.27916ZM6.28159 38.5124C6.26866 38.6434 6.25089 38.734 6.25089 38.8254C6.24928 42.5586 6.25332 46.2918 6.24282 50.0242C6.24201 50.3429 6.35832 50.3995 6.64344 50.3987C9.73941 50.3898 12.8354 50.4141 15.9305 50.3849C17.7366 50.368 19.3359 49.7614 20.4602 48.2927C22.0288 46.2441 22.2178 43.9731 21.1233 41.673C20.0725 39.4635 18.1647 38.5261 15.7763 38.5148C12.7611 38.5011 9.74668 38.5116 6.73148 38.5116H6.28078L6.28159 38.5124Z" fill="black"/>
<path d="M42.3999 1.17871H48.7999V65.9787H42.3999V1.17871Z" fill="black"/>
</svg>
