<svg width="86" height="86" viewBox="0 0 86 86" fill="none" xmlns="http://www.w3.org/2000/svg">
<path d="M16.9738 4.64795H21.4097V18.1803H28.1904V22.0952H16.9738V4.65519V4.64795Z" fill="black"/>
<path d="M34.848 80.8774H35.9914V84.3582H37.7354V85.3641H34.848V80.8774Z" fill="black"/>
<path d="M61.7752 18.1803V22.0952H48.3225V20.4815L55.6386 8.56291H48.8146V4.64795H61.7752V6.13867L54.3867 18.1803H61.7825H61.7752Z" fill="black"/>
<path d="M2.26196 27.3489H9.60704C14.7595 27.3489 18.2836 30.7139 18.2836 36.0689C18.2836 41.4239 14.7522 44.7889 9.60704 44.7889H2.26196V27.3489ZM9.42613 40.8522C12.0675 40.8522 13.8404 39.0865 13.8404 36.0689C13.8404 33.0513 12.0675 31.2855 9.42613 31.2855H6.65454V40.8522H9.42613Z" fill="black"/>
<path d="M32.1126 40.9753V44.7889H20.5052V27.3489H31.8449V31.1625H24.5577V34.1006L30.8607 34.2163V37.907L24.5577 37.7912V40.9825H32.1199L32.1126 40.9753Z" fill="black"/>
<path d="M5.62697 54.2614H0.792969V50.3464H14.897V54.2614H10.0847V67.7937H5.62697V54.2614Z" fill="black"/>
<path d="M15.0128 59.0737C15.0128 53.8417 19.1232 50.0063 24.7025 50.0063C30.2819 50.0063 34.3922 53.8417 34.3922 59.0737C34.3922 64.3057 30.2819 68.1411 24.7025 68.1411C19.1232 68.1411 15.0128 64.3057 15.0128 59.0737ZM29.4207 59.0737C29.4207 56.0561 27.3511 54.0878 24.7098 54.0878C22.0684 54.0878 19.9988 56.0561 19.9988 59.0737C19.9988 62.0914 22.0684 64.0597 24.7098 64.0597C27.3511 64.0597 29.4207 62.0914 29.4207 59.0737Z" fill="black"/>
<path d="M42.1426 61.925H40.688V67.7938H36.3895V50.3538H43.3366C47.4831 50.3538 49.8205 53.1181 49.7843 55.9765C49.7482 58.5455 48.243 60.2027 46.3542 61.252L50.3922 67.801H45.7898L42.1426 61.9322V61.925ZM43.0761 53.972H40.8328V58.4731H43.0761C44.6754 58.4731 45.3918 57.7495 45.3918 56.3601C45.3918 54.6884 44.7767 53.9793 43.0761 53.9793V53.972Z" fill="black"/>
<path d="M31.3529 83.8517H30.9766V85.3641H29.8694V80.8774H31.6568C32.7206 80.8774 33.3212 81.5866 33.314 82.3247C33.3067 82.9833 32.916 83.4102 32.4311 83.678L33.4659 85.3641H32.2792L31.3384 83.8517H31.3529ZM31.5917 81.8109H31.0128V82.9688H31.5917C32.0042 82.9688 32.1851 82.7806 32.1851 82.4261C32.1851 81.9991 32.0259 81.8109 31.5917 81.8109Z" fill="black"/>
<path d="M9.1873 16.3494H6.7703V22.088H2.4718V4.64795H9.07152C13.218 4.64795 15.5554 7.4123 15.5193 10.2707C15.4831 12.8397 14.5423 14.9528 12.5306 15.7994C12.5306 15.7994 11.7418 16.3567 9.1873 16.3567V16.3494ZM8.90508 8.26621H6.91503V12.7673H8.90508C10.5044 12.7673 11.2208 12.0437 11.2208 10.6543C11.2208 8.98263 10.6057 8.27345 8.90508 8.27345V8.26621Z" fill="black"/>
<path d="M51.3402 59.0737C51.3402 53.8417 55.4506 50.0063 61.0299 50.0063C66.6093 50.0063 70.7196 53.8417 70.7196 59.0737C70.7196 64.3057 66.6093 68.1411 61.0299 68.1411C55.4506 68.1411 51.3402 64.3057 51.3402 59.0737ZM65.7409 59.0737C65.7409 56.0561 63.6713 54.0878 61.0299 54.0878C58.3886 54.0878 56.3189 56.0561 56.3189 59.0737C56.3189 62.0914 58.3886 64.0597 61.0299 64.0597C63.6713 64.0597 65.7409 62.0914 65.7409 59.0737Z" fill="black"/>
<path d="M38.6111 83.1136C38.6111 81.8183 39.6314 80.863 41.0136 80.863C42.3958 80.863 43.4161 81.811 43.4161 83.1136C43.4161 84.4162 42.3958 85.3642 41.0136 85.3642C39.6314 85.3642 38.6111 84.4162 38.6111 83.1136ZM42.1787 83.1136C42.1787 82.3682 41.6649 81.8762 41.0136 81.8762C40.3623 81.8762 39.8485 82.361 39.8485 83.1136C39.8485 83.8662 40.3623 84.3511 41.0136 84.3511C41.6649 84.3511 42.1787 83.8662 42.1787 83.1136Z" fill="black"/>
<path d="M71.682 66.2236L73.5273 62.8441C74.9312 63.8645 76.5522 64.3059 78.3903 64.3059C80.2284 64.3059 80.7711 63.6184 80.7494 62.7717C80.6698 60.3692 72.2754 60.7528 72.2392 55.6582C72.2175 52.5465 74.2727 49.9993 78.9837 49.9993C81.0461 49.9993 83.1736 50.5203 84.7439 51.5189L82.9059 54.9852C81.3862 54.0879 80.3441 53.9359 78.962 53.8419C77.3337 53.7333 76.5305 54.5945 76.8127 55.4701C77.4929 57.5759 85.2071 56.6786 85.2071 62.5185C85.2071 65.5578 83.0868 68.1485 78.3686 68.1485C75.7634 68.1485 73.18 67.3742 71.682 66.2308V66.2236Z" fill="black"/>
<path d="M44.7404 84.8865L45.1963 84.047C45.5436 84.3003 45.9416 84.4089 46.3975 84.4089C46.8534 84.4089 46.9837 84.2352 46.9837 84.0326C46.962 83.4392 44.8851 83.5332 44.8778 82.2741C44.8778 81.507 45.3772 80.8774 46.5423 80.8774C47.0488 80.8774 47.5771 81.0077 47.9678 81.2537L47.5119 82.1076C47.1356 81.8833 46.8751 81.8471 46.535 81.8254C46.1298 81.7965 45.9344 82.0136 46.0067 82.2307C46.1732 82.7517 48.0836 82.5274 48.0836 83.9747C48.0836 84.7273 47.5626 85.3641 46.3903 85.3641C45.7462 85.3641 45.1094 85.1759 44.7404 84.8865Z" fill="black"/>
<path d="M1.76978 84.8865L2.22568 84.047C2.57303 84.3003 2.97104 84.4089 3.42694 84.4089C3.88284 84.4089 4.0131 84.2352 4.0131 84.0326C3.99139 83.4392 1.91451 83.5332 1.90727 82.2741C1.90727 81.507 2.40659 80.8774 3.57167 80.8774C4.07823 80.8774 4.60649 81.0077 4.99727 81.2537L4.54137 82.1076C4.16507 81.8833 3.90455 81.8471 3.56443 81.8254C3.15919 81.7965 2.9638 82.0136 3.03617 82.2307C3.20261 82.7517 5.11305 82.5274 5.11305 83.9747C5.11305 84.7273 4.59202 85.3641 3.4197 85.3641C2.77565 85.3641 2.13884 85.1759 1.76978 84.8865Z" fill="black"/>
<path d="M38.8065 4.64795H37.4677L29.3339 22.088H33.7264L34.5369 20.0907H41.7373L42.5478 22.088H46.9331L38.8065 4.64795ZM35.7816 16.9718L38.1407 10.9872L40.4998 16.9718H35.7888H35.7816Z" fill="black"/>
<path d="M72.2464 4.64795H70.9077L62.7738 22.088H67.1664L67.9769 20.0907H75.1772L75.9877 22.088H80.373L72.2464 4.64795ZM69.2215 16.9718L71.5807 10.9872L73.9398 16.9718H69.2288H69.2215Z" fill="black"/>
<path d="M16.5034 72.8521H17.7047V76.5065H19.5355V77.563H16.5034V72.8521Z" fill="black"/>
<path d="M22.4808 72.8521H24.3913C25.73 72.8521 26.6491 73.7639 26.6491 75.2112C26.6491 76.6585 25.73 77.5703 24.3913 77.5703H22.4808V72.8593V72.8521ZM24.3479 76.5065C25.0353 76.5065 25.4985 76.0289 25.4985 75.2112C25.4985 74.3934 25.0353 73.9158 24.3479 73.9158H23.6242V76.4993H24.3479V76.5065Z" fill="black"/>
<path d="M10.186 76.5354V77.563H7.05261V72.8521H10.1137V73.8796H8.14533V74.6757L9.85315 74.7046V75.7032L8.14533 75.6743V76.5354H10.186Z" fill="black"/>
<path d="M31.2081 76.5354V77.563H28.0747V72.8521H31.1358V73.8796H29.1674V74.6757L30.8752 74.7046V75.7032L29.1674 75.6743V76.5354H31.2081Z" fill="black"/>
<path d="M3.57185 75.9856H3.18107V77.5704H2.01599V72.8594H3.89025C5.01191 72.8594 5.64149 73.6047 5.63426 74.379C5.62702 75.0738 5.22177 75.5224 4.70798 75.8046L5.8007 77.5776H4.55601L3.57185 75.9928V75.9856ZM3.82512 73.8363H3.21726V75.052H3.82512C4.25932 75.052 4.44746 74.8567 4.44746 74.4804C4.44746 74.0317 4.28103 73.8363 3.82512 73.8363Z" fill="black"/>
<path d="M13.5003 72.8521H13.1385L10.9386 77.563H12.1254L12.3425 77.0203H14.2891L14.5062 77.563H15.693L13.4931 72.8521H13.5003ZM12.6826 76.1881L13.3194 74.5671L13.9562 76.1881H12.6826Z" fill="black"/>
<path d="M26.6853 80.8774H26.3451L24.2538 85.3641H25.3827L25.5925 84.8503H27.4451L27.655 85.3641H28.7839L26.6925 80.8774H26.6853ZM25.911 84.047L26.5188 82.5057L27.1267 84.047H25.9182H25.911Z" fill="black"/>
<path d="M8.62288 80.8774H8.28276L6.19141 85.3641H7.32031L7.53016 84.8503H9.38272L9.59258 85.3641H10.7215L8.63012 80.8774H8.62288ZM7.84857 84.047L8.45644 82.5057L9.06431 84.047H7.85581H7.84857Z" fill="black"/>
<path d="M15.9246 80.8267V85.364H15.0996L12.9287 82.6141V85.364H11.9373V80.8267H12.7695L14.9332 83.5765V80.8267H15.9246Z" fill="black"/>
<path d="M19.058 83.0194C19.058 81.6517 20.1073 80.6748 21.5184 80.6748C22.3 80.6748 22.9585 80.957 23.3855 81.4781L22.5533 81.9412C22.2493 81.5938 22.025 81.5649 21.5691 81.5649C20.7224 81.5649 20.1146 82.1583 20.1146 83.0194C20.1146 83.8806 20.7152 84.474 21.5691 84.474C22.025 84.474 22.2783 84.4161 22.5822 84.0615L23.3782 84.5608C22.9513 85.0818 22.2927 85.3713 21.504 85.3713C20.1001 85.3713 19.0508 84.3944 19.0508 83.0267L19.058 83.0194Z" fill="black"/>
<path d="M81.3717 1.46383C82.8118 1.46383 83.9841 2.62891 83.9841 4.07621C83.9841 5.52352 82.819 6.6886 81.3717 6.6886C79.9244 6.6886 78.7593 5.52352 78.7593 4.07621C78.7593 2.62891 79.9244 1.46383 81.3717 1.46383ZM81.3717 7.282C83.1447 7.282 84.5847 5.84193 84.5847 4.06898C84.5847 2.29603 83.1447 0.855957 81.3717 0.855957C79.5988 0.855957 78.1587 2.29603 78.1587 4.06898C78.1587 5.84193 79.5988 7.282 81.3717 7.282ZM80.3658 2.66509V5.4801H80.9665V4.47422H81.3862L81.9289 5.4801H82.6164L82.5368 5.33537L82.0302 4.39462C82.3486 4.25713 82.573 3.93872 82.573 3.56966C82.573 3.07034 82.1677 2.66509 81.6684 2.66509H80.3586H80.3658ZM80.9665 3.87359V3.27296H81.6684C81.8349 3.27296 81.9723 3.41045 81.9723 3.57689C81.9723 3.74333 81.8349 3.88083 81.6684 3.88083H80.9665V3.87359Z" fill="black"/>
</svg>
