<svg width="188" height="82" viewBox="0 0 188 82" fill="none" xmlns="http://www.w3.org/2000/svg">
<path d="M100.671 27.34C97.9911 28.0386 95.7845 29.2704 93.7034 30.7188C93.3045 30.9965 93.1486 31.6969 92.9804 32.2339C91.0498 38.4018 89.1384 44.5756 87.2226 50.7483C87.2014 50.8167 87.1937 50.8894 87.1741 50.9585C86.5339 53.2079 85.0503 53.5973 83.3921 51.8871C83.119 51.6053 82.9904 50.9493 83.1026 50.5553C84.1823 46.758 85.2756 42.9625 86.4695 39.2005C87.6195 35.5775 88.8932 31.9946 90.1463 28.2941C88.416 28.4566 86.6989 28.6039 84.9872 28.801C84.8241 28.8199 84.6368 29.1285 84.5607 29.3392C83.3457 32.7138 82.1472 36.0946 80.8878 39.6342C81.5896 39.4896 82.1527 39.3696 82.7173 39.2583C83.408 39.1222 84.0721 39.3343 84.0846 40.0521C84.094 40.5862 83.7542 41.3676 83.3277 41.6155C82.5457 42.0701 81.5594 42.1509 80.7107 42.5126C80.3256 42.6767 79.898 43.0873 79.7792 43.4761C79.3284 44.9506 78.9367 46.4502 78.6397 47.9638C78.4451 48.9554 77.9324 49.2903 77.002 49.2212C75.8568 49.1361 75.1575 48.619 75.2007 47.653C75.2514 46.5227 75.4676 45.4 75.6215 44.2008C73.9007 44.6458 72.3322 45.1069 71.6213 47.0141C71.1734 48.216 70.4025 49.2912 69.8609 50.463C69.3673 51.5309 68.4255 51.7267 67.4708 51.7721C66.7371 51.807 66.3634 51.2493 66.5691 50.5202C66.8695 49.456 67.2596 48.4173 67.6133 47.3618C66.1135 46.3921 66.0603 45.4883 67.6809 44.6835C69.314 43.8722 70.2046 42.5659 71.132 41.07C74.2501 36.0414 77.5127 31.1032 80.7728 26.1659C81.6991 24.7632 82.7815 24.6112 84.2895 25.3149C84.7394 25.5249 85.3134 25.6718 85.7856 25.5885C87.609 25.2667 89.4233 24.877 91.2194 24.4244C91.6279 24.3216 92.0676 23.9363 92.2867 23.5592C92.8075 22.663 93.2021 21.6922 93.6527 20.7542C94.0391 19.9496 94.6461 19.6779 95.503 19.9622C96.3748 20.2516 96.8109 20.8114 96.6372 21.7542C96.5485 22.2366 96.4153 22.7107 96.2817 23.2749C98.7615 22.7947 101.165 22.3431 103.559 21.8467C103.833 21.79 104.084 21.5098 104.296 21.2855C105.259 20.267 106.773 20.4219 107.602 21.5582C107.876 21.9334 108.354 22.2678 108.8 22.3828C109.971 22.6855 111.19 22.8023 112.365 23.0936C114.511 23.6253 115.281 25.4391 113.908 27.1757C112.746 28.6452 111.352 30.0103 109.829 31.0899C107.237 32.9282 104.454 34.4931 101.774 36.2082C101.377 36.4625 101.101 36.9096 100.646 37.4002C103.94 38.2271 106.949 38.9576 109.943 39.7435C111.598 40.1777 111.88 41.0507 110.741 42.3391C110.443 42.6763 109.739 42.8743 109.274 42.7997C106.045 42.2813 102.83 41.6743 99.5187 41.0794C98.5375 44.4014 97.5758 47.6677 96.6074 50.9317C96.2173 52.2467 95.662 52.6252 94.338 52.507C93.1636 52.4023 92.6841 51.9043 92.9424 50.7366C93.5705 47.8977 94.3006 45.0819 94.9913 42.2572C95.0596 41.9779 95.1158 41.6922 95.2192 41.4259C95.6136 40.4081 95.8546 39.5677 94.4866 38.9533C93.5487 38.5321 93.5958 37.2518 94.5359 36.3792C95.2881 35.681 96.2501 35.2179 97.0414 34.5563C97.5608 34.122 98.0835 33.5852 98.358 32.9805C99.1714 31.1881 99.8623 29.339 100.671 27.34ZM110.866 25.8584C110.786 25.6826 110.706 25.507 110.626 25.3312C109.196 25.5568 107.76 25.7555 106.339 26.0307C106.048 26.0869 105.7 26.378 105.571 26.6524C105 27.8693 104.499 29.1196 103.973 30.3577C104.035 30.4202 104.098 30.4828 104.16 30.5453C106.396 28.9828 108.631 27.4204 110.866 25.8579L110.866 25.8584ZM77.7219 37.2219C77.6654 37.2072 77.6092 37.1923 77.5528 37.1776C76.6395 38.6292 75.7264 40.0811 74.8131 41.5327C74.8848 41.6173 74.9565 41.702 75.0282 41.7867C75.5721 41.4142 76.357 41.1615 76.6099 40.6445C77.1311 39.5784 77.368 38.371 77.7219 37.2219Z" fill="black"/>
<path d="M153.363 30.7039C152.716 31.1859 152.269 31.5395 151.802 31.8624C151.15 32.3127 150.456 32.4353 149.86 31.8126C149.269 31.1953 149.393 30.4726 149.848 29.8414C150.18 29.382 150.594 28.9714 151.02 28.5964C151.503 28.1725 151.986 27.6529 152.563 27.4521C155.523 26.4223 157.254 24.1619 158.724 21.5555C159.299 20.5347 160.047 20.3915 160.829 21.1006C161.205 21.4428 161.367 22.11 161.457 22.6583C161.513 22.9991 161.252 23.3929 161.163 23.6699C162.938 23.6052 164.697 23.5246 166.458 23.4893C166.877 23.4808 167.305 23.5992 167.718 23.7011C170.412 24.3653 171.242 25.7859 170.478 28.4617C169.409 32.2035 167.192 35.2708 164.493 37.9096C159.296 42.9917 153.934 47.903 148.633 52.8781C147.937 53.5318 147.176 53.5426 146.394 52.9979C145.837 52.6101 145.267 52.242 144.705 51.8624C143.782 51.239 143.57 50.2921 144.451 49.6332C146.209 48.3179 146.836 46.3883 147.615 44.5057C149.491 39.9739 151.385 35.4498 153.363 30.7044V30.7039ZM152.976 41.9355C153.047 41.9887 153.119 42.042 153.19 42.0955C155.986 39.4309 158.825 36.8119 161.561 34.0863C163.418 32.2361 164.988 30.1359 165.937 27.6398C166.29 26.7108 166.094 26.3796 165.125 26.4974C163.79 26.6596 162.472 26.9779 161.155 27.2687C159.639 27.6038 158.492 28.3641 158.078 30.0067C157.931 30.5891 157.59 31.1204 157.351 31.6807C155.89 35.0979 154.434 38.5171 152.976 41.9355Z" fill="black"/>
<path d="M188 29.6204C187.854 31.9379 187.321 34.1211 186.397 36.2131C184.391 40.7565 181.857 44.9412 178.086 48.2332C175.907 50.1358 173.347 50.9714 170.455 50.5613C167.24 50.1055 165.545 48.3018 165.736 45.0197C165.862 42.8663 166.306 40.6608 167.023 38.6279C168.734 33.7817 171.413 29.4517 174.646 25.476C175.052 24.9764 175.506 24.5158 175.951 24.049C178.486 21.3884 181.252 21.2133 184.692 22.5655C186.285 23.1916 186.982 24.6905 187.416 26.238C187.724 27.3332 187.813 28.4908 188 29.6204ZM183.662 28.9824C183.654 28.8309 183.653 28.4701 183.616 28.1132C183.381 25.8816 181.748 24.9764 179.816 26.1122C178.973 26.6079 178.219 27.3203 177.556 28.0552C175.168 30.7048 173.523 33.8168 172.504 37.2164C171.703 39.886 171.065 42.6187 170.572 45.3628C170.303 46.8608 171.22 47.4382 172.51 46.6042C173.84 45.7443 175.195 44.7469 176.148 43.5048C178.237 40.7831 180.138 37.9072 182 35.0183C183.12 33.2791 183.67 31.2964 183.662 28.9824Z" fill="black"/>
<path d="M130.034 42.4369C131.269 40.6791 132.35 39.0937 133.479 37.5435C136.454 33.4558 139.424 29.3633 142.451 25.3144C143.694 23.6526 144.772 23.4943 146.657 24.3482C147.089 24.5438 147.609 24.5798 148.093 24.6119C149.511 24.7058 150.096 25.426 149.762 26.82C149.495 27.9363 149.155 29.0354 148.836 30.1388C148.597 30.9671 148.21 31.5883 147.182 31.4181C145.948 31.2133 145.337 30.671 145.261 29.6247C145.243 29.3759 145.259 29.1249 145.259 28.5619C144.617 29.3663 144.108 29.9375 143.673 30.5616C139.2 36.9736 134.739 43.3939 130.277 49.8129C129.908 50.3428 129.635 50.9845 129.16 51.382C128.69 51.7749 128.007 52.1673 127.439 52.137C125.218 52.0184 124.929 51.6962 125.092 49.4151C125.557 42.8571 126.827 36.4632 129.147 30.3013C129.387 29.664 129.574 28.9167 130.523 29.171C131.443 29.4179 131.732 30.0328 131.583 30.9756C131.046 34.3802 130.543 37.7904 130.041 41.2006C129.992 41.5306 130.034 41.8739 130.034 42.4369H130.034Z" fill="black"/>
<path d="M112.774 39.5713C111.737 39.4907 111.28 38.8502 111.192 37.8707C111.102 36.8662 111.629 36.2516 112.533 36.0893C115.502 35.5573 116.246 32.916 117.59 30.8353C115.91 29.3734 116.035 28.3193 118.087 27.3531C121.705 25.6495 125.578 24.832 129.492 24.2098C130.571 24.0384 131.309 24.7528 131.493 25.9657C131.625 26.8374 131.178 27.3366 130.025 27.5303C128.021 27.8667 126.004 28.1343 124.012 28.5311C123.528 28.6275 122.986 29.0218 122.704 29.4395C121.885 30.6515 121.185 31.9447 120.333 33.3844C121.412 33.1877 122.302 33.0131 123.197 32.8657C123.995 32.7344 124.753 32.7227 125.331 33.4737C126.262 34.6845 125.906 35.709 124.425 36.0902C122.665 36.5433 120.906 37.0103 119.165 37.5319C118.758 37.654 118.264 37.9366 118.079 38.2891C117.02 40.3091 116.041 42.3726 114.912 44.6729C117.215 43.5614 119.253 42.5693 121.299 41.5932C122.632 40.957 123.36 41.1813 124.045 42.4024C124.639 43.4609 124.397 44.3821 123.115 45.0564C120.051 46.6682 116.944 48.1999 113.844 49.7408C112.761 50.2787 111.681 50.2376 110.754 49.3926C109.811 48.5322 109.762 47.443 110.186 46.3157C111.02 44.0996 111.881 41.8943 112.774 39.5718L112.774 39.5713Z" fill="black"/>
<path d="M40.6821 0.519775C46.0731 0.551217 50.3771 1.25533 54.323 3.44202C60.4459 6.83544 63.6949 12.2918 65.115 19.0105C66.5779 25.9307 65.4329 32.6055 63.1398 39.1477C61.1616 44.7909 58.8808 50.2964 55.396 55.2016C55.0214 55.7288 55.1159 56.0856 55.4707 56.5247C57.2736 58.7547 59.0346 61.0199 60.8701 63.222C62.1277 64.7307 62.1828 64.8668 60.9231 66.3928C60.3396 67.0997 59.8312 67.7675 60.1528 68.8127C60.2654 69.1787 60.049 69.7552 59.8034 70.1091C57.1951 73.8658 54.371 77.4314 50.6814 80.1962C50.5096 80.3249 50.3353 80.4505 50.158 80.5714C47.9839 82.0515 47.5704 81.9934 46.0028 79.8409C43.764 76.767 41.5371 73.6841 39.3416 70.5787C38.9616 70.0412 38.6555 69.9055 38.0328 70.167C21.49 77.1133 2.54458 64.5788 0.409852 47.6473C-1.56899 31.9521 3.60034 19.1592 16.2977 9.61494C22.1978 5.18004 28.6268 1.99387 35.9752 0.943206C37.8421 0.676296 39.7363 0.601708 40.6821 0.519775ZM0.497926 40.832C0.516588 47.5126 1.58122 52.9757 4.6841 57.8517C9.49885 65.4172 16.3282 69.9377 25.1675 71.3129C29.6803 72.0149 33.9748 71.0994 38.1559 69.4734C38.8817 69.1911 39.1928 69.3474 39.6193 69.9521C41.9356 73.2363 44.2868 76.4964 46.6664 79.7344C47.8517 81.3471 48.0139 81.3513 49.6669 80.1755C53.6082 77.3717 56.5945 73.6643 59.318 69.716C59.47 69.4957 59.6145 69.1477 59.551 68.9189C59.1867 67.6082 59.8428 66.6645 60.6491 65.8271C61.3526 65.0966 61.2572 64.5827 60.6291 63.8334C58.6268 61.4443 56.7128 58.9799 54.754 56.5536C54.3653 56.0721 54.313 55.6737 54.7053 55.1261C58.3822 49.9942 60.757 44.2163 62.787 38.2823C64.9641 31.9189 65.9279 25.4187 64.4584 18.7454C62.9097 11.7119 59.2429 6.25916 52.5444 3.25154C46.6646 0.611347 40.521 0.750195 34.3612 1.84469C28.1275 2.95227 22.6589 5.83458 17.5155 9.47907C6.39666 17.357 0.836343 28.1676 0.497926 40.832Z" fill="black"/>
<path d="M139.921 52.053C139.635 52.053 139.349 52.07 139.064 52.05C138.023 51.977 137.622 51.5038 137.913 50.5022C138.826 47.3659 139.748 44.2304 140.755 41.1236C141.473 38.905 142.304 36.7216 143.144 34.5459C143.489 33.6552 144.057 32.9049 145.127 32.7863C146.408 32.6445 146.993 33.1994 146.725 34.4672C146.399 36.0124 145.98 37.5402 145.545 39.0593C144.469 42.8238 143.36 46.5791 142.265 50.3381C141.923 51.5126 141.141 52.0842 139.921 52.053Z" fill="black"/>
<path d="M76.8257 21.3336C76.5476 22.0024 76.412 22.4951 76.1571 22.9147C74.5754 25.5188 72.9641 28.1049 71.3701 30.7012C71.0164 31.277 70.5396 31.4941 69.9236 31.2061C69.3007 30.9149 69.2697 30.3696 69.5394 29.8351C71.0558 26.8316 72.5599 23.8205 74.1687 20.8677C74.3735 20.4918 75.1964 20.2283 75.6737 20.3022C76.1015 20.3683 76.4477 20.9715 76.8257 21.3336Z" fill="black"/>
<path d="M0.497559 40.8319C0.835975 28.1676 6.39629 17.3569 17.5151 9.47899C22.6585 5.83473 28.1271 2.95241 34.3608 1.84461C40.5206 0.750113 46.6642 0.611264 52.5443 3.25122C59.243 6.25885 62.9098 11.7116 64.4583 18.7451C65.9276 25.4184 64.9637 31.9188 62.7869 38.2819C60.7569 44.2159 58.382 49.9936 54.7052 55.1258C54.3128 55.6734 54.3652 56.0718 54.7539 56.5533C56.7127 58.9796 58.6267 61.444 60.629 63.8331C61.2569 64.5824 61.3524 65.0963 60.649 65.8268C59.8424 66.6642 59.1865 67.6079 59.5509 68.9186C59.6144 69.1474 59.4699 69.4953 59.3179 69.7157C56.5944 73.6638 53.608 77.3714 49.6667 80.1752C48.0138 81.351 47.8515 81.3468 46.6663 79.7341C44.2867 76.4961 41.9357 73.236 39.6191 69.9518C39.1926 69.3471 38.8815 69.1908 38.1558 69.4731C33.9746 71.0991 29.6801 72.0146 25.1674 71.3125C16.328 69.9374 9.49871 65.4169 4.68395 57.8513C1.58086 52.9753 0.516448 47.5123 0.497786 40.8317L0.497559 40.8319ZM7.79661 23.5197C7.7668 23.5032 7.73721 23.4864 7.7074 23.4699C7.50394 23.8426 7.29183 24.2107 7.09861 24.5887C4.63093 29.4121 3.12956 34.5121 2.8692 39.9484C2.31436 51.5253 6.6653 60.4807 16.8988 66.1554C21.0693 68.4681 25.567 69.6021 30.3829 69.1091C33.3242 68.808 36.0923 67.8787 38.8058 66.7666C39.681 66.4079 40.169 66.5616 40.7266 67.3908C42.748 70.3961 44.8053 73.3824 46.9821 76.2741C48.5602 78.3706 48.027 78.6988 50.5324 76.5739C51.3092 75.9152 51.2855 75.4248 50.7141 74.6337C48.2566 71.2318 45.829 67.8062 43.4669 64.3366C42.9448 63.5698 42.5536 63.4865 41.7489 63.8386C39.0201 65.0322 36.1817 65.8839 33.1945 66.0549C21.62 66.7168 10.4204 59.1827 6.6373 48.1152C4.64436 42.2849 4.59952 36.3149 5.91518 30.3373C6.42133 28.0377 7.16257 25.7908 7.79661 23.5199V23.5197ZM47.7862 43.7732C47.9705 43.3826 48.0684 43.2371 48.1105 43.0769C49.4457 37.99 50.169 32.8409 49.3998 27.586C48.6524 22.4803 46.308 18.3997 41.5393 16.1109C37.9494 14.3878 34.1726 14.4989 30.4434 15.5495C23.5584 17.4895 18.8126 21.6447 17.2939 28.9683C16.3663 33.4415 16.4236 37.9058 17.5135 42.3418C18.7026 47.1827 21.2386 51.1024 25.4314 53.8431C26.9853 54.8589 28.6776 55.5407 30.7807 55.9921C30.0538 53.881 29.4453 52.0153 28.763 50.1777C28.4646 49.3738 28.5122 48.6632 29.103 48.0883C30.0748 47.1425 31.0493 46.1796 32.1312 45.3722C35.8895 42.5672 39.6954 39.8272 43.4812 37.0598C44.6906 36.1758 44.7211 36.204 45.2841 37.638C46.0657 39.6282 46.8964 41.5989 47.786 43.773L47.7862 43.7732ZM51.1895 41.3832C51.2464 41.4006 51.3031 41.4183 51.3599 41.4358C51.4617 41.2613 51.5759 41.0929 51.6635 40.9113C54.3499 35.354 54.9919 29.4686 54.0962 23.4405C53.3254 18.2538 50.8711 14.0169 46.2275 11.3311C42.7095 9.2963 38.918 9.09251 35.0236 9.82003C31.0472 10.5629 27.5627 12.3384 24.4933 14.9726C26.0574 14.5099 27.58 13.9263 29.1417 13.4838C32.9491 12.4051 36.8276 12.006 40.6405 13.2699C46.8465 15.3267 50.2844 19.9193 51.6114 26.2108C52.3923 29.9134 52.1192 33.6605 51.7213 37.3903C51.5791 38.7251 51.3686 40.0525 51.1893 41.3834L51.1895 41.3832ZM33.5895 47.2419C31.7803 48.148 30.9796 49.1801 31.3456 50.2736C31.9924 52.207 32.7234 54.1153 33.5195 55.9908C33.6474 56.2919 34.3365 56.5762 34.6961 56.5055C35.4635 56.3543 36.1879 55.9726 36.9164 55.6536C36.9551 55.6366 36.8984 55.3128 36.8335 55.1535C35.7668 52.5374 34.6915 49.9248 33.5898 47.2417L33.5895 47.2419Z" fill="black"/>
<path d="M7.79669 23.52C7.16264 25.7909 6.4214 28.038 5.91525 30.3374C4.59959 36.315 4.64443 42.285 6.63738 48.1153C10.4205 59.1828 21.6201 66.7169 33.1945 66.055C36.182 65.8842 39.0202 65.0325 41.7489 63.8387C42.5537 63.4866 42.9451 63.5699 43.467 64.3367C45.8291 67.8063 48.2565 71.2319 50.7141 74.6338C51.2856 75.4249 51.3093 75.9153 50.5325 76.574C48.0271 78.6989 48.5603 78.3707 46.9822 76.2742C44.8056 73.3825 42.748 70.3965 40.7266 67.3909C40.1691 66.5617 39.6811 66.408 38.8058 66.7667C36.0924 67.8788 33.3243 68.8081 30.383 69.1092C25.5671 69.6022 21.0693 68.4682 16.8989 66.1555C6.66537 60.4811 2.31443 51.5257 2.86928 39.9484C3.12986 34.512 4.631 29.4122 7.09869 24.5888C7.29213 24.2108 7.50424 23.8427 7.70747 23.47C7.73729 23.4865 7.76687 23.5032 7.79669 23.5198V23.52ZM42.5316 64.2015C42.297 64.2901 42.0956 64.3571 41.901 64.4407C32.4392 68.5022 23.5655 67.1568 15.4662 61.0697C6.87247 54.6113 3.80692 45.6047 4.57001 35.0658C4.63965 34.1051 4.79987 33.1511 4.91798 32.1938C4.66468 32.485 4.52609 32.8045 4.47101 33.138C4.14898 35.0862 3.72067 37.0271 3.55908 38.9898C2.77915 48.4646 5.32377 56.6787 12.918 62.7804C18.093 66.9386 23.9587 69.3183 30.6832 68.4149C33.3359 68.0585 35.9208 67.0877 38.4934 66.2606C40.2073 65.7096 40.1982 65.632 41.2537 67.1637C43.0855 69.8223 44.9387 72.4659 46.8017 75.1022C47.3523 75.8811 47.9658 76.6146 48.6022 77.4357C49.3318 76.7743 49.9556 76.2088 50.6199 75.6064C47.8955 71.765 45.2444 68.0264 42.5318 64.2013L42.5316 64.2015Z" fill="black"/>
<path d="M47.786 43.7731C46.8966 41.599 46.0657 39.6283 45.2842 37.638C44.7211 36.2041 44.6909 36.1759 43.4813 37.0599C39.6954 39.8272 35.8895 42.5673 32.1312 45.3722C31.0493 46.1798 30.0748 47.1426 29.103 48.0884C28.5122 48.6633 28.4646 49.3738 28.763 50.1778C29.4453 52.0156 30.0538 53.8812 30.7807 55.9922C28.6776 55.5408 26.9853 54.8589 25.4314 53.8431C21.2386 51.1024 18.7027 47.1825 17.5135 42.3419C16.4239 37.9056 16.3663 33.4416 17.2939 28.9683C18.8126 21.6445 23.5584 17.4893 30.4435 15.5496C34.1726 14.4989 37.9494 14.3879 41.5393 16.111C46.3081 18.3998 48.6524 22.4806 49.3998 27.5861C50.169 32.841 49.4458 37.9901 48.1105 43.077C48.0684 43.2372 47.9706 43.3827 47.7862 43.7733L47.786 43.7731ZM47.6617 41.9437C47.8258 41.577 47.9028 41.4565 47.9353 41.325C49.0814 36.6998 49.3764 32.0097 48.7881 27.2889C48.0213 21.1359 43.5809 16.4318 37.5887 15.6249C32.882 14.991 28.5331 16.262 24.5786 18.8973C21.1041 21.2128 18.9471 24.4602 18.0081 28.5215C16.9535 33.0833 16.9803 37.6734 18.0716 42.2136C19.2181 46.9847 21.7639 50.8447 25.969 53.4447C27.0937 54.1401 28.3545 54.6117 29.5527 55.1862C29.621 55.0985 29.6893 55.0108 29.7575 54.9229C29.3217 53.6063 28.9929 52.2403 28.4241 50.9849C27.6576 49.2933 28.1087 47.9998 29.3622 46.8337C29.7031 46.5165 30.0272 46.1741 30.4005 45.9003C34.7855 42.6813 39.1715 39.4632 43.5748 36.2695C44.5889 35.5339 45.1183 35.7343 45.6087 36.9229C46.2648 38.5129 46.9114 40.107 47.662 41.9435L47.6617 41.9437Z" fill="black"/>
<path d="M51.1894 41.383C51.3687 40.0521 51.579 38.7247 51.7215 37.3899C52.1191 33.6602 52.3924 29.9129 51.6116 26.2104C50.2845 19.919 46.8469 15.3262 40.6407 13.2695C36.8277 12.0058 32.9493 12.4047 29.1418 13.4833C27.5801 13.9258 26.0576 14.5092 24.4934 14.9721C27.5628 12.3379 31.0474 10.5622 35.0237 9.81958C38.9179 9.09206 42.7094 9.29586 46.2276 11.3306C50.8712 14.0165 53.3257 18.2533 54.0963 23.4401C54.9921 29.4684 54.3501 35.3535 51.6637 40.9109C51.5761 41.0924 51.4618 41.2609 51.3601 41.4353C51.3032 41.4179 51.2465 41.4002 51.1896 41.3828L51.1894 41.383ZM52.4386 36.5336C52.5888 36.4292 52.6666 36.4044 52.6892 36.3541C52.7629 36.1912 52.8287 36.0223 52.876 35.8497C54.0121 31.6884 54.1714 27.4589 53.4525 23.233C52.7231 18.945 50.8278 15.2641 47.2055 12.6863C43.4691 10.027 39.3039 9.59559 34.9408 10.453C32.7911 10.8755 30.7017 11.5177 28.7863 12.7877C30.774 12.5013 32.6648 12.1293 34.5728 11.9716C41.3564 11.4114 47.5492 15.0502 50.5645 21.1891C52.5877 25.308 52.8121 29.6795 52.5795 34.1385C52.539 34.9135 52.4887 35.6879 52.4386 36.5338V36.5336Z" fill="black"/>
<path d="M33.5893 47.2419C34.6913 49.9248 35.7664 52.5375 36.8331 55.1538C36.8979 55.3131 36.9546 55.6369 36.9159 55.6539C36.1877 55.9729 35.463 56.3545 34.6956 56.5058C34.3363 56.5765 33.6469 56.2924 33.519 55.991C32.7229 54.1155 31.9919 52.2072 31.3451 50.2739C30.9792 49.1803 31.7798 48.148 33.5891 47.2422L33.5893 47.2419ZM33.3574 48.145C31.8044 49.0385 31.6383 49.3843 32.1312 50.8417C32.5547 52.0934 33.0097 53.3361 33.5006 54.5626C34.1624 56.2164 34.5518 56.3231 36.2669 55.3401C35.303 52.9563 34.3335 50.5585 33.3574 48.1448V48.145Z" fill="black"/>
</svg>
