<svg width="166" height="115" viewBox="0 0 166 115" fill="none" xmlns="http://www.w3.org/2000/svg">
<path d="M0.209757 62.7605H7.98771C8.20873 64.8412 9.63764 65.7503 11.4204 66.1271C14.4379 66.7654 17.4773 66.6834 20.4948 66.035C20.8138 65.9663 21.127 65.8388 21.422 65.6951C22.1797 65.3252 22.5348 64.7084 22.4889 63.8601C22.445 63.0468 21.9875 62.566 21.2558 62.3021C19.6038 61.706 17.8731 61.7186 16.1524 61.6195C13.2776 61.4539 10.3909 61.3641 7.53835 61.0088C6.1716 60.8387 4.79064 60.2869 3.55878 59.638C1.17225 58.3804 0.219914 56.1346 0.546975 53.4461C0.866316 50.8205 2.40655 49.2499 4.72766 48.2835C6.71765 47.4548 8.82628 47.1226 10.9512 47.0524C14.4944 46.935 18.0494 46.7982 21.567 47.4353C23.7711 47.8344 25.8944 48.4581 27.6158 49.9983C29.0285 51.2619 29.5944 52.8796 29.5696 54.8112C29.3433 54.8348 29.1414 54.8738 28.9391 54.8742C26.7618 54.8786 24.5845 54.8701 22.4076 54.8831C22.0095 54.8855 21.7791 54.8096 21.6369 54.3715C21.2855 53.2877 20.3522 52.8411 19.3568 52.5471C17.4753 51.9912 15.5329 51.9088 13.5957 52.029C12.1899 52.1159 10.7765 52.2892 9.40118 52.5848C8.41146 52.7976 7.96658 53.6321 8.33427 54.4653C8.52604 54.9002 9.02008 55.3736 9.46659 55.4906C10.5989 55.787 11.7759 55.9888 12.9448 56.055C15.7522 56.2133 18.5755 56.1605 21.3728 56.4127C23.0682 56.5654 24.7852 56.9641 26.3884 57.5415C29.1528 58.5372 30.2746 60.4261 30.3286 63.3692C30.3753 65.903 29.7045 68.1111 27.422 69.4271C26.156 70.1572 24.7259 70.7545 23.2966 71.0241C17.8552 72.051 12.3878 72.0279 6.96996 70.8203C4.91415 70.3619 3.06676 69.4141 1.68214 67.7258C0.861847 66.7256 0.51244 65.5384 0.209351 64.323V62.7618L0.209757 62.7605Z" fill="black"/>
<path d="M93.3658 114.569C93.3442 113.792 93.3073 113.015 93.304 112.237C93.2955 110.037 93.3012 107.837 93.3012 105.638V104.798C94.9495 104.798 96.5072 104.845 98.06 104.779C98.873 104.745 99.3934 104.987 99.9021 105.639C101.4 107.558 102.982 109.412 104.533 111.289C104.646 111.425 104.776 111.547 105.008 111.791V104.839H108.703V114.57H102.738C102.664 114.43 102.61 114.273 102.512 114.152C101.415 112.798 100.311 111.449 99.2086 110.098C98.5167 109.251 97.8244 108.404 97.132 107.556C96.9805 107.879 96.9829 108.154 96.9801 108.428C96.9594 110.475 96.9374 112.523 96.9159 114.569H93.3658Z" fill="black"/>
<path d="M78.4573 114.57V104.799H79.4267C82.0265 104.799 84.6271 104.771 87.2266 104.816C88.0168 104.83 88.8318 104.954 89.5863 105.187C90.9713 105.615 91.571 106.541 91.5864 108.009C91.6027 109.538 91.0066 110.456 89.6521 110.972C89.3888 111.072 89.1138 111.142 88.7286 111.261C89.7789 112.39 90.7925 113.48 91.8062 114.57H87.6881C86.8495 113.61 86.015 112.646 85.1679 111.693C85.0497 111.56 84.8729 111.398 84.7181 111.393C83.8743 111.363 83.0284 111.379 82.1496 111.379V114.57H78.4573V114.57ZM82.1204 109.085C83.7678 109.085 85.3674 109.107 86.9657 109.072C87.5093 109.061 87.9075 108.764 87.9006 108.136C87.8937 107.534 87.4703 107.259 86.9848 107.245C85.3682 107.2 83.7496 107.228 82.1208 107.228V109.085H82.1204Z" fill="black"/>
<path d="M0.495972 114.568V104.924C0.630859 104.87 0.71496 104.808 0.798249 104.809C3.82305 104.839 6.85314 104.777 9.87022 104.948C11.7351 105.053 13.4732 105.823 14.0432 107.804C14.9183 110.847 14.1525 113.638 10.5312 114.441C10.4471 114.46 10.3732 114.525 10.2944 114.568H0.495972ZM4.21593 112.364C5.82605 112.292 7.36506 112.306 8.88173 112.128C10.0916 111.986 10.673 111.113 10.7035 109.799C10.7348 108.443 10.1883 107.498 8.94673 107.369C7.3935 107.208 5.81101 107.33 4.21593 107.33V112.364Z" fill="black"/>
<path d="M15.8296 114.568C15.8081 113.791 15.7711 113.014 15.7679 112.237C15.7594 110.037 15.765 107.838 15.765 105.639C15.765 105.386 15.765 105.133 15.765 104.841H27.6379V107.186H19.4358V108.575H26.9095V110.798H19.4342V112.274H27.616V114.568H15.8292L15.8296 114.568Z" fill="black"/>
<path d="M51.9009 114.567C51.0762 114.24 50.2023 114.001 49.436 113.57C46.3389 111.83 46.3194 107.69 49.3771 105.87C51.0867 104.853 52.9914 104.642 54.916 104.741C56.0812 104.801 57.2846 104.955 58.3772 105.336C59.2519 105.641 60.0551 106.274 60.7543 106.912C61.1614 107.283 61.3012 107.947 61.6498 108.661C60.2453 108.661 59.0955 108.667 57.9461 108.651C57.8335 108.65 57.6731 108.538 57.6194 108.434C56.7772 106.806 53.1117 106.625 51.6027 107.996C50.665 108.848 50.663 110.551 51.5897 111.437C53.0178 112.801 56.791 112.68 57.6483 110.964C57.7043 110.852 57.8981 110.746 58.0294 110.744C59.1373 110.726 60.2461 110.734 61.4048 110.734C61.4848 111.724 61.0383 112.479 60.3403 112.948C59.4562 113.542 58.4389 113.939 57.4756 114.414C57.3314 114.485 57.168 114.517 57.0132 114.566H51.9009V114.567Z" fill="black"/>
<path d="M110.408 114.568C111.06 113.344 111.699 112.113 112.366 110.897C113.377 109.055 114.418 107.23 115.423 105.384C115.65 104.967 115.897 104.764 116.408 104.783C117.613 104.827 118.822 104.775 120.028 104.815C120.276 104.824 120.626 105.005 120.743 105.211C122.452 108.23 124.13 111.268 125.812 114.302C125.856 114.381 125.863 114.479 125.887 114.568H122.053C121.788 114.02 121.554 113.454 121.242 112.934C121.139 112.761 120.841 112.615 120.629 112.612C118.974 112.586 117.319 112.588 115.664 112.609C115.465 112.611 115.175 112.721 115.086 112.873C114.768 113.417 114.518 114 114.243 114.568H110.409L110.408 114.568ZM120.11 110.309C119.435 109.045 118.819 107.893 118.15 106.642C117.476 107.916 116.86 109.083 116.212 110.309H120.11Z" fill="black"/>
<path d="M138.385 114.568C139.036 113.344 139.675 112.113 140.342 110.897C141.353 109.055 142.394 107.23 143.399 105.384C143.627 104.967 143.873 104.764 144.384 104.783C145.59 104.827 146.798 104.775 148.004 104.815C148.252 104.824 148.602 105.005 148.719 105.211C150.429 108.23 152.107 111.268 153.789 114.302C153.832 114.381 153.839 114.479 153.863 114.568H150.029C149.765 114.02 149.53 113.454 149.219 112.934C149.115 112.761 148.817 112.615 148.606 112.611C146.951 112.585 145.295 112.588 143.64 112.609C143.441 112.611 143.152 112.72 143.062 112.873C142.744 113.416 142.495 113.999 142.219 114.567H138.385L138.385 114.568ZM148.086 110.311C147.416 109.055 146.8 107.902 146.13 106.645C145.456 107.914 144.836 109.081 144.182 110.311H148.086Z" fill="black"/>
<path d="M61.4149 114.568C62.4408 112.689 63.4626 110.808 64.4938 108.933C65.1633 107.714 65.8601 106.51 66.5146 105.283C66.7064 104.924 66.9254 104.778 67.3394 104.787C68.5908 104.813 69.8429 104.783 71.0943 104.81C71.3104 104.815 71.6265 104.937 71.7208 105.104C73.4572 108.181 75.1677 111.273 76.8794 114.364C76.9095 114.418 76.8904 114.499 76.894 114.568H73.0599C72.8064 114.022 72.5833 113.458 72.2827 112.939C72.1827 112.767 71.887 112.616 71.6785 112.612C70.0099 112.586 68.3405 112.588 66.6719 112.61C66.4785 112.612 66.2014 112.733 66.11 112.887C65.7886 113.427 65.531 114.005 65.249 114.568H61.4149V114.568ZM69.1896 106.646C68.5156 107.911 67.9017 109.064 67.25 110.287H71.1284C70.4739 109.058 69.86 107.905 69.1892 106.646H69.1896Z" fill="black"/>
<path d="M129.864 114.568C128.196 111.356 126.528 108.143 124.791 104.8C126.023 104.8 127.121 104.778 128.216 104.822C128.396 104.83 128.624 105.1 128.727 105.301C129.744 107.297 130.738 109.305 131.742 111.307C131.854 111.531 131.985 111.746 132.161 112.059C132.791 110.789 133.376 109.616 133.957 108.442C134.479 107.386 135.009 106.334 135.509 105.268C135.67 104.926 135.859 104.775 136.256 104.787C137.271 104.818 138.286 104.797 139.473 104.797C137.753 108.117 136.081 111.343 134.409 114.569H129.864L129.864 114.568Z" fill="black"/>
<path d="M29.6063 114.57V104.839H33.2775V112.288H39.9731V114.569H29.6067L29.6063 114.57Z" fill="black"/>
<path d="M155.424 114.569C155.403 113.817 155.365 113.065 155.363 112.313C155.354 110.095 155.36 107.877 155.36 105.658V104.845H159.017V112.298H165.791V114.569H155.424Z" fill="black"/>
<path d="M86.9198 41.9706C86.9198 41.0679 86.8803 40.1981 86.9441 39.3357C86.9628 39.0823 87.2444 38.822 87.4536 38.6129C94.111 31.9601 100.775 25.313 107.437 18.6647C108.86 17.2448 110.287 15.8289 111.696 14.3955C111.963 14.1234 112.169 14.028 112.541 14.2258C120.143 18.2717 127.753 22.3058 135.43 26.3789C135.278 26.5564 135.156 26.7164 135.016 26.8573C130.099 31.7738 125.185 36.6923 120.251 41.5913C120.018 41.8228 119.608 41.9941 119.279 41.9945C108.729 42.0152 98.1792 42.012 87.6291 42.01C87.4219 42.01 87.2143 41.9872 86.9198 41.9698V41.9706Z" fill="black"/>
<path d="M8.1574 82.0355V99.3269H0.474121V76.0166H13.1096C15.1077 81.6282 17.1152 87.2667 19.1755 93.0533C19.6935 91.624 20.1684 90.3304 20.6316 89.0322C22.1125 84.8787 23.5914 80.7248 25.0614 76.5672C25.1962 76.1855 25.3181 75.9419 25.8215 75.9451C29.7024 75.9711 33.5832 75.9597 37.4641 75.9609C37.5786 75.9609 37.6932 75.9739 37.8557 75.9837V99.3451H30.2033V82.1208C30.1578 82.1098 30.1123 82.0984 30.0668 82.0875C29.8706 82.5971 29.6666 83.1034 29.4793 83.6163C27.6917 88.5104 25.8975 93.4025 24.1346 98.3056C23.9514 98.8156 23.7251 98.976 23.1859 98.9699C20.4886 98.9391 17.7909 98.9423 15.0935 98.9683C14.6133 98.9728 14.4073 98.8323 14.2428 98.3751C12.3308 93.0745 10.3932 87.7832 8.46212 82.4895C8.40077 82.3214 8.33576 82.1545 8.27238 81.9872C8.23419 82.0034 8.196 82.0193 8.1574 82.0355Z" fill="black"/>
<path d="M102.92 83.1743C100.382 83.1743 97.9491 83.1791 95.5163 83.1625C95.3733 83.1617 95.1384 83.0159 95.1035 82.8929C94.7358 81.5967 93.6925 81.1225 92.5545 80.7915C90.5706 80.2141 88.5261 80.2897 86.4975 80.364C85.3254 80.4066 84.146 80.5686 82.9958 80.8045C82.0312 81.0023 81.6262 81.5326 81.5969 82.2655C81.5668 83.0163 81.9784 83.6705 82.9442 83.8455C84.5384 84.1338 86.1632 84.2856 87.7814 84.4001C90.6778 84.6048 93.5872 84.6535 96.4755 84.9325C98.3863 85.1172 100.22 85.717 101.757 86.9717C103.054 88.0298 103.627 89.4543 103.69 91.072C103.726 92.0088 103.677 92.9699 103.503 93.8888C103.086 96.0924 101.646 97.495 99.6685 98.3919C96.9883 99.6072 94.1227 99.9085 91.2308 99.9499C88.1597 99.9938 85.0784 100.079 82.0357 99.5138C79.4936 99.0412 77.0717 98.2811 75.2714 96.2683C73.9587 94.8008 73.5053 93.045 73.5963 91.0687H81.3434C81.7042 93.6415 83.6604 94.3184 85.8003 94.6278C88.4347 95.0083 91.0809 94.9291 93.6982 94.3943C94.0858 94.3151 94.464 94.1523 94.8236 93.9802C95.5626 93.6261 95.8815 93.0142 95.858 92.1984C95.834 91.3769 95.3891 90.817 94.6566 90.6249C93.5897 90.3452 92.4919 90.1032 91.3953 90.0345C88.8251 89.8729 86.246 89.8599 83.6747 89.7174C81.6631 89.6057 79.6979 89.2244 77.8197 88.4444C73.4326 86.6225 73.1965 82.2493 74.6506 79.4235C75.5526 77.6706 77.218 76.8419 79.004 76.2506C81.0419 75.5762 83.1623 75.3492 85.288 75.2997C88.6663 75.2209 92.0535 75.1478 95.3948 75.8194C97.3564 76.2137 99.2395 76.8187 100.807 78.1339C102.341 79.4223 102.992 81.0928 102.92 83.1747L102.92 83.1743Z" fill="black"/>
<path d="M106.247 99.3412V76.0122H131.631V81.5402H114.089V84.9519H130.094V90.1477H114.086V93.7612H131.645V99.3416H106.247V99.3412Z" fill="black"/>
<path d="M150.545 99.6607C145.899 99.5799 142.265 99.035 138.954 97.1099C135.108 94.8746 133.508 91.4856 133.66 87.1116C133.808 82.8221 135.796 79.7385 139.605 77.8678C140.948 77.2084 142.394 76.6752 143.853 76.3528C148.506 75.3247 153.146 75.4254 157.69 76.979C159.7 77.666 161.538 78.6889 163.016 80.2497C164.921 82.2605 165.665 84.7265 165.706 87.4373C165.764 91.4349 164.319 94.6614 160.839 96.8386C159.097 97.9285 157.217 98.7008 155.208 99.0614C153.377 99.3899 151.514 99.5405 150.545 99.6607H150.545ZM149.685 94.0125C151.707 94.0397 153.602 93.6341 155.374 92.5897C158.817 90.5602 158.673 84.7435 155.441 82.7648C152.342 80.8677 146.944 80.875 143.859 82.8062C140.714 84.7752 140.635 90.4867 143.815 92.4817C145.628 93.6186 147.589 94.034 149.685 94.0129L149.685 94.0125Z" fill="black"/>
<path d="M65.5342 70.9695C62.7829 70.9695 60.157 70.9808 57.5316 70.9496C57.3029 70.9467 56.9775 70.7177 56.8669 70.5058C56.1803 69.1877 55.5217 67.8542 54.9001 66.5041C54.6994 66.0684 54.4524 65.9344 53.9851 65.9364C50.034 65.9547 46.0825 65.9567 42.1309 65.9344C41.6267 65.9316 41.3756 66.1029 41.1668 66.5435C40.5403 67.8652 39.8866 69.1747 39.2036 70.468C39.0874 70.6877 38.7778 70.9447 38.5544 70.9475C35.9993 70.9804 33.4437 70.9678 30.8886 70.9654C30.8033 70.9654 30.7175 70.9427 30.5542 70.9195C30.6736 70.6528 30.7561 70.4404 30.8601 70.239C34.732 62.7315 38.6088 55.2264 42.4698 47.7132C42.6628 47.338 42.8887 47.2149 43.2921 47.2166C46.4628 47.2292 49.6334 47.2292 52.8037 47.2166C53.2039 47.2149 53.431 47.3278 53.6248 47.7059C57.465 55.204 61.3223 62.6933 65.1743 70.1854C65.2901 70.4107 65.3864 70.6463 65.5338 70.9691L65.5342 70.9695ZM52.4916 60.6143C51.0002 57.5864 49.5587 54.6591 48.0505 51.5971C46.5351 54.6754 45.0887 57.6144 43.6118 60.6143H52.4916Z" fill="black"/>
<path d="M127.26 70.9685C124.475 70.9685 121.802 70.977 119.13 70.9494C118.949 70.9474 118.7 70.707 118.602 70.5162C117.915 69.1713 117.249 67.8151 116.6 66.4516C116.426 66.0865 116.212 65.9355 115.79 65.9371C111.767 65.9538 107.743 65.9387 103.721 65.9672C103.468 65.9688 103.106 66.201 102.985 66.4272C102.277 67.7599 101.637 69.1291 100.942 70.4695C100.834 70.679 100.565 70.9446 100.367 70.947C97.697 70.9787 95.0273 70.9681 92.2219 70.9681C92.7135 70.0062 93.1568 69.1327 93.6057 68.2622C97.1205 61.4445 100.641 54.6301 104.139 47.804C104.371 47.3516 104.633 47.2103 105.119 47.2132C108.219 47.2323 111.319 47.2323 114.419 47.2132C114.904 47.2103 115.168 47.3496 115.4 47.8028C119.254 55.3221 123.13 62.8296 126.999 70.3408C127.083 70.5036 127.141 70.6794 127.26 70.9681L127.26 70.9685ZM109.783 51.5941C108.267 54.6647 106.819 57.5976 105.341 60.593H114.215C112.735 57.587 111.289 54.6529 109.783 51.5941Z" fill="black"/>
<path d="M63.7642 75.9993H71.4764C71.5048 76.0776 71.5479 76.1406 71.5479 76.2031C71.5393 80.4366 71.6401 84.6746 71.4869 88.9028C71.2923 94.2704 68.7616 97.2895 63.5709 98.6676C60.1227 99.5833 56.6116 99.6474 53.0834 99.3043C51.0519 99.1066 49.079 98.6733 47.1963 97.851C43.9293 96.4246 42.164 93.8717 41.698 90.4174C41.4969 88.9256 41.4945 87.4017 41.4786 85.8915C41.4473 82.8876 41.4693 79.8828 41.4693 76.8784V76.0001H49.2667C49.2667 76.2908 49.2667 76.5645 49.2667 76.8382C49.2667 80.1739 49.2427 83.5096 49.2818 86.845C49.2931 87.8053 49.413 88.7794 49.6133 89.7194C50.0431 91.7363 51.3396 92.9857 53.3166 93.4981C55.2928 94.0102 57.301 94.0443 59.289 93.5988C62.0794 92.9735 63.557 91.3067 63.6635 88.4383C63.7886 85.0603 63.7395 81.6763 63.7634 78.2947C63.7687 77.5427 63.7642 76.7907 63.7642 75.9993Z" fill="black"/>
<path d="M75.3914 47.3376V65.271H90.3895V70.9273H67.2827V47.3376H75.3914Z" fill="black"/>
<path d="M61.2837 10.3884C67.3577 7.18461 73.4288 3.98247 79.591 0.732422V28.6145C73.532 22.5822 67.4406 16.5182 61.2837 10.3884Z" fill="black"/>
<path d="M1.8656 41.7473C5.64488 39.754 9.42415 37.7607 13.203 35.7666C16.7527 33.8934 20.3029 32.0215 23.849 30.1423C24.1833 29.9653 24.4218 29.8577 24.7672 30.2061C28.5334 34.0014 32.3212 37.7757 36.1021 41.5565C36.181 41.6352 36.248 41.7262 36.3939 41.898H1.88591C1.87901 41.8476 1.87251 41.7977 1.8656 41.7473Z" fill="black"/>
<path d="M131.119 70.7347V47.2701C131.533 47.2701 131.927 47.2701 132.322 47.2701C134.38 47.2701 136.438 47.2632 138.496 47.2722C140.879 47.2823 142.261 48.3417 142.625 50.6842C142.935 52.684 143.158 54.7171 143.18 56.7377C143.21 59.6633 143.057 62.5925 142.91 65.5165C142.864 66.4253 142.647 67.3401 142.397 68.22C141.857 70.1127 140.356 70.7489 138.59 70.8013C136.18 70.8728 133.765 70.818 131.352 70.8139C131.287 70.8139 131.222 70.7713 131.118 70.7347H131.119ZM134.931 67.6621C135.389 67.6621 135.765 67.6418 136.138 67.6654C138.243 67.799 138.94 67.3198 139.225 64.7913C139.233 64.7211 139.233 64.6496 139.235 64.579C139.289 61.8876 139.386 59.1963 139.381 56.5054C139.378 55.1175 139.233 53.7256 139.076 52.3442C138.975 51.4573 138.569 50.6278 137.611 50.469C136.748 50.3261 135.844 50.439 134.93 50.439V67.6621H134.931Z" fill="black"/>
<path d="M145.127 47.3069H154.648V50.36H148.94V57.2873H154.294V60.3201H148.933V67.6554H154.653V70.7723H145.127V47.3073V47.3069Z" fill="black"/>
<path d="M165.644 67.6948V70.7682H156.769V47.3174H160.543V67.6948H165.644Z" fill="black"/>
<path d="M31.437 26.1903C33.3299 25.1885 35.1399 24.2278 36.9528 23.2724C42.6493 20.2696 48.3503 17.2758 54.0375 14.2551C54.5275 13.9949 54.7973 14.0598 55.1763 14.4399C63.196 22.4867 71.2319 30.5168 79.2472 38.5676C79.4934 38.8149 79.6437 39.2461 79.6705 39.6042C79.7184 40.2543 79.8838 41.1456 79.5438 41.5034C79.2159 41.8485 78.3119 41.68 77.6606 41.6804C67.6656 41.6873 57.6705 41.6808 47.6755 41.697C47.1079 41.6979 46.7142 41.5285 46.3168 41.1286C41.4893 36.2697 36.6452 31.4279 31.8059 26.5813C31.7076 26.483 31.615 26.3791 31.437 26.1903Z" fill="black" fill-opacity="0.5"/>
<path d="M87.177 28.2791V0.732422C93.253 3.94715 99.2478 7.11924 105.176 10.2564C99.1718 16.2684 93.1799 22.2687 87.177 28.2791Z" fill="black" fill-opacity="0.5"/>
<path d="M164.571 41.7772H130.356C130.532 41.5839 130.647 41.4463 130.773 41.3204C134.432 37.6623 138.097 34.0102 141.744 30.3407C142.077 30.0049 142.318 29.9127 142.766 30.1507C149.994 33.9964 157.232 37.8235 164.467 41.6558C164.486 41.666 164.497 41.6903 164.571 41.7768V41.7772Z" fill="black" fill-opacity="0.5"/>
</svg>
