<svg width="188" height="40" viewBox="0 0 188 40" fill="none" xmlns="http://www.w3.org/2000/svg">
<path d="M27.0537 0.000480298C35.0294 0.000480298 43.0041 -0.000600372 50.9798 0.000480298C53.1592 0.000480298 54.1711 1.02171 54.1722 3.22412C54.1755 14.3399 54.1765 25.4557 54.1744 36.5704C54.1744 38.6301 53.1538 39.6503 51.0932 39.6503C35.105 39.6546 19.1169 39.6557 3.12873 39.6535C0.977389 39.6557 0 38.6593 0 36.5066C0 25.4276 0 14.3496 0.00107999 3.27167C0.00107999 0.999019 0.986029 0.00264164 3.23996 0.00156097C11.1779 0.000480298 19.1158 0.000480298 27.0537 0.000480298ZM17.9462 11.6058C18.0509 11.1065 18.1546 10.564 18.2799 10.028C18.4678 9.22292 18.2993 8.74094 17.3759 8.50211C15.0216 7.89153 12.6521 7.77698 10.3042 8.30759C8.20359 8.782 6.67001 10.0291 6.26933 12.2909C5.83302 14.7559 6.37301 16.9411 8.55459 18.374C9.65942 19.0992 10.977 19.4925 12.1725 20.0869C12.9977 20.4975 13.8865 20.8769 14.555 21.481C15.9071 22.7032 15.5259 24.9024 13.8206 25.4946C12.8065 25.8469 11.6272 25.9322 10.5504 25.835C9.24686 25.7172 7.97247 25.2795 6.55337 24.9488C6.46049 25.6869 6.27689 26.4185 6.31685 27.1383C6.33629 27.5046 6.68189 28.0525 7.00696 28.1714C9.58814 29.1181 12.2471 29.3104 14.9006 28.5377C17.0433 27.9142 18.5909 26.5698 19.0262 24.281C19.4743 21.924 18.8004 19.8913 16.8327 18.4583C16.0043 17.8553 14.9989 17.4922 14.0647 17.0383C13.0009 16.5207 11.868 16.1187 10.8776 15.4886C10.0428 14.958 9.76201 14.0049 9.94669 13.0171C10.1378 11.9938 10.8258 11.4015 11.8302 11.1962C12.3011 11.1 12.7946 10.9747 13.2623 11.0212C14.7721 11.1692 16.2754 11.3918 17.9451 11.6058H17.9462ZM34.7627 21.16C34.6914 21.1438 34.619 21.1265 34.5477 21.1103C34.5229 20.664 34.511 20.2166 34.4721 19.7713C34.1751 16.4245 31.9201 14.1108 28.6175 13.7596C24.9434 13.3684 22.0102 15.0823 21.2293 18.3989C20.8567 19.9821 20.8589 21.7306 21.0673 23.3559C21.4788 26.5493 23.4811 28.3745 26.6444 28.8241C29.7893 29.2715 32.5606 27.9769 33.7766 25.232C34.3328 23.9762 34.4473 22.5238 34.7616 21.16H34.7627ZM34.9959 14.0849C35.2422 14.7949 35.4009 15.2855 35.5813 15.7675C37.1484 19.954 38.7305 24.134 40.2814 28.3259C40.9229 30.0593 39.7727 31.8122 37.9108 32.0186C36.8553 32.136 36.3114 32.7437 36.279 33.8417C36.2692 34.1669 36.2779 34.4922 36.2779 34.7948C39.7792 35.6042 42.5073 33.8298 43.7557 30.0193C44.4977 27.7542 45.2483 25.4924 45.9956 23.2295C46.986 20.2306 47.9774 17.2318 49.012 14.0978C47.9115 14.0978 46.9417 14.0395 45.987 14.1335C45.7073 14.1616 45.3325 14.5766 45.2342 14.8878C44.7396 16.4494 44.3324 18.0379 43.8767 19.6114C43.3864 21.3016 42.8745 22.9852 42.2815 24.9769C42.0731 24.3966 41.9802 24.1567 41.9014 23.9135C40.9251 20.9017 39.965 17.8856 38.9563 14.8845C38.8504 14.5701 38.4854 14.1464 38.2078 14.1205C37.2164 14.0276 36.2098 14.0838 34.9959 14.0838V14.0849Z" fill="black"/>
<path d="M158.24 13.6861C158.24 12.1461 158.281 10.7369 158.224 9.33207C158.192 8.57128 158.478 8.23843 159.202 8.16495C160.079 8.07525 160.953 7.95097 161.927 7.82886V28.5799H158.535C158.457 28.0893 158.386 27.6343 158.266 26.8767C157.323 28.4005 156.119 28.9603 154.594 28.9279C152.099 28.876 150.227 27.5716 149.499 25.1747C148.741 22.6859 148.757 20.1636 149.565 17.6878C150.357 15.2693 152.521 13.8298 155.458 13.6904C156.311 13.6493 157.169 13.6839 158.239 13.6839L158.24 13.6861ZM158.231 21.0509H158.223C158.223 19.8978 158.242 18.7436 158.208 17.5905C158.2 17.3409 158.067 16.9638 157.88 16.8719C156.127 16.0128 153.507 17.1691 153.17 19.1348C152.913 20.6348 152.917 22.2547 153.187 23.7525C153.544 25.7323 155.565 26.4769 157.387 25.554C157.971 25.2579 158.29 24.8894 158.246 24.1751C158.185 23.1365 158.23 22.0926 158.23 21.0509H158.231Z" fill="black"/>
<path d="M65.2895 24.9262C66.8782 25.2752 68.3113 25.6632 69.7693 25.8782C70.4821 25.9831 71.2532 25.8242 71.9779 25.6816C73.0492 25.4708 73.8063 24.8657 73.9607 23.705C74.1141 22.5498 73.6832 21.6226 72.6799 21.0736C71.7046 20.5397 70.6516 20.1518 69.6397 19.6828C68.9334 19.3553 68.2055 19.0549 67.5456 18.6464C65.3521 17.2869 64.4363 15.0878 64.9104 12.3731C65.3403 9.91242 67.0142 8.6783 69.2865 8.17363C71.6161 7.65599 73.9424 7.84835 76.2481 8.45028C77.0009 8.64696 77.3184 8.99494 77.1283 9.78815C76.9739 10.4322 76.8983 11.0947 76.7763 11.8144C75.6002 11.5831 74.5288 11.2978 73.4391 11.1822C72.5621 11.0893 71.655 11.1325 70.778 11.2449C69.846 11.3648 69.0911 11.8414 68.8135 12.827C68.5197 13.8688 68.8146 14.7895 69.6311 15.4357C70.2304 15.9112 70.9659 16.2257 71.6636 16.5639C72.9293 17.1778 74.2869 17.6381 75.4738 18.3762C77.5711 19.6806 78.2148 21.7371 77.8757 24.0962C77.5744 26.1906 76.3389 27.643 74.3862 28.3843C71.4789 29.4877 68.5413 29.3548 65.6686 28.2319C65.323 28.0969 64.9698 27.4841 64.9623 27.0854C64.9471 26.3289 65.1793 25.5681 65.2895 24.9251V24.9262Z" fill="black"/>
<path d="M92.2839 14.4221V28.6372C91.2795 28.6372 90.3572 28.6761 89.4425 28.6091C89.2243 28.5929 88.9813 28.2492 88.8441 28.0039C88.7113 27.7662 88.7005 27.4604 88.5893 26.987C87.5633 28.3054 86.4293 28.9776 84.8633 28.9247C82.6925 28.8523 81.1654 27.8969 80.3112 25.9301C79.1793 23.3236 79.1944 20.6046 79.9753 17.9451C80.646 15.6605 82.3027 14.2848 84.6937 13.8807C87.2684 13.4452 89.7891 13.6872 92.2839 14.4232V14.4221ZM88.5914 16.7812C87.8106 16.7812 87.1529 16.7682 86.4952 16.7833C84.9778 16.8179 83.9896 17.4858 83.5922 18.9317C83.1094 20.69 83.1126 22.4893 83.7131 24.2216C84.3438 26.0393 87.0589 26.5429 88.3776 25.1315C88.4899 25.0116 88.5806 24.816 88.5817 24.656C88.5947 22.0927 88.5903 19.5282 88.5903 16.7823L88.5914 16.7812Z" fill="black"/>
<path d="M131.762 14.1087V28.6275C130.752 28.6275 129.742 28.7507 128.793 28.5627C128.446 28.4946 128.244 27.6884 127.943 27.1589C128.045 27.1459 127.946 27.1276 127.91 27.1675C125.001 30.2507 120.675 29.2414 119.435 25.0689C118.65 22.4266 118.6 19.6915 119.784 17.0935C120.846 14.7615 122.888 13.8018 125.274 13.7391C127.407 13.6829 129.55 13.9693 131.763 14.1098L131.762 14.1087ZM128.002 16.9898C125.185 16.3328 123.435 16.9876 123.082 19.1187C122.81 20.7603 122.885 22.5466 123.226 24.1817C123.603 25.9939 126.418 26.5397 127.737 25.2202C127.859 25.0981 127.991 24.9133 127.992 24.7566C128.008 22.1565 128.002 19.5564 128.002 16.9898Z" fill="black"/>
<path d="M168.1 22.6329C168.045 24.2388 168.811 25.3411 170.208 25.7366C171.881 26.2089 173.527 25.9863 175.155 25.487C175.576 25.3573 175.994 25.2136 176.611 25.0126C176.478 25.9938 176.392 26.8324 176.232 27.657C176.191 27.8688 175.954 28.1141 175.745 28.2092C173.535 29.2153 168.343 29.492 166.039 27.054C164.818 25.7604 164.268 24.2248 164.129 22.5216C163.902 19.7292 164.12 17.0005 166.491 15.078C168.778 13.2246 171.422 13.2182 173.975 14.3691C176.218 15.3806 176.965 17.4479 177.002 19.8102C177.033 21.6935 176.108 22.6348 174.228 22.634H168.099L168.1 22.6329ZM168.031 19.8265H173.258C173.244 17.6738 172.402 16.646 170.733 16.6482C169.013 16.6514 168.061 17.7429 168.031 19.8265Z" fill="black"/>
<path d="M146.951 28.5843H143.19C143.19 26.6315 143.19 24.7425 143.19 22.8546C143.19 21.6626 143.211 20.4696 143.183 19.2776C143.139 17.4675 142.458 16.7888 140.673 16.7164C140.524 16.7099 140.375 16.7099 140.226 16.7121C138.358 16.7304 138.364 16.7304 138.366 18.6281C138.368 21.6097 138.337 24.5912 138.378 27.5717C138.389 28.393 138.16 28.727 137.312 28.6664C136.466 28.607 135.613 28.6535 134.653 28.6535C134.624 28.1348 134.577 27.7014 134.577 27.2691C134.577 23.3939 134.611 19.5175 134.575 15.6422C134.568 14.8133 134.824 14.4578 135.639 14.2946C138.242 13.7737 140.839 13.309 143.474 14.0396C145.636 14.6394 146.845 15.9318 146.922 18.1656C147.038 21.5881 146.952 25.017 146.952 28.5854L146.951 28.5843Z" fill="black"/>
<path d="M107.397 28.581H103.797C103.77 28.1553 103.726 27.7619 103.723 27.3685C103.699 24.6452 103.704 21.922 103.657 19.1987C103.626 17.3356 102.883 16.6526 101.022 16.7056C100.361 16.7239 99.7023 16.805 98.9409 16.8655V28.5486H95.1599C95.1405 28.1391 95.1081 27.7759 95.1081 27.4118C95.1048 23.4943 95.1372 19.5769 95.0843 15.6595C95.0724 14.7571 95.391 14.4524 96.2269 14.2816C98.5748 13.804 100.917 13.4074 103.312 13.8634C106.13 14.4005 107.445 15.9685 107.461 18.8107C107.477 21.721 107.469 24.6312 107.465 27.5414C107.465 27.8667 107.423 28.1909 107.396 28.581H107.397Z" fill="black"/>
<path d="M113.853 14.0438H117.852C117.737 15.1083 117.636 16.0344 117.525 17.0557H113.907C113.907 19.6147 113.859 22.0646 113.934 24.5101C113.96 25.3455 114.613 25.8307 115.477 25.8145C116.172 25.8015 116.865 25.688 117.724 25.6037C117.603 26.4197 117.543 27.2291 117.338 28.0007C117.266 28.2762 116.88 28.5907 116.581 28.6664C113.106 29.5482 110.019 28.3724 110.055 24.0876C110.092 19.6871 110.079 15.2855 110.053 10.8839C110.048 10.2031 110.227 9.93944 110.936 9.79031C113.874 9.17216 113.866 9.13866 113.854 12.0694C113.852 12.6616 113.854 13.2539 113.854 14.0438H113.853Z" fill="black"/>
<path d="M179.426 28.5378C179.426 23.9731 179.418 19.5034 179.449 15.0338C179.45 14.8025 179.748 14.4189 179.969 14.3659C182.556 13.7456 185.169 13.4787 188 13.9628C187.904 14.9624 187.81 15.935 187.709 16.9779H183.273V28.5378H179.426Z" fill="black"/>
<path d="M24.4563 21.2724C24.6064 20.343 24.6691 19.4807 24.8937 18.6626C25.2458 17.3853 26.342 16.6363 27.6574 16.6418C28.9901 16.6472 30.0593 17.3788 30.4427 18.6453C30.9611 20.3614 30.9816 22.1045 30.4729 23.8271C30.0506 25.2569 29.1035 25.9485 27.6909 25.9636C26.3754 25.9777 25.3257 25.2914 24.9175 23.9536C24.6485 23.0761 24.5967 22.1326 24.4563 21.2724Z" fill="black"/>
</svg>
