<svg width="88" height="85" viewBox="0 0 88 85" fill="none" xmlns="http://www.w3.org/2000/svg">
<path d="M29.2479 32.8062C29.1805 31.3174 29.1499 29.6283 29.0103 27.9488C28.9255 26.9324 28.6889 25.9269 28.487 24.9231C28.3358 24.1705 28.4567 23.9305 29.2023 23.7866C29.5754 23.7145 29.9557 23.6581 30.3346 23.641C30.8831 23.6164 31.1598 23.868 31.1425 24.4107C31.1255 24.9391 31.3726 25.0516 31.8411 25.0536C32.5999 25.0574 33.3717 25.0499 34.1135 25.1828C35.2292 25.3828 35.9141 26.2085 35.9475 27.2167C35.9802 28.2045 34.583 29.1345 34.583 29.1345C34.583 29.1345 34.0798 29.5244 33.9457 29.6639C34.0904 29.7726 34.1694 29.8495 34.3825 29.9841C35.8042 30.7911 37.2521 31.5987 37.872 33.2649C38.6442 35.3395 37.6821 37.9257 35.7402 39.1274C34.5728 39.8499 33.2958 40.1616 31.9473 40.2461C31.1769 40.2942 31.041 40.4877 31.2514 41.2393C31.502 42.134 31.4553 42.3535 30.9518 42.6501C30.2914 43.0391 29.2442 42.9837 28.8254 42.4919C28.7018 42.347 28.6334 42.064 28.6783 41.8784C29.3909 38.9514 29.2585 35.9742 29.2476 32.8055L29.2479 32.8062ZM31.1843 35.6672H31.151C31.151 36.414 31.1554 37.1615 31.1489 37.9083C31.1459 38.2586 31.3038 38.395 31.6521 38.4114C33.2434 38.4873 34.4805 37.8878 35.3483 36.5319C36.196 35.2069 35.9673 33.2744 34.8632 32.2194C33.9586 31.355 32.8927 30.9063 31.6606 30.7952C31.262 30.7593 31.1826 30.9602 31.1833 31.287C31.1861 32.7471 31.1843 34.2072 31.1843 35.6672ZM31.1993 27.5722C31.2878 28.117 31.0911 28.2599 31.5517 28.2158C32.1829 28.1553 32.8127 28.0213 33.4231 27.8477C33.5998 27.7974 33.8129 27.6672 33.8143 27.3254C33.8156 26.9836 33.5426 26.8346 33.3533 26.8005C32.8695 26.714 32.3633 26.7215 31.868 26.7413C31.3695 26.7608 31.1105 27.0274 31.199 27.5722H31.1993Z" fill="black"/>
<path d="M54.4033 26.7593C54.3407 26.4989 54.2644 26.0915 54.1422 25.6981C53.9566 25.0999 54.1327 24.6057 54.6985 24.4338C55.3933 24.2226 56.1004 24.0288 56.8157 23.915C57.8074 23.7571 58.2371 24.238 58.1376 25.2387C58.106 25.5569 58.123 25.91 58.2282 26.2077C59.1372 28.7799 60.0383 31.3555 61.0093 33.9042C61.6888 35.6876 62.4521 37.4402 63.231 39.1826C63.387 39.5319 63.742 39.8344 64.0747 40.0511C64.6466 40.4236 64.8008 40.8741 64.3222 41.3621C63.8289 41.8649 63.2719 42.3171 62.6911 42.7153C62.4463 42.8831 62.0688 42.9077 61.7525 42.9043C61.3637 42.9002 61.092 42.6004 61.1955 42.2412C61.5915 40.8676 61.0573 39.6235 60.7039 38.3665C60.2246 36.662 59.6628 34.9808 59.1294 33.2921C59.0204 32.9475 58.7957 32.7059 58.4042 32.7473C57.5786 32.8348 56.751 32.9192 55.9319 33.0518C55.4151 33.1352 55.0951 33.4452 54.977 34.0067C54.5119 36.2177 53.9948 38.4181 53.542 40.6314C53.4589 41.0378 53.5495 41.4934 53.6234 41.9151C53.7272 42.5057 53.5045 42.8844 52.9203 42.8359C52.2881 42.7833 51.6525 42.6578 51.0431 42.4787C50.5791 42.342 50.4021 41.7634 50.7354 41.479C51.8374 40.5388 52.0178 39.199 52.2871 37.9256C52.9806 34.6448 53.6043 31.349 54.2474 28.0577C54.3206 27.6835 54.34 27.299 54.403 26.7593H54.4033ZM56.4341 27.7005C56.2625 27.7005 55.9418 29.1938 55.8819 29.9501C55.7617 31.4663 55.6177 31.252 57.0353 31.1224C57.0867 31.1177 57.1381 31.1095 57.1892 31.103C57.834 31.0185 57.931 30.8531 57.6801 30.2523C57.3808 29.5352 57.0816 28.8185 56.7738 28.1049C56.7108 27.9589 56.606 27.7002 56.4341 27.7002V27.7005Z" fill="black"/>
<path d="M19.723 25.1972C19.6222 24.1527 19.9211 23.8157 20.9312 23.935C21.6465 24.0194 22.3557 24.22 23.0457 24.4387C23.5476 24.5977 23.7562 25.0967 23.5465 25.5789C23.2623 26.2321 23.2326 26.8917 23.3586 27.5715C23.8621 30.2893 24.3347 33.0136 24.8906 35.7209C25.1837 37.1482 25.6015 38.5518 26.0165 39.9501C26.1339 40.3455 26.3862 40.7355 26.6711 41.0386C27.3629 41.7741 27.2608 42.3524 26.2878 42.6272C25.7948 42.7667 25.2671 42.8265 24.7534 42.8354C24.1958 42.8449 23.9959 42.484 24.0633 41.929C24.127 41.404 24.1944 40.8476 24.0912 40.3393C23.6664 38.2453 23.1622 36.1676 22.7206 34.0769C22.5804 33.4132 22.1865 33.07 21.5723 32.975C20.8543 32.8639 20.1271 32.8137 19.4033 32.7399C19.0265 32.7013 18.7691 32.8527 18.6445 33.2225C18.1679 34.6374 17.6735 36.0469 17.2156 37.4681C16.9709 38.2271 16.8013 39.0105 16.5719 39.7751C16.3472 40.5246 16.2423 41.258 16.5344 42.0212C16.7254 42.5206 16.3918 42.9632 15.8603 42.8952C14.6674 42.7424 13.7816 42.0869 13.1783 41.0591C12.9417 40.6558 13.0901 40.2529 13.498 40.1083C14.1765 39.8677 14.4502 39.3164 14.6807 38.7405C15.7834 35.9847 16.8711 33.2228 17.9449 30.4554C18.4722 29.0962 18.9669 27.7243 19.4544 26.35C19.5855 25.9805 19.6359 25.5823 19.723 25.1972ZM21.3354 27.1559C21.1389 27.0985 21.0378 27.4502 20.9895 27.566C20.5762 28.5538 20.1652 29.5425 19.7771 30.5402C19.6379 30.8984 19.8483 31.1093 20.1874 31.1711C20.6282 31.2511 21.0742 31.3037 21.5189 31.3629C22.0339 31.4309 22.1739 31.3123 22.0942 30.8081C21.9318 29.7818 21.7473 28.7592 21.5607 27.7369C21.5318 27.578 21.5318 27.2137 21.3354 27.1562V27.1559Z" fill="black"/>
<path d="M67.1679 24.3386C67.6149 24.3878 68.0667 24.4101 68.5072 24.4928C69.1231 24.6083 69.2709 24.8974 69.2058 25.5051C69.1885 25.6658 69.3853 25.9505 69.548 26.0144C71.5134 26.7868 73.1805 27.9991 74.2087 29.8297C75.6644 32.422 76.1158 35.1539 74.4317 37.8768C73.8423 38.8297 72.9269 39.4415 72.0131 40.0478C71.1018 40.6528 70.0917 40.9922 69.0377 41.214C68.5702 41.3124 68.2934 41.4648 68.5107 42.0168C68.6645 42.4082 68.4463 42.7113 68.1215 42.8849C67.3855 43.2794 66.5974 43.3453 65.8072 43.0794C65.1968 42.8737 65.0027 42.4338 65.2938 41.862C66.2579 39.9685 66.2811 37.895 66.3686 35.8617C66.4639 33.6425 66.3965 31.4128 66.3127 29.1909C66.2736 28.1546 66.0077 27.1398 65.495 26.201C64.8873 25.0881 65.2703 24.4504 66.5422 24.3755C66.7492 24.3632 66.9575 24.3738 67.1652 24.3738C67.1662 24.3622 67.1673 24.3506 67.1683 24.339L67.1679 24.3386ZM68.0436 34.7485C68.0436 36.156 68.0504 37.5634 68.0391 38.9709C68.0361 39.3687 68.1862 39.5762 68.5903 39.5201C69.1715 39.4395 69.7465 39.3 70.3296 39.2505C71.9498 39.1124 73.8832 36.6047 73.7661 35.0968C73.696 34.1911 73.6316 33.3137 73.3191 32.4473C72.6052 30.4695 71.4439 28.9885 69.2957 28.4899C68.5345 28.3132 68.3673 28.3552 68.2972 29.1341C68.1294 30.9999 67.9966 34.7461 68.0436 34.7485Z" fill="black"/>
<path d="M7.01861 33.1847C6.93487 31.3251 6.84124 29.4654 6.77418 27.6051C6.75681 27.1229 6.55663 26.9653 6.09465 27.0033C4.74921 27.1144 3.39833 27.1543 2.14141 27.7675C1.94497 27.8632 1.53269 27.7709 1.36111 27.6123C0.811974 27.1048 0.712904 25.9137 1.16978 25.3432C1.31447 25.1624 1.74309 24.9888 1.89901 25.0743C3.23764 25.8088 4.65355 25.5059 6.03507 25.4109C7.77951 25.2906 9.51646 25.0551 11.2551 24.8559C12.1774 24.7503 13.0407 24.4991 13.7996 23.9078C14.4144 23.4286 14.9962 23.6183 15.2009 24.3668C15.3394 24.875 15.3891 25.4249 15.3741 25.953C15.3605 26.4229 15.0208 26.6437 14.5401 26.5918C14.5057 26.588 14.4696 26.5904 14.4369 26.5805C12.832 26.0979 11.2432 26.3959 9.65263 26.6721C8.99898 26.7856 8.89208 26.899 8.87676 27.545C8.78859 31.2208 8.86825 34.8895 9.44734 38.5284C9.56956 39.2957 9.82524 40.0428 10.0401 40.793C10.2937 41.6783 9.86405 42.3796 8.94928 42.4633C8.41818 42.5119 7.87177 42.5283 7.3451 42.4599C6.66047 42.371 6.22027 41.6748 6.51646 41.063C7.32944 39.3842 7.19599 37.6148 7.15343 35.8431C7.13232 34.9568 7.06253 33.184 7.01896 33.1844L7.01861 33.1847Z" fill="black"/>
<path d="M45.9004 40.3536C46.6837 40.3328 47.4331 40.2241 48.1139 39.7442C48.7771 39.277 49.2997 39.5125 49.3974 40.3263C49.4703 40.936 49.4556 41.5769 49.3518 42.1818C49.2463 42.7984 48.7649 42.9966 48.2093 42.7204C47.2097 42.2235 46.1649 42.0041 45.0496 42.0167C43.9415 42.0294 42.8326 41.9757 41.7241 41.9449C40.4025 41.908 39.7805 41.2532 39.8898 39.9281C40.1778 36.4276 40.4785 32.9278 40.807 29.4307C40.9432 27.9822 40.8962 26.5915 40.1564 25.2825C39.865 24.7671 39.9596 24.4817 40.4972 24.222C41.5594 23.7086 42.6549 23.7787 43.7072 24.249C44.2019 24.4701 44.2792 24.845 44.0136 25.3386C43.8431 25.6561 43.5329 25.9117 43.4155 26.2419C43.0924 27.1517 42.6995 28.0687 42.581 29.0141C42.1599 32.3775 41.7895 35.7509 41.9689 39.154C42.022 40.1626 42.1364 40.2795 43.1489 40.2754C43.3395 40.2747 45.1742 40.3728 45.9004 40.3536Z" fill="black"/>
<path d="M62.16 55.1151C62.191 55.9658 62.4521 56.7505 62.9127 57.4713C63.3604 58.1723 63.2259 58.6115 62.4432 58.8453C61.9864 58.9817 61.4934 59.0384 61.0147 59.0483C60.4782 59.0592 60.1473 58.5661 60.3788 58.0698C61.0035 56.7293 61.0246 55.3099 61.0205 53.8789C61.0175 52.8351 61.0096 51.7906 61.0406 50.7475C61.0641 49.9594 60.8578 49.2813 60.3199 48.6951C60.0261 48.3749 60.0782 48.0153 60.4727 47.8482C60.9626 47.6411 61.4835 47.4917 62.0044 47.3789C62.3867 47.2962 62.6611 47.5013 62.6587 47.9172C62.655 48.5902 63.0043 49.0595 63.468 49.4798C63.7893 49.771 64.0818 50.1022 64.4348 50.3459C64.6129 50.469 64.9959 50.5568 65.1164 50.456C65.8432 49.8479 66.5384 49.1979 67.2013 48.5198C67.3511 48.3667 67.4164 48.03 67.3729 47.8065C67.2772 47.3147 67.5359 47.0331 67.9132 47.0372C68.5365 47.0436 69.1782 47.1387 69.774 47.3225C70.1601 47.4415 70.1165 47.8721 69.9126 48.1671C69.4918 48.7761 69.4131 49.4569 69.4315 50.159C69.4741 51.7759 69.548 53.3922 69.5837 55.0095C69.598 55.6469 69.7927 56.1835 70.1907 56.6822C70.6663 57.2779 70.4992 57.7858 69.7567 57.8627C69.2096 57.9194 68.6298 57.8056 68.0847 57.6795C67.7164 57.5944 67.6095 57.2536 67.8505 56.9371C68.4054 56.2088 68.4953 55.3714 68.4378 54.5112C68.3411 53.073 68.2097 51.6372 68.0749 50.202C68.0606 50.0499 67.9578 49.8367 67.8386 49.7847C67.7341 49.7393 67.5165 49.8452 67.4055 49.9467C67.0607 50.2625 66.7502 50.6163 66.4118 50.9399C66.1245 51.2151 65.8337 51.4912 65.5151 51.727C65.0684 52.0575 64.5976 52.0415 64.1846 51.6631C63.7124 51.2308 63.2726 50.7632 62.8051 50.3254C62.7037 50.2304 62.4773 50.1115 62.4259 50.1521C62.3094 50.2448 62.207 50.4286 62.2029 50.578C62.1818 51.36 62.193 52.1427 62.193 52.925C62.1801 52.925 62.1327 54.3861 62.1593 55.1151H62.16Z" fill="black"/>
<path d="M7.5061 52.1022C6.15999 52.0181 6.1828 51.9477 6.33906 53.3715C6.42451 54.1494 6.49839 54.929 6.56818 55.7086C6.63252 56.4264 6.79594 57.1007 7.1786 57.7316C7.549 58.3424 7.36652 58.7105 6.66418 58.8513C6.24169 58.936 5.80627 58.975 5.37526 58.9894C4.94324 59.0037 4.69199 58.7669 4.68791 58.3191C4.68586 58.0942 4.68518 57.8618 4.73523 57.6448C5.30649 55.1744 5.01405 52.6938 4.83089 50.2152C4.77336 49.4353 4.71514 48.6509 4.5776 47.8829C4.44993 47.1713 4.24737 46.4683 4.01927 45.781C3.82113 45.1839 3.94472 44.8927 4.56773 44.7826C4.80604 44.7406 5.04946 44.7177 5.29117 44.7108C6.0136 44.691 6.25803 45.002 6.09292 45.7133C5.98466 46.1788 6.17429 46.348 6.68121 46.1709C7.58236 45.8562 8.47399 45.8425 9.3857 46.1169C10.5041 46.4536 11.2377 47.2065 11.4239 48.3255C11.6255 49.5368 11.4202 50.7398 10.3059 51.4859C9.48136 52.0379 8.49407 52.1432 7.50644 52.1018L7.5061 52.1022ZM7.8108 51.0867C8.42667 51.15 8.98193 50.95 9.49838 50.5946C10.1149 50.1701 10.3692 49.3717 10.1459 48.5022C9.92803 47.6536 9.4017 47.211 8.59519 47.1303C7.62049 47.0329 6.92497 47.5384 6.3663 48.2175C5.84337 48.8532 5.69494 49.6735 6.00304 50.4292C6.26655 51.0755 6.9808 51.045 7.58611 51.0861C7.65488 51.0908 7.72433 51.0867 7.81046 51.0867H7.8108Z" fill="black"/>
<path d="M50.4807 46.9252C51.4908 46.916 51.7761 47.2708 51.4013 48.0411C51.0346 48.7948 50.9764 49.572 50.9798 50.3741C50.9876 52.1657 50.9628 53.9587 51.0326 55.7479C51.0571 56.372 51.3002 56.9934 51.4837 57.6038C51.6028 57.9999 51.6699 58.3523 51.2862 58.6329C50.7534 59.0225 49.9905 59.1606 49.6936 58.8475C49.5312 58.6766 49.4693 58.3595 49.4587 58.1041C49.4379 57.5946 49.3545 57.5026 48.8476 57.5371C48.3996 57.5675 47.9465 57.5935 47.4998 57.5631C46.8901 57.5214 46.4342 57.1444 46.3001 56.6458C46.1438 56.0658 46.2881 55.521 46.8604 55.2086C47.5199 54.8487 48.2328 54.5486 48.9579 54.3589C49.8094 54.1361 49.8771 54.1511 49.8713 53.2833C49.8632 52.1004 49.8798 50.9155 49.8063 49.736C49.7692 49.1423 49.6031 48.5435 49.411 47.9762C49.2068 47.3719 49.2732 47.1532 49.8972 47.0107C50.1324 46.957 50.3759 46.9403 50.4804 46.9256L50.4807 46.9252ZM49.4968 56.3108C49.6776 56.209 49.8012 55.858 49.7934 55.6249C49.7893 55.5015 49.4366 55.2776 49.2606 55.2951C48.8037 55.3402 48.338 55.4475 47.9155 55.6249C47.7296 55.7028 47.4082 55.9123 47.5069 56.2155C47.6057 56.5186 47.9893 56.5354 48.147 56.5757C48.3046 56.616 49.1639 56.4985 49.4972 56.3108H49.4968Z" fill="black"/>
<path d="M39.3148 51.8038C39.3148 50.8642 39.3264 49.9247 39.3049 48.9858C39.3009 48.8009 39.3271 48.5603 39.0983 48.4359C38.8695 48.3115 38.6816 48.5589 38.526 48.6857C38.3735 48.8101 38.2873 49.0183 38.176 49.1922C37.8781 49.6588 37.4121 49.681 37.0713 49.2414C37.0076 49.1591 36.9535 49.0695 36.8946 48.9834C36.3829 48.2373 36.5215 47.8829 37.3991 47.8542C38.1389 47.8299 38.7153 47.469 39.3056 47.1077C39.8568 46.77 40.2919 46.9119 40.4485 47.5349C40.5271 47.8473 40.5179 48.1888 40.507 48.5155C40.4202 51.0877 40.3218 53.6596 40.2316 56.2315C40.2245 56.4393 40.2388 56.6498 40.2633 56.8566C40.3079 57.2322 40.5087 57.4418 40.8996 57.3337C41.2301 57.2425 41.5628 57.1342 41.8675 56.9797C42.2852 56.7678 42.5678 56.9099 42.6811 57.3006C42.7693 57.6044 42.7785 57.9572 42.7237 58.2706C42.6627 58.6168 42.3594 58.7323 42.0346 58.6393C40.6534 58.2453 39.2777 58.5549 37.902 58.6622C37.6718 58.68 37.4328 58.7901 37.2306 58.9121C36.8925 59.1158 36.5688 59.0669 36.4364 58.7432C36.2862 58.3765 36.1425 57.8697 36.2494 57.547C36.3563 57.2244 36.6004 57.2893 36.8047 57.2599C36.9453 57.2394 37.1145 57.3874 37.2653 57.4698C38.1828 57.9715 38.8535 57.6704 38.9628 56.6447C39.099 55.3658 39.1722 54.0797 39.2617 52.7956C39.2845 52.4665 39.2985 51.8041 39.3155 51.8041L39.3148 51.8038Z" fill="black"/>
<path d="M77.89 49.464C78.0452 49.4756 78.2025 49.4756 78.3554 49.5006C78.9205 49.5929 79.087 49.8813 78.7996 50.3762C78.3002 51.2361 78.735 51.9949 79.0325 52.7526C79.1513 53.0547 79.4785 53.0988 79.7883 52.9016C80.6326 52.3633 81.0381 50.8745 80.5859 49.9675C80.4297 49.6544 80.1321 49.3307 80.5611 49.0064C80.9264 48.7302 81.7734 48.7063 82.0288 48.9944C82.1493 49.1304 82.2286 49.369 82.2133 49.5512C82.0465 51.5082 81.8759 53.4652 81.6662 55.4178C81.5409 56.585 81.2164 57.6982 80.5543 58.6921C80.4215 58.8917 80.3405 59.1275 80.2465 59.3514C79.8942 60.1897 79.4066 60.2967 78.7346 59.6791C78.7217 59.6675 78.7091 59.6555 78.6968 59.6436C77.923 58.9064 78.0146 58.486 79.0291 58.1896C79.5912 58.0252 80.0034 57.6582 80.1679 57.1339C80.4583 56.2087 80.6646 55.2555 80.8716 54.3063C80.9094 54.1324 80.9049 53.875 80.733 53.7291C80.5611 53.5831 80.3616 53.8002 80.2169 53.8972C79.074 54.6642 78.0956 54.2711 77.7878 52.8938C77.7126 52.5564 77.7306 52.1983 77.6554 51.8609C77.5584 51.4265 77.4103 51.0034 77.285 50.5751C77.2012 50.2887 76.9813 49.9387 77.0753 49.734C77.1648 49.5385 77.8784 49.437 77.89 49.464Z" fill="black"/>
<path d="M31.8881 55.5206C31.1255 55.5418 31.0166 55.4308 31.055 54.671C31.0812 54.1552 30.9131 54.0291 30.4058 54.1098C29.8281 54.2014 29.2449 54.2714 28.6617 54.3135C27.9662 54.3637 27.3493 54.1176 27.0841 53.4601C26.8182 52.8011 26.9734 52.1254 27.4092 51.5416C28.0336 50.7053 28.9218 50.4233 29.9057 50.3861C30.336 50.3697 30.655 50.3225 30.6591 49.7784C30.6601 49.6448 30.8194 49.4807 30.9471 49.3878C31.0816 49.29 31.261 49.2394 31.4282 49.2052C32.587 48.9684 33.0051 49.2155 32.7079 50.4233C32.3971 51.6862 32.3307 52.9665 32.8516 54.2113C32.8849 54.2906 32.8996 54.3781 32.921 54.4621C33.1243 55.2609 33.0068 55.4304 32.1996 55.5012C32.0961 55.51 31.9926 55.5148 31.8888 55.5206H31.8881ZM29.3065 53.3606C30.3558 53.3565 31.0707 52.7331 31.102 51.8824C31.1173 51.4624 30.9277 51.1647 30.4998 51.2275C29.9632 51.3062 29.4158 51.4282 28.9218 51.6442C28.4602 51.8462 28.294 52.378 28.4214 52.785C28.5769 53.2816 28.9623 53.3702 29.3065 53.3606Z" fill="black"/>
<path d="M20.0863 55.5214C19.2277 55.5621 19.1024 55.4377 19.1092 54.7018C19.1146 54.1122 18.9716 54.0343 18.3844 54.1464C17.8271 54.253 17.2538 54.3252 16.6876 54.3224C15.9842 54.3194 15.3357 54.1174 15.0429 53.3709C14.7505 52.6252 15.0575 51.9973 15.5233 51.4539C16.1677 50.7023 17.0049 50.325 18.0058 50.3844C18.4331 50.4097 18.7183 50.3386 18.6887 49.8065C18.6816 49.6759 18.8368 49.4945 18.9652 49.408C19.1323 49.2955 19.3417 49.2279 19.5422 49.1872C20.6701 48.9589 20.89 49.1588 20.7008 50.2935C20.4512 51.7902 20.3729 53.2605 21.0218 54.6946C21.2223 55.1376 21.0497 55.3741 20.5625 55.4667C20.3589 55.5053 20.1503 55.5146 20.0859 55.5214H20.0863ZM17.2997 53.442C18.2509 53.4441 19.0152 52.8446 19.1973 52.0452C19.3002 51.594 19.0806 51.2218 18.6349 51.2625C18.0769 51.3131 17.5043 51.4262 16.9868 51.6347C16.4806 51.8387 16.2821 52.3493 16.4118 52.7882C16.5582 53.2838 16.9582 53.4147 17.2997 53.442Z" fill="black"/>
<path d="M73.268 50.3493C73.6817 50.4419 73.9537 50.3178 73.9843 49.7854C73.9928 49.6367 74.1763 49.4484 74.3268 49.3687C74.5505 49.2508 74.8123 49.1766 75.0652 49.149C76.0134 49.0444 76.1707 49.2347 76.0321 50.1794C75.8605 51.349 75.6624 52.5234 75.9769 53.6998C76.0617 54.0166 76.202 54.318 76.3038 54.6308C76.4665 55.1315 76.3402 55.3505 75.8329 55.448C75.6467 55.4838 75.4554 55.5043 75.2658 55.5105C74.5093 55.5341 74.386 55.4066 74.4232 54.6612C74.4521 54.0805 74.2635 53.9711 73.7174 54.0894C73.1315 54.2162 72.5248 54.2685 71.9243 54.2989C71.2642 54.3324 70.7089 54.0573 70.4468 53.4376C70.1812 52.8101 70.2684 52.1594 70.6759 51.6023C71.3013 50.7471 72.1585 50.3281 73.268 50.3496V50.3493ZM72.8384 53.3368C73.7065 53.3378 74.4548 52.6953 74.4838 51.8507C74.4984 51.4276 74.3156 51.1268 73.8934 51.1901C73.3235 51.2759 72.7427 51.4095 72.2191 51.6416C71.8184 51.8189 71.5508 52.2219 71.7132 52.7192C71.8705 53.2008 72.2685 53.3446 72.8387 53.3368H72.8384Z" fill="black"/>
<path d="M27.2393 57.0193C27.1746 57.3614 26.9383 57.5016 26.6254 57.3109C25.8935 56.8645 25.1244 56.8727 24.3162 57.0186C23.843 57.1041 23.3527 57.1366 22.8717 57.1253C22.3154 57.1123 22.1163 56.7227 22.3764 56.2278C23.1161 54.8183 23.8617 53.4118 24.6052 52.0044C24.8214 51.5953 24.706 51.2757 24.2502 51.2706C23.7838 51.2655 23.2799 51.3379 22.855 51.5221C21.8892 51.9405 21.56 51.7696 21.5147 50.6981C21.5065 50.5081 21.4844 50.4606 21.5457 50.1383C21.607 49.816 21.9699 49.7251 22.0996 49.7729C23.1791 50.1708 24.2794 50.1021 25.3862 50.0173C25.5067 50.0081 25.6286 50.0084 25.7495 50.0115C26.4079 50.0269 26.6268 50.396 26.3054 50.9623C25.9037 51.6701 25.4734 52.3626 25.0917 53.081C24.6934 53.8305 24.3339 54.6009 23.9652 55.3661C23.7987 55.7117 23.9387 55.9079 24.3016 55.9318C25.0148 55.979 25.6654 55.8135 26.2564 55.3805C26.4716 55.2226 26.7558 54.9598 27.0197 55.0681C27.2835 55.1765 27.2304 55.5681 27.2491 55.8269C27.2774 55.9414 27.2896 56.7503 27.2386 57.0197L27.2393 57.0193Z" fill="black"/>
<path d="M12.5998 52.0645C12.5998 51.1779 12.6502 50.2873 12.5808 49.4065C12.5396 48.8829 12.3271 48.3682 12.159 47.8603C11.9969 47.3709 12.0667 47.1972 12.5518 47.0424C12.8977 46.932 13.2358 46.795 13.5851 46.6969C14.2292 46.5161 14.5489 46.8168 14.3657 47.4611C13.7594 49.5918 13.6716 51.7839 13.6062 53.974C13.5715 55.1364 13.5946 56.3067 14.1049 57.4028C14.2966 57.8143 14.1267 58.1103 13.6899 58.2398C13.6069 58.2644 13.5231 58.2935 13.438 58.302C12.0381 58.4435 11.8168 58.2658 12.1392 56.872C12.4385 55.5787 12.625 52.0645 12.6002 52.0645H12.5998Z" fill="black"/>
<path d="M56.0739 56.292C55.7784 56.292 55.4141 56.088 55.0879 55.9748C54.582 55.7992 54.0826 55.605 53.575 55.4348C52.9479 55.225 52.5006 54.8271 52.2289 54.2222C51.4557 52.5027 52.4042 50.3485 54.1388 49.9564C54.5511 49.8631 55.0021 49.8693 55.4257 49.9168C56.2097 50.005 56.7078 50.4718 56.7612 51.0778C56.8171 51.7091 56.3503 52.3824 55.6143 52.5652C55.0849 52.6968 54.5184 52.6688 53.9733 52.7484C53.7037 52.7877 53.2672 52.8554 53.222 53.0061C53.1352 53.2949 53.1842 53.7068 53.3418 53.9665C53.528 54.2735 53.8589 54.5291 54.1824 54.7051C54.5531 54.9071 54.9514 54.8606 55.2602 54.4973C55.3583 54.3818 55.4941 54.297 55.6167 54.2041C55.9813 53.9272 56.159 54.1142 56.2196 54.4775C56.2652 54.7499 56.2591 55.0308 56.2758 55.308C56.2992 55.3159 56.3697 56.292 56.0742 56.292H56.0739ZM54.0111 51.9805C54.2899 52.0932 55.2759 51.5078 55.2085 51.1564C55.1771 50.9924 54.9701 50.7699 54.8125 50.7408C54.3985 50.6646 53.6734 51.2258 53.7221 51.571C53.7473 51.7484 53.7323 51.8673 54.0111 51.9801V51.9805Z" fill="black"/>
<path d="M82.3917 53.6956C82.3675 52.5616 83.2976 51.5126 84.3537 51.4832C85.4965 51.4515 86.3582 52.3534 86.3681 53.5927C86.379 54.9574 85.503 55.8901 84.1787 55.923C83.1284 55.9493 82.4206 55.0671 82.3917 53.6956ZM83.9938 53.686C84.0126 53.8641 84.0085 54.0415 84.0524 54.2062C84.1794 54.6823 84.6805 54.8515 85.0758 54.564C85.5885 54.1908 85.7692 53.4136 85.3924 52.9037C85.232 52.687 84.9192 52.4908 84.6574 52.4645C84.2675 52.4248 84.1239 52.7776 84.0643 53.1241C84.032 53.3111 84.0166 53.5011 83.9938 53.686Z" fill="black"/>
<path d="M45.6655 47.8128C45.5991 48.4676 45.4044 48.849 45.1719 49.3162C44.7936 50.0757 44.0549 50.3723 43.2507 50.1105C43.0066 50.0313 42.7186 49.7923 42.6376 49.5606C42.4163 48.9276 42.2512 48.2663 42.1463 47.6029C42.0578 47.0438 42.319 46.6357 42.8586 46.4856C43.3491 46.3493 43.884 46.2354 44.38 46.2901C45.1926 46.3793 45.7326 47.1579 45.6662 47.8128H45.6655ZM43.9197 47.2416C43.1711 47.2724 42.9505 47.4501 42.9515 48.023C42.9532 48.903 43.2596 49.3815 43.8227 49.3829C44.459 49.3846 44.778 48.8931 44.7341 47.9785C44.7062 47.3972 44.5073 47.2174 43.9194 47.2413L43.9197 47.2416Z" fill="black"/>
<path d="M86.0612 27.1584C85.761 26.2575 85.2796 25.4598 84.4748 24.8955C82.6061 23.5851 78.5926 24.1231 77.3448 27.2989C76.3405 29.8554 76.4512 32.4806 76.8277 35.1052C76.986 36.2088 77.3408 37.31 77.7745 38.3408C78.2416 39.4502 78.9674 40.4191 80.1225 40.9503C81.2361 41.4623 82.4018 41.3481 83.5416 41.1465C85.1043 40.8703 86.1069 39.9157 86.6233 38.3924C87.1439 36.8571 87.0996 35.2784 87.1197 33.9985C87.0897 30.5072 87.0322 30.0731 86.0606 27.1584H86.0612ZM83.3305 39.4184C82.5812 39.4184 80.3643 40.2336 79.396 33.3057C78.4278 26.3778 81.2695 25.6567 82.2064 25.5316C82.2064 25.5316 84.5483 24.7164 85.7661 31.6757C86.9838 38.6351 84.0799 39.4188 83.3305 39.4188V39.4184Z" fill="black"/>
<path d="M15.5352 3.9856L14.0372 4.04336L14.7215 21.8753H16.2215L15.5352 3.9856Z" fill="black"/>
<path d="M16.9453 79.8426L18.4429 79.7845L17.776 62.3992H16.276L16.9453 79.8426Z" fill="black"/>
<path d="M21.1443 78.0157L22.6402 78.1056L23.5795 62.3992H22.0778L21.1443 78.0157Z" fill="black"/>
<path d="M26.9136 6.63491L25.4177 6.54468L24.5009 21.8755H26.0026L26.9136 6.63491Z" fill="black"/>
<path d="M24.0289 84.1623L25.5201 84.3154L27.7527 62.3992H26.2459L24.0289 84.1623Z" fill="black"/>
<path d="M34.0652 0.432902L32.5741 0.279785L30.3741 21.8755H31.8806L34.0652 0.432902Z" fill="black"/>
<path d="M19.1908 2.29517L17.7317 2.63934L22.233 21.8754H23.7729L19.1908 2.29517Z" fill="black"/>
<path d="M49.2497 0.994127L47.7756 0.722412L43.9044 21.8755H45.4286L49.2497 0.994127Z" fill="black"/>
<path d="M54.4626 3.86645L52.9752 3.67847L50.6929 21.8755H52.2034L54.4626 3.86645Z" fill="black"/>
<path d="M50.0978 82.0819L51.5767 82.3259L54.8419 62.3992H53.3228L50.0978 82.0819Z" fill="black"/>
<path d="M69.7224 6.16966L68.2435 5.92529L65.6299 21.8755H67.1489L69.7224 6.16966Z" fill="black"/>
<path d="M74.061 4.43925L72.5678 4.31006L71.0634 21.8755H72.5674L74.061 4.43925Z" fill="black"/>
<path d="M66.0979 79.8467L67.5914 79.9759L69.0969 62.3992H67.5924L66.0979 79.8467Z" fill="black"/>
<path d="M33.2576 62.4091L33.259 62.3992H33.2552H31.7426H31.7158L28.7924 81.5125L30.274 81.7408L32.6329 66.3184L32.6489 66.3881L33.2576 62.4091Z" fill="black"/>
<path d="M38.0123 62.3992H36.4884L35.0695 70.1521L33.2576 62.4091L32.6489 66.3881L34.3937 73.8443L32.4453 84.4918L33.9194 84.7635L35.2489 77.4986L36.3104 82.034L37.7695 81.6899L35.9247 73.8064L38.0123 62.3992Z" fill="black"/>
<path d="M45.6093 62.3992L43.8489 76.4347L42.5879 62.3992H41.0828L42.5034 78.2116L43.6388 78.1087L43.4291 79.7804L44.9162 79.9683L47.1202 62.3992H45.6093Z" fill="black"/>
<path d="M61.7811 62.3992H60.5085H60.2811H58.9898L56.463 77.8202L57.9419 78.0646L60.3243 63.5247L61.1346 84.6463L62.6322 84.5882L61.7811 62.3992Z" fill="black"/>
<path d="M63.1756 2.26933L60.1766 20.5723L59.3967 0.248047L57.899 0.305808L58.7267 21.8755H59.9628H60.2263H61.4819L64.6545 2.5137L63.1756 2.26933Z" fill="black"/>
<path d="M41.0056 1.83618L38.5745 17.7313L37.5188 5.98196L36.0262 6.11731L37.4418 21.8754H37.9406H38.9469H39.4572L42.4872 2.06449L41.0056 1.83618Z" fill="black"/>
</svg>
