<svg width="104" height="85" viewBox="0 0 104 85" fill="none" xmlns="http://www.w3.org/2000/svg">
<path d="M82.8686 47.4403C82.9057 47.0296 82.9563 46.7219 82.9573 46.414C82.9615 45.114 82.964 43.8138 82.9404 42.5141C82.9277 41.8219 83.212 41.5297 83.9225 41.5691C84.6549 41.6096 85.3921 41.5928 86.126 41.5665C86.8593 41.5402 87.1408 41.8559 87.1331 42.5872C87.0973 45.9735 87.0904 49.3601 87.0807 52.7466C87.0751 54.6971 87.0887 56.6475 87.0846 58.5979C87.0825 59.5892 86.891 59.762 85.8738 59.7475C85.302 59.7393 84.7256 59.683 84.1596 59.7351C83.4043 59.8046 83.0105 59.5693 83.0594 58.7658C83.0703 58.5879 82.9977 58.405 82.9525 58.166C82.7604 58.233 82.5829 58.2449 82.4796 58.338C78.9102 61.5548 73.5364 59.6209 72.7239 54.5752C72.3636 52.3385 72.5007 50.1252 73.9008 48.1111C75.8603 45.292 80.2603 45.1684 82.2719 47.1392C82.3931 47.258 82.5883 47.3022 82.8688 47.4399L82.8686 47.4403ZM82.8937 52.7852C82.888 51.0063 81.6001 49.5878 79.9945 49.5916C78.1881 49.596 76.8673 50.9648 76.859 52.8415C76.8504 54.7642 78.2125 56.2398 79.9753 56.2173C81.51 56.1978 82.8996 54.5636 82.8937 52.7852Z" fill="black"/>
<path d="M37.3967 58.1607C37.2729 58.2948 37.245 58.3117 37.2376 58.3349C36.9561 59.2217 36.3294 59.6724 35.3574 59.6871C34.9485 59.6933 34.5398 59.7071 34.1311 59.71C33.1943 59.7165 33.0156 59.5411 33.0191 58.6397C33.0395 53.3272 33.0598 48.015 33.0782 42.7026C33.0818 41.6673 33.2007 41.5394 34.2539 41.5376C34.9625 41.5363 35.6712 41.5669 36.3796 41.5589C36.9985 41.5518 37.2845 41.8423 37.2757 42.4473C37.2555 43.8294 37.2284 45.2118 37.2276 46.5939C37.2276 46.8202 37.2835 47.1313 37.4341 47.2444C37.5448 47.3275 37.8857 47.2016 38.0671 47.0828C41.6838 44.7177 45.6409 45.9662 47.1015 50C48.1002 52.7578 47.7445 55.3958 46.0386 57.7999C44.3128 60.2322 40.4853 60.6637 38.1864 58.7316C37.9458 58.5294 37.6762 58.3613 37.3967 58.1607ZM43.1594 52.993C43.1188 51.6916 42.7827 50.5797 41.6027 49.9275C40.0793 49.0855 38.2775 49.9311 37.5772 51.3396C36.8606 52.7805 37.6044 55.1026 38.7028 55.7814C39.6325 56.356 40.6035 56.3826 41.5708 55.8603C42.7331 55.2327 43.0871 54.1647 43.1595 52.9932L43.1594 52.993Z" fill="black"/>
<path d="M70.3536 67.0875C70.3853 65.8811 71.2594 66.0134 72.0993 66.0531C72.534 66.0737 72.9711 66.0434 73.4071 66.0345C74.4444 66.0131 74.6087 66.1578 74.5997 67.1808C74.5728 70.2169 74.522 73.2529 74.5046 76.289C74.4903 78.7833 74.4861 81.2783 74.5302 83.7722C74.544 84.5528 74.2813 84.8667 73.4971 84.8207C72.7906 84.7793 72.0795 84.7886 71.3716 84.8122C70.7034 84.8344 70.439 84.5396 70.454 83.8854C70.4901 82.3133 70.498 80.7406 70.5129 79.168C70.5162 78.8159 70.5233 78.4614 70.4899 78.1117C70.4389 77.5784 70.2075 77.4222 69.7563 77.8141C67.3173 79.9316 63.8803 78.8338 62.26 76.5701C60.4347 74.0196 60.5549 70.0477 62.6155 67.8181C64.0721 66.2422 65.8335 65.485 67.9671 65.9949C68.7552 66.1833 69.4709 66.6723 70.3536 67.0872V67.0875ZM70.5364 72.3609C70.5311 70.713 69.3855 69.4301 67.9073 69.4175C66.2007 69.4028 65.009 70.6845 65.0525 72.5647C65.0967 74.467 66.215 75.3844 67.8779 75.5029C69.4183 75.6126 70.5421 74.2149 70.5362 72.3609H70.5364Z" fill="black"/>
<path d="M66.148 58.2461C65.4656 58.673 64.9117 59.1234 64.2805 59.3965C61.6292 60.5436 59.0599 59.7538 57.2646 57.4926C55.338 55.0657 55.5055 49.5098 58.0379 47.2856C60.1289 45.449 63.5945 45.2135 65.5433 47.1204C65.6727 47.247 65.8385 47.3367 65.9709 47.4318C66.0617 47.3823 66.1354 47.3676 66.1495 47.3307C66.4681 46.4924 67.1007 46.0616 68.0473 46.0382C68.4827 46.0277 68.9184 46.0195 69.3539 46.0186C70.3279 46.0164 70.4018 46.0819 70.4141 47.0922C70.4337 48.6898 70.4388 50.2876 70.4467 51.8853C70.458 54.16 70.448 56.435 70.4866 58.7091C70.4994 59.4608 70.2598 59.8306 69.4583 59.771C68.808 59.7226 68.1514 59.6962 67.501 59.7275C66.7763 59.7625 66.3448 59.534 66.3201 58.7542C66.3155 58.6062 66.2236 58.461 66.1479 58.2461H66.148ZM60.2772 52.7832C60.2394 54.8192 61.3555 56.1085 63.1961 56.1548C64.8827 56.1975 66.2523 54.6792 66.2682 52.7489C66.2817 51.1284 64.9704 49.6512 63.4797 49.6078C61.5414 49.5512 60.3146 50.7678 60.2772 52.7832Z" fill="black"/>
<path d="M25.7921 47.4472C25.8827 47.3198 25.9965 47.234 25.9932 47.1528C25.9528 46.1232 26.5169 45.9551 27.4007 46.0763C28.0166 46.1607 28.654 46.1364 29.2785 46.1013C29.9776 46.0619 30.2672 46.3296 30.262 47.0382C30.2373 50.3456 30.2404 53.6534 30.2326 56.9608C30.2313 57.5029 30.2257 58.0452 30.2206 58.5873C30.2114 59.5545 30.092 59.6786 29.1473 59.6783C28.466 59.678 27.781 59.6219 27.1043 59.6747C26.4139 59.7286 26.077 59.4857 26.0427 58.7928C26.033 58.5976 25.9256 58.4072 25.8479 58.1684C25.1155 58.6239 24.4924 59.094 23.8021 59.4259C21.4647 60.5497 19.1959 59.7459 17.5873 58.1708C15.6937 56.3166 15.4283 53.9456 15.7791 51.4635C16.0037 49.8742 16.5792 48.4279 17.7963 47.3067C20.0764 45.2067 23.7715 45.3863 25.3816 47.1666C25.4822 47.2778 25.6351 47.3421 25.7919 47.4472H25.7921ZM22.8612 56.1193C24.6022 56.1129 26.1046 54.5896 26.0998 52.8357C26.0952 51.1848 24.6712 49.5693 23.1991 49.5818C21.3882 49.5974 19.9939 50.6277 20.0386 52.9594C20.076 54.9225 21.1235 56.1257 22.8613 56.1193H22.8612Z" fill="black"/>
<path d="M96.2718 45.7969C99.7522 45.7012 103.358 48.1018 103.354 52.8342C103.35 57.1953 100.215 59.911 96.4419 59.9291C92.4313 59.9484 89.2124 57.2638 89.1097 53.1171C89.0022 48.7735 91.8774 45.8718 96.2718 45.7969ZM99.0277 52.704C99.0163 52.5574 99.0062 52.2862 98.9725 52.018C98.8198 50.802 98.0953 49.9436 97.0163 49.6898C95.8685 49.4198 94.602 49.8347 94.0097 50.8088C93.388 51.8315 93.4469 52.9886 93.6415 54.1234C93.841 55.2874 94.7131 56.0365 95.8928 56.1136C97.8032 56.2383 99.0444 54.9377 99.0275 52.704H99.0277Z" fill="black"/>
<path d="M46.0143 67.2677C46.4305 66.4482 47.1026 66.0401 48.0306 66.0433C48.3032 66.0442 48.5757 66.0503 48.8483 66.0493C50.2639 66.0442 50.2662 66.0508 50.2713 67.4245C50.284 70.8405 50.3007 74.2564 50.3173 77.6725C50.3219 78.6313 50.2019 78.7507 49.2421 78.7454C48.6153 78.742 47.9874 78.7257 47.3619 78.7549C46.7253 78.7846 46.3087 78.6334 46.274 77.891C46.2522 77.4229 45.987 77.3355 45.6281 77.6712C43.5937 79.5737 40.3138 79.3825 38.2877 76.9157C36.2812 74.4732 36.3142 69.0966 39.2934 66.8307C40.8516 65.6457 44.3927 65.5216 45.7184 67.0365C45.7847 67.1123 45.8793 67.1636 46.0146 67.2675L46.0143 67.2677ZM40.9647 72.37C40.9626 74.4913 41.9561 75.289 43.5771 75.439C45.1246 75.5821 46.3325 74.1043 46.3189 72.2679C46.307 70.6535 45.1261 69.335 43.6469 69.3675C42.4147 69.3946 40.8692 70.1723 40.9646 72.3702L40.9647 72.37Z" fill="black"/>
<path d="M23.9089 70.7952C23.9089 68.5185 23.9048 66.2417 23.9107 63.9649C23.9133 62.9339 24.052 62.8119 25.1063 62.8176C27.0411 62.8282 28.9774 62.7926 30.9103 62.8593C32.3865 62.9101 33.7478 63.3779 34.856 64.4032C36.6666 66.078 36.7264 70.0135 34.1569 71.8716C32.8215 72.8373 31.3537 73.0802 29.7589 73.0629C27.9881 73.0436 27.8112 72.6985 27.9065 74.8748C27.9503 75.8757 27.8917 76.8807 27.8942 77.884C27.8956 78.4917 27.6319 78.7774 27.0009 78.7542C26.2659 78.7273 25.5293 78.7333 24.7936 78.7459C24.121 78.7575 23.9015 78.4401 23.9089 77.7884C23.9355 75.4576 23.9194 73.1262 23.9194 70.7949H23.9089V70.7952ZM27.9352 68.0035C27.9237 68.0035 27.9122 68.0035 27.9007 68.0035C27.9007 68.437 27.8472 68.8796 27.9218 69.3C27.9633 69.5341 28.2213 69.9168 28.3755 69.9139C29.2387 69.897 30.1408 69.9168 30.9522 69.6711C32.1785 69.2999 32.5629 67.5197 31.7315 66.538C31.3128 66.0436 29.1985 65.6792 28.363 66.0256C27.5456 66.3645 28.0631 67.1205 27.9385 67.6789C27.9153 67.7823 27.9352 67.895 27.9352 68.0035Z" fill="black"/>
<path d="M99.2172 73.3951C98.0998 73.3951 96.9816 73.3735 95.8653 73.4096C95.5694 73.4193 95.1374 73.53 95.0264 73.7337C94.9165 73.9354 95.0672 74.3516 95.2178 74.6069C95.8615 75.6982 97.5093 76.0748 98.4926 75.2308C99.2388 74.5904 100.006 74.4685 100.899 74.52C101.388 74.5483 101.881 74.5144 102.371 74.5283C103.082 74.5484 103.244 74.7933 102.981 75.4571C102.414 76.8825 101.288 77.7214 99.9572 78.3898C96.7139 80.0186 92.4362 78.0439 91.3373 74.9607C89.7942 70.6316 92.0513 65.942 97.2039 65.8466C99.5386 65.8033 101.423 66.6373 102.73 68.543C103.605 69.8175 103.709 71.344 103.624 72.8443C103.612 73.0524 103.052 73.376 102.731 73.3943C101.563 73.4609 100.389 73.4206 99.2171 73.4206C99.2171 73.4121 99.2171 73.4036 99.2171 73.3949L99.2172 73.3951ZM97.2413 71.2366C97.2413 71.2338 97.2413 71.231 97.2413 71.2284C97.7563 71.2284 98.2727 71.2524 98.786 71.2227C99.511 71.1805 99.6824 70.8821 99.4112 70.209C99.0706 69.3642 98.1891 68.9103 97.0614 68.9995C96.1512 69.0714 95.2631 69.7606 95.0649 70.5478C94.947 71.0161 95.1978 71.2134 95.6152 71.2312C96.1564 71.254 96.6993 71.2367 97.2413 71.2367V71.2366Z" fill="black"/>
<path d="M85.2595 77.4901C84.5644 77.8907 83.9789 78.2762 83.3538 78.5805C80.681 79.8813 76.8993 77.9695 76.7919 74.1498C76.7264 71.8198 76.739 69.4873 76.7362 67.156C76.7351 66.1694 76.8868 66.0546 77.8963 66.0639C78.5231 66.0698 79.1512 66.0791 79.7763 66.0441C80.4379 66.007 80.7338 66.2865 80.7314 66.9412C80.725 68.6219 80.7328 70.3028 80.7368 71.9837C80.7379 72.4715 80.7159 72.9615 80.7544 73.4466C80.8526 74.6883 81.5585 75.4021 82.7621 75.5181C83.8836 75.6262 84.9715 74.923 85.2379 73.8324C85.384 73.2343 85.441 72.6026 85.4477 71.9852C85.4651 70.4131 85.4214 68.8405 85.4223 67.2682C85.4229 66.132 85.5075 66.0673 86.6193 66.0752C87.2189 66.0794 87.823 66.1081 88.4171 66.0474C89.1678 65.9704 89.3843 66.3296 89.3813 66.992C89.3733 68.781 89.3879 70.5702 89.3838 72.3594C89.3797 74.1759 89.3503 75.9926 89.3609 77.8089C89.3649 78.4709 89.1035 78.7458 88.431 78.7136C87.8062 78.6836 87.1765 78.7053 86.5515 78.744C85.8863 78.7853 85.4141 78.6414 85.4119 77.8538C85.4116 77.7347 85.3145 77.616 85.2594 77.4904L85.2595 77.4901Z" fill="black"/>
<path d="M9.91836 52.8284C9.91836 54.8052 9.90276 56.7822 9.9269 58.7586C9.93527 59.442 9.6842 59.7661 8.97794 59.7483C8.18893 59.7285 7.39876 59.7556 6.60926 59.7507C5.94274 59.7465 5.62894 59.4213 5.63124 58.7382C5.64438 54.8662 5.63354 50.9941 5.64881 47.122C5.65275 46.117 5.55275 45.9911 4.55946 45.9981C3.66092 46.0045 2.76238 45.9857 1.86384 45.9898C1.3208 45.9922 1.0584 45.7404 1.0671 45.1994C1.07679 44.6035 1.09436 44.0074 1.08073 43.4118C1.06497 42.7271 1.42951 42.5345 2.05629 42.536C4.07111 42.5406 6.08593 42.5117 8.10091 42.5027C9.89767 42.4947 11.6951 42.5179 13.4912 42.4823C14.2209 42.4677 14.5446 42.7299 14.5321 43.4657C14.4815 46.4409 14.7672 45.9343 12.1611 45.9733C10.0021 46.0056 10.0018 45.9803 9.98897 48.1163C9.9842 48.9018 9.97813 49.6873 9.97599 50.4728C9.97369 51.2579 9.9755 52.0433 9.9755 52.8284C9.95645 52.8284 9.93757 52.8284 9.91852 52.8284H9.91836Z" fill="black"/>
<path d="M49.626 50.6519C49.626 47.9679 49.6452 45.2838 49.6138 42.6003C49.6048 41.8247 49.8933 41.5053 50.6646 41.5445C51.3986 41.5819 52.1374 41.6121 52.8697 41.5711C53.6036 41.5299 53.8308 41.8561 53.8264 42.5327C53.8116 44.8091 53.8228 47.0855 53.8279 49.3622C53.8348 52.4522 53.8482 55.5422 53.8525 58.6323C53.8538 59.6082 53.7042 59.7379 52.7003 59.7271C52.0462 59.7201 51.3919 59.7253 50.7377 59.7224C49.6905 59.7176 49.6109 59.6352 49.6117 58.6216C49.6138 55.9651 49.6124 53.3086 49.6124 50.652C49.6168 50.652 49.6214 50.652 49.6258 50.652L49.626 50.6519Z" fill="black"/>
<path d="M56.7071 67.5018C57.2931 67.106 57.7787 66.7751 58.2678 66.4495C58.4255 66.3447 58.5838 66.2338 58.7564 66.1595C60.0685 65.595 60.4894 65.8682 60.4799 67.2729C60.4751 67.9768 60.4511 68.6806 60.4585 69.3842C60.4638 69.8911 60.2562 70.1467 59.729 70.116C59.5393 70.1049 59.3482 70.1163 59.1578 70.1238C57.3565 70.1941 56.544 71.0086 56.5281 72.8227C56.5143 74.3922 56.5586 75.962 56.5542 77.5317C56.5509 78.6483 56.3905 78.7824 55.2612 78.7711C54.6354 78.7649 54.0093 78.7548 53.384 78.7723C52.8301 78.7878 52.575 78.5222 52.575 77.9941C52.5753 74.2857 52.5789 70.5773 52.5822 66.8688C52.5827 66.2785 52.8283 65.9669 53.476 66.0027C54.127 66.0386 54.7847 66.0495 55.4338 65.9995C56.1827 65.9419 56.5837 66.1859 56.5507 66.9797C56.5456 67.1024 56.6222 67.2285 56.7071 67.5016V67.5018Z" fill="black"/>
<path d="M5.5651 65.2862C5.5651 64.6102 5.55427 64.0558 5.5674 63.5021C5.59253 62.444 5.61732 62.477 6.69895 62.4255C7.52147 62.3865 7.78453 62.6558 7.76646 63.4849C7.71556 65.8127 7.764 68.1424 7.7397 70.4709C7.73576 70.8443 7.62098 71.499 7.45102 71.5357C6.92655 71.6489 6.34919 71.5385 5.79483 71.4892C5.55837 71.4681 5.27873 71.2693 5.10204 71.3446C3.05077 72.2185 1.56108 71.719 0.647596 69.6982C-0.087559 68.0716 0.502273 65.1886 2.92876 64.824C3.51268 64.7363 4.14406 64.9426 4.75064 65.0332C4.9554 65.0638 5.15097 65.1549 5.5651 65.2864V65.2862ZM2.58836 68.187C2.58327 69.1946 3.23107 69.9613 4.09923 69.9749C4.94292 69.9881 5.60304 69.1926 5.59105 68.1768C5.5807 67.3033 4.96706 66.6579 4.12649 66.6362C3.27376 66.6143 2.59296 67.3007 2.58852 68.1868L2.58836 68.187Z" fill="black"/>
<path d="M13.2711 68.8458C12.7262 68.8458 12.1792 68.818 11.6377 68.86C11.4324 68.8759 11.2398 69.0519 11.0415 69.155C11.1516 69.3554 11.2324 69.701 11.3771 69.73C11.8742 69.8289 12.4003 69.8823 12.9026 69.8309C13.5538 69.7641 14.1875 69.5238 14.8386 69.4637C15.3846 69.4132 15.5409 69.8394 15.2498 70.209C14.8598 70.7041 14.4015 71.2222 13.8547 71.5045C12.363 72.2743 10.2794 71.7186 9.46836 70.4423C8.51316 68.9391 8.66735 66.7407 9.80038 65.704C11.1528 64.4667 13.3303 64.3587 14.6775 65.4814C15.5453 66.2046 15.822 67.1842 15.7058 68.257C15.6833 68.4646 15.3077 68.761 15.065 68.7934C14.4763 68.8718 13.8701 68.8189 13.2709 68.8189C13.2709 68.828 13.2709 68.837 13.2709 68.846L13.2711 68.8458ZM12.2939 67.5424V67.526C12.5114 67.526 12.7354 67.5579 12.9448 67.5167C13.1392 67.4785 13.3184 67.3624 13.5042 67.2805C13.4037 67.0718 13.3433 66.7224 13.1952 66.6806C12.7458 66.5535 12.2398 66.438 11.7999 66.529C11.5083 66.5893 11.2922 67.0115 11.0423 67.2717C11.3508 67.362 11.6576 67.4594 11.9689 67.5384C12.071 67.5644 12.1853 67.5425 12.294 67.5425L12.2939 67.5424Z" fill="black"/>
<path d="M16.8402 67.0076C16.8402 65.7618 16.8579 64.5157 16.8328 63.2704C16.8201 62.6463 17.0507 62.3467 17.6963 62.4264C18.2633 62.4964 19.0377 62.1906 19.0251 63.2413C18.9949 65.7587 18.9786 68.2764 18.9829 70.7939C18.9845 71.7227 18.3578 71.6226 17.7489 71.6487C17.0875 71.6771 16.8214 71.4279 16.8449 70.7445C16.8878 69.5001 16.8571 68.2534 16.8571 67.0078C16.8513 67.0078 16.8457 67.0078 16.84 67.0078L16.8402 67.0076Z" fill="black"/>
<path d="M66.6101 15.3462C65.8007 15.4393 65.542 15.1585 65.4471 14.4196C65.3762 13.8685 65.1985 13.3131 64.9691 12.8038C64.5696 11.9167 64.1085 11.0556 63.6432 10.1999C63.4345 9.81586 63.5147 9.62754 63.8428 9.32389C64.3008 8.90003 64.8059 8.38028 64.9639 7.81187C65.3131 6.55481 64.6813 5.35656 63.6282 4.87994C62.6362 4.43093 61.0534 4.86018 60.3745 5.82469C60.0643 6.26522 59.8199 6.25558 59.3667 6.03278C58.2245 5.47123 57.0703 4.91473 55.8734 4.48777C54.5277 4.00772 54.5052 4.07027 54.4494 2.64907C54.4044 1.50292 53.6471 0.634126 52.4725 0.381114C51.259 0.119773 50.0673 0.582837 49.6609 1.63229C49.4478 2.1829 49.4834 2.8472 49.4929 3.45874C49.5003 3.92621 49.3514 4.20127 48.8952 4.26024C47.263 4.47111 45.8234 5.16644 44.4406 5.99979C44.0426 6.23957 43.7344 6.22944 43.4651 5.83122C42.9367 5.04949 42.2452 4.60978 41.2284 4.69831C40.7153 4.82947 40.0998 4.8249 39.7075 5.11678C38.3899 6.09747 38.3293 8.17268 39.676 9.13376C40.5087 9.72815 40.1512 10.1251 39.873 10.7293C39.344 11.878 38.7912 13.0302 38.4226 14.2338C38.0771 15.362 38.1758 15.4056 36.9869 15.3601C35.9531 15.3204 35.0936 15.6129 34.5964 16.5722C34.1337 17.465 34.2079 18.3737 34.7355 19.2083C35.2807 20.0709 36.1173 20.4431 37.1206 20.2411C37.9479 20.0745 38.1783 20.4309 38.393 21.1609C38.7571 22.3975 39.1868 23.64 39.7927 24.7721C40.1965 25.5262 40.3167 25.9196 39.5417 26.4894C38.5325 27.2317 38.1904 28.8876 39.375 30.1484C40.244 31.073 41.8849 31.1715 42.916 30.2869C43.2941 29.9625 43.6554 29.3768 44.04 29.3639C44.5073 29.348 44.992 29.8096 45.4674 30.068C45.7065 30.198 45.9338 30.3516 46.1797 30.4662C46.6492 30.6853 46.6968 31.018 46.5438 31.4722C46.0773 32.8572 45.6628 34.2599 45.1704 35.6354C44.9403 36.2781 44.9674 36.7553 45.6556 37.023C46.3228 37.2825 46.9922 36.9611 47.2187 36.26C47.6763 34.8431 48.1277 33.4235 48.5397 31.993C48.6778 31.5136 48.874 31.3728 49.3962 31.3911C51.0772 31.4497 52.7618 31.4035 54.4435 31.4525C54.7131 31.4603 55.1325 31.6931 55.2134 31.9178C55.6711 33.1896 56.0404 34.4925 56.4548 35.7801C56.5202 35.983 56.654 36.2679 56.8562 36.6349C57.1594 37.1853 57.7128 37.275 58.2248 36.9882C58.7368 36.7014 58.6646 36.3089 58.6414 35.9275C58.6183 35.5461 58.5383 35.2904 58.438 34.9824C58.0529 33.799 57.6716 32.6137 57.2484 31.4433C57.0585 30.9177 57.2319 30.6275 57.6908 30.3967C58.2733 30.1036 58.8639 29.8178 59.4101 29.466C59.8262 29.1979 60.0858 29.2255 60.3391 29.6523C60.9787 30.73 61.9835 31.0418 63.1481 30.8289C64.1072 30.6534 64.7951 30.0231 65.0182 29.0968C65.2849 27.9895 64.9627 26.9718 63.9877 26.297C63.4322 25.9125 63.5427 25.6076 63.7969 25.0911C64.3923 23.8809 64.978 22.6503 65.3911 21.3717C65.7636 20.219 65.6601 20.1859 66.8633 20.2266C68.3145 20.2756 69.3561 19.4304 69.4756 18.1069C69.6324 16.3706 68.4047 15.1405 66.6097 15.3468L66.6101 15.3462ZM38.4607 17.7332C38.4379 18.5875 37.7988 19.2059 36.9482 19.1967C36.1372 19.1879 35.3831 18.4669 35.4089 17.725C35.4358 16.9534 36.1482 16.3497 37.0185 16.3615C37.9403 16.3737 38.4832 16.8902 38.4607 17.7332ZM62.5137 5.53232C63.4433 5.53232 64.1969 6.28188 64.1969 7.20653C64.1969 8.13119 63.4433 8.88075 62.5137 8.88075C61.5842 8.88075 60.8306 8.13119 60.8306 7.20653C60.8306 6.28188 61.5842 5.53232 62.5137 5.53232ZM59.2817 8.50148C59.823 8.96422 59.9109 9.32013 59.3375 9.87499C57.4668 11.6846 55.6596 13.5589 53.7957 15.3757C53.5682 15.5974 53.0523 15.8003 52.8355 15.6898C52.5557 15.5476 52.2988 15.0876 52.2832 14.7529C52.2214 13.4294 52.2579 12.1013 52.2579 10.7748H52.2467C52.2467 9.44835 52.2671 8.12139 52.2385 6.79541C52.2234 6.096 52.5529 5.83874 53.1896 5.95896C55.399 6.37661 57.5237 6.9986 59.2818 8.50148H59.2817ZM51.9436 1.17576C52.7843 1.17576 53.4658 1.85361 53.4658 2.6899C53.4658 3.52619 52.7843 4.20405 51.9436 4.20405C51.1028 4.20405 50.4214 3.52619 50.4214 2.6899C50.4214 1.85361 51.1028 1.17576 51.9436 1.17576ZM44.5436 8.54281C46.3072 6.8988 48.5453 6.43492 50.7953 6.0024C51.3495 5.89591 51.4905 6.29249 51.4907 6.75654C51.4907 8.10947 51.4907 9.4624 51.4907 10.8153C51.493 10.8153 51.4953 10.8153 51.4974 10.8153C51.4974 12.1415 51.5312 13.4689 51.4736 14.7925C51.4592 15.1242 51.2237 15.5835 50.9534 15.7232C50.7429 15.8319 50.2315 15.6256 50.0069 15.4051C48.1494 13.5816 46.3387 11.7109 44.4876 9.88071C43.9689 9.36799 44.0409 9.01126 44.5434 8.54281H44.5436ZM39.6982 7.25456C39.7129 6.44374 40.4714 5.67458 41.2537 5.67687C42.1077 5.67932 42.7453 6.31324 42.7467 7.16113C42.748 8.02911 42.0714 8.73015 41.2266 8.73603C40.4289 8.74175 39.6842 8.01996 39.6982 7.25456ZM40.1169 16.2746C40.4266 14.0086 41.1785 11.9277 42.7779 10.2097C43.0866 9.8781 43.3311 9.80361 43.6544 10.1238C45.6966 12.1457 47.7435 14.1633 49.7657 16.2048C49.9207 16.3613 50.0284 16.7839 49.9302 16.919C49.7695 17.1401 49.4251 17.342 49.1519 17.3503C47.765 17.3925 46.3763 17.3698 44.9881 17.3698C44.9881 17.3655 44.9881 17.3613 44.9881 17.357C43.6815 17.357 42.3747 17.368 41.0683 17.3533C40.1726 17.3431 39.9947 17.169 40.1169 16.2748V16.2746ZM41.2223 29.9844C40.2964 29.9844 39.5458 29.2378 39.5458 28.3167C39.5458 27.3956 40.2964 26.649 41.2223 26.649C42.1483 26.649 42.8989 27.3956 42.8989 28.3167C42.8989 29.2378 42.1483 29.9844 41.2223 29.9844ZM42.749 25.3082C41.0808 23.5815 40.4698 21.424 40.0793 19.1709C40.0072 18.4168 40.3468 18.1205 41.0805 18.1223C43.7207 18.1286 46.3614 18.096 49.0013 18.1203C49.2947 18.1231 49.7941 18.3573 49.8315 18.5533C49.8971 18.8968 49.7949 19.4045 49.5593 19.65C48.4522 20.8041 47.273 21.8895 46.1251 23.0051C45.3477 23.7605 44.5697 24.5157 43.8112 25.2896C43.4429 25.6652 43.1759 25.7502 42.749 25.3082ZM48.485 25.315C48.2419 26.1747 47.9345 27.0172 47.7152 27.8824C47.5599 28.4954 47.2377 28.6605 46.7167 28.3589C45.9205 27.8979 45.137 27.4121 44.3758 26.8965C43.981 26.6291 43.8871 26.2564 44.2782 25.8725C45.9058 24.2759 47.5302 22.6758 49.1635 21.0849C49.2655 20.9856 49.4335 20.9536 49.7202 20.8213C49.2839 22.4132 48.8949 23.867 48.485 25.315ZM53.7893 29.3748C52.5717 29.4114 51.3508 29.4235 50.1355 29.3626C49.9284 29.3521 49.5315 28.8708 49.578 28.7063C50.2302 26.3962 50.9442 24.1032 51.6951 21.6357C51.9766 21.9072 52.2424 22.0442 52.3089 22.2462C52.9937 24.327 53.6469 26.4181 54.3072 28.5067C54.4586 28.9856 54.3308 29.3585 53.7891 29.3748H53.7893ZM59.5488 26.7926C58.6841 27.3886 57.8058 27.9719 56.8906 28.4858C56.4079 28.7569 56.1507 28.3897 56.0248 27.9412C55.4926 26.0453 54.9642 24.1485 54.4196 22.256C54.265 21.7187 54.0607 21.1955 53.8791 20.6658C53.9587 20.621 54.0382 20.5763 54.1178 20.5317C54.3518 20.7336 54.5973 20.9239 54.818 21.1393C56.3891 22.6729 57.943 24.2244 59.5314 25.7402C59.9452 26.135 60.0073 26.4769 59.549 26.7928L59.5488 26.7926ZM64.2049 28.3517C64.2136 29.2768 63.5742 29.92 62.6206 29.9452C61.6671 29.9703 60.9278 29.2982 60.8961 28.3776C60.8676 27.5451 61.704 26.6886 62.5467 26.6876C63.4259 26.6866 64.1965 27.46 64.2049 28.3517ZM63.7445 18.9381C63.5125 21.3087 62.7694 23.4649 61.1037 25.2497C60.7075 25.6742 60.4393 25.6549 60.0401 25.254C58.2036 23.4089 56.3259 21.604 54.5082 19.7413C54.2336 19.46 54.0904 18.9445 54.1068 18.5463C54.1129 18.4006 54.7551 18.1804 55.1136 18.1675C56.3905 18.1213 57.6701 18.1494 58.9488 18.1494C58.9488 18.1304 58.9488 18.1117 58.9488 18.0927C60.2546 18.0927 61.5607 18.1105 62.866 18.0849C63.4898 18.0726 63.8062 18.3083 63.7445 18.9381ZM62.7116 17.3503C62.0581 17.3549 61.4045 17.341 60.7511 17.3386C60.1249 17.3363 59.4986 17.3381 58.8723 17.3381C58.8723 17.3422 58.8723 17.3463 58.8723 17.3503C57.5654 17.3503 56.2573 17.3809 54.9523 17.3304C54.5949 17.3165 54.1375 17.1422 53.9382 16.8812C53.8297 16.7391 54.0843 16.1812 54.3149 15.9461C56.1755 14.0483 58.0724 12.1859 59.9501 10.3046C60.3615 9.89247 60.6725 9.88594 61.0989 10.3353C62.6832 12.0046 63.3988 14.0432 63.7131 16.252C63.8466 17.1904 63.6717 17.3435 62.7118 17.3503H62.7116ZM68.4615 17.857C68.4342 18.6801 67.715 19.3182 66.8183 19.3153C66.0309 19.3127 65.2333 18.5179 65.2512 17.7538C65.27 16.9557 66.034 16.252 66.8729 16.2601C67.7759 16.2687 68.4904 16.9871 68.4615 17.857Z" fill="black"/>
</svg>
