<svg width="72" height="99" viewBox="0 0 72 99" fill="none" xmlns="http://www.w3.org/2000/svg">
<path d="M34.5675 0.640183C35.4478 0.640183 36.3744 0.633526 37.3009 0.641514C38.847 0.65616 40.1217 1.42971 41.4057 2.16065C42.0371 2.52012 42.6751 2.88227 43.2549 3.3163C44.752 4.44001 45.3305 6.07231 45.4019 7.84973C45.4893 10.0213 45.2709 12.1781 44.7401 14.3057C44.4515 15.46 44.3708 16.6663 44.2013 17.8499C44.1828 17.9804 44.1484 18.1441 44.2053 18.244C44.9664 19.5821 44.1219 20.9894 44.3893 22.3407C44.6593 23.7094 44.9876 25.0674 45.2457 26.4388C45.3424 26.954 45.3887 27.5026 45.3238 28.0192C45.1796 29.1775 44.7613 29.4105 43.607 29.3266C41.6824 29.1868 39.7524 29.1335 37.8264 29.019C36.7053 28.9525 35.5894 28.8007 34.4682 28.7541C33.7773 28.7261 33.081 28.8127 32.3887 28.8739C32.0644 28.9019 31.7454 29.0337 31.4211 29.0417C28.8068 29.1109 26.1912 29.1588 23.5769 29.2188C22.8065 29.2361 22.5047 28.8806 22.7218 28.1124C22.9389 27.3455 23.2698 26.6092 23.4445 25.8343C23.6378 24.9782 23.7556 24.0982 23.8244 23.2234C23.9105 22.1224 24.0203 21.004 23.9237 19.9109C23.794 18.4437 23.5743 16.9672 23.2155 15.5399C22.8237 13.9769 22.1513 12.4857 21.7423 10.9266C21.185 8.80435 21.5345 6.73002 22.5087 4.7915C22.7417 4.32817 23.2433 3.9647 23.6907 3.65448C24.7775 2.90091 25.9013 2.20192 27.0185 1.49228C27.1813 1.38843 27.3799 1.31254 27.5705 1.28325C29.8764 0.93176 32.1584 0.33396 34.5702 0.638852L34.5675 0.640183ZM29.2502 16.3015C29.2132 16.3814 29.1761 16.4612 29.1377 16.5411C29.2939 16.6437 29.4462 16.7502 29.605 16.846C30.9393 17.6569 32.402 17.9245 33.9242 17.754C36.0328 17.5184 38.1746 17.6196 39.9669 15.958C41.4653 14.568 41.7988 12.8731 42.0715 11.0597C42.0901 10.9373 42.0464 10.7895 41.9908 10.6723C41.4904 9.61384 41.1039 8.47549 40.4474 7.52487C39.309 5.87659 37.4995 5.46386 35.6278 5.37332C34.6178 5.32406 33.5999 5.4572 32.5886 5.42791C30.4389 5.36666 28.4812 5.93251 26.7591 7.21066C26.3447 7.51821 26.0072 8.01749 25.7941 8.49946C24.9085 10.5046 25.5426 12.3632 26.4864 14.1486C26.8901 14.9128 27.4236 15.0473 28.2469 14.9395C28.6519 14.8862 29.1285 14.9648 29.4938 15.1445C29.875 15.3309 30.1861 15.689 30.4786 16.0179C30.6309 16.1896 30.6759 16.4586 30.7685 16.6836C30.4694 16.6689 30.1609 16.6942 29.8724 16.629C29.6513 16.5784 29.4554 16.4133 29.2476 16.3001L29.2502 16.3015ZM40.9808 27.2509C40.994 27.1298 41.0576 26.9128 41.0364 26.7051C40.7862 24.3139 41.141 21.9733 41.5751 19.6353C41.6599 19.1813 41.6996 18.7087 41.6757 18.2493C41.6665 18.0696 41.4097 17.7434 41.2972 17.7567C40.8087 17.8153 40.3309 17.9657 39.853 18.0975C38.4128 18.4983 36.9965 19.0695 35.5298 19.2745C32.9301 19.6393 30.468 18.8325 28.0735 17.9098C27.4858 17.6835 27.0039 17.1815 26.4678 16.8141C26.3315 16.7209 26.1091 16.5584 26.039 16.6037C25.8973 16.6956 25.7385 16.9166 25.7517 17.0684C25.8073 17.6782 25.8881 18.2919 26.031 18.8884C26.1899 19.5528 26.4758 20.1865 26.6214 20.8522C27.0463 22.7947 27.4328 24.7466 27.8286 26.6957C27.916 27.1258 28.1238 27.3455 28.5937 27.3322C30.2668 27.2869 31.9426 27.2296 33.6158 27.2483C35.2611 27.2656 36.9065 27.3748 38.5518 27.432C39.0337 27.4493 39.5194 27.4467 40.0013 27.4187C40.3004 27.4014 40.5956 27.3188 40.9821 27.2496L40.9808 27.2509ZM23.5359 8.45153C23.6749 8.33436 23.7794 8.28377 23.8271 8.19989C24.747 6.59688 26.3672 5.78206 27.7426 4.69564C27.9239 4.55185 28.1688 4.45199 28.3978 4.41471C30.0656 4.14577 31.7348 3.88481 33.408 3.65448C33.9202 3.58392 34.4656 3.52001 34.9607 3.6212C36.0275 3.83955 37.0812 4.14311 38.1256 4.45732C40.4672 5.16296 42.3495 6.41315 43.1715 8.88423C43.2218 9.03601 43.3304 9.16649 43.4124 9.30762L43.5911 9.28765C43.611 9.00007 43.6692 8.70849 43.6427 8.4249C43.5673 7.58611 43.4296 6.75266 43.374 5.91387C43.3317 5.26814 43.0643 4.78617 42.5864 4.37344C41.0496 3.04603 39.2481 2.3537 37.2678 2.0528C35.1513 1.73193 33.0254 1.87306 30.9446 2.18861C28.7539 2.52146 26.5248 2.8836 24.7232 4.44667C23.8006 5.24684 23.0752 7.07486 23.4234 8.2425C23.4419 8.30374 23.4842 8.357 23.5345 8.4502L23.5359 8.45153ZM25.3295 26.1339C25.2381 26.1219 25.1468 26.1099 25.0555 26.0993C24.9602 26.3949 24.841 26.6864 24.7841 26.99C24.7643 27.0938 24.9019 27.227 24.9681 27.3468C25.0886 27.2696 25.3004 27.2043 25.3123 27.1111C25.3546 26.7903 25.3295 26.4601 25.3295 26.1339Z" fill="black"/>
<path d="M43.2753 52.7821C43.5294 49.3671 42.9774 46.7668 42.4572 44.1559C42.256 43.1427 42.2785 42.0843 42.1859 41.0484C42.1528 40.6743 42.0985 40.2989 42.0257 39.9301C41.8814 39.1978 41.25 38.8317 40.5445 39.0726C39.2407 39.52 37.9262 39.7676 36.5271 39.6864C35.1478 39.6065 33.7579 39.7423 32.3747 39.7091C31.3223 39.6838 30.274 39.5386 29.223 39.4574C28.8748 39.4308 28.5161 39.3948 28.1759 39.4508C28.0012 39.4801 27.7524 39.6824 27.7206 39.8435C27.6041 40.4413 27.5525 41.0524 27.4995 41.6596C27.4784 41.9005 27.5525 42.1495 27.5234 42.3878C27.064 46.1477 26.5968 49.9049 26.1269 53.6635C25.9561 55.0255 25.8131 56.3942 25.5894 57.7482C25.424 58.7495 25.1804 59.7427 24.9117 60.7213C24.7767 61.2139 24.4749 61.6146 23.8422 61.4203C23.2333 61.2325 22.9606 60.8624 23.1684 60.1954C24.0976 57.213 23.9242 54.0895 24.3716 51.046C24.4444 50.548 24.4153 50.0261 24.369 49.5215C24.2499 48.2207 24.0818 46.9239 23.9547 45.6231C23.7561 43.5968 23.5867 41.5664 23.3776 39.54C23.3206 38.9928 23.2531 38.4163 23.036 37.9223C22.6601 37.0689 22.8573 36.294 23.085 35.4685C23.2452 34.8867 23.3167 34.2636 23.3259 33.6578C23.3405 32.7352 22.8375 32.1334 21.9903 31.7952C21.3973 31.5582 21.069 31.1415 21.1432 30.4571C21.2411 29.5571 21.4728 29.4426 22.3835 29.4559C23.2637 29.4692 24.005 29.7648 24.7317 30.1948C24.8429 30.2601 24.9752 30.32 25.101 30.3267C26.9211 30.4278 28.6736 31.027 30.544 30.8832C31.8651 30.782 33.2179 31.1801 34.5561 31.1854C35.9513 31.1907 37.3478 30.999 38.743 30.8779C39.0686 30.8499 39.3863 30.7301 39.7132 30.6928C41.1984 30.5237 42.6889 30.3906 44.1714 30.1988C44.689 30.1323 45.1999 29.9645 45.6937 29.7861C46.145 29.6237 46.3992 29.7635 46.4495 30.2068C46.521 30.8432 46.5541 31.4663 46.1225 32.0468C45.6129 32.7325 45.8671 33.4768 46.1093 34.2037C46.3449 34.9107 46.6136 35.6177 46.75 36.3459C46.8572 36.9224 46.6441 37.4497 46.1834 37.897C45.6023 38.4615 45.4197 39.2084 45.4369 40.0246C45.4898 42.4371 45.5931 44.8509 45.5295 47.2608C45.4673 49.6267 45.1562 51.9859 45.0808 54.3518C45.0093 56.562 45.5335 58.7082 46.0987 60.8344C46.2258 61.3151 46.4786 61.8769 45.7757 62.1219C45.2304 62.3123 44.5169 61.8623 44.3567 61.2192C44.1582 60.4257 43.9808 59.6175 43.8881 58.8054C43.634 56.5633 43.4302 54.3159 43.2766 52.7794L43.2753 52.7821ZM34.7534 33.5846C32.9492 33.3769 31.0669 33.5154 29.1978 33.9135C28.2527 34.1145 28.1759 34.1904 28.1614 35.1889C28.1534 35.7215 28.1667 36.2541 28.1534 36.7853C28.1283 37.7852 28.1415 37.873 29.1316 37.9223C31.7803 38.0528 34.4436 38.5587 37.0685 37.7133C37.1506 37.6867 37.2432 37.684 37.3306 37.68C38.2982 37.6321 39.2671 37.6041 40.2334 37.5335C41.1481 37.467 41.4526 37.1301 41.4446 36.2314C41.4406 35.7668 41.3771 35.3034 41.3599 34.8388C41.3427 34.3901 41.1269 34.1398 40.6875 34.0839C39.3598 33.9161 38.0361 33.7284 36.7045 33.5953C36.0929 33.534 35.4708 33.5846 34.7547 33.5846H34.7534ZM25.7112 37.1261C25.8237 37.1142 25.9362 37.1035 26.0488 37.0915C25.9826 36.5656 25.9177 36.0397 25.8515 35.5138C25.7589 35.5245 25.6675 35.5351 25.5749 35.5444C25.6199 36.0717 25.6649 36.5989 25.7112 37.1261Z" fill="black"/>
<path d="M59.9039 46.9237H48.9821C48.9821 47.5548 48.9848 48.1446 48.9821 48.7331C48.9808 49.1525 48.859 49.5 48.3666 49.508C47.8888 49.5147 47.7167 49.1871 47.6995 48.7664C47.6651 47.881 47.6426 46.9943 47.628 46.1076C47.6201 45.6523 47.8676 45.4179 48.315 45.382C48.7108 45.35 49.1039 45.2848 49.4997 45.2728C53.7977 45.1503 58.0971 45.0385 62.3951 44.916C62.8968 44.9013 63.3429 44.9919 63.5494 45.4965C63.7876 46.0823 63.6579 46.6428 63.2436 47.1035C62.2971 48.1566 61.3097 49.1712 60.3765 50.2363C58.1593 52.7659 56.2876 55.5206 55.1373 58.7173C54.3259 60.9714 53.9724 63.3067 53.9804 65.7032C53.9844 66.6591 53.6958 67.0279 52.9519 67.1504C51.9591 67.3142 51.3039 66.8069 51.2761 65.7964C51.1993 63.0577 51.6904 60.4109 52.6051 57.8386C54.0042 53.903 56.2942 50.5505 59.2381 47.6281C59.4353 47.4323 59.6193 47.2246 59.9052 46.9224L59.9039 46.9237Z" fill="black"/>
<path d="M67.8144 62.0252C67.8118 63.7467 67.6477 65.4323 66.7528 66.9647C64.7024 70.4769 60.0523 70.6873 57.7239 67.3668C55.103 63.6309 56.1567 56.9699 59.7902 54.2951C61.789 52.8239 64.1187 53.1168 65.6529 55.0553C67.2651 57.0937 67.8144 59.4742 67.8144 62.0252ZM66.6734 61.1012C66.6536 60.6805 66.6536 60.2584 66.6112 59.839C66.4299 58.0323 65.9533 56.3507 64.5079 55.1152C63.5072 54.2578 62.3291 54.2991 61.3376 55.1618C60.4044 55.9726 59.6539 56.9193 59.1588 58.0496C58.0972 60.4728 57.7531 62.9572 58.8186 65.4642C59.679 67.4866 61.5269 68.3294 63.3854 67.645C64.3834 67.2776 65.0876 66.5613 65.5999 65.6453C66.3875 64.2353 66.6747 62.7029 66.6747 61.1012H66.6734Z" fill="black"/>
<path d="M10.1523 78.042C10.2198 77.9781 10.2688 77.9342 10.3151 77.8876C10.5415 77.6586 10.7678 77.4296 10.9942 77.1992C11.0524 77.5014 11.1199 79.7489 11.0485 80.5663C11.0193 80.8925 11.2642 81.4158 10.699 81.4624C10.5786 81.4717 10.3416 80.9458 10.2821 80.6422C9.94848 78.95 8.83261 77.9382 7.20182 77.8942C6.1389 77.8649 5.21099 78.2098 4.40221 78.8954C3.60535 79.5705 3.03484 80.4132 2.73171 81.4065C2.22739 83.0587 2.19165 84.739 2.71715 86.3899C3.59741 89.1566 6.53468 90.2137 9.11323 88.7052C9.56593 88.4403 9.94319 88.0502 10.3774 87.7519C10.5203 87.6534 10.7612 87.479 10.9201 87.6254C11.0789 87.7719 10.9201 88.0049 10.8314 88.1274C9.56726 89.8396 6.9715 90.7063 4.82315 90.1538C2.66288 89.5973 1.05327 87.7719 0.735586 85.5019C0.464229 83.5687 0.770002 81.746 1.79983 80.0684C3.49019 77.3177 7.03106 76.3724 9.86376 77.9182C9.95642 77.9688 10.0583 78.0034 10.1523 78.0433V78.042Z" fill="black"/>
<path d="M39.9455 86.8053C39.6173 87.4683 39.3883 88.0754 39.0362 88.5987C38.696 89.1033 38.2936 89.6132 37.8051 89.9567C36.5582 90.8314 35.0307 90.1058 34.8665 88.584C34.803 87.9969 34.8533 87.3884 34.9221 86.7973C35.0558 85.631 35.2451 84.47 35.396 83.305C35.4331 83.0214 35.449 82.7259 35.4119 82.4449C35.3404 81.911 34.9486 81.7526 34.5886 82.1427C34.2656 82.4929 34.0591 82.9495 33.7824 83.3463C33.6937 83.4741 33.6328 83.7231 33.425 83.6632C33.2172 83.6033 33.2622 83.2717 33.3258 83.1559C33.654 82.5648 33.9677 81.9457 34.4072 81.4411C34.8281 80.9578 35.4648 80.8805 36.0605 81.1322C36.6337 81.3732 36.8838 81.907 36.8375 82.4875C36.7223 83.9215 36.5304 85.3487 36.3835 86.78C36.3266 87.3299 36.2538 87.8864 36.2855 88.4349C36.3372 89.323 37.1009 89.6878 37.776 89.1086C38.2472 88.7039 38.647 88.1646 38.9435 87.6134C39.9058 85.824 40.2765 83.8722 40.3559 81.8538C40.3797 81.2573 41.2004 80.8339 41.6584 81.2094C41.7921 81.3186 41.8027 81.6514 41.7815 81.8724C41.5816 83.9468 41.3592 86.0171 41.1501 88.0901C41.1236 88.3537 41.0958 88.6253 41.1289 88.8849C41.1951 89.3989 41.6187 89.5679 41.9668 89.1872C42.2871 88.8357 42.491 88.3777 42.7703 87.9836C42.8524 87.8677 42.9384 87.6547 43.1396 87.7279C43.3408 87.8012 43.2945 88.0794 43.2389 88.1766C42.8855 88.7811 42.5492 89.4108 42.0952 89.9354C41.7352 90.3521 41.1805 90.452 40.6299 90.2336C40.066 90.0113 39.8171 89.544 39.8158 88.9781C39.8158 88.2951 39.8939 87.6134 39.9469 86.8039L39.9455 86.8053Z" fill="black"/>
<path d="M6.09595 64.2392C5.81401 64.2259 5.61942 64.2086 5.42484 64.2073C3.00778 64.1926 2.88997 64.2858 2.31152 66.6477C2.28505 66.7556 2.28372 66.8834 2.22151 66.9646C2.13812 67.0738 2.13017 67.2256 1.89456 67.2335C1.65894 67.2415 1.651 66.9659 1.66026 66.8408C1.72909 65.8462 1.81381 64.8517 1.93956 63.8624C1.95545 63.7333 2.2321 63.5416 2.38829 63.5402C5.38645 63.5149 8.38462 63.5176 11.3828 63.5043C11.7137 63.503 11.8672 63.6041 11.8567 63.9623C11.8262 64.8929 11.8328 65.8249 11.7892 66.7556C11.7812 66.9313 11.7786 67.1949 11.5099 67.2708C11.2411 67.3467 11.1961 67.1643 11.1273 66.7729C11.1154 66.7582 11.1233 66.7289 11.1207 66.7076C10.8467 64.4469 10.5237 64.178 8.21651 64.1806C7.76116 64.1806 7.61158 64.3191 7.58511 64.7798C7.42229 67.6356 7.23036 70.4888 7.04504 73.3434C7.01592 73.7854 6.98415 74.2287 6.9312 74.6681C6.88223 75.0662 7.03577 75.2539 7.43421 75.2539C7.61026 75.2539 7.81146 75.2313 7.95442 75.3072C8.09605 75.3817 8.28799 75.5122 8.26284 75.7119C8.23769 75.9116 8.05634 75.9955 7.93986 75.9968C6.79354 76.0181 5.64722 76.0168 4.5009 75.9995C4.38839 75.9982 4.20969 76.0248 4.16733 75.7692C4.12498 75.5135 4.32353 75.4656 4.42545 75.447C5.34145 75.2805 5.42881 74.6029 5.47911 73.8533C5.67502 70.9109 5.89078 67.9698 6.09595 65.0287C6.11316 64.7904 6.0986 64.5494 6.0986 64.2406L6.09595 64.2392Z" fill="black"/>
<path d="M54.3608 86.997C53.9915 87.6854 53.7387 88.2539 53.3972 88.7598C53.1165 89.1739 52.7764 89.58 52.3779 89.8742C51.172 90.7649 49.6776 90.2936 49.1375 88.8969C48.2983 86.7294 49.2739 83.2891 51.1217 81.8951C52.6109 80.7727 54.2682 80.9325 55.932 81.304C56.0618 81.3332 56.1928 81.7646 56.1729 81.9963C55.9956 84.0267 55.7811 86.0531 55.5852 88.0808C55.5601 88.3431 55.5468 88.616 55.5852 88.8756C55.662 89.3882 56.0803 89.56 56.4271 89.1832C56.7488 88.8344 56.9526 88.375 57.2266 87.9783C57.3007 87.8718 57.3947 87.7053 57.5509 87.7306C57.7071 87.7559 57.7468 88.0728 57.6965 88.1593C57.3497 88.7665 57.0241 89.4055 56.5701 89.9261C56.1915 90.3588 55.6183 90.4454 55.0438 90.2057C54.4733 89.9661 54.2748 89.4841 54.2642 88.9289C54.2536 88.3364 54.3198 87.7426 54.3608 86.9984V86.997ZM50.2958 86.9531C50.2931 87.6175 50.44 88.1474 50.632 88.7026C50.8967 89.4694 51.5877 89.6425 52.2204 89.1286C52.5394 88.8703 52.8174 88.5321 53.0358 88.182C54.1503 86.3859 54.6004 84.3848 54.7195 82.2998C54.7288 82.1427 54.4588 81.8658 54.2735 81.8192C52.8333 81.4504 51.7148 81.9204 51.1482 83.3343C50.6955 84.466 50.2984 86.2874 50.2958 86.9531Z" fill="black"/>
<path d="M26.0925 73.0611C25.8476 73.5285 25.6319 74.0158 25.3486 74.4591C25.1011 74.8466 24.8152 75.2273 24.4776 75.5336C23.1222 76.7664 21.3365 76.3151 20.942 74.5297C20.4483 72.2983 20.7567 70.1534 22.3835 68.3813C23.6318 67.0206 25.2255 66.8035 26.941 67.0432C28.1442 67.211 28.1376 67.2176 27.9947 68.4412C27.7802 70.2905 27.5658 72.1385 27.3712 73.9905C27.3249 74.4351 27.1634 75.029 27.7233 75.2087C28.2899 75.3911 28.4686 74.7946 28.7068 74.4165C28.8352 74.2128 28.9014 73.9678 29.0324 73.7655C29.088 73.6802 29.2667 73.5937 29.3395 73.6243C29.4256 73.6603 29.505 73.8254 29.5037 73.9345C29.4984 74.6349 28.5347 75.8824 27.8411 76.114C26.937 76.4149 26.1786 75.9303 26.0952 74.9797C26.0661 74.6508 26.0846 74.3153 26.1031 73.9838C26.1203 73.6776 26.1667 73.374 26.1997 73.0678C26.164 73.0651 26.1269 73.0638 26.0912 73.0611H26.0925ZM26.618 67.8607C25.2877 67.4493 24.1494 67.5971 23.518 68.4119C22.0831 70.2612 21.9388 72.4008 22.4352 74.5909C22.6192 75.4017 23.4147 75.5828 24.0435 75.017C24.4591 74.6415 24.8178 74.1675 25.0918 73.6749C26.0912 71.8855 26.4976 69.9257 26.618 67.8594V67.8607Z" fill="black"/>
<path d="M44.4635 72.1964C44.4979 70.6972 44.7984 69.2886 45.8693 68.1582C46.9653 67.0012 48.3088 66.6418 49.7953 67.1517C51.2554 67.6523 51.7637 68.9091 51.9053 70.3284C52.043 71.7064 51.7915 73.0245 51.078 74.2281C50.1421 75.8098 48.5034 76.5354 46.8647 76.1067C45.4152 75.7273 44.5151 74.3865 44.4648 72.5292C44.4622 72.4187 44.4648 72.3082 44.4648 72.1964H44.4635ZM50.4016 71.1313C50.4016 70.3231 50.256 69.72 50.1196 69.0756C49.9634 68.338 49.5637 67.7588 48.7536 67.643C47.9064 67.5218 47.1982 67.84 46.8078 68.5963C45.8481 70.4549 45.7276 72.432 46.3842 74.3879C46.8461 75.7632 48.5114 75.9403 49.3916 74.7753C49.6643 74.4145 49.888 73.9751 49.9926 73.5371C50.1871 72.725 50.4016 71.9394 50.4016 71.1313Z" fill="black"/>
<path d="M12.5965 72.4911C12.4549 70.538 12.9764 69.0455 14.2948 67.8765C15.2584 67.0217 16.3809 66.7714 17.6239 67.039C18.3996 67.2068 18.9383 67.6541 19.1435 68.4423C19.3526 69.2478 19.1527 69.9894 18.5108 70.478C17.9614 70.8974 17.3035 71.1943 16.6589 71.4566C16.1744 71.6537 15.637 71.7256 15.1168 71.8214C14.0062 72.0265 13.9956 72.0185 14.1796 73.1755C14.312 74.0076 14.5344 74.8131 15.4305 75.1353C16.3611 75.4695 17.1765 75.1499 17.8648 74.5175C18.2182 74.1927 18.4777 73.7679 18.8033 73.4098C18.9012 73.3019 19.1157 73.1422 19.2189 73.1981C19.3222 73.254 19.3579 73.5656 19.3089 73.7067C18.7755 75.2445 16.9872 76.3575 15.3829 76.1778C14.0962 76.0327 12.7368 74.4443 12.5952 72.4911H12.5965ZM14.1042 70.4993C14.0976 70.6352 13.9453 71.4619 14.2299 71.3927C14.5145 71.3235 16.3584 70.9254 17.2003 70.1425C17.8423 69.5447 17.931 68.461 17.4161 67.9178C16.9091 67.3839 15.9256 67.4518 15.2783 68.0962C14.4589 68.9043 14.1108 70.3662 14.1042 70.4993Z" fill="black"/>
<path d="M47.1177 76.6721C46.9125 78.1633 46.6915 79.5133 46.5459 80.8727C46.2891 83.2506 46.076 85.6325 45.8496 88.0143C45.8271 88.2553 45.7993 88.5123 45.8536 88.7413C45.9039 88.957 46.019 89.2539 46.1818 89.3165C46.342 89.3777 46.6676 89.2512 46.7947 89.0994C47.074 88.7666 47.2607 88.3552 47.5148 87.997C47.5942 87.8865 47.7319 87.7281 47.9026 87.772C48.0734 87.816 48.0258 88.0809 47.9768 88.1781C47.7067 88.7053 47.4552 89.2579 47.0939 89.7199C46.6491 90.2884 46.0071 90.4628 45.3069 90.2245C44.6093 89.9875 44.4055 89.3883 44.4147 88.7426C44.4293 87.7694 44.4888 86.7934 44.5934 85.8255C44.8423 83.5129 45.1269 81.2055 45.3996 78.8956C45.5121 77.9409 45.5147 77.9476 44.5868 77.7466C44.4703 77.7213 44.2744 77.7439 44.2744 77.4909C44.2744 77.238 44.4438 77.206 44.555 77.182C45.3665 77.0023 46.1832 76.8545 47.119 76.6721H47.1177Z" fill="black"/>
<path d="M27.1522 86.3151C27.1985 86.644 27.2753 87.303 27.4579 87.8875C27.908 89.3254 29.4461 89.8354 30.6388 88.9154C31.114 88.5492 31.4356 87.986 31.8433 87.528C31.9426 87.4175 32.0961 87.2538 32.2457 87.291C32.3953 87.3283 32.4416 87.6771 32.3847 87.7943C31.5309 89.5611 29.9041 90.8672 27.7253 90.0471C26.5724 89.613 25.9939 88.7037 25.7821 87.5547C25.4949 86.0062 25.6948 84.4991 26.4427 83.1038C27.3361 81.4355 29.0516 80.65 30.7076 81.1014C31.5071 81.3197 32.0617 81.8336 32.3728 82.5912C32.5528 83.0279 32.5502 83.5112 32.1107 83.7788C31.8963 83.9093 31.4992 83.9226 31.2741 83.8094C30.8505 83.5951 30.7486 83.1384 30.926 82.7123C31.2066 82.0387 30.8307 81.8203 30.3052 81.6858C29.376 81.4475 28.5884 81.7697 28.0284 82.6205C27.3428 83.663 27.1058 85.9863 27.1522 86.3151Z" fill="black"/>
<path d="M33.216 64.7862C33.1405 65.5331 33.0664 66.2734 32.9817 67.1029H35.6357C35.7958 67.6754 35.6211 67.8804 35.1154 67.8684C34.394 67.8524 33.6713 67.8644 32.848 67.8644C32.6918 69.972 32.4866 72.0197 32.4111 74.0714C32.3688 75.2018 33.1352 75.5599 34.0843 74.9555C34.3226 74.8037 34.5118 74.572 34.7528 74.4229C34.8732 74.3484 35.0863 74.2432 35.2147 74.363C35.3431 74.4828 35.2518 74.7012 35.1803 74.7638C34.6508 75.2191 34.1558 75.7743 33.5403 76.0566C32.4231 76.5705 31.3443 75.9527 31.0875 74.7318C30.9802 74.2192 30.967 73.6733 31.0001 73.1474C31.0848 71.8214 31.2211 70.498 31.3376 69.1745C31.3721 68.7818 31.4091 68.389 31.4515 67.919C31.0967 67.9017 30.7923 67.919 30.5011 67.8631C30.2985 67.8245 29.9226 67.8538 29.9226 67.5915C29.9226 67.3292 30.2416 67.2693 30.4336 67.1668C30.7989 66.9697 31.2794 66.9045 31.5441 66.6249C31.9214 66.2241 32.2192 65.7062 32.4125 65.187C32.574 64.7529 32.7407 64.6092 33.216 64.7862Z" fill="black"/>
<path d="M36.2303 69.75C36.1314 69.6107 36.0511 69.4949 35.9894 69.4025C35.9391 69.111 37.0271 67.1285 37.8544 66.9647C38.7797 66.7823 39.4323 67.2963 39.4746 68.3055C39.4985 68.874 39.4177 69.4465 39.4905 70.0722C39.5924 69.8779 39.6811 69.6741 39.7989 69.4891C40.1855 68.8753 40.5362 68.2309 40.9889 67.6704C41.4562 67.0899 42.1233 66.8449 42.8805 66.9488C43.3689 67.0153 43.7515 67.2816 43.7409 67.7902C43.7343 68.0951 43.5662 68.5092 43.3319 68.6703C42.9308 68.9485 42.5165 68.7076 42.2517 68.3374C41.9751 67.95 41.6508 68.0072 41.4284 68.2882C40.9294 68.9206 40.3999 69.5583 40.0584 70.2786C39.3303 71.815 39.0113 73.4766 39.018 75.1768C39.0206 75.8865 38.7413 76.0036 38.1152 75.9943C37.3382 75.9823 37.546 75.4857 37.5831 75.0836C37.7379 73.3861 37.9153 71.6899 38.0834 69.9924C38.1178 69.6395 38.2065 69.2774 38.1589 68.9352C38.1073 68.5558 37.8041 67.8262 37.8041 67.8262C37.8041 67.8262 37.2469 68.0978 36.9014 68.5891C36.5559 69.0803 36.4897 69.288 36.2303 69.7474V69.75Z" fill="black"/>
<path d="M20.6784 84.2326C20.8253 83.9224 20.9352 83.5856 21.1285 83.3073C21.5666 82.6776 21.9928 82.0252 22.5236 81.4806C22.9909 81.0013 23.6726 80.8269 24.3014 81.0998C24.6018 81.2303 24.8891 81.6311 24.9672 81.9599C25.0188 82.1783 24.7289 82.6629 24.5158 82.7148C24.2233 82.7867 23.7414 82.6642 23.5508 82.4419C23.1312 81.9546 22.7526 82.137 22.4985 82.4632C22.014 83.0823 21.5481 83.744 21.2225 84.4563C20.5328 85.9648 20.2575 87.5825 20.1953 89.24C20.1622 90.1095 20.1238 90.1068 19.2766 90.0815C18.4877 90.0575 18.7577 89.501 18.7908 89.1242C18.9656 87.1364 19.1853 85.1513 19.3613 83.1635C19.3997 82.7308 19.6221 82.0891 19.0384 81.9679C18.771 81.912 18.3514 82.4366 18.0522 82.7481C17.8762 82.9305 17.8179 83.2234 17.6723 83.4431C17.6154 83.5283 17.491 83.6268 17.3559 83.6002C17.2209 83.5736 17.1971 83.3552 17.2262 83.27C17.5121 82.4193 17.8563 81.5871 18.718 81.1624C19.6631 80.6951 20.6188 81.2383 20.6797 82.2968C20.7168 82.9265 20.6228 83.5643 20.5884 84.198C20.6188 84.21 20.648 84.2207 20.6784 84.2326Z" fill="black"/>
<path d="M61.3236 84.2344C61.5791 83.7484 61.7737 83.2146 62.1046 82.7872C62.5427 82.2213 63.0153 81.6209 63.6096 81.264C64.0081 81.0244 64.9346 81.0004 65.161 81.2015C65.3874 81.4025 65.5978 81.7434 65.6137 82.0456C65.6269 82.2799 65.3596 82.6913 65.1544 82.7352C64.8698 82.7965 64.4105 82.6873 64.2344 82.4756C63.8161 81.9724 63.4865 82.1241 63.1318 82.4663C62.0993 83.4609 61.6625 84.7803 61.3527 86.1117C61.0986 87.2021 60.9953 88.3405 60.949 89.4628C60.9186 90.1898 60.5043 90.0566 60.0727 90.0899C59.5313 90.1312 59.4466 89.8476 59.489 89.3989C59.6743 87.4138 59.8504 85.4287 60.0264 83.4436C60.0516 83.1573 60.1045 82.8604 60.0568 82.5835C60.0171 82.3491 60.0277 82.0256 59.7418 81.9138C59.4559 81.8019 59.2084 82.1042 59.0389 82.2892C58.8073 82.5449 58.6908 82.9017 58.487 83.1879C58.3691 83.3544 58.1904 83.7964 58.0184 83.6073C57.8463 83.4183 57.9389 83.128 58.0303 82.9616C58.3255 82.4277 58.622 81.8712 59.0323 81.4305C59.4691 80.9618 60.0992 80.8833 60.6883 81.1575C61.2336 81.4118 61.3739 81.9484 61.362 82.5023C61.3488 83.0734 61.2773 83.6446 61.231 84.2158C61.2614 84.2211 61.2932 84.2277 61.3236 84.2331V84.2344Z" fill="black"/>
<path d="M15.3057 83.1105C15.1124 84.5924 14.8954 86.238 14.6875 87.8836C14.6544 88.1459 14.6081 88.4228 14.6558 88.6758C14.7021 88.9141 14.8292 89.2802 14.9867 89.3175C15.2011 89.3694 15.5493 89.2323 15.7121 89.0552C15.9728 88.7703 16.1158 88.3789 16.3355 88.05C16.4189 87.9249 16.5751 87.6972 16.6995 87.7505C16.824 87.8037 16.869 88.1326 16.8094 88.2524C16.546 88.7823 16.2892 89.3361 15.9146 89.7848C15.4725 90.3134 14.8371 90.4505 14.166 90.2202C13.5108 89.9952 13.2156 89.4493 13.2474 88.8249C13.3043 87.7238 13.4737 86.6281 13.5981 85.5297C13.6961 84.6722 13.8377 83.8162 13.8761 82.9561C13.8907 82.6325 13.7835 82.0694 13.5584 81.9668C13.3334 81.8643 12.9244 82.313 12.6888 82.5633C12.469 82.795 12.3711 83.1398 12.1937 83.4194C12.1355 83.5113 12.0812 83.6737 11.8972 83.6164C11.7132 83.5592 11.7145 83.4074 11.7132 83.3009C11.7026 82.4781 12.8926 81.164 13.7212 81.0615C14.7961 80.9283 15.3428 81.5781 15.3044 83.1118L15.3057 83.1105Z" fill="black"/>
<path d="M17.3963 93.1292C18.4169 92.9255 18.4698 92.9601 18.8259 93.9733C19.2349 95.137 19.6559 96.2953 20.1218 97.5961C20.278 97.3205 20.3813 97.1674 20.458 96.9996C20.916 95.9917 21.3595 94.9785 21.8214 93.9733C22.298 92.9388 22.3072 92.9401 23.6203 93.1532C22.6977 93.506 22.9227 94.213 22.9095 94.8361C22.891 95.6775 22.8976 96.5203 22.8698 97.3617C22.8513 97.8943 22.7533 98.4415 23.4588 98.6945H21.5858C22.3165 98.4016 22.1682 97.7745 22.1735 97.2219C22.1828 96.2593 22.1762 95.2981 22.1762 94.1304C21.4124 95.7947 20.7241 97.2938 20.0358 98.7943C19.9603 98.789 19.8849 98.7837 19.8094 98.7784C19.2773 97.2819 18.7465 95.7854 18.2144 94.2889C18.1627 94.2969 18.1111 94.3048 18.0595 94.3142C17.9748 95.5364 17.8623 96.7586 17.8345 97.9822C17.8292 98.1899 18.1839 98.4069 18.4142 98.6665H16.7676C17.5194 98.4069 17.3712 97.7465 17.4321 97.2006C17.5512 96.1435 17.673 95.0864 17.7312 94.0252C17.7458 93.751 17.5287 93.4634 17.3977 93.1279L17.3963 93.1292Z" fill="black"/>
<path d="M68.6467 57.6405C69.1735 58.0546 69.7003 58.4686 70.2272 58.8814C70.4164 59.0292 70.6468 59.145 70.7924 59.3274C71.073 59.6789 70.9353 60.085 70.4972 60.0983C69.9796 60.1143 69.429 60.0717 68.9458 59.8999C68.3727 59.6975 68.3621 59.1596 68.869 58.4979C68.5765 58.217 68.2403 57.9614 67.9875 57.6405C67.5004 57.0201 67.5824 56.8537 68.3488 56.7365C68.4269 56.7245 68.5024 56.6952 68.734 56.6313C68.4547 56.4462 68.28 56.3437 68.1185 56.2226C67.5983 55.8298 67.049 55.4663 66.5751 55.0216C65.9093 54.3972 65.9291 54.2095 66.6783 53.3827C66.3196 53.3348 66.0483 53.3654 65.8524 53.2575C65.495 53.0618 65.1812 52.7862 64.849 52.5426C65.0912 52.3415 65.307 52.0726 65.5836 51.9621C65.8312 51.8636 66.1515 51.9088 66.4321 51.9488C67.1072 52.0446 67.7532 52.7915 67.6857 53.4599C67.6658 53.649 67.3706 53.8127 67.1972 53.9831C67.0635 54.1136 66.9219 54.2374 66.7842 54.3639C66.9338 54.5091 67.0609 54.7234 67.2383 54.782C67.544 54.8845 67.8816 54.9245 68.2072 54.9284C68.6467 54.9338 68.824 55.1548 68.9154 55.5542C68.9696 55.7952 69.0967 56.0269 69.2304 56.2385C69.3217 56.3823 69.5031 56.4675 69.601 56.6087C69.9399 57.0973 69.7983 57.3716 69.2053 57.4102C69.0557 57.4195 68.9074 57.4341 68.7579 57.4461C68.7208 57.51 68.6824 57.5739 68.6453 57.6379L68.6467 57.6405Z" fill="black"/>
<path d="M49.5273 94.4385C49.5273 94.4385 49.6279 93.601 49.0044 92.7622C49.5551 92.6664 49.9244 92.6011 50.3718 92.5226C50.1799 94.5224 49.8066 98.0878 49.8119 98.3475C49.8172 98.6071 49.9879 98.687 50.1865 98.5592C50.385 98.4314 50.4724 98.0466 50.614 97.7909C50.663 98.3648 50.4009 98.7695 49.8913 98.8268C49.0825 98.916 49.2056 98.2276 49.1897 97.5406C48.9329 97.9334 48.7979 98.1784 48.6272 98.3927C48.0699 99.0957 47.1645 98.9746 46.8269 98.1611C46.3888 97.1066 46.86 95.3984 47.8449 94.8472C48.2949 94.5956 49.5259 94.4371 49.5259 94.4371L49.5273 94.4385ZM47.273 97.0853C47.2307 97.9134 47.4716 98.3901 47.9018 98.3901C48.332 98.3901 48.5279 98.0772 48.6258 97.8336C48.9422 97.0414 49.1778 96.2119 49.3883 95.3824C49.4201 95.256 49.2797 94.9125 49.0296 94.9111C48.7794 94.9098 48.1334 95.0682 47.9587 95.3385C47.6251 95.8511 47.3167 96.2572 47.2743 97.0853H47.273Z" fill="black"/>
<path d="M8.96076 97.594C8.75162 97.9056 8.58086 98.2557 8.39555 98.3742C8.04874 98.5953 7.7112 98.8043 7.35248 98.7683C7.07318 98.7404 6.69593 98.3023 6.60592 97.9775C6.14395 96.3265 7.27306 94.2069 9.04151 94.5518C9.10107 94.5638 9.16858 94.5331 9.22815 94.5238C9.59746 93.6185 9.54186 93.1937 8.89193 92.7504C9.36184 92.6692 9.73115 92.6039 10.1865 92.5254C9.99457 94.4919 9.61996 98.0827 9.62261 98.2877C9.62526 98.4927 9.7841 98.4874 9.85293 98.4169C9.92176 98.3463 10.2699 97.9908 10.4711 97.7844C10.5386 98.2797 10.1931 98.795 9.71924 98.8309C8.85619 98.8948 9.08916 98.1825 8.96209 97.5927L8.96076 97.594ZM7.11289 97.1414C7.05597 98.068 7.39351 98.3543 7.67678 98.3729C7.96005 98.3916 8.35054 98.0054 8.48291 97.7245C8.78736 97.0748 9.0018 96.3758 9.17917 95.6768C9.35522 94.9792 9.01768 94.6676 8.33333 94.9099C8.03683 95.0151 7.71782 95.2947 7.58412 95.5783C7.35513 96.0643 7.17113 96.2134 7.11421 97.14L7.11289 97.1414Z" fill="black"/>
<path d="M28.8114 94.9447C28.6261 95.0219 28.4156 95.4173 28.2025 95.6743C28.184 95.1004 28.5956 94.5532 29.0576 94.5546C29.8624 94.5572 29.5924 95.2509 29.7406 95.7369C29.9286 95.4746 30.0782 95.2376 30.2542 95.0232C30.5759 94.6318 30.9876 94.4401 31.4839 94.6265C31.9777 94.8115 32.0875 95.2442 32.0425 95.7155C31.9869 96.3107 31.8903 96.9005 31.8307 97.4943C31.8043 97.7686 31.7566 98.2159 31.8268 98.3251C31.8969 98.4343 31.8334 98.4183 31.9936 98.4263C32.1537 98.4343 32.3801 98.0002 32.5733 97.7859C32.6223 97.8085 32.67 97.8325 32.7189 97.8551C32.5442 98.1267 32.4158 98.4542 32.1789 98.65C32.0147 98.7858 31.6031 98.8563 31.476 98.7485C31.2774 98.5807 31.1358 98.2372 31.1345 97.9683C31.1318 97.4424 31.2444 96.9151 31.3066 96.3879C31.3291 96.1909 31.333 96.1216 31.3489 95.7968C31.3648 95.4719 31.3926 95.0738 31.0259 94.9846C30.6593 94.8954 30.4184 95.2203 30.3072 95.4386C30.0001 96.0404 29.783 96.6915 29.5619 97.3332C29.4852 97.5582 29.5156 97.8178 29.4653 98.0548C29.4084 98.3238 29.5659 98.7751 29.0708 98.7392C28.503 98.6979 28.7783 98.2306 28.7955 97.9603C28.8418 97.2107 28.9557 96.4638 29.0298 95.7155C29.0523 95.4879 29.055 95.1191 29.0338 95.0246C29.0126 94.93 28.9954 94.8661 28.8101 94.9433L28.8114 94.9447Z" fill="black"/>
<path d="M58.4784 96.4181C58.4321 97.8853 57.5214 98.9145 56.334 98.8493C55.7463 98.8173 55.3161 98.5324 55.1189 97.9892C54.7853 97.0639 54.8793 96.1532 55.426 95.3304C55.8959 94.6234 56.6914 94.3638 57.4473 94.6061C58.1303 94.8258 58.5075 95.4875 58.4771 96.4181H58.4784ZM55.5782 96.9054C55.5782 97.5791 55.6801 98.4312 56.4691 98.4738C57.258 98.5164 57.3255 98.2967 57.4062 97.856C57.5439 97.1078 57.6193 96.3343 57.5929 95.5754C57.5836 95.3184 57.2024 94.895 56.9615 94.8724C56.6703 94.8457 56.2136 95.0881 56.0693 95.349C55.8112 95.8137 55.5795 96.2304 55.5795 96.9041L55.5782 96.9054Z" fill="black"/>
<path d="M27.6125 96.4154C27.5953 97.2289 27.3305 97.9332 26.7004 98.4671C26.2001 98.8905 25.6283 98.9664 25.0326 98.7254C24.4687 98.4964 24.1523 98.0211 24.147 97.4366C24.1431 96.8734 24.2013 96.2809 24.3813 95.7537C24.6977 94.8284 25.5329 94.4023 26.4185 94.5914C27.1902 94.7565 27.627 95.4235 27.6111 96.4154H27.6125ZM24.8433 96.8255C24.8645 97.0891 24.8711 97.3554 24.9108 97.6163C24.9796 98.0583 25.1557 98.4498 25.6574 98.5004C26.1418 98.5496 26.5138 98.2594 26.5866 97.8214C26.7097 97.0731 26.7653 96.3022 26.7322 95.5473C26.7216 95.309 26.355 94.9256 26.1193 94.8989C25.84 94.8683 25.3953 95.0747 25.2563 95.3157C25.0021 95.755 24.8181 96.8148 24.8433 96.8255Z" fill="black"/>
<path d="M40.3874 94.9905C40.1809 95.0531 40.0777 95.3806 39.9546 95.6722C39.85 95.0211 40.2206 94.5538 40.6905 94.5631C41.3166 94.5751 41.3749 95.0291 41.3325 95.5004C41.2809 96.0729 41.171 96.6401 41.1141 97.2126C41.0691 97.6546 41.0069 98.2298 41.547 98.3137C41.8474 98.3603 42.3597 98.0421 42.5252 97.7465C42.8376 97.1886 43.0176 96.5389 43.1579 95.9052C43.2453 95.5098 43.0824 95.1636 42.553 95.1649C42.4285 95.1649 42.1969 95.0704 42.1797 94.9C42.1625 94.7295 42.4087 94.6097 42.545 94.5831C43.0374 94.4899 43.3273 94.7602 43.4915 95.2089C43.9336 96.4164 43.0573 98.335 41.8607 98.7704C41.2425 98.9954 40.6389 98.7331 40.5476 98.0754C40.4642 97.4762 40.5635 96.8505 40.5992 96.2367C40.6217 95.8493 40.6747 95.4618 40.713 95.0757C40.5833 94.9825 40.5926 94.9266 40.3874 94.9905Z" fill="black"/>
<path d="M54.1929 97.5167C53.9599 98.3675 53.2676 98.8907 52.5025 98.8534C51.8102 98.8188 51.2768 98.3062 51.1749 97.5194C51.0663 96.6779 51.2199 95.8844 51.7639 95.2054C52.1862 94.6782 52.758 94.4225 53.4 94.5876C53.7097 94.6675 54.1135 94.9657 54.1823 95.24C54.2524 95.5183 54.0512 95.9962 53.8117 96.1933C53.4516 96.4889 52.9711 96.6832 52.5118 96.7938C51.9916 96.9189 51.699 97.0587 51.9294 97.6672C52.1637 98.2876 52.6084 98.5712 53.1392 98.3089C53.4251 98.1678 53.6488 97.9028 53.9043 97.6978C53.9771 97.6392 54.0632 97.5966 54.1916 97.518L54.1929 97.5167ZM52.0776 96.6726C52.5012 96.4316 52.9896 96.2559 53.3192 95.923C53.4834 95.7579 53.5827 95.0789 53.359 94.9751C53.1353 94.8712 52.5965 94.9458 52.443 95.1268C52.1412 95.481 51.6104 96.5501 52.0776 96.6726Z" fill="black"/>
<path d="M13.9505 97.5411C13.6567 98.5396 12.8916 99.0083 12.0854 98.8192C11.3601 98.6488 10.9603 97.9805 11.0093 96.9859C11.0463 96.2124 11.2078 95.4694 11.8578 94.9728C12.1079 94.7811 12.4428 94.6453 12.7552 94.6027C13.2979 94.5281 13.8592 94.588 14.0551 95.2298C14.2417 95.8449 13.8248 96.1844 13.3522 96.4294C13.0425 96.5905 12.7049 96.7156 12.3661 96.8008C11.9901 96.8954 11.6076 96.9034 11.74 97.4838C11.8895 98.1416 12.2284 98.501 12.7499 98.3546C13.0689 98.2654 13.3469 98.0137 13.6355 97.822C13.752 97.7448 13.8459 97.6356 13.9505 97.5411ZM11.8869 96.6264C12.2919 96.444 12.7327 96.3135 13.0914 96.0632C13.4502 95.8129 13.5614 95.3789 13.2344 95.0247C12.9088 94.6719 12.3886 95.0101 12.2668 95.1512C12.145 95.2923 11.3256 96.1365 11.8882 96.6278L11.8869 96.6264Z" fill="black"/>
<path d="M39.2408 97.3883C38.886 98.4375 38.1779 98.9421 37.4115 98.8449C36.6556 98.7477 36.1301 98.1605 36.1698 97.2259C36.1963 96.6081 36.3604 95.9504 36.645 95.4072C36.8343 95.0477 37.3122 94.7641 37.7212 94.615C38.3447 94.386 39.0356 94.7082 39.1905 95.1675C39.3546 95.6562 39.0793 96.1182 38.3976 96.4497C38.121 96.5842 37.8165 96.6574 37.5372 96.7865C37.3016 96.8957 36.8807 97.0781 36.8952 97.174C36.9521 97.5428 37.0646 97.9875 37.3228 98.2125C37.5121 98.3776 37.9979 98.3403 38.2798 98.2205C38.5975 98.086 38.8331 97.7585 39.2421 97.3897L39.2408 97.3883ZM37.0541 96.6441C37.4776 96.4124 37.9634 96.246 38.2983 95.9211C38.4625 95.7627 38.5842 95.1316 38.3513 94.9878C38.1183 94.844 37.5941 94.9425 37.4393 95.1183C37.1348 95.4671 36.7218 96.2553 37.0527 96.6427L37.0541 96.6441Z" fill="black"/>
<path d="M33.7544 94.9892C33.3837 94.9413 33.3229 94.9546 33.1772 94.9173C33.6141 94.4314 34.0376 93.9601 34.5274 93.4155C34.5486 93.8309 34.354 94.3089 34.5354 94.5086C34.7286 94.7203 35.18 94.7762 35.6459 94.8881C35.2846 94.932 34.9232 94.9773 34.4295 95.0372C34.3567 95.9891 34.2455 96.969 34.2216 97.9503C34.211 98.3803 34.5486 98.4988 34.9298 98.3178C35.1112 98.2312 35.27 98.0981 35.5122 97.937C35.2819 98.5907 34.7538 98.9582 34.26 98.8503C33.6842 98.7252 33.4843 98.2951 33.5201 97.7559C33.577 96.8745 33.675 95.9226 33.7544 94.9879V94.9892Z" fill="black"/>
<path d="M46.3165 97.8942C46.2067 98.0926 46.0637 98.3562 45.8956 98.464C45.6229 98.6398 45.4839 98.8581 45.0604 98.7836C44.6368 98.709 44.6527 98.2617 44.6659 97.99C44.703 97.2178 44.8605 96.4523 44.9545 95.6814C44.9823 95.459 44.9677 95.0956 44.9584 95.0037C44.9492 94.9118 44.9253 94.8839 44.7692 94.9292C44.613 94.9744 44.3562 95.4125 44.1497 95.6548C44.0967 95.6188 44.0424 95.5829 43.9895 95.5469C44.1735 95.2753 44.3072 94.9371 44.556 94.7547C44.7453 94.6163 45.1676 94.559 45.3264 94.6802C45.5237 94.8293 45.66 95.2061 45.6401 95.471C45.5859 96.2206 45.4217 96.9622 45.3383 97.7105C45.3145 97.9248 45.2933 98.3109 45.4654 98.3762C45.6375 98.4414 45.8135 98.1006 45.983 97.9581C46.0425 97.9075 46.0902 97.8436 46.1445 97.7863C46.2014 97.8223 46.2596 97.8582 46.3165 97.8942Z" fill="black"/>
<path d="M14.901 79.1006C14.3901 79.09 13.989 78.6799 13.9863 78.166C13.9837 77.6281 14.4046 77.2061 14.9447 77.2061C15.4901 77.2061 15.9044 77.6228 15.8991 78.1673C15.8938 78.6812 15.4345 79.1113 14.9023 79.0993L14.901 79.1006Z" fill="black"/>
<path d="M70.7922 62.5344C70.7499 62.613 70.693 62.7182 70.636 62.822C70.5262 62.7448 70.362 62.6929 70.3144 62.5864C70.1079 62.127 69.9371 61.7436 69.27 61.9606C69.0953 62.0178 68.7074 61.6118 68.5208 61.3455C68.4294 61.215 68.5459 60.7384 68.6214 60.7251C68.9139 60.6731 69.2806 60.6518 69.5241 60.7903C70.1754 61.1551 70.6162 61.7263 70.7909 62.5331L70.7922 62.5344Z" fill="black"/>
<path d="M70.2791 56.73C70.042 56.2637 69.805 55.7961 69.5586 55.3085C70.099 55.2672 70.5281 55.9759 70.2791 56.73Z" fill="black"/>
<path d="M45.9614 93.2665C45.927 93.6781 45.5521 93.6834 45.4011 93.6781C45.2475 93.6728 44.9508 93.7114 44.9508 93.3171C44.9508 92.9227 45.2184 92.9187 45.3919 92.8721C45.5124 92.8401 45.9958 92.8548 45.9614 93.2665Z" fill="black"/>
<path d="M70.9136 60.3398C71.1109 60.581 71.2646 60.7328 71.3573 60.9167C71.3758 60.9527 71.1202 61.2164 71.0447 61.1938C70.7957 61.1179 70.5719 60.9607 70.3387 60.8341C70.499 60.6955 70.6606 60.557 70.9123 60.3412L70.9136 60.3398Z" fill="black"/>
<path d="M27.8461 11.8015C27.6488 11.8428 27.5866 11.8534 27.5244 11.8681C27.253 11.9293 26.8639 12.1304 26.7395 12.0212C26.5594 11.8641 26.4681 11.4567 26.5316 11.2077C26.6018 10.9361 26.8599 10.5673 27.0982 10.5127C27.6912 10.3769 28.3186 10.3529 28.9315 10.3623C29.4649 10.3716 29.7376 10.9214 29.408 11.4567C28.9606 12.1836 28.8865 12.9438 28.9183 13.752C28.9302 14.0689 28.9447 14.4084 28.4748 14.3977C28.0645 14.3871 27.7071 14.2766 27.6965 13.7826C27.6885 13.4524 27.7508 13.1223 27.7772 12.7907C27.8011 12.4885 27.8209 12.1863 27.8474 11.8015H27.8461Z" fill="black"/>
<path d="M37.5881 10.7889C38.5478 10.3056 39.4598 10.4108 40.3599 10.733C40.8351 10.9034 41.0694 11.6916 40.8232 12.1549C40.6525 12.4745 40.4513 12.4478 40.299 12.1536C40.0475 11.6663 39.616 11.5199 39.1408 11.5864C38.4247 11.6863 38.0461 11.2443 37.5868 10.7889H37.5881Z" fill="black"/>
<path d="M38.4026 13.3434C38.0966 13.5872 37.9178 13.835 37.7231 13.8483C37.5907 13.8577 37.3244 13.5379 37.3231 13.3647C37.3231 13.1982 37.5708 12.9251 37.7417 12.8971C37.8953 12.8732 38.09 13.1183 38.4026 13.3421V13.3434Z" fill="black"/>
</svg>
