<svg width="74" height="86" viewBox="0 0 74 86" fill="none" xmlns="http://www.w3.org/2000/svg">
<path d="M35.6387 36.4517C35.6387 39.2822 35.6216 42.1128 35.6473 44.9432C35.6572 46.0323 35.7801 47.1199 35.8234 48.2094C35.8654 49.2658 35.242 50.0089 34.3288 49.9443C33.836 49.9095 33.3104 49.8094 32.8754 49.5895C31.4978 48.8931 30.1629 48.1132 28.7967 47.3934C28.2384 47.0992 27.6418 46.8773 27.0633 46.621C26.2028 46.2399 25.3417 45.8602 24.4831 45.4749C23.5305 45.0474 22.588 44.5966 21.6273 44.1881C20.3683 43.6527 19.1099 43.1093 17.8237 42.6457C17.0462 42.3653 16.4128 41.9429 15.8838 41.3265C15.4725 40.8473 15.2469 40.2884 15.2419 39.6731C15.2312 38.3763 15.1926 37.0726 15.3064 35.7841C15.4039 34.6817 15.8564 34.2405 16.8467 34.0866C17.918 33.9202 18.9842 34.0012 20.0019 34.3401C20.6956 34.5711 20.88 35.2541 20.982 35.9011C21.0335 36.2282 20.9642 36.5765 20.9348 36.9139C20.8555 37.8248 21.0284 38.179 21.8555 38.5712C23.1597 39.1896 24.4787 39.7768 25.7892 40.3822C27.0977 40.9868 28.412 41.5799 29.7044 42.217C30.0641 42.3943 30.1354 42.2613 30.1448 41.9718C30.1562 41.6189 30.1181 41.2646 30.1228 40.9112C30.1522 38.7002 30.1945 36.4892 30.2169 34.2781C30.2241 33.5716 30.2132 32.8622 30.1574 32.1584C30.0977 31.4058 29.7156 31.0523 28.9468 31.029C28.3422 31.0108 27.7358 31.0715 27.1299 31.0796C23.8634 31.1233 20.5969 31.179 17.3302 31.1919C16.2086 31.1964 15.2662 30.1296 15.2773 28.9515C15.2998 26.5636 15.3542 24.1761 15.3678 21.7883C15.3812 19.4595 15.368 17.1304 15.3481 14.8017C15.3437 14.2729 15.2098 13.7426 15.231 13.2169C15.2654 12.3702 15.6127 11.6495 16.4598 11.3462C16.8787 11.1962 17.3618 11.1566 17.8119 11.1732C19.5993 11.2389 21.3851 11.3489 23.1717 11.4375C24.2756 11.4922 25.3832 11.6163 26.4834 11.5708C28.5927 11.4835 30.6978 11.2954 32.8049 11.1535C33.5325 11.1046 34.2678 11.0859 34.8969 11.5262C35.1517 11.7046 35.4196 11.9499 35.5338 12.2257C35.8132 12.9005 36.1028 13.5893 35.9993 14.3562C35.9087 15.0279 35.8683 15.7089 35.7338 16.3713C35.571 17.1731 35.6271 17.9425 35.8111 18.7327C36.0467 19.7446 36.144 20.7561 35.6649 21.7581C35.3513 22.4138 34.8413 22.7831 34.1936 22.9845C33.2738 23.2705 32.3369 23.3305 31.4062 23.0101C30.8462 22.8172 29.9973 22.1797 30.085 21.3364C30.199 20.2388 30.243 19.1337 30.3168 18.0319C30.3226 17.9437 30.3279 17.8552 30.3288 17.7669C30.342 16.4904 30.0609 16.1827 28.7835 16.2268C26.9815 16.289 25.1814 16.4053 23.3797 16.4787C22.954 16.496 22.5253 16.4219 22.0974 16.4117C21.2007 16.3905 20.7337 16.7417 20.6171 17.6265C20.5317 18.2761 20.5293 18.9412 20.5427 19.5982C20.5751 21.1895 20.6409 22.7799 20.688 24.3708C20.7071 25.0187 20.9688 25.5377 21.5122 25.89C21.6741 25.995 21.8904 26.0691 22.0815 26.0686C24.9933 26.0614 27.9051 26.0387 30.8168 26.021C31.8961 26.0144 32.9755 25.9944 34.0542 26.0138C34.5332 26.0224 35.0672 26.0122 35.3568 26.4997C35.5045 26.7481 35.6243 27.0573 35.6269 27.3402C35.6477 29.6253 35.6376 31.9107 35.6371 34.1959C35.6369 34.9477 35.6371 35.6995 35.6371 36.4514C35.6375 36.4514 35.638 36.4514 35.6385 36.4514L35.6387 36.4517Z" fill="black"/>
<path d="M44.0592 24.6135C43.9544 28.2025 43.859 32.0779 43.717 35.9517C43.675 37.0973 43.4448 38.2363 43.4072 39.3819C43.3806 40.196 43.4794 41.0251 43.6219 41.83C43.7317 42.4503 43.871 42.4488 44.4315 42.1906C45.9682 41.4825 47.5175 40.8021 49.0572 40.1006C50.1152 39.6186 51.1754 39.1396 52.216 38.6221C52.9768 38.2437 53.3012 37.5506 53.3212 36.7374C53.3447 35.7807 53.3046 34.8224 53.2989 33.8648C53.2924 32.7598 53.2929 31.6549 53.2912 30.55C53.2864 27.6755 53.2898 24.8008 53.2752 21.9264C53.2611 19.1268 53.2284 16.3273 53.2053 13.5277C53.2028 13.2183 53.1803 12.905 53.218 12.5998C53.314 11.8228 53.5704 11.4455 54.3973 11.2513C55.5829 10.9731 56.7629 11.005 57.8961 11.5589C58.4121 11.8112 58.7329 12.2012 58.7747 12.7409C58.8346 13.5146 58.8125 14.2953 58.8125 15.073C58.8123 18.7438 58.8088 22.4146 58.8045 26.0854C58.8 29.8893 58.7928 33.6933 58.7878 37.4973C58.7868 38.308 58.8185 39.1199 58.7847 39.9292C58.7401 40.9993 58.1155 41.6831 57.1804 42.1149C56.0574 42.6334 54.9305 43.1434 53.8014 43.6488C52.9142 44.0459 52.0163 44.4195 51.1321 44.8229C49.9795 45.3487 48.8371 45.8965 47.6877 46.4292C46.8055 46.8382 45.9201 47.2402 45.0346 47.642C43.8415 48.1834 42.6484 48.7248 41.4522 49.2593C41.0783 49.4264 40.7049 49.6076 40.3132 49.7199C39.158 50.0508 38.4742 49.5599 38.4318 48.3489C38.3922 47.2147 38.4019 46.0787 38.3994 44.9435C38.3952 42.9685 38.3998 40.9936 38.398 39.0187C38.396 36.6752 38.3885 34.3317 38.3882 31.9882C38.3876 28.6717 38.3901 25.3552 38.394 22.0386C38.3956 20.727 38.4206 19.4151 38.4056 18.1037C38.3893 16.6757 38.3077 15.2478 38.3201 13.8205C38.3244 13.324 38.5112 12.8258 38.6387 12.3346C38.8015 11.7075 39.3231 11.4002 39.873 11.3248C40.772 11.2015 41.6955 11.1528 42.6003 11.2082C43.4395 11.2595 43.8044 11.7507 43.8191 12.6093C43.8314 13.3308 43.7813 14.0534 43.7986 14.7746C43.875 17.9582 43.9659 21.1414 44.0593 24.6133L44.0592 24.6135Z" fill="black"/>
<path d="M37.1302 61.0932C36.4334 61.1844 35.9114 60.7528 35.3407 60.5016C33.7376 59.7962 32.143 59.0712 30.5489 58.3454C29.6391 57.9311 28.7419 57.489 27.83 57.0795C25.6395 56.0958 23.4408 55.1303 21.2511 54.1449C20.1113 53.632 18.9863 53.0864 17.8495 52.5666C17.0339 52.1938 16.2017 51.8562 15.392 51.4715C14.677 51.1318 13.9825 50.7491 13.2796 50.3842C12.5633 50.0123 12.3729 49.0299 12.5803 48.4137C12.8318 47.6665 13.1286 46.9201 13.7599 46.3755C14.7231 45.5445 16.017 45.4126 17.1027 45.9485C18.2889 46.5339 19.5203 47.028 20.7252 47.5764C21.8636 48.0947 22.9892 48.6409 24.1279 49.1582C25.2402 49.6634 26.3644 50.1426 27.4789 50.6428C28.3523 51.0347 29.2141 51.4522 30.0899 51.8385C31.2883 52.3669 32.5011 52.8631 33.6962 53.3987C34.5267 53.7709 35.3575 54.1509 36.151 54.5934C36.7569 54.9312 37.3004 54.9201 37.9132 54.6378C39.2627 54.0162 40.6354 53.4451 41.9881 52.8301C43.3953 52.1904 44.7885 51.5201 46.1909 50.8693C47.0463 50.4724 47.9069 50.0864 48.7659 49.6972C50.281 49.0109 51.7951 48.3224 53.3128 47.6418C54.1065 47.2859 54.9102 46.9523 55.703 46.5946C56.1854 46.377 56.6515 46.1238 57.1319 45.9018C58.1261 45.4425 59.7524 45.5155 60.6988 46.6315C61.4234 47.4861 61.6359 48.4747 61.5459 49.5568C61.4978 50.1357 61.0847 50.4441 60.6282 50.6567C58.8128 51.5023 56.982 52.3148 55.1596 53.1455C53.4846 53.9092 51.8173 54.6897 50.1388 55.4455C48.7431 56.0739 47.3332 56.6707 45.9351 57.2935C44.416 57.9702 42.9004 58.655 41.3885 59.3476C40.2257 59.8801 39.0759 60.4409 37.9086 60.9633C37.6764 61.0671 37.391 61.0529 37.1302 61.0931V61.0932Z" fill="black"/>
<path d="M48.2178 74.4803C44.108 74.4803 39.9981 74.4763 35.8883 74.4817C33.1831 74.4852 30.4778 74.5124 27.7726 74.5112C22.969 74.5092 18.1654 74.4901 13.3617 74.4854C11.0263 74.483 8.69086 74.5023 6.3555 74.5022C4.71488 74.5022 3.07426 74.4907 1.43374 74.4744C0.813365 74.4682 0.720234 74.3575 0.729473 73.7358C0.737871 73.1706 0.850319 73.0586 1.45726 73.0592C5.03412 73.0626 8.61108 73.0742 12.1879 73.0743C15.7796 73.0744 19.3713 73.0599 22.9629 73.06C26.4662 73.06 29.9693 73.0756 33.4726 73.0747C36.3694 73.074 39.2663 73.0523 42.163 73.0526C44.9718 73.0529 47.7806 73.0789 50.5893 73.0764C53.9446 73.0733 57.2999 73.0416 60.6551 73.041C64.6463 73.0404 68.6376 73.0568 72.6288 73.0784C72.8405 73.0796 73.212 73.1665 73.2334 73.27C73.3015 73.6003 73.2681 73.9625 73.2061 74.3C73.1919 74.377 72.9055 74.4468 72.744 74.448C70.7777 74.4611 68.8112 74.46 66.8448 74.4641C63.2671 74.4714 59.6895 74.482 56.1118 74.4871C53.4804 74.4908 50.849 74.4878 48.2177 74.4878C48.2177 74.4853 48.2177 74.4828 48.2177 74.4803H48.2178Z" fill="black"/>
<path d="M33.6636 1.52677C34.5998 1.54436 35.5316 1.5719 36.2926 2.23949C37.0967 2.94477 37.2792 3.86299 37.1204 4.84934C36.8581 6.47796 35.3973 6.97904 34.1876 6.97979C33.7443 6.98007 33.3007 6.95494 32.8576 6.96173C32.5462 6.96648 32.3708 6.83395 32.3685 6.52766C32.3566 5.00905 32.3508 3.49043 32.3501 1.97182C32.3499 1.67437 32.4961 1.50824 32.8212 1.52397C33.1014 1.53756 33.3828 1.52677 33.6637 1.52677H33.6636ZM33.7023 4.21116C33.6889 4.21116 33.6756 4.21116 33.6622 4.21126C33.6622 4.57786 33.6664 4.94455 33.661 5.31115C33.6562 5.63866 33.7964 5.78925 34.1385 5.79027C34.9814 5.79269 35.5697 5.4112 35.7777 4.60568C36.0377 3.59877 35.4217 2.46239 33.9994 2.70958C33.8831 2.72978 33.7292 2.93546 33.7158 3.06734C33.6774 3.4452 33.7023 3.82949 33.7023 4.21116Z" fill="black"/>
<path d="M38.2451 65.9327C38.2451 65.4699 38.2418 65.0991 38.2462 64.7283C38.2496 64.4491 38.207 64.1516 38.646 64.1438C39.432 64.1298 39.62 64.2078 39.6252 64.701C39.6417 66.2619 39.6427 67.823 39.625 69.3839C39.6232 69.5359 39.4589 69.807 39.3549 69.8145C39.0212 69.8385 38.6181 69.8628 38.3606 69.7C38.1213 69.5488 38.0011 69.5274 37.799 69.6736C36.8246 70.3784 35.366 69.5764 35.1569 68.4717C35.011 67.7017 34.9589 66.9365 35.4194 66.2584C36.0298 65.3597 36.8911 65.1865 37.845 65.7154C37.9319 65.7636 38.0196 65.8102 38.2453 65.9327H38.2451ZM38.2508 67.691C38.2651 67.1295 37.9053 66.6945 37.4239 66.6913C36.8793 66.6878 36.45 67.134 36.4406 67.7133C36.4321 68.2448 36.849 68.7528 37.3 68.7604C37.7923 68.7687 38.2361 68.2697 38.2508 67.691V67.691Z" fill="black"/>
<path d="M50.7616 66.9352C50.7616 66.1553 50.7718 65.3753 50.7569 64.5958C50.7503 64.2498 50.9027 64.1073 51.2309 64.1164C51.3635 64.1201 51.4966 64.1436 51.6283 64.1368C52.0163 64.1167 52.1564 64.3232 52.1548 64.6778C52.1534 64.9573 52.1555 65.237 52.1635 65.5165C52.1715 65.7935 52.2656 65.89 52.5509 65.7382C53.7668 65.0912 55.0433 65.6936 55.2488 67.047C55.3655 67.8164 55.3906 68.6004 54.8348 69.2723C54.324 69.8898 53.5113 70.1013 52.7673 69.7664C52.4931 69.643 52.2665 69.5817 51.9483 69.7632C51.6967 69.9067 51.3164 69.8811 51.0063 69.8377C50.8986 69.8226 50.7609 69.5311 50.7554 69.3621C50.7291 68.5539 50.7436 67.7443 50.7436 66.9353C50.7497 66.9353 50.7556 66.9353 50.7617 66.9353L50.7616 66.9352ZM52.1075 67.7377C52.1077 68.3016 52.4969 68.755 52.9881 68.7635C53.5454 68.7731 53.9291 68.318 53.9214 67.6565C53.915 67.1007 53.5689 66.7162 53.0735 66.7143C52.4787 66.712 52.1073 67.1055 52.1076 67.7378L52.1075 67.7377Z" fill="black"/>
<path d="M29.1717 67.0886C29.1717 67.781 29.1698 68.4735 29.1727 69.166C29.1737 69.4148 29.2394 69.7403 28.9193 69.7907C28.5919 69.8424 28.1614 69.875 27.926 69.7069C27.6657 69.5211 27.5151 69.5338 27.3182 69.678C26.2145 70.4868 24.648 69.5066 24.6241 68.0582C24.6124 67.3479 24.6241 66.6587 25.1247 66.0552C25.6734 65.3939 26.6239 65.344 27.3051 65.6584C27.6967 65.8391 27.7639 65.8155 27.7843 65.3915C27.7964 65.1416 27.8077 64.8914 27.8113 64.6412C27.8171 64.2342 28.0397 64.1239 28.4173 64.1353C28.7989 64.1467 29.1495 64.1485 29.1578 64.6584C29.1691 65.3505 29.1775 66.0427 29.1865 66.7348C29.1881 66.8526 29.1867 66.9706 29.1867 67.0884C29.1817 67.0884 29.1767 67.0884 29.1717 67.0884V67.0886ZM25.9909 67.6787C25.9876 68.2593 26.4115 68.7285 26.9465 68.7364C27.446 68.7437 27.7816 68.3081 27.7837 67.6492C27.7854 67.1028 27.3796 66.6635 26.8754 66.6659C26.3842 66.6682 25.994 67.1149 25.9909 67.6787Z" fill="black"/>
<path d="M42.0427 66.4089C42.0427 65.9081 42.0545 65.4069 42.0387 64.9067C42.027 64.5331 42.171 64.3492 42.5573 64.3819C42.6453 64.3893 42.7344 64.3826 42.8231 64.3831C43.3406 64.3858 43.4005 64.4373 43.4045 64.9704C43.4112 65.8983 43.4115 66.8264 43.403 67.7543C43.3989 68.1994 43.6061 68.4699 44.0189 68.6139C44.6805 68.8449 45.2223 68.4993 45.2397 67.7986C45.2625 66.8859 45.2525 65.9723 45.2645 65.0592C45.2718 64.494 45.3962 64.3984 46.0565 64.4142C46.5681 64.4264 46.7123 64.5749 46.7045 65.0796C46.6914 65.9336 46.6654 66.7876 46.6688 67.6415C46.6764 69.5549 44.9082 70.3066 43.5006 69.7564C42.47 69.3535 42.0573 68.7527 42.0519 67.6461C42.0499 67.2337 42.0516 66.8212 42.0516 66.4088C42.0486 66.4088 42.0457 66.4088 42.0427 66.4088V66.4089Z" fill="black"/>
<path d="M34.3933 67.6769C34.3933 68.1771 34.422 68.6797 34.3806 69.1765C34.3612 69.4088 34.2438 69.791 34.105 69.8232C33.7905 69.8962 33.3794 69.89 33.113 69.7353C32.8674 69.5928 32.7293 69.5502 32.5025 69.693C31.6733 70.2154 30.5699 69.9184 30.1342 69.0267C29.7321 68.2039 29.6042 67.3608 30.0326 66.4829C30.4557 65.6158 31.6976 65.1808 32.5202 65.6742C32.734 65.8025 32.8584 65.7342 33.068 65.6749C33.431 65.572 33.8355 65.5863 34.2191 65.6098C34.291 65.6142 34.394 65.8898 34.4004 66.0437C34.4226 66.5872 34.4091 67.1323 34.4091 67.6768C34.4038 67.6768 34.3986 67.6768 34.3934 67.6768L34.3933 67.6769ZM32.9873 67.696C32.9923 67.1301 32.6337 66.672 32.1827 66.6683C31.6539 66.6639 31.2051 67.1132 31.2021 67.6498C31.1989 68.2156 31.6441 68.7191 32.1524 68.7247C32.5678 68.7293 32.9825 68.2182 32.9873 67.696Z" fill="black"/>
<path d="M70.7692 67.7108C70.7692 68.1666 70.7958 68.6246 70.7589 69.0774C70.738 69.3329 70.6623 69.7562 70.5238 69.7952C70.1972 69.8874 69.77 69.8925 69.4745 69.7479C69.2032 69.6151 69.0212 69.6211 68.7877 69.7247C67.797 70.1644 66.7895 69.7201 66.4046 68.7046C66.0428 67.7499 66.0836 66.8493 66.7526 66.0537C67.2941 65.4094 68.1542 65.2676 68.9251 65.646C69.1263 65.7448 69.2606 65.7372 69.4831 65.654C69.7812 65.5425 70.1451 65.5543 70.4701 65.5959C70.5774 65.6095 70.72 65.8757 70.729 66.033C70.7605 66.5907 70.7413 67.1512 70.7413 67.7106L70.7693 67.7108H70.7692ZM67.5908 67.7399C67.5891 68.2916 67.9971 68.7678 68.4649 68.7599C68.9291 68.7521 69.3427 68.2376 69.3446 67.6656C69.3467 67.0807 69.0022 66.6831 68.4986 66.689C67.9978 66.6948 67.5925 67.1639 67.5908 67.7399Z" fill="black"/>
<path d="M29.79 4.8298C29.79 5.31591 29.8159 5.80396 29.779 6.28727C29.7607 6.52757 29.6603 6.9382 29.5394 6.96044C29.2019 7.02261 28.7809 7.01758 28.4944 6.85788C28.2384 6.71511 28.0825 6.71762 27.8629 6.82698C26.9995 7.25696 25.9422 6.86635 25.5203 5.99968C25.0786 5.09235 25.0691 4.22346 25.6326 3.36713C26.1472 2.58525 27.1942 2.34467 28.0104 2.81104C28.1045 2.86483 28.2497 2.86372 28.3629 2.84296C28.6001 2.7995 28.8299 2.684 29.0661 2.67283C29.7004 2.64305 29.7565 2.70922 29.7611 3.32878C29.7647 3.82903 29.7618 4.32928 29.7618 4.82952C29.7712 4.82952 29.7806 4.82962 29.79 4.82971V4.8298ZM28.3648 4.75433C28.3684 4.19042 28.0337 3.76407 27.5848 3.761C27.083 3.75755 26.6174 4.2618 26.6142 4.81231C26.611 5.36188 26.9676 5.74468 27.497 5.76022C28.0088 5.7753 28.3607 5.36737 28.3648 4.75433Z" fill="black"/>
<path d="M60.3124 66.9629C60.3124 67.6973 60.3299 68.4322 60.3018 69.1654C60.2934 69.3852 60.186 69.7668 60.0749 69.7856C59.7504 69.8406 59.3591 69.8325 59.0751 69.6892C58.8584 69.58 58.7359 69.5201 58.5439 69.6604C57.4269 70.4758 55.9329 69.5681 55.799 68.2125C55.7088 67.2982 55.7858 66.4433 56.6006 65.8308C57.2265 65.3603 57.8987 65.4022 58.5641 65.6903C58.7859 65.7864 58.8965 65.7437 59.1055 65.6653C59.4147 65.5492 59.7857 65.5594 60.1251 65.5852C60.2164 65.5922 60.3416 65.8444 60.3584 65.9944C60.3944 66.3137 60.3695 66.6399 60.3695 66.9632C60.3505 66.9632 60.3315 66.9631 60.3125 66.963L60.3124 66.9629ZM57.179 67.711C57.1736 68.2436 57.6374 68.764 58.1159 68.7625C58.5545 68.7611 58.9625 68.244 58.9608 67.692C58.9592 67.1708 58.5637 66.6803 58.1287 66.6603C57.5921 66.6355 57.1855 67.0856 57.1791 67.7111L57.179 67.711Z" fill="black"/>
<path d="M5.44374 64.3201C6.20708 64.353 6.88438 64.6292 7.30571 65.3736C7.55477 65.8136 7.42786 66.0458 6.92927 66.0437C6.51932 66.042 6.1217 66.0685 5.81851 65.6575C5.72258 65.5274 5.36349 65.5546 5.13178 65.5781C5.04332 65.587 4.88393 65.829 4.91333 65.8915C4.99983 66.0754 5.13542 66.2727 5.30601 66.3726C5.56898 66.5267 5.87608 66.6072 6.16621 66.714C7.23936 67.1092 7.59555 67.573 7.49944 68.4551C7.41834 69.1995 6.72565 69.8077 5.79714 69.9497C4.86797 70.0919 3.83196 69.5793 3.49835 68.8124C3.33542 68.4378 3.43527 68.2385 3.83681 68.2111C4.30424 68.1793 4.77046 68.1298 5.09324 68.6336C5.17658 68.7638 5.53967 68.8186 5.7181 68.7538C5.87366 68.6974 6.06169 68.4025 6.03267 68.2517C5.9973 68.0677 5.77819 67.8654 5.58867 67.7757C5.21838 67.6005 4.80209 67.524 4.42537 67.3598C3.72726 67.0556 3.38021 66.4467 3.48183 65.7801C3.60025 65.0036 4.15811 64.4559 4.94897 64.3475C5.09464 64.3276 5.24339 64.3305 5.44365 64.3202L5.44374 64.3201Z" fill="black"/>
<path d="M15.4102 5.20503C15.584 4.76407 15.7548 4.37951 15.8877 3.98238C16.1158 3.30065 16.2997 2.60347 16.5497 1.93039C16.6097 1.7691 16.8527 1.67138 17.0202 1.55672C17.0611 1.52861 17.1355 1.54908 17.1946 1.54713C18.0776 1.51846 18.1368 1.64001 17.8245 2.47624C17.3433 3.7646 16.902 5.06794 16.4571 6.36951C16.3146 6.78647 16.1188 7.0384 15.6099 7.02193C14.5211 6.98666 14.4593 6.93147 14.158 5.86052C13.9565 5.14435 13.6579 4.45545 13.4039 3.75399C13.1797 3.1348 12.9535 2.51635 12.7355 1.89502C12.6602 1.68022 12.7372 1.54713 12.9809 1.55029C13.1875 1.5529 13.3941 1.56258 13.6006 1.57077C13.9546 1.58482 14.1392 1.7543 14.2503 2.10824C14.5624 3.1026 14.9206 4.08262 15.264 5.0671C15.2762 5.1021 15.3235 5.12499 15.4102 5.20512V5.20503Z" fill="black"/>
<path d="M22.5705 68.0961C22.2163 68.0961 21.8617 68.0878 21.508 68.1019C21.4177 68.1055 21.2839 68.16 21.2548 68.2275C21.2278 68.2905 21.2959 68.4149 21.3525 68.4894C21.6173 68.838 22.0031 68.8984 22.3529 68.6253C22.7921 68.2822 23.2916 68.4239 23.7549 68.4687C24.028 68.495 23.9422 68.7781 23.8227 68.967C23.3423 69.7265 22.2622 70.1119 21.36 69.8327C20.5193 69.5725 19.9432 69.0277 19.8175 68.1459C19.6547 67.004 20.0654 66.0886 20.9684 65.6889C22.5087 65.007 24.0358 65.7123 24.14 67.4599C24.1669 67.9104 23.9969 68.0762 23.5448 68.0891C23.3827 68.0938 23.2201 68.0828 23.0577 68.0812C22.8954 68.0796 22.733 68.0808 22.5706 68.0808C22.5706 68.0859 22.5706 68.0911 22.5706 68.0962L22.5705 68.0961ZM21.2212 67.2832C21.705 67.2832 22.1344 67.292 22.5619 67.2686C22.6013 67.2665 22.6914 67.0271 22.6526 66.9521C22.4079 66.4783 21.5433 66.3521 21.2212 67.2832Z" fill="black"/>
<path d="M12.5179 67.7707C12.6855 69.061 11.4693 69.9756 10.4024 69.9687C9.13276 69.9604 8.06147 69.1523 8.04355 67.7174C8.02769 66.445 8.87828 65.5603 10.1476 65.4804C11.4457 65.3987 12.6268 66.2251 12.5179 67.7706V67.7707ZM11.2099 67.6807C11.1449 67.1447 10.9296 66.7756 10.5664 66.6616C10.2096 66.5496 9.7466 66.7038 9.60644 67.0944C9.4896 67.42 9.43426 67.8332 9.52982 68.155C9.71963 68.7943 10.4159 68.9422 10.856 68.4596C11.039 68.259 11.0957 67.9438 11.2098 67.6808L11.2099 67.6807Z" fill="black"/>
<path d="M49.2819 4.83933C49.3724 6.19162 48.1168 7.11431 46.956 7.04963C45.7181 6.98066 44.7592 6.13885 44.7959 4.70512C44.8284 3.44115 45.8248 2.50654 47.1423 2.53251C48.4181 2.55764 49.3048 3.51365 49.2819 4.83933ZM46.201 4.80033C46.1804 5.39346 46.5048 5.79263 47.0134 5.80017C47.5232 5.80771 47.8984 5.39811 47.9234 4.80675C47.947 4.24768 47.569 3.76987 47.0821 3.74334C46.5816 3.71607 46.2239 4.14521 46.201 4.80033Z" fill="black"/>
<path d="M42.1291 4.87995C42.1522 6.27646 41.0722 7.08346 39.6971 6.9943C38.4079 6.91073 37.6518 6.10633 37.6381 4.75198C37.6249 3.45022 38.6754 2.49384 39.9843 2.53005C41.1362 2.56188 42.2303 3.45171 42.1291 4.87986V4.87995ZM39.0185 4.85939C39.0244 5.44125 39.3336 5.78077 39.8574 5.78049C40.4491 5.78021 40.755 5.41668 40.7502 4.71969C40.7463 4.14592 40.4104 3.74804 39.9358 3.75484C39.4313 3.7621 39.0125 4.26644 39.0185 4.85939Z" fill="black"/>
<path d="M55.8593 5.09918C55.5195 5.09918 55.1786 5.08373 54.8404 5.10718C54.7152 5.11593 54.4894 5.22715 54.494 5.27257C54.5101 5.42781 54.59 5.68971 54.6784 5.70376C54.9791 5.75132 55.354 5.81479 55.5902 5.67993C56.006 5.44242 56.4091 5.47444 56.8322 5.50748C57.1157 5.52963 57.2026 5.73224 57.0713 5.94295C56.9112 6.19991 56.715 6.46479 56.4702 6.63361C55.6666 7.18784 54.4768 7.13321 53.7704 6.55478C53.0206 5.94081 52.8302 4.89136 53.1835 3.90008C53.7093 2.42474 55.7786 2.15317 56.8014 3.1384C57.2367 3.55777 57.3651 4.13889 57.3031 4.73072C57.2908 4.84817 57.0646 5.01477 56.921 5.03301C56.572 5.07722 56.2137 5.04734 55.8592 5.04734C55.8592 5.06465 55.8592 5.08187 55.8592 5.09918H55.8593ZM55.2593 4.38767C55.4361 4.30139 55.8256 4.62937 55.8864 4.17128C55.9212 3.91022 55.4101 3.65549 55.0347 3.70463C54.962 3.71412 54.8618 3.71329 54.8247 3.75842C54.7029 3.9064 54.6043 4.07346 54.4968 4.23317C54.647 4.29032 54.7943 4.359 54.9488 4.39995C55.0302 4.42154 55.1245 4.39502 55.2593 4.38767H55.2593Z" fill="black"/>
<path d="M18.3112 84.2066C18.3112 84.3979 18.3076 84.5894 18.312 84.7806C18.3215 85.195 18.1199 85.3569 17.7092 85.3394C17.2325 85.319 17.1019 85.2281 17.0958 84.737C17.0827 83.6625 17.0892 82.5877 17.0907 81.513C17.0912 81.204 17.1036 80.8949 17.1072 80.5858C17.1146 79.9541 17.65 79.6372 18.1683 80.0026C18.4231 80.1821 18.5663 80.1642 18.8214 80.0267C19.6778 79.5652 20.7689 80.095 20.988 81.0919C21.1964 82.0394 21.0132 82.9932 19.9836 83.5368C19.6038 83.7373 19.2595 83.7156 18.8939 83.5229C18.7475 83.4457 18.5775 83.413 18.4183 83.36C18.3842 83.5244 18.3413 83.6877 18.3189 83.8536C18.3033 83.9693 18.3159 84.0888 18.3159 84.2066H18.3112ZM18.3191 81.7259C18.3209 82.2169 18.6179 82.5587 19.0448 82.5608C19.4733 82.5629 19.8317 82.1804 19.8324 81.7204C19.8331 81.2362 19.5415 80.9173 19.0871 80.9051C18.6073 80.8923 18.3173 81.2022 18.3191 81.7259Z" fill="black"/>
<path d="M61.2189 67.7611C61.2189 67.1732 61.2316 66.6273 61.2147 66.0825C61.2021 65.675 61.3956 65.5014 61.778 65.5448C62.0351 65.574 62.2843 65.6679 62.541 65.7078C62.69 65.7309 62.8668 65.7493 62.9969 65.6923C63.9092 65.2928 64.7019 65.4424 65.2823 66.2103C65.4467 66.4278 65.5314 66.7493 65.5444 67.0282C65.5816 67.8225 65.5766 68.6197 65.5608 69.4153C65.552 69.8551 65.3947 69.9255 64.7726 69.9226C64.3842 69.9208 64.1953 69.7677 64.2031 69.3715C64.216 68.7233 64.2241 68.0748 64.2209 67.4264C64.2187 66.9734 63.8879 66.6066 63.4884 66.5862C63.0389 66.5632 62.6655 66.874 62.6434 67.3694C62.6158 67.9866 62.6512 68.6063 62.6562 69.2251C62.6604 69.7453 62.5333 69.8848 62.0623 69.8886C61.3418 69.8944 61.2697 69.8329 61.2705 69.2207C61.2708 68.97 61.2719 68.7193 61.2627 68.469C61.2536 68.2188 61.232 67.969 61.2187 67.7613L61.2189 67.7611Z" fill="black"/>
<path d="M60.7171 4.13638C60.4817 4.00236 60.2361 3.85206 59.9806 3.72129C59.8426 3.65065 59.6864 3.5722 59.5403 3.57583C59.4414 3.57825 59.2899 3.70305 59.2652 3.79947C59.242 3.88966 59.3274 4.07393 59.4129 4.1133C59.7054 4.24779 60.0138 4.35575 60.3254 4.43923C61.2167 4.67786 61.5185 4.94748 61.5403 5.56314C61.5638 6.22821 61.1479 6.75591 60.3684 6.96941C59.4757 7.21391 58.7 6.94354 58.0731 6.2955C57.936 6.15375 57.8886 5.86682 57.9121 5.65928C57.9209 5.58045 58.2418 5.51427 58.4273 5.48226C58.7994 5.41804 59.1141 5.51632 59.3771 5.81805C59.4633 5.91698 59.6735 5.96482 59.8129 5.9437C59.9289 5.92611 60.0863 5.78613 60.1091 5.67621C60.1272 5.58994 59.9892 5.41013 59.8834 5.3703C59.4838 5.2199 59.0637 5.12459 58.6611 4.98089C58.1128 4.78517 57.9012 4.45301 57.8754 3.88175C57.8513 3.34743 58.1463 2.98111 58.5732 2.79926C59.3649 2.46207 60.1789 2.42968 60.9224 2.97469C61.0374 3.05892 61.1554 3.16818 61.2138 3.29308C61.3023 3.48229 61.4343 3.73581 61.3698 3.88565C61.3146 4.01372 61.0088 4.03447 60.717 4.13657L60.7171 4.13638Z" fill="black"/>
<path d="M16.3398 67.2C16.0704 67.0754 15.7855 66.9173 15.4822 66.8129C15.287 66.7458 15.0242 66.6742 14.8621 66.7515C14.4869 66.9303 14.3453 67.2993 14.3579 67.7101C14.3698 68.1005 14.405 68.5215 14.8222 68.6798C15.0113 68.7516 15.3266 68.6946 15.4968 68.5733C15.9172 68.2738 16.3707 68.3679 16.8153 68.3788C16.8816 68.3804 17.0292 68.666 16.9893 68.7408C16.842 69.0169 16.685 69.3448 16.4357 69.5C15.4516 70.113 14.5651 70.0511 13.771 69.5162C12.9955 68.9939 12.7835 67.7316 13.0666 66.7852C13.5267 65.247 15.893 65.0374 16.7156 66.1052C16.7691 66.1747 16.8406 66.2385 16.8687 66.3174C16.9446 66.5305 17.1077 66.8007 17.0351 66.9524C16.9688 67.0909 16.6391 67.1041 16.3398 67.2Z" fill="black"/>
<path d="M25.2677 81.7771C25.2677 82.1592 25.2674 82.5414 25.2677 82.9236C25.2684 83.602 24.7953 83.8956 24.2365 83.5112C23.973 83.33 23.7715 83.3352 23.5638 83.4852C22.8267 84.0178 21.6915 83.3127 21.4689 82.5329C21.2587 81.7962 21.275 81.117 21.7272 80.4798C22.1866 79.8324 22.9783 79.6263 23.6702 79.9926C23.887 80.1074 24.0371 80.1156 24.2704 79.9966C24.8853 79.683 25.2557 79.9468 25.2392 80.6312C25.2301 81.013 25.2376 81.3952 25.2376 81.7771C25.2476 81.7771 25.2576 81.7771 25.2677 81.7771V81.7771ZM24.0567 81.708C24.0591 81.1913 23.7992 80.8779 23.3583 80.8663C22.9416 80.8553 22.536 81.2797 22.537 81.7259C22.5379 82.1736 22.9099 82.6101 23.2891 82.6085C23.7258 82.6067 24.0543 82.2213 24.0566 81.7079L24.0567 81.708Z" fill="black"/>
<path d="M62.293 81.7564C62.293 82.1394 62.3166 82.5244 62.2837 82.9046C62.2653 83.1185 62.2001 83.4626 62.074 83.5048C61.8219 83.5892 61.5134 83.5086 61.2284 83.4918C61.0568 83.4817 60.8313 83.3861 60.7232 83.4615C59.9907 83.9727 59.0072 83.6173 58.6289 82.759C58.2943 81.9999 58.2528 81.18 58.8161 80.4532C59.2322 79.9164 59.9151 79.739 60.5651 79.9389C60.7936 80.0091 61.0777 80.0132 61.307 79.9467C62.0183 79.7404 62.318 79.929 62.326 80.6527C62.3301 81.0205 62.3268 81.3883 62.3268 81.7561C62.3155 81.7561 62.3043 81.7561 62.293 81.7562V81.7564ZM61.1208 81.6905C61.1151 81.1723 60.8278 80.8778 60.3392 80.8891C59.9103 80.8991 59.6263 81.2315 59.63 81.7193C59.6335 82.1915 59.9706 82.583 60.3762 82.5859C60.8307 82.589 61.1268 82.2329 61.1208 81.6905Z" fill="black"/>
<path d="M39.5293 83.6708C38.6124 83.5563 37.7771 83.1564 37.4151 82.1658C37.1162 81.3481 37.1043 80.4947 37.7421 79.7975C38.3933 79.0856 39.2029 78.8071 40.1807 79.033C40.7975 79.1756 41.2547 79.489 41.5619 80.031C41.718 80.3066 41.615 80.53 41.3067 80.4935C40.9692 80.4535 40.6124 80.3682 40.3201 80.2037C39.8381 79.9325 39.3982 79.8371 38.9221 80.1819C38.4765 80.5046 38.3444 80.9603 38.4238 81.4638C38.5044 81.9745 38.7941 82.3559 39.3202 82.5062C39.7176 82.6197 40.0639 82.4738 40.3369 82.213C40.6693 81.8955 41.0538 81.9747 41.4219 82.02C41.7339 82.0583 41.6667 82.3043 41.5582 82.4963C41.133 83.2479 40.4761 83.624 39.5294 83.6707L39.5293 83.6708Z" fill="black"/>
<path d="M11.4285 83.6246C11.0891 83.6246 10.7496 83.6282 10.4102 83.6235C10.107 83.6192 9.94202 83.461 9.94202 83.1568C9.94202 81.9214 9.94631 80.686 9.94911 79.4506C9.94976 79.166 10.0947 79.0001 10.3771 78.995C11.0409 78.9833 11.7051 78.9814 12.3689 78.9886C12.6744 78.992 12.8229 79.166 12.8087 79.4737C12.7942 79.7885 12.6263 79.9137 12.317 79.8967C12.0521 79.8822 11.7854 79.8999 11.5204 79.8867C11.2088 79.8711 11.0976 80.0196 11.1094 80.3138C11.1208 80.596 11.1846 80.8135 11.5325 80.7979C11.7388 80.7886 11.9456 80.7883 12.1521 80.7814C12.5164 80.7694 12.5866 80.9905 12.5939 81.2962C12.6015 81.6106 12.4535 81.7172 12.1621 81.702C11.9707 81.6919 11.7772 81.7115 11.5869 81.6935C11.1724 81.6543 11.0884 81.8864 11.0891 82.2339C11.0898 82.6111 11.3044 82.6678 11.6127 82.6423C11.8329 82.6241 12.0556 82.6363 12.2764 82.6228C12.6112 82.6023 12.863 82.6568 12.8571 83.0809C12.8509 83.5258 12.7656 83.6191 12.2695 83.6308C12.2106 83.6322 12.1515 83.6328 12.0924 83.6328C11.8711 83.633 11.6496 83.6328 11.4283 83.6328C11.4283 83.63 11.4283 83.6271 11.4283 83.6243L11.4285 83.6246Z" fill="black"/>
<path d="M55.0495 81.7747C55.0495 82.1429 55.045 82.5112 55.0504 82.8793C55.0612 83.6086 54.6788 83.8794 54.0149 83.538C53.7135 83.383 53.5134 83.4287 53.2425 83.552C52.5355 83.8736 51.656 83.4883 51.5383 82.7302C51.4128 81.922 51.4262 81.0906 51.4077 80.2686C51.4009 79.9641 51.6379 79.9038 51.9079 79.9116C52.2108 79.9203 52.4936 79.9506 52.5131 80.3312C52.5379 80.8164 52.5345 81.3029 52.547 81.7888C52.5596 82.2744 52.8064 82.5992 53.1674 82.6131C53.5575 82.628 53.8239 82.3181 53.8433 81.8003C53.861 81.3295 53.8694 80.8578 53.8636 80.3868C53.8586 79.9878 54.0778 79.8848 54.4285 79.8906C54.7615 79.8962 55.065 79.9058 55.058 80.3609C55.0508 80.8321 55.0565 81.3035 55.0565 81.7748C55.0541 81.7748 55.0519 81.7748 55.0495 81.7748L55.0495 81.7747Z" fill="black"/>
<path d="M35.5556 81.7807C35.579 82.8706 34.6202 83.683 33.5836 83.6672C32.5549 83.6515 31.6949 82.8569 31.7002 81.7393C31.7053 80.6789 32.5939 79.8684 33.6915 79.8546C34.7432 79.8415 35.5873 80.746 35.5556 81.7807ZM32.8983 81.6674C32.8987 82.2424 33.1871 82.5989 33.6454 82.5912C34.0583 82.5842 34.3815 82.1923 34.3737 81.7079C34.3666 81.2679 34.0192 80.8494 33.6544 80.8416C33.2153 80.8322 32.898 81.1788 32.8983 81.6674Z" fill="black"/>
<path d="M46.0478 81.769C46.0478 82.1665 46.0513 82.5642 46.0471 82.9617C46.0402 83.5966 45.5827 83.8697 45.0556 83.5159C44.8004 83.3445 44.6116 83.369 44.366 83.4787C43.423 83.9001 42.4488 83.3114 42.4068 82.2897C42.3802 81.6425 42.3873 80.994 42.3734 80.3462C42.3657 79.9871 42.5341 79.8497 42.8903 79.8594C43.2337 79.8687 43.5223 79.9065 43.5231 80.3415C43.524 80.8276 43.5154 81.3138 43.5247 81.7996C43.534 82.2894 43.783 82.5971 44.1579 82.6093C44.5872 82.6232 44.8325 82.3521 44.8546 81.8294C44.8746 81.3587 44.9027 80.8877 44.8994 80.4169C44.8965 79.9952 45.1171 79.9064 45.4897 79.9036C45.8563 79.9008 46.0512 80.0081 46.0422 80.3997C46.0318 80.8559 46.0398 81.3124 46.0398 81.7687L46.0478 81.7689V81.769Z" fill="black"/>
<path d="M15.1365 83.6624C14.4331 83.6163 13.9008 83.433 13.5328 82.9364C13.4486 82.8228 13.4002 82.6243 13.4404 82.4983C13.4665 82.4166 13.6814 82.3612 13.815 82.3539C14.1238 82.337 14.422 82.3461 14.6608 82.6263C14.7453 82.7254 14.974 82.7272 15.1356 82.7233C15.1956 82.7218 15.3172 82.53 15.2992 82.505C15.2107 82.3826 15.1017 82.2492 14.9684 82.1901C14.7274 82.0831 14.4646 82.0252 14.2102 81.9487C13.8002 81.8254 13.4912 81.5799 13.4004 81.1551C13.3093 80.7294 13.4725 80.3986 13.8389 80.1296C14.584 79.5825 15.8404 79.763 16.3201 80.5277C16.3916 80.6416 16.4556 80.8257 16.4101 80.927C16.3715 81.0129 16.1725 81.0543 16.04 81.0659C15.7037 81.0953 15.3677 81.1343 15.1122 80.8002C15.0601 80.7321 14.81 80.8146 14.6512 80.8276C14.7119 80.957 14.7394 81.1533 14.8397 81.2027C15.1012 81.3315 15.3924 81.403 15.6756 81.4846C16.2274 81.6438 16.4982 81.9212 16.5228 82.3696C16.552 82.9014 16.3445 83.2217 15.7948 83.4478C15.5533 83.5472 15.2971 83.6111 15.1366 83.6624L15.1365 83.6624Z" fill="black"/>
<path d="M28.671 81.2911C28.4323 81.2037 28.1748 81.1452 27.9558 81.0198C27.6784 80.8612 27.4637 80.8967 27.2356 81.0973C26.8289 81.455 26.9236 82.3094 27.4153 82.5229C27.5324 82.5737 27.7444 82.5834 27.8245 82.5127C28.1668 82.2106 28.5688 82.2647 28.9615 82.2714C29.2936 82.277 29.4111 82.4914 29.2344 82.7695C28.8888 83.3132 28.3863 83.6283 27.7374 83.6322C26.2838 83.6409 25.4816 82.4352 25.9474 81.0148C26.1664 80.3469 26.6441 79.9717 27.2762 79.8625C27.9492 79.7464 28.6136 79.8876 29.0642 80.4793C29.1945 80.6505 29.2319 80.8922 29.312 81.1016C29.113 81.1605 28.914 81.2193 28.6709 81.2912L28.671 81.2911Z" fill="black"/>
<path d="M22.3616 4.06915C22.3616 4.83539 22.3641 5.60163 22.3607 6.36787C22.3582 6.94257 22.2628 7.02606 21.6342 7.02848C21.0562 7.03071 20.9598 6.94462 20.9625 6.36759C20.9695 4.82003 20.9817 3.27248 20.9986 1.72492C21.0035 1.27465 21.1094 1.20904 21.664 1.19629C22.0449 1.18754 22.3378 1.22784 22.3252 1.72539C22.3054 2.50615 22.3199 3.28784 22.3199 4.06906C22.3338 4.06906 22.3477 4.06906 22.3616 4.06906V4.06915Z" fill="black"/>
<path d="M23.252 4.06902C23.252 3.27309 23.2592 2.47707 23.2488 1.68124C23.244 1.32227 23.3909 1.15949 23.7544 1.1943C23.8863 1.20695 24.0202 1.20295 24.1531 1.20249C24.4493 1.20146 24.5792 1.35168 24.5798 1.64187C24.583 3.26313 24.5909 4.88431 24.5947 6.50558C24.5954 6.80954 24.4447 6.95017 24.1308 6.96832C23.2261 7.02053 23.2266 7.02844 23.2266 6.10249C23.2266 5.42467 23.2266 4.74694 23.2266 4.06911C23.2351 4.06911 23.2435 4.06911 23.2519 4.06911L23.252 4.06902Z" fill="black"/>
<path d="M47.5211 67.7014C47.5211 67.1716 47.5211 66.6417 47.5211 66.1119C47.5211 65.5889 47.5955 65.5098 48.1011 65.5288C48.4003 65.5401 48.7312 65.4603 48.9228 65.8167C48.9457 65.8592 49.1359 65.8442 49.2308 65.8087C49.366 65.7579 49.4773 65.6457 49.6117 65.5912C50.0358 65.4191 50.2194 65.5428 50.2298 65.9948C50.2332 66.1418 50.224 66.2893 50.2275 66.4363C50.2349 66.7388 50.1017 66.8876 49.7882 66.9221C49.0714 67.0011 48.8495 67.2788 48.8787 67.9952C48.8967 68.4363 48.9014 68.8779 48.9228 69.3188C48.942 69.7168 48.797 69.9212 48.3626 69.9132C47.681 69.9006 47.5598 69.834 47.5542 69.3342C47.5481 68.79 47.5528 68.2458 47.5528 67.7015C47.5423 67.7015 47.5318 67.7015 47.5212 67.7015L47.5211 67.7014Z" fill="black"/>
<path d="M44.2017 4.15122C44.2017 4.90229 44.1904 5.65364 44.2063 6.40443C44.2145 6.78509 44.101 6.97327 43.6802 6.97188C42.8669 6.96908 42.8304 6.96034 42.8306 6.13881C42.8309 4.69521 42.8517 3.25152 42.8477 1.80793C42.8466 1.39591 42.9933 1.22364 43.4241 1.2429C44.119 1.27399 44.1702 1.28879 44.1733 1.80867C44.1778 2.58943 44.1745 3.37028 44.1745 4.15113C44.1836 4.15113 44.1926 4.15113 44.2018 4.15113L44.2017 4.15122Z" fill="black"/>
<path d="M49.9944 4.7763C49.9944 4.26144 50.0132 3.74556 49.9886 3.23191C49.9687 2.81915 50.1039 2.62035 50.5421 2.66205C50.828 2.68922 51.1375 2.59932 51.3284 2.93037C51.3578 2.98127 51.5427 2.98221 51.6345 2.9487C51.7695 2.89928 51.8789 2.78406 52.0109 2.72152C52.4774 2.50039 52.7077 2.6466 52.7125 3.15652C52.7194 3.88935 52.7213 3.90154 52.0069 4.01025C51.5496 4.07986 51.3855 4.37015 51.3691 4.77519C51.3476 5.30419 51.3537 5.83422 51.3443 6.36379C51.3351 6.87706 51.2182 6.9423 50.552 6.96715C50.0909 6.98437 50.004 6.74369 50.0112 6.36546C50.0214 5.83599 50.0139 5.30615 50.0139 4.7764C50.0074 4.7764 50.001 4.7764 49.9946 4.7764L49.9944 4.7763Z" fill="black"/>
<path d="M48.964 81.8249C48.9461 81.4906 49.0735 81.0357 48.5582 80.7555C48.3453 80.6397 48.4379 80.1111 48.6132 79.9161C48.7391 79.7759 48.8667 79.6026 48.9043 79.4252C48.9905 79.0185 49.2579 78.9853 49.5962 78.9787C49.9528 78.9717 50.0675 79.1534 50.0747 79.4635C50.0802 79.7025 50.1751 79.8485 50.438 79.868C50.7318 79.8897 50.7735 80.1067 50.7731 80.3458C50.7727 80.5921 50.7488 80.792 50.448 80.8936C50.3016 80.943 50.1505 81.147 50.1118 81.3074C50.0513 81.5591 50.0846 81.8331 50.0772 82.0976C50.0698 82.362 50.1557 82.558 50.4435 82.6168C50.8114 82.6921 50.778 82.9753 50.7562 83.2423C50.7294 83.5694 50.49 83.5796 50.239 83.5754C49.3453 83.5604 48.9644 83.1715 48.964 82.2678C48.964 82.1501 48.964 82.0325 48.964 81.8249Z" fill="black"/>
<path d="M17.8658 67.6883C17.8658 67.1592 17.8583 66.6299 17.8679 66.1009C17.8773 65.5802 17.9348 65.5341 18.4715 65.542C18.5746 65.5436 18.6777 65.5499 18.7808 65.5504C19.0906 65.5518 19.2273 65.6973 19.2275 66.0142C19.2285 67.1311 19.2384 68.2482 19.2576 69.365C19.2642 69.7489 19.1181 69.9513 18.7164 69.9336C18.5841 69.9278 18.451 69.9292 18.3186 69.9342C17.981 69.9473 17.8357 69.7784 17.8377 69.4518C17.8412 68.8639 17.8387 68.276 17.8387 67.6882C17.8477 67.6882 17.8568 67.6882 17.8658 67.6882L17.8658 67.6883Z" fill="black"/>
<path d="M20.097 4.78782C20.097 5.33162 20.0915 5.87561 20.099 6.41932C20.1039 6.78118 19.9539 6.97578 19.5755 6.96424C19.4282 6.95978 19.2805 6.95698 19.1334 6.96313C18.8538 6.97467 18.7191 6.82929 18.7165 6.56675C18.7048 5.391 18.6989 4.21507 18.6936 3.03923C18.6925 2.78608 18.8271 2.66249 19.0806 2.66742C19.0953 2.6677 19.1101 2.66696 19.1248 2.66612C20.0395 2.61391 20.0793 2.65206 20.0731 3.55419C20.0703 3.96537 20.0727 4.37655 20.0727 4.78773H20.0971L20.097 4.78782Z" fill="black"/>
<path d="M46.8514 81.1363C46.8514 80.4891 46.87 79.8412 46.8446 79.1949C46.8287 78.7913 47.0368 78.7299 47.3634 78.7394C47.6771 78.7485 47.994 78.6874 47.9889 79.1793C47.9757 80.4883 47.9817 81.7976 47.9951 83.1066C47.9995 83.5356 47.8035 83.6575 47.3973 83.656C46.9737 83.6543 46.8141 83.4889 46.8243 83.0774C46.8404 82.4307 46.8286 81.7834 46.8286 81.1364C46.8362 81.1364 46.8438 81.1364 46.8514 81.1364V81.1363Z" fill="black"/>
<path d="M63.0485 81.1366C63.0485 80.488 63.0635 79.839 63.043 79.191C63.0302 78.7896 63.2563 78.7166 63.5747 78.727C63.8747 78.7369 64.2329 78.6516 64.2274 79.1493C64.2127 80.4755 64.2047 81.8018 64.1977 83.1281C64.1957 83.4997 63.9924 83.5973 63.6538 83.5917C63.3198 83.5862 63.058 83.5373 63.0587 83.1262C63.0596 82.463 63.059 81.7998 63.059 81.1366C63.0555 81.1366 63.052 81.1366 63.0485 81.1366Z" fill="black"/>
<path d="M55.859 81.8652C55.8327 81.3386 55.7848 80.9405 55.8042 80.5458C55.8146 80.3345 55.8978 79.9893 56.0244 79.9502C56.2767 79.8723 56.6383 79.875 56.85 80.009C57.0971 80.1655 57.2274 80.1782 57.4639 80.0299C57.6155 79.9349 57.8389 79.9542 58.0302 79.9222C58.0658 80.176 58.1422 80.4333 58.1204 80.6822C58.1091 80.8112 57.9457 80.9942 57.8145 81.0345C57.0346 81.2741 56.9922 81.3098 56.9751 82.1285C56.968 82.4667 56.9663 82.8052 56.9693 83.1434C56.9731 83.5715 56.6858 83.5848 56.3676 83.592C56.0479 83.5991 55.8519 83.4986 55.8571 83.1475C55.8607 82.9121 55.8587 82.6768 55.8589 82.4414C55.8591 82.206 55.8589 81.9706 55.8589 81.8652H55.859Z" fill="black"/>
<path d="M29.969 81.7576C29.969 81.3017 29.9738 80.8459 29.9675 80.3901C29.9624 80.0191 30.1594 79.9042 30.5012 79.9213C30.8219 79.9373 31.1395 79.916 31.1368 80.3835C31.1315 81.2959 31.143 82.2084 31.1455 83.1208C31.1463 83.4453 31.0352 83.6606 30.6557 83.6475C30.2998 83.6352 29.9988 83.583 30.0037 83.1266C30.0087 82.6704 30.0048 82.214 30.0048 81.7577C29.9929 81.7577 29.9809 81.7577 29.9691 81.7577L29.969 81.7576Z" fill="black"/>
<path d="M18.5496 65.1221C18.1704 65.1297 17.7103 64.7645 17.6935 64.4425C17.6761 64.108 18.1053 63.7422 18.5163 63.7415C18.9766 63.7406 19.3356 64.0455 19.3288 64.4314C19.3226 64.7793 18.9448 65.1142 18.5496 65.1221Z" fill="black"/>
<path d="M19.3584 2.25856C18.9325 2.23799 18.6027 1.92137 18.6109 1.54109C18.6197 1.12907 19.015 0.796534 19.4596 0.827153C19.8898 0.856843 20.1527 1.15383 20.1353 1.59079C20.1191 1.99908 19.7928 2.27959 19.3585 2.25856H19.3584Z" fill="black"/>
<path d="M31.2159 78.9182C31.2234 79.2573 30.9311 79.5452 30.5663 79.5582C30.2559 79.5691 29.8695 79.2392 29.8652 78.9595C29.8604 78.6495 30.198 78.3283 30.5328 78.3245C30.9161 78.3201 31.2084 78.5741 31.216 78.9183L31.2159 78.9182Z" fill="black"/>
</svg>
