<svg width="138" height="85" viewBox="0 0 138 85" fill="none" xmlns="http://www.w3.org/2000/svg">
<path d="M77.9325 20.4583L62.7481 73.9803H48.3623L40.816 39.471C40.5865 38.507 40.4029 37.5523 40.2651 36.6158C40.1183 35.6794 40.0173 34.6512 39.953 33.5129H39.8061C39.6776 34.6145 39.5307 35.6335 39.3746 36.5608C39.2094 37.4972 38.9891 38.4152 38.6953 39.3149L30.2309 73.9803H16.3317L0.385254 20.4583H14.0549L22.8131 57.9237H24.6584L32.9575 20.4583H46.6364L55.8719 57.9237H57.1388L66.1173 20.4583H77.9325Z" fill="black"/>
<path d="M100.058 66.5346H99.1303L98.2582 73.98H86.5531V0.371094H100.002V27.0128H100.434C101.912 24.2678 104.767 22.4409 107.09 21.2107C110.101 19.6133 113.443 19.1176 117.298 19.1176C124.101 19.1176 128.242 22.1104 132.024 26.82C135.806 31.5204 137.615 37.8824 137.615 45.9061C137.615 54.7836 136.678 61.8985 132.354 67.2415C128.03 72.5845 123.697 75.2652 116.371 75.2652C112.974 75.2652 109.982 74.6042 107.411 73.2822C104.841 71.9603 101.738 69.1694 100.058 66.5346ZM100.076 45.2635V51.497C100.076 54.8938 101.095 57.0879 102.885 59.5024C104.675 61.9168 108.155 63.6428 111.854 63.6428C116.215 63.6428 119.603 61.9536 122.026 58.566C124.45 55.1876 124.129 52.0387 124.129 45.9979C124.129 40.9854 123.22 36.8358 120.741 34.1368C118.106 31.2725 115.774 30.4095 111.781 30.4095C107.787 30.4095 105.401 31.9335 102.876 34.8345C100.351 37.7355 100.085 40.7559 100.085 45.2451L100.076 45.2635Z" fill="black"/>
<path d="M61.5455 78.2582C61.1232 77.8543 60.3704 77.7166 59.5349 77.7166H56.891L55.4772 84.7947H56.4962L57.0929 81.7743V81.7376H59.3238C59.4707 81.7376 59.6084 81.7376 59.7461 81.7192L59.8746 82.5271L60.2418 84.7947H61.3159L60.8936 82.1323L60.7927 81.4989C60.8661 81.4622 60.9304 81.4255 61.0038 81.3887C61.3618 81.1776 61.7291 80.8563 61.8943 80.4982C62.0963 80.0392 62.234 78.91 61.5455 78.2582ZM60.7651 80.5166C60.6641 80.5992 60.4346 80.7002 60.3153 80.7645L60.251 80.7828C59.9848 80.8563 59.691 80.8838 59.3605 80.8838H57.2765L57.7356 78.6071H59.4431C59.994 78.6071 60.7192 78.6346 60.9487 78.9192C61.3068 79.3507 61.1691 80.2045 60.7651 80.5258V80.5166Z" fill="black"/>
<path d="M54.3479 78.2582C53.9256 77.8543 53.1728 77.7166 52.3374 77.7166H49.6935L48.2797 84.7947H49.2987L49.8954 81.7743V81.7376H52.1263C53.0351 81.7192 53.4574 81.5723 53.7971 81.3887C54.1643 81.1959 54.5224 80.8563 54.6876 80.4982C54.8896 80.0392 55.0273 78.91 54.3388 78.2582H54.3479ZM53.5676 80.5166C53.4666 80.5992 53.2371 80.7002 53.1178 80.7645L53.0535 80.7828C52.7873 80.8563 52.4935 80.8838 52.163 80.8838H50.079L50.5381 78.6071H52.2456C52.7964 78.6071 53.5217 78.6346 53.7512 78.9192C54.1092 79.3507 53.9715 80.2045 53.5676 80.5258V80.5166Z" fill="black"/>
<path d="M66.2459 84.8864C65.5482 84.8864 64.9423 84.7579 64.4466 84.51C63.9508 84.2622 63.5652 83.9133 63.3082 83.4635C63.0511 83.0136 62.9226 82.4903 62.9226 81.9028C62.9226 81.3152 63.0236 80.7644 63.2256 80.2503C63.4275 79.7362 63.7213 79.2772 64.0977 78.8916C64.4741 78.4968 64.9239 78.1939 65.4564 77.9736C65.9889 77.7532 66.5764 77.6431 67.2282 77.6431C67.9351 77.6431 68.541 77.7716 69.0368 78.0195C69.5325 78.2673 69.9181 78.6162 70.1752 79.066C70.4322 79.5159 70.5607 80.0392 70.5607 80.6267C70.5607 81.2143 70.4598 81.7651 70.2578 82.2792C70.0558 82.7933 69.762 83.2523 69.3856 83.6379C69.0092 84.0327 68.5502 84.3356 68.0269 84.5559C67.4945 84.7763 66.9069 84.8864 66.2551 84.8864H66.2459ZM66.3377 83.9868C66.8243 83.9868 67.265 83.9041 67.6597 83.7297C68.0545 83.5553 68.3942 83.3166 68.6696 83.0136C68.945 82.7107 69.1561 82.3526 69.303 81.9579C69.4499 81.5631 69.5234 81.1408 69.5234 80.691C69.5234 80.2411 69.4315 79.8923 69.2479 79.571C69.0643 79.2496 68.7981 79.0018 68.4401 78.8182C68.082 78.6346 67.6414 78.5428 67.1273 78.5428C66.6315 78.5428 66.1909 78.6254 65.7961 78.7998C65.4013 78.9742 65.0617 79.2129 64.7862 79.5159C64.5108 79.8188 64.2905 80.1769 64.1436 80.5716C63.9967 80.9664 63.9233 81.3887 63.9233 81.8385C63.9233 82.2884 64.0151 82.6372 64.1987 82.9585C64.3823 83.2799 64.6577 83.5277 65.0066 83.7113C65.3554 83.895 65.8053 83.9868 66.3286 83.9868H66.3377Z" fill="black"/>
<path d="M91.8869 82.9587C91.639 83.2708 91.336 83.5095 90.978 83.6748C90.62 83.8492 90.2252 83.9318 89.7845 83.9318C89.3071 83.9318 88.9124 83.84 88.6003 83.6564C88.2789 83.4728 88.0402 83.2249 87.875 82.9036C87.7097 82.5823 87.6271 82.2151 87.6271 81.7836C87.6271 81.3521 87.6914 80.9206 87.8291 80.5167C87.9576 80.1219 88.1596 79.7639 88.4075 79.4609C88.6553 79.158 88.9583 78.9193 89.3163 78.7449C89.6744 78.5704 90.0691 78.4878 90.5098 78.4878C90.978 78.4878 91.3727 78.5796 91.6941 78.7632C92.0154 78.9468 92.2541 79.1947 92.4193 79.516C92.5111 79.6996 92.5754 79.8924 92.6213 80.1036H93.5577C93.5118 79.6996 93.4016 79.3324 93.2364 79.0111C92.9977 78.5613 92.658 78.2124 92.2082 77.9645C91.7583 77.7167 91.2167 77.5881 90.5832 77.5881C89.9957 77.5881 89.4632 77.6983 88.995 77.9186C88.5268 78.139 88.1137 78.4419 87.774 78.8367C87.4343 79.2314 87.1681 79.6813 86.9937 80.1954C86.8101 80.7095 86.7183 81.2603 86.7183 81.8479C86.7183 82.4354 86.8376 82.9587 87.0671 83.4085C87.2966 83.8584 87.6455 84.2072 88.0861 84.4551C88.536 84.703 89.0776 84.8315 89.7019 84.8315C90.2895 84.8315 90.8219 84.7213 91.2993 84.501C91.7767 84.2807 92.1806 83.9777 92.5203 83.583C92.8324 83.2249 93.0711 82.821 93.2547 82.362H92.2632C92.1623 82.5731 92.0337 82.7751 91.8869 82.9495V82.9587Z" fill="black"/>
<path d="M99.9014 82.9587C99.6535 83.2708 99.3506 83.5095 98.9925 83.6748C98.6345 83.8492 98.2397 83.9318 97.7991 83.9318C97.3217 83.9318 96.9269 83.84 96.6148 83.6564C96.2935 83.4728 96.0548 83.2249 95.8895 82.9036C95.7243 82.5823 95.6417 82.2151 95.6417 81.7836C95.6417 81.3521 95.7059 80.9206 95.8436 80.5167C95.9721 80.1219 96.1741 79.7639 96.422 79.4609C96.6699 79.158 96.9728 78.9193 97.3309 78.7449C97.6889 78.5704 98.0837 78.4878 98.5243 78.4878C98.9925 78.4878 99.3873 78.5796 99.7086 78.7632C100.03 78.9468 100.269 79.1947 100.434 79.516C100.526 79.6996 100.59 79.8924 100.636 80.1036H101.572C101.526 79.6996 101.416 79.3324 101.251 79.0111C101.012 78.5613 100.673 78.2124 100.223 77.9645C99.7729 77.7167 99.2312 77.5881 98.5978 77.5881C98.0102 77.5881 97.4777 77.6983 97.0095 77.9186C96.5413 78.139 96.1282 78.4419 95.7885 78.8367C95.4489 79.2314 95.1826 79.6813 95.0082 80.1954C94.8246 80.7095 94.7328 81.2603 94.7328 81.8479C94.7328 82.4354 94.8521 82.9587 95.0816 83.4085C95.3112 83.8584 95.66 84.2072 96.1007 84.4551C96.5505 84.703 97.0922 84.8315 97.7164 84.8315C98.304 84.8315 98.8364 84.7213 99.3138 84.501C99.7912 84.2807 100.195 83.9777 100.535 83.583C100.847 83.2249 101.086 82.821 101.269 82.362H100.278C100.177 82.5731 100.048 82.7751 99.9014 82.9495V82.9587Z" fill="black"/>
<path d="M71.3317 84.8037L72.7455 77.7256H75.518C76.2341 77.7256 76.84 77.8449 77.3449 78.0836C77.8498 78.3223 78.2354 78.662 78.5016 79.0935C78.7679 79.525 78.9056 80.0391 78.9056 80.6358C78.9056 81.2325 78.8046 81.8201 78.5934 82.3434C78.3823 82.8575 78.0885 83.2981 77.6937 83.6653C77.3082 84.0326 76.84 84.3171 76.2983 84.5191C75.7567 84.7211 75.1508 84.8221 74.4898 84.8221H71.3225L71.3317 84.8037ZM72.516 83.9224H74.5265C75.2242 83.9224 75.8301 83.7847 76.3259 83.5001C76.8216 83.2247 77.2072 82.8391 77.4826 82.3434C77.7488 81.8568 77.8865 81.2968 77.8865 80.6817C77.8865 80.2594 77.7947 79.883 77.6111 79.5709C77.4275 79.2587 77.1521 79.02 76.7849 78.8456C76.4177 78.6803 75.9586 78.5885 75.417 78.5885H73.5717L72.5068 83.9132L72.516 83.9224Z" fill="black"/>
<path d="M82.2381 84.8863C81.5862 84.8863 81.0538 84.7578 80.6223 84.5008C80.1908 84.2437 79.897 83.8857 79.7226 83.4175C79.5574 82.9493 79.5298 82.3984 79.6584 81.7558L80.4571 77.7256H81.4577L80.659 81.7374C80.5121 82.4811 80.5856 83.0411 80.8794 83.4175C81.1731 83.7939 81.6597 83.9867 82.3299 83.9867C82.9541 83.9867 83.4591 83.803 83.8446 83.445C84.2302 83.087 84.4965 82.5086 84.6433 81.7283L85.4512 77.7256H86.4335L85.6256 81.8017C85.4145 82.8299 85.0289 83.6103 84.4597 84.1152C83.8905 84.6293 83.1469 84.8863 82.2197 84.8863H82.2381Z" fill="black"/>
<path d="M101.958 84.8037L103.372 77.7256H104.382L102.968 84.8037H101.958Z" fill="black"/>
<path d="M108.274 84.8864C107.576 84.8864 106.97 84.7579 106.475 84.51C105.979 84.2622 105.593 83.9133 105.336 83.4635C105.079 83.0136 104.951 82.4903 104.951 81.9028C104.951 81.3152 105.052 80.7644 105.254 80.2503C105.456 79.7362 105.749 79.2772 106.126 78.8916C106.502 78.4968 106.952 78.1939 107.484 77.9736C108.017 77.7532 108.604 77.6431 109.256 77.6431C109.963 77.6431 110.569 77.7716 111.065 78.0195C111.561 78.2673 111.946 78.6162 112.203 79.066C112.46 79.5159 112.589 80.0392 112.589 80.6267C112.589 81.2143 112.488 81.7651 112.286 82.2792C112.084 82.7933 111.79 83.2523 111.414 83.6379C111.037 84.0327 110.578 84.3356 110.055 84.5559C109.523 84.7763 108.935 84.8864 108.283 84.8864H108.274ZM108.366 83.9868C108.852 83.9868 109.293 83.9041 109.688 83.7297C110.083 83.5553 110.422 83.3166 110.698 83.0136C110.973 82.7107 111.184 82.3526 111.331 81.9579C111.478 81.5631 111.551 81.1408 111.551 80.691C111.551 80.2411 111.46 79.8923 111.276 79.571C111.092 79.2496 110.826 79.0018 110.468 78.8182C110.11 78.6346 109.669 78.5428 109.155 78.5428C108.66 78.5428 108.219 78.6254 107.824 78.7998C107.429 78.9742 107.09 79.2129 106.814 79.5159C106.539 79.8188 106.319 80.1769 106.172 80.5716C106.025 80.9664 105.951 81.3887 105.951 81.8385C105.951 82.2884 106.043 82.6372 106.227 82.9585C106.41 83.2799 106.686 83.5277 107.035 83.7113C107.384 83.895 107.833 83.9868 108.357 83.9868H108.366Z" fill="black"/>
<path d="M113.36 84.8037L114.774 77.7256H115.6L118.997 83.5735L118.694 83.5368L119.851 77.7348H120.86L119.447 84.8129H118.62L115.224 78.9649L115.527 79.0017L114.37 84.8037H113.36Z" fill="black"/>
<path d="M122.302 83.9224H126.442L126.268 84.8037H121.117L122.531 77.7256H127.525L127.351 78.6069H123.357L122.292 83.9316L122.302 83.9224ZM122.852 80.7827H126.497L126.323 81.6456H122.678L122.852 80.7827Z" fill="black"/>
<path d="M130.537 84.8864C130.179 84.8864 129.83 84.8497 129.49 84.7671C129.15 84.6937 128.838 84.5835 128.563 84.455C128.287 84.3264 128.058 84.1795 127.893 84.0235L128.333 83.2156C128.517 83.3808 128.728 83.5186 128.976 83.6379C129.224 83.7572 129.481 83.8582 129.765 83.9225C130.041 83.9868 130.335 84.0235 130.628 84.0235C131.005 84.0235 131.335 83.9776 131.629 83.8858C131.923 83.794 132.143 83.6563 132.299 83.4727C132.455 83.2982 132.538 83.0779 132.538 82.8208C132.538 82.6097 132.474 82.4353 132.336 82.3067C132.198 82.169 132.024 82.0589 131.813 81.9762C131.601 81.8936 131.363 81.811 131.106 81.7467C130.849 81.6733 130.582 81.5907 130.325 81.508C130.068 81.4162 129.83 81.3061 129.619 81.1684C129.407 81.0307 129.233 80.8562 129.104 80.6451C128.976 80.4339 128.912 80.1677 128.912 79.8372C128.912 79.3874 129.04 78.9926 129.288 78.6713C129.536 78.3408 129.885 78.0929 130.325 77.9093C130.766 77.7349 131.28 77.6431 131.859 77.6431C132.299 77.6431 132.712 77.6981 133.116 77.7991C133.511 77.9001 133.851 78.047 134.135 78.2398L133.731 79.066C133.465 78.8732 133.171 78.7355 132.841 78.6437C132.51 78.5519 132.171 78.506 131.813 78.506C131.427 78.506 131.097 78.5611 130.812 78.6621C130.527 78.7631 130.307 78.91 130.151 79.0936C129.995 79.2772 129.912 79.4975 129.912 79.7454C129.912 79.9657 129.977 80.1402 130.105 80.2687C130.234 80.4064 130.408 80.5165 130.619 80.5992C130.84 80.691 131.069 80.7736 131.335 80.847C131.592 80.9205 131.849 81.0031 132.106 81.0857C132.363 81.1684 132.602 81.2785 132.822 81.4071C133.043 81.5356 133.217 81.71 133.346 81.912C133.474 82.1139 133.539 82.371 133.539 82.6831C133.539 83.133 133.41 83.5277 133.162 83.8582C132.914 84.1887 132.556 84.4458 132.106 84.6202C131.657 84.7946 131.133 84.8864 130.546 84.8864H130.537Z" fill="black"/>
</svg>
