<svg width="118" height="85" viewBox="0 0 118 85" fill="none" xmlns="http://www.w3.org/2000/svg">
<path d="M95.1575 0.356445C99.6349 0.356445 103.017 1.85429 106.005 3.86752C118.769 12.4519 118.761 35.886 104.587 42.7551L116.393 64.1356H100.48L82.5386 32.7775H92.7738C94.8837 32.7775 97.3237 32.246 99.3933 30.2409C101.761 27.9538 103.13 22.2201 100.956 17.9521C98.8941 13.9095 94.932 13.1928 92.1699 13.1928L74.5662 13.1445V0.356445H95.1494H95.1575Z" fill="black"/>
<path d="M0.704834 64.1356L47.8869 0.340332L63.7029 0.36449C63.7029 0.36449 17.3422 64.1356 17.2375 64.1356H0.704834Z" fill="black"/>
<path d="M63.6787 48.7222V64.1355H45.3422L63.6787 48.7222Z" fill="black"/>
<path d="M0.704834 15.7536V0.340332H19.0413L0.704834 15.7536Z" fill="black"/>
<path d="M7.24385 73.5574V75.1196L3.90993 83.1243H7.24385V84.7187H2.10608V83.1565L5.43999 75.1518H2.26714V73.5574H7.24385Z" fill="black"/>
<path d="M13.6701 84.7187C13.5734 84.4288 13.509 84.2597 13.509 83.3497V81.5942C13.509 80.5554 13.1547 80.1769 12.3574 80.1769H11.7535V84.7187H9.99792V73.5574H12.6473C14.4673 73.5574 15.2484 74.4029 15.2484 76.1263V77.004C15.2484 78.1556 14.878 78.9045 14.0969 79.2669C14.9746 79.6373 15.2645 80.4829 15.2645 81.6425V83.3658C15.2645 83.9054 15.2806 84.308 15.4578 84.7187H13.6701ZM11.7535 75.1518V78.5824H12.438C13.0902 78.5824 13.4929 78.2925 13.4929 77.3986V76.2954C13.4929 75.4981 13.2191 75.1438 12.599 75.1438H11.7535V75.1518Z" fill="black"/>
<path d="M28.7371 76.3198V77.7693C28.7371 79.5571 27.8754 80.5315 26.1199 80.5315H25.2905V84.727H23.5349V73.5657H26.1199C27.8754 73.5657 28.7371 74.5401 28.7371 76.3278V76.3198ZM25.2905 75.1521V78.9289H26.1199C26.6756 78.9289 26.9816 78.6712 26.9816 77.874V76.199C26.9816 75.4017 26.6756 75.1441 26.1199 75.1441H25.2905V75.1521Z" fill="black"/>
<path d="M35.3646 84.7187C35.268 84.4288 35.2036 84.2597 35.2036 83.3497V81.5942C35.2036 80.5554 34.8493 80.1769 34.052 80.1769H33.448V84.7187H31.6925V73.5574H34.3419C36.1619 73.5574 36.943 74.4029 36.943 76.1263V77.004C36.943 78.1556 36.5726 78.9045 35.7914 79.2669C36.6692 79.6373 36.9591 80.4829 36.9591 81.6425V83.3658C36.9591 83.9054 36.9752 84.308 37.1524 84.7187H35.3646ZM33.4561 75.1518V78.5824H34.1406C34.7929 78.5824 35.1955 78.2925 35.1955 77.3986V76.2954C35.1955 75.4981 34.9217 75.1438 34.3017 75.1438H33.4561V75.1518Z" fill="black"/>
<path d="M40.0353 76.2389C40.0353 74.4512 40.9775 73.4365 42.7008 73.4365C44.4241 73.4365 45.3663 74.4592 45.3663 76.2389V82.0451C45.3663 83.8328 44.4241 84.8556 42.7008 84.8556C40.9775 84.8556 40.0353 83.8328 40.0353 82.0451V76.2389ZM41.7908 82.1498C41.7908 82.947 42.1451 83.253 42.7008 83.253C43.2564 83.253 43.6108 82.947 43.6108 82.1498V76.1262C43.6108 75.329 43.2564 75.023 42.7008 75.023C42.1451 75.023 41.7908 75.329 41.7908 76.1262V82.1498Z" fill="black"/>
<path d="M48.5714 73.5574H51.3497C53.1052 73.5574 53.9669 74.5318 53.9669 76.3195V81.9646C53.9669 83.7524 53.1052 84.7268 51.3497 84.7268H48.5714V73.5654V73.5574ZM50.3189 75.1518V83.1243H51.3094C51.8651 83.1243 52.2033 82.8343 52.2033 82.0371V76.2309C52.2033 75.4337 51.8651 75.1438 51.3094 75.1438H50.3189V75.1518Z" fill="black"/>
<path d="M58.8228 73.5574V82.166C58.8228 82.9632 59.1771 83.2531 59.7328 83.2531C60.2884 83.2531 60.6428 82.9632 60.6428 82.166V73.5574H62.3017V82.0532C62.3017 83.841 61.4078 84.8556 59.6845 84.8556C57.9611 84.8556 57.0673 83.8329 57.0673 82.0532V73.5574H58.8228Z" fill="black"/>
<path d="M70.6526 80.5555V82.0373C70.6526 83.825 69.7587 84.8478 68.0354 84.8478C66.3121 84.8478 65.4182 83.825 65.4182 82.0373V76.2311C65.4182 74.4434 66.3121 73.4287 68.0354 73.4287C69.7587 73.4287 70.6526 74.4514 70.6526 76.2311V77.3183H68.9937V76.1184C68.9937 75.3212 68.6394 75.0151 68.0837 75.0151C67.5281 75.0151 67.1738 75.3212 67.1738 76.1184V82.142C67.1738 82.9392 67.5281 83.2291 68.0837 83.2291C68.6394 83.2291 68.9937 82.9392 68.9937 82.142V80.5475H70.6526V80.5555Z" fill="black"/>
<path d="M78.8826 80.5555V82.0373C78.8826 83.825 77.9887 84.8478 76.2654 84.8478C74.5421 84.8478 73.6482 83.825 73.6482 82.0373V76.2311C73.6482 74.4434 74.5421 73.4287 76.2654 73.4287C77.9887 73.4287 78.8826 74.4514 78.8826 76.2311V77.3183H77.2237V76.1184C77.2237 75.3212 76.8694 75.0151 76.3137 75.0151C75.7581 75.0151 75.4037 75.3212 75.4037 76.1184V82.142C75.4037 82.9392 75.7581 83.2291 76.3137 83.2291C76.8694 83.2291 77.2237 82.9392 77.2237 82.142V80.5475H78.8826V80.5555Z" fill="black"/>
<path d="M82.0232 73.5574H83.7787V84.7187H82.0232V73.5574Z" fill="black"/>
<path d="M86.9839 76.2389C86.9839 74.4512 87.9261 73.4365 89.6494 73.4365C91.3727 73.4365 92.3149 74.4592 92.3149 76.2389V82.0451C92.3149 83.8328 91.3727 84.8556 89.6494 84.8556C87.9261 84.8556 86.9839 83.8328 86.9839 82.0451V76.2389ZM88.7314 82.1498C88.7314 82.947 89.0857 83.253 89.6414 83.253C90.197 83.253 90.5513 82.947 90.5513 82.1498V76.1262C90.5513 75.329 90.197 75.023 89.6414 75.023C89.0857 75.023 88.7314 75.329 88.7314 76.1262V82.1498Z" fill="black"/>
<path d="M97.0742 76.6336V84.7187H95.4958V73.5574H97.6943L99.4981 80.2413V73.5574H101.06V84.7187H99.2566L97.0742 76.6336Z" fill="black"/>
<path d="M106.15 78.2603H108.558V79.8548H106.15V83.1243H109.178V84.7187H104.394V73.5574H109.178V75.1518H106.15V78.2603Z" fill="black"/>
<path d="M114.694 73.4287C116.401 73.4287 117.279 74.4514 117.279 76.2311V76.5855H115.62V76.1264C115.62 75.3292 115.298 75.0232 114.742 75.0232C114.187 75.0232 113.865 75.3292 113.865 76.1264C113.865 78.4215 117.295 78.8564 117.295 82.0453C117.295 83.8331 116.401 84.8558 114.678 84.8558C112.955 84.8558 112.061 83.8331 112.061 82.0453V81.3608H113.72V82.1581C113.72 82.9553 114.074 83.2452 114.63 83.2452C115.185 83.2452 115.54 82.9553 115.54 82.1581C115.54 79.863 112.109 79.4281 112.109 76.2392C112.109 74.4514 112.987 73.4368 114.694 73.4368V73.4287Z" fill="black"/>
</svg>
