<svg width="110" height="137" viewBox="0 0 110 137" fill="none" xmlns="http://www.w3.org/2000/svg">
<g clip-path="url(#clip0_2036_2462)">
<path d="M56.691 0.842632L69.6497 43.2559C69.8243 43.8265 70.3923 44.1799 70.9817 44.0839L108.666 37.9399C109.774 37.7599 110.494 39.0705 109.747 39.9092L81.743 71.3358C81.415 71.7051 81.3483 72.2385 81.5763 72.6771L101.451 110.977C101.975 111.989 100.916 113.089 99.8856 112.604L59.8804 93.7637C59.435 93.5531 58.9057 93.6397 58.5497 93.9797L13.7298 136.788C12.8325 137.645 11.3858 136.729 11.7778 135.55L30.7124 78.6398C30.8738 78.1571 30.7084 77.6251 30.3031 77.3158L0.471169 54.6198C-0.380829 53.9718 -0.0114946 52.6158 1.05117 52.4892L41.7084 47.6278C42.1977 47.5692 42.5991 47.2158 42.7217 46.7385L54.3977 0.897299C54.695 -0.270698 56.339 -0.309365 56.691 0.842632Z" fill="white"/>
</g>
<defs>
<clipPath id="clip0_2036_2462">
<rect width="110" height="137" fill="white"/>
</clipPath>
</defs>
</svg>
