<svg width="218" height="50" viewBox="0 0 218 50" fill="none" xmlns="http://www.w3.org/2000/svg">
<g clip-path="url(#clip0_2036_2460)">
<path d="M60.3037 26.5608L59.9517 30.5888C59.9473 30.6386 59.9326 30.6848 59.9077 30.7275C58.977 32.3088 57.5659 33.0995 55.6744 33.0995C54.2291 33.0995 53.178 32.5172 52.5211 31.3528C51.8642 30.1884 51.6317 28.5137 51.8237 26.3288C52.2495 21.4542 53.958 19.0173 56.9491 19.0182C58.8237 19.0182 60.081 19.8057 60.721 21.3808C60.7397 21.4288 60.7473 21.479 60.7437 21.5315L60.3037 26.5608ZM94.737 26.6488C94.6543 26.4875 94.6783 26.2915 94.7983 26.1568L105.066 14.6328C105.341 14.3262 105.077 13.8448 104.67 13.9115L90.853 16.1648C90.637 16.1995 90.4276 16.0702 90.365 15.8608L85.613 0.30888C85.4837 -0.113786 84.881 -0.0991197 84.7717 0.328879L80.4903 17.1382C80.445 17.3128 80.2983 17.4422 80.1183 17.4635L67.1704 19.0115L68.2917 6.41686H62.3584C62.193 6.41686 62.0557 6.54353 62.041 6.70753L61.2104 16.1955C61.197 16.3235 61.0384 16.3728 60.9544 16.2755C59.653 14.7697 57.9344 14.0168 55.7984 14.0168C52.9788 14.0168 50.6633 15.0902 48.8517 17.2368C47.0393 19.3835 45.9749 22.267 45.6584 25.8875C45.3224 29.7221 45.8869 32.7164 47.3517 34.8701C48.8157 37.0248 50.9148 38.1021 53.6491 38.1021C55.9717 38.1021 57.9673 37.2208 59.6357 35.4581C59.7237 35.3661 59.877 35.4221 59.881 35.5488L59.9437 37.3648C59.949 37.5368 60.0904 37.6728 60.2624 37.6728H65.265C65.4304 37.6728 65.5677 37.5461 65.5824 37.3821L66.4384 27.3875L66.4504 27.2475L66.9517 21.5142L75.937 28.3501C76.085 28.4635 76.1463 28.6581 76.0863 28.8355L69.1437 49.7034C68.9997 50.1354 69.5304 50.4714 69.8597 50.1568L86.2943 34.4595C86.425 34.3355 86.6183 34.3035 86.7823 34.3808L101.452 41.2888C101.829 41.4661 102.217 41.0634 102.025 40.6928L94.737 26.6488ZM143.028 16.3675C141.419 14.7142 139.162 13.8875 136.257 13.8875C132.937 13.8875 130.232 14.9537 128.142 17.0862C126.052 19.2186 124.85 22.0737 124.537 25.6515L124.501 26.0581C124.176 29.7799 124.88 32.6959 126.613 34.8061C128.346 36.9172 130.873 37.9728 134.193 37.9728C135.968 37.9728 137.62 37.6115 139.149 36.8888C140.68 36.1661 141.924 35.1501 142.884 33.8408C143.769 32.6301 144.31 31.307 144.508 29.8715C144.534 29.6821 144.382 29.5155 144.192 29.5155H138.989C138.841 29.5155 138.721 29.6235 138.696 29.7701C138.536 30.6964 138.102 31.4488 137.396 32.0275C136.625 32.6568 135.668 32.9715 134.524 32.9715C133.035 32.9715 131.971 32.4484 131.333 31.4021C130.695 30.355 130.48 28.635 130.689 26.2421L130.746 25.5968C130.952 23.2315 131.47 21.5222 132.3 20.4688C133.129 19.4164 134.266 18.8897 135.712 18.8888C136.885 18.8888 137.796 19.2666 138.446 20.0222C139.04 20.7128 139.33 21.5924 139.317 22.6608C139.314 22.8315 139.457 22.9675 139.626 22.9675H144.822C144.992 22.9675 145.133 22.8355 145.142 22.6662C145.282 20.0591 144.577 17.9595 143.028 16.3675ZM158.831 24.2048C158.759 24.0822 158.778 23.9275 158.877 23.8248L167.437 14.8555C167.63 14.6528 167.486 14.3168 167.206 14.3168H160.639C160.551 14.3168 160.467 14.3528 160.407 14.4168L153.945 21.2928L153.251 22.0955C153.05 22.3288 152.667 22.1662 152.694 21.8582L154.026 6.6342C154.042 6.44886 153.895 6.28886 153.709 6.28886H148.143C147.979 6.28886 147.841 6.4142 147.826 6.57953L145.148 37.1968C145.132 37.3835 145.278 37.5435 145.465 37.5435H151.03C151.195 37.5435 151.333 37.4168 151.347 37.2528L151.93 30.5821C151.938 30.5035 151.974 30.4301 152.033 30.3755L154.071 28.5008C154.222 28.3608 154.465 28.4008 154.565 28.5808L159.431 37.3795C159.487 37.4808 159.594 37.5435 159.71 37.5435H166.093C166.339 37.5435 166.491 37.2768 166.367 37.0635L158.831 24.2048ZM197.643 32.7661C197.186 32.831 196.679 32.8635 196.125 32.8635C195.195 32.8635 194.582 32.6777 194.285 32.3061C193.989 31.9337 193.878 31.3181 193.953 30.4595L194.95 19.0595C194.959 18.9502 195.05 18.8675 195.159 18.8675H198.646C198.811 18.8675 198.949 18.7408 198.963 18.5768L199.306 14.6635C199.322 14.4768 199.175 14.3168 198.989 14.3168H195.586C195.467 14.3168 195.374 14.2155 195.385 14.0968L195.834 8.95286C195.85 8.76619 195.703 8.60619 195.517 8.60619H189.953C189.787 8.60619 189.65 8.73286 189.635 8.89686L189.181 14.0955C189.17 14.2208 189.065 14.3168 188.939 14.3168H186.061C185.895 14.3168 185.758 14.4435 185.743 14.6075L185.402 18.5208C185.385 18.7075 185.531 18.8675 185.719 18.8675H188.535C188.658 18.8675 188.754 18.9728 188.743 19.0942L187.667 31.3835C187.37 35.7763 189.396 37.9728 193.746 37.9728C194.961 37.9728 196.159 37.8075 197.339 37.4768C197.467 37.4408 197.559 37.3275 197.57 37.1955L197.934 33.0448C197.949 32.8795 197.807 32.7421 197.643 32.7661ZM179.743 23.4822C179.731 23.6155 179.619 23.7195 179.485 23.7195H171.423C171.255 23.7195 171.129 23.5595 171.17 23.3968C171.528 22.0013 172.097 20.9155 172.877 20.1395C173.716 19.3057 174.751 18.8888 175.981 18.8888C177.298 18.8888 178.281 19.2662 178.93 20.0208C179.579 20.7764 179.858 21.8439 179.766 23.2235L179.743 23.4822ZM176.439 13.8875C174.322 13.8875 172.393 14.3848 170.653 15.3795C168.912 16.3751 167.511 17.7919 166.45 19.6302C165.388 21.4684 164.755 23.5542 164.55 25.8875L164.497 26.4888C164.193 29.9661 165.019 32.7497 166.975 34.8395C168.933 36.9283 171.614 37.9728 175.019 37.9728C176.952 37.9728 178.744 37.6043 180.397 36.8675C181.946 36.1768 183.228 35.2319 184.243 34.0328C184.362 33.8915 184.362 33.6835 184.245 33.5381L181.915 30.6475C181.799 30.5035 181.586 30.5008 181.461 30.6341C179.997 32.1924 178.131 32.9715 175.865 32.9715C174.319 32.9715 173.082 32.5132 172.154 31.5968C171.298 30.7541 170.808 29.6559 170.683 28.3021C170.666 28.1128 170.81 27.9475 170.999 27.9475H185.158C185.323 27.9475 185.461 27.8221 185.475 27.6568L185.671 25.4141C185.992 21.7368 185.328 18.8964 183.679 16.8928C182.031 14.8893 179.617 13.8875 176.439 13.8875ZM216.271 15.9702C214.626 14.5817 212.329 13.8875 209.381 13.8875C206.618 13.8875 204.322 14.5777 202.491 15.9582C200.66 17.3395 199.654 19.0608 199.474 21.1222C199.165 24.6564 201.722 27.003 207.145 28.1621C208.774 28.5061 209.946 28.8964 210.659 29.3328C211.372 29.7692 211.695 30.3666 211.629 31.1248C211.565 31.8555 211.209 32.4457 210.562 32.8955C209.914 33.347 208.996 33.5728 207.809 33.5728C206.535 33.5728 205.545 33.279 204.838 32.6915C204.196 32.1599 203.862 31.4168 203.834 30.4621C203.83 30.2928 203.686 30.1595 203.517 30.1595H198.253C198.085 30.1595 197.941 30.2901 197.934 30.4581C197.878 31.747 198.2 32.9532 198.899 34.0768C199.651 35.2857 200.752 36.2372 202.202 36.9315C203.651 37.6257 205.349 37.9728 207.295 37.9728C210.171 37.9728 212.575 37.3181 214.507 36.0088C216.439 34.6995 217.498 32.9857 217.683 30.8675C217.943 27.9048 216.486 25.8226 213.314 24.6208C212.289 24.2342 211.017 23.887 209.498 23.5795C207.979 23.2719 206.913 22.907 206.299 22.4848C205.685 22.0626 205.408 21.5079 205.467 20.8208C205.531 20.0919 205.87 19.4911 206.485 19.0182C207.098 18.5453 207.927 18.3088 208.973 18.3088C210.189 18.3088 211.058 18.5991 211.579 19.1795C212.039 19.6897 212.266 20.3191 212.261 21.0675C212.259 21.2395 212.402 21.3795 212.574 21.3795H218.151C218.319 21.3795 218.462 21.2488 218.47 21.0808C218.576 18.9982 217.843 17.2946 216.271 15.9702ZM18.5572 16.2502C18.4309 17.6955 17.8878 18.8293 16.9278 19.6515C15.9687 20.4755 14.6807 20.887 13.0638 20.8862H8.11984C7.98518 20.8862 7.87851 20.7702 7.89051 20.6368L8.66384 11.7969C8.67851 11.6315 8.81584 11.5062 8.98117 11.5062H13.8625C15.5949 11.5062 16.8425 11.928 17.6052 12.7715C18.3696 13.616 18.6869 14.7755 18.5572 16.2502ZM18.8238 24.7608C18.7531 24.6008 18.8265 24.4155 18.9851 24.3422C20.794 23.5119 22.1958 22.4208 23.1905 21.0688C24.2385 19.6457 24.8558 17.8675 25.0425 15.7342C25.3047 12.7288 24.506 10.4035 22.6465 8.75819C20.7878 7.11197 18.0123 6.28886 14.3198 6.28886H2.99719C2.83319 6.28886 2.69453 6.41553 2.67986 6.57953L0.00119531 37.1981C-0.0148046 37.3848 0.131865 37.5448 0.318532 37.5448H6.11985C6.28518 37.5448 6.42251 37.4181 6.43718 37.2541L7.39318 26.3275C7.40385 26.2008 7.51051 26.1021 7.63851 26.1021H12.3318C12.4598 26.1021 12.5758 26.1795 12.6252 26.2968L17.3198 37.3501C17.3692 37.4675 17.4852 37.5448 17.6132 37.5448H24.3145C24.3838 37.5448 24.4145 37.4715 24.4025 37.4208C24.3891 37.3688 24.3291 37.2181 24.3078 37.1688L18.8238 24.7608ZM124.397 11.2142L124.797 6.6342C124.813 6.44886 124.666 6.28886 124.48 6.28886H98.5689C98.377 6.28886 98.217 6.4342 98.201 6.62486L97.8103 11.0982C97.7903 11.3169 97.9636 11.5049 98.1836 11.5049H106.88C107.066 11.5049 107.213 11.6649 107.197 11.8515L104.978 37.1968C104.962 37.3835 105.109 37.5435 105.296 37.5435H111.097C111.262 37.5435 111.4 37.4168 111.414 37.2528L113.641 11.7955C113.656 11.6315 113.793 11.5049 113.958 11.5049H124.08C124.245 11.5049 124.382 11.3782 124.397 11.2142ZM123.825 14.3168H118.138C118 14.3168 117.884 14.4235 117.87 14.5622L115.89 37.1968C115.874 37.3835 116.021 37.5435 116.208 37.5435H121.794C121.96 37.5435 122.097 37.4168 122.112 37.2528L124.092 14.6088C124.106 14.4515 123.982 14.3168 123.825 14.3168ZM38.7238 23.5568C38.7091 23.7222 38.5718 23.8475 38.4064 23.8475H30.4745C30.2638 23.8475 30.1145 23.6462 30.1678 23.4422C30.526 22.0866 31.0878 21.0288 31.8531 20.2688C32.6905 19.4342 33.7251 19.0173 34.9571 19.0182C36.2727 19.0182 37.2558 19.3955 37.9064 20.1502C38.5553 20.9048 38.834 21.9719 38.7424 23.3515L38.7238 23.5568ZM35.4158 14.0168C33.2976 14.0168 31.3687 14.5137 29.6291 15.5075C27.8887 16.5031 26.4874 17.9199 25.4251 19.7582C24.3629 21.5982 23.7296 23.6839 23.5251 26.0155L23.4731 26.6168C23.1691 30.0941 23.9954 32.8777 25.9518 34.9675C27.9074 37.0563 30.5887 38.1012 33.9958 38.1021C35.9273 38.1021 37.7198 37.7337 39.3731 36.9968C40.9304 36.3017 42.218 35.3497 43.2358 34.1408C43.3451 34.0115 43.3438 33.8208 43.2384 33.6888L40.8851 30.7688C40.7731 30.6288 40.5651 30.6261 40.4424 30.7568C38.9775 32.3186 37.1104 33.0995 34.8411 33.0995C33.2953 33.0995 32.058 32.6417 31.1291 31.7261C30.274 30.8817 29.7838 29.783 29.6585 28.4301C29.6411 28.2421 29.7865 28.0768 29.9758 28.0768H44.1331C44.2984 28.0768 44.4358 27.9501 44.4504 27.7861L44.6464 25.5435C44.9691 21.8662 44.3055 19.0257 42.6558 17.0222C41.006 15.0186 38.5927 14.0168 35.4158 14.0168Z" fill="white"/>
</g>
<defs>
<clipPath id="clip0_2036_2460">
<rect width="218" height="50" fill="white"/>
</clipPath>
</defs>
</svg>
