<svg width="96" height="58" viewBox="0 0 96 58" fill="none" xmlns="http://www.w3.org/2000/svg">
<g clip-path="url(#clip0_2036_2461)">
<path d="M21.1239 32.1544H0.601268C0.449268 32.1544 0.323936 32.2704 0.310602 32.4211L0.00126936 35.9637C-0.0147306 36.1371 0.122602 36.2864 0.295935 36.2864H7.18392C7.33192 36.2864 7.44792 36.4131 7.43458 36.5597L5.67859 56.6357C5.66526 56.7824 5.78259 56.909 5.93059 56.909H10.5239C10.6546 56.909 10.7639 56.809 10.7759 56.6797L12.5399 36.5157C12.5506 36.3864 12.6599 36.2864 12.7906 36.2864H20.8066C20.9372 36.2864 21.0466 36.1864 21.0572 36.0557L21.3746 32.4291C21.3879 32.2811 21.2719 32.1544 21.1239 32.1544ZM35.8118 40.1371C34.5381 38.8277 32.751 38.1731 30.4505 38.1731C27.8194 38.1731 25.6768 39.0175 24.0225 40.7064C22.3674 42.3953 21.4159 44.6566 21.1679 47.4904L21.1399 47.813C20.8812 50.7615 21.4385 53.0708 22.8119 54.741C24.1843 56.413 26.1852 57.249 28.8145 57.249C30.2208 57.249 31.5296 56.9628 32.7412 56.3904C33.9527 55.8188 34.9385 55.0144 35.6985 53.977C36.4007 53.0188 36.8296 51.9708 36.9852 50.833C37.0052 50.6824 36.8852 50.5504 36.7345 50.5504H32.6145C32.4972 50.5504 32.4012 50.637 32.3812 50.7517C32.255 51.4859 31.9123 52.0819 31.3532 52.5397C30.7425 53.0384 29.9839 53.2877 29.0772 53.2877C27.8985 53.2877 27.0563 52.8735 26.5505 52.045C26.0448 51.2157 25.875 49.8535 26.0412 47.9584L26.0852 47.4477C26.2496 45.5748 26.6599 44.2211 27.3159 43.3864C27.9728 42.5517 28.8736 42.1344 30.0185 42.1344C30.9474 42.1344 31.6692 42.4335 32.1839 43.0317C32.655 43.5784 32.8847 44.2753 32.8732 45.1224C32.8719 45.2571 32.9839 45.3651 33.1185 45.3651H37.2345C37.3678 45.3651 37.4798 45.2597 37.4878 45.1264C37.5981 43.0615 37.0394 41.3984 35.8118 40.1371ZM48.3305 46.3451C48.2731 46.2477 48.2878 46.1251 48.3652 46.0437L55.1451 38.9397C55.2985 38.7797 55.1851 38.5131 54.9638 38.5131H49.7625C49.6918 38.5131 49.6251 38.5424 49.5785 38.5931L44.4598 44.0384L43.9105 44.6731C43.7505 44.8584 43.4478 44.7304 43.4692 44.4864L44.5238 32.4291C44.5372 32.2811 44.4198 32.1544 44.2718 32.1544H39.8652C39.7345 32.1544 39.6252 32.2544 39.6145 32.3851L37.4918 56.6357C37.4798 56.7824 37.5958 56.909 37.7438 56.909H42.1505C42.2812 56.909 42.3905 56.809 42.4025 56.6797L42.8638 51.3957C42.8692 51.333 42.8985 51.2744 42.9452 51.233L44.5598 49.7477C44.6798 49.637 44.8718 49.6677 44.9505 49.8117L48.8051 56.7797C48.8491 56.8597 48.9331 56.909 49.0251 56.909H54.0811C54.2758 56.909 54.3971 56.6984 54.2985 56.529L48.3305 46.3451ZM79.0691 53.125C78.7073 53.1766 78.3069 53.2024 77.8677 53.2024C77.13 53.2024 76.6442 53.0553 76.4104 52.761C76.1749 52.4659 76.0869 51.9784 76.1464 51.2984L76.9371 42.2691C76.9437 42.1837 77.0157 42.1171 77.1024 42.1171H79.8637C79.9944 42.1171 80.1037 42.0171 80.1157 41.8877L80.3864 38.7877C80.3997 38.6397 80.2837 38.5131 80.1357 38.5131H77.4397C77.3464 38.5131 77.2717 38.4331 77.2811 38.3397L77.6371 34.2651C77.6504 34.1171 77.5331 33.9904 77.3851 33.9904H72.9784C72.8478 33.9904 72.7384 34.0904 72.7278 34.2211L72.3664 38.3384C72.3584 38.4371 72.2758 38.5131 72.1758 38.5131H69.8971C69.7651 38.5131 69.6571 38.6131 69.6451 38.7437L69.3744 41.8437C69.3611 41.9904 69.4771 42.1171 69.6251 42.1171H71.8558C71.9531 42.1171 72.0291 42.2011 72.0211 42.2971L71.1691 52.0304C70.9327 55.5095 72.5375 57.249 75.9837 57.249C76.9455 57.249 77.894 57.1179 78.8291 56.8557C78.9304 56.8277 79.0037 56.7384 79.0117 56.633L79.2997 53.3464C79.3117 53.2157 79.1997 53.1064 79.0691 53.125ZM64.8931 45.7717C64.8838 45.8784 64.7944 45.9597 64.6878 45.9597H58.3038C58.1705 45.9597 58.0705 45.8344 58.1025 45.7051C58.3869 44.5993 58.8376 43.7393 59.4545 43.1251C60.1176 42.4646 60.9371 42.1344 61.9131 42.1344C62.9558 42.1344 63.7344 42.4335 64.2491 43.0317C64.7629 43.6291 64.9833 44.4744 64.9104 45.5677L64.8931 45.7717ZM55.8158 21.1531L55.5358 24.3438C55.5331 24.3838 55.5216 24.4207 55.5011 24.4544C54.7651 25.7069 53.6478 26.3331 52.1491 26.3331C51.0043 26.3331 50.1718 25.8718 49.6518 24.9491C49.1318 24.0264 48.9474 22.6998 49.0985 20.9691C49.4363 17.1096 50.7896 15.1798 53.1585 15.1798C54.6429 15.1798 55.6389 15.8034 56.1465 17.0505C56.1607 17.0887 56.1665 17.1287 56.1638 17.1705L55.8158 21.1531ZM64.8718 38.5144L76.8971 27.0291C76.9997 26.9318 77.1517 26.9064 77.2797 26.9678L88.785 32.3864C89.0824 32.5251 89.3864 32.2091 89.2357 31.9184L83.5197 20.9025C83.4531 20.7771 83.4731 20.6238 83.5677 20.5171L91.621 11.4785C91.8357 11.2371 91.629 10.8598 91.3104 10.9118L80.4717 12.6785C80.3024 12.7065 80.1397 12.6051 80.0891 12.4411L76.3624 0.242507C76.2611 -0.0881593 75.7877 -0.0774963 75.7024 0.258503L72.3438 13.4425C72.3091 13.5798 72.1931 13.6811 72.0531 13.6985L61.2851 14.9865L62.1411 5.19983H57.4425C57.3118 5.19983 57.2025 5.29983 57.1918 5.42916L56.5331 12.9438V12.9451C56.5238 13.0465 56.3971 13.0851 56.3305 13.0078C55.2994 11.8149 53.9385 11.2185 52.2478 11.2185C50.014 11.2185 48.1798 12.0683 46.7452 13.7678C45.3105 15.4682 44.4674 17.7522 44.2158 20.6198C43.9501 23.6571 44.3972 26.0291 45.5572 27.7358C46.7172 29.4415 48.3798 30.2944 50.5451 30.2944C52.3851 30.2944 53.9656 29.5967 55.2865 28.2011C55.3558 28.1278 55.4771 28.1718 55.4811 28.2718L55.5305 29.7104C55.5345 29.8464 55.6465 29.9544 55.7825 29.9544H59.7451C59.8758 29.9544 59.9851 29.8544 59.9971 29.7238L60.7331 21.3078L60.7425 21.1958L61.1584 16.4438L68.7731 22.2371C68.8891 22.3251 68.9371 22.4784 68.8904 22.6184L63.6811 38.2744C63.2344 38.2131 62.7704 38.1731 62.2758 38.1731C60.5985 38.1731 59.0709 38.5668 57.6931 39.3544C56.3154 40.1428 55.2056 41.2651 54.3638 42.7211C53.5229 44.1788 53.0211 45.8308 52.8585 47.677L52.8171 48.153C52.5763 50.9086 53.2305 53.1135 54.7798 54.7677C56.33 56.4219 58.454 57.249 61.1518 57.249C62.6807 57.249 64.1002 56.9575 65.4104 56.3744C66.6371 55.8277 67.6522 55.0793 68.4558 54.129C68.5504 54.017 68.5504 53.8517 68.4584 53.737L66.6131 51.4477C66.5211 51.333 66.3518 51.3317 66.2518 51.437C65.0927 52.6708 63.6158 53.2877 61.8211 53.2877C60.5971 53.2877 59.6171 52.925 58.8811 52.1997C58.2038 51.5313 57.8158 50.661 57.7171 49.589C57.7025 49.4397 57.8171 49.309 57.9678 49.309H69.1811C69.3118 49.309 69.4211 49.209 69.4318 49.0797L69.5878 47.3037C69.8429 44.3908 69.3171 42.1406 68.0104 40.5531C67.198 39.5673 66.1518 38.8877 64.8718 38.5144ZM93.8237 39.8224C92.5197 38.7237 90.7006 38.174 88.3664 38.1731C86.1788 38.1731 84.3597 38.7202 82.9091 39.8144C81.4593 40.9077 80.6628 42.2704 80.5197 43.9024C80.2744 46.7024 82.2993 48.5615 86.5944 49.4797C87.8851 49.7517 88.813 50.0606 89.3784 50.4064C89.9437 50.7522 90.1997 51.2255 90.1464 51.8264C90.0957 52.4041 89.8139 52.8717 89.301 53.229C88.7882 53.5846 88.0615 53.7628 87.1211 53.7637C86.1122 53.7637 85.3277 53.5313 84.7677 53.0664C84.2593 52.645 83.9944 52.0566 83.9731 51.301C83.9691 51.1664 83.8557 51.061 83.7224 51.061H79.5531C79.4197 51.061 79.3051 51.165 79.2997 51.297C79.2553 52.3193 79.51 53.2748 80.0637 54.1637C80.6593 55.1219 81.5313 55.8757 82.6797 56.425C83.8273 56.9744 85.1722 57.249 86.7144 57.249C88.9926 57.249 90.8966 56.7308 92.4264 55.6944C93.957 54.657 94.7957 53.2997 94.9424 51.6224C95.1468 49.2757 93.9935 47.6264 91.4824 46.6744C90.6699 46.3677 89.6624 46.0926 88.4597 45.8491C87.257 45.6064 86.4122 45.3175 85.9251 44.9824C85.4388 44.6482 85.2197 44.2091 85.2677 43.6651C85.3175 43.0864 85.5855 42.6104 86.0717 42.2371C86.5579 41.8628 87.2148 41.6757 88.0424 41.6757C89.0059 41.6757 89.6944 41.9051 90.1077 42.3637C90.4713 42.7682 90.6508 43.2668 90.6464 43.8597C90.6464 43.9971 90.7584 44.1064 90.8957 44.1064H95.3117C95.445 44.1064 95.5584 44.0037 95.565 43.8704C95.6486 42.2206 95.0681 40.8713 93.8237 39.8224ZM14.9159 9.45981C14.9279 9.32915 15.0359 9.22915 15.1666 9.22915H19.0332C20.4048 9.22915 21.3928 9.56381 21.9972 10.2331C22.6017 10.9016 22.8528 11.8194 22.7505 12.9865C22.651 14.1322 22.2212 15.0305 21.4612 15.6811C20.7012 16.3327 19.6808 16.6585 18.3999 16.6585H14.4839C14.3772 16.6585 14.2946 16.5678 14.3039 16.4611L14.9159 9.45981ZM8.30658 29.8531H12.8999C13.0319 29.8531 13.1399 29.7531 13.1519 29.6224L13.9092 20.9691C13.9172 20.8678 14.0026 20.7905 14.1026 20.7905H17.8212C17.9226 20.7905 18.0132 20.8518 18.0532 20.9438L21.7719 29.6998C21.8105 29.7918 21.9025 29.8531 22.0039 29.8531H27.3119C27.3665 29.8531 27.3905 29.7944 27.3812 29.7544C27.3705 29.7131 27.3225 29.5944 27.3052 29.5558L22.9625 19.7278C22.9065 19.6011 22.9652 19.4545 23.0905 19.3971C24.5225 18.7393 25.6328 17.8749 26.4212 16.8038C27.2505 15.6758 27.7394 14.2674 27.8879 12.5785C28.0959 10.1989 27.4634 8.35715 25.9905 7.05315C24.5177 5.75005 22.319 5.09805 19.3946 5.09716H10.4279C10.2972 5.09716 10.1879 5.19715 10.1772 5.32782L8.05458 29.5784C8.04258 29.7264 8.15858 29.8531 8.30658 29.8531ZM20.6039 38.5131H16.0999C15.9892 38.5131 15.8972 38.5971 15.8879 38.7077L14.3199 56.6357C14.3066 56.7824 14.4226 56.909 14.5706 56.909H18.9959C19.1266 56.909 19.2346 56.809 19.2466 56.6797L20.8159 38.7437C20.8266 38.6197 20.7279 38.5131 20.6039 38.5131ZM33.2812 16.1705C33.9452 15.5091 34.7647 15.1789 35.7398 15.1798C36.7825 15.1798 37.5612 15.4785 38.0758 16.0758C38.5905 16.6731 38.8114 17.5185 38.7385 18.6118L38.7238 18.7745C38.7118 18.9051 38.6038 19.0051 38.4732 19.0051H32.1905C32.0239 19.0051 31.9052 18.8451 31.9479 18.6838C32.2323 17.6091 32.6767 16.7714 33.2812 16.1705ZM26.6452 21.1985C26.4034 23.9522 27.0576 26.1567 28.6079 27.8118C30.1572 29.4669 32.2807 30.2944 34.9785 30.2944C36.5092 30.2944 37.9287 30.0024 39.2372 29.4184C40.4709 28.8691 41.4909 28.1153 42.2972 27.1571C42.3838 27.0544 42.3825 26.9038 42.2985 26.7984L40.4358 24.4864C40.3465 24.3758 40.1812 24.3731 40.0852 24.4771C38.9252 25.7144 37.4465 26.3331 35.6492 26.3331C34.4234 26.3331 33.4434 25.9704 32.7092 25.2451C32.0319 24.5767 31.6434 23.7064 31.5439 22.6344C31.5305 22.4851 31.6452 22.3544 31.7945 22.3544H43.0078C43.1385 22.3544 43.2478 22.2544 43.2598 22.1238L43.4145 20.3478C43.6696 17.4349 43.1438 15.1851 41.8372 13.5985C40.5314 12.0118 38.6203 11.2185 36.1038 11.2185C34.4265 11.2185 32.8985 11.6123 31.5199 12.3998C30.1421 13.1874 29.0323 14.3096 28.1905 15.7665C27.3488 17.2225 26.8474 18.8745 26.6865 20.7224L26.6452 21.1985Z" fill="white"/>
</g>
<defs>
<clipPath id="clip0_2036_2461">
<rect width="96" height="58" fill="white"/>
</clipPath>
</defs>
</svg>
